%TF.GenerationSoftware,KiCad,Pcbnew,7.0.10*%
%TF.CreationDate,2024-01-10T20:22:15+00:00*%
%TF.ProjectId,Breakout,42726561-6b6f-4757-942e-6b696361645f,rev?*%
%TF.SameCoordinates,Original*%
%TF.FileFunction,Copper,L2,Bot*%
%TF.FilePolarity,Positive*%
%FSLAX46Y46*%
G04 Gerber Fmt 4.6, Leading zero omitted, Abs format (unit mm)*
G04 Created by KiCad (PCBNEW 7.0.10) date 2024-01-10 20:22:15*
%MOMM*%
%LPD*%
G01*
G04 APERTURE LIST*
%TA.AperFunction,ComponentPad*%
%ADD10R,1.700000X1.700000*%
%TD*%
%TA.AperFunction,ComponentPad*%
%ADD11O,1.700000X1.700000*%
%TD*%
%TA.AperFunction,ComponentPad*%
%ADD12C,1.400000*%
%TD*%
%TA.AperFunction,ComponentPad*%
%ADD13O,1.400000X1.400000*%
%TD*%
%TA.AperFunction,ComponentPad*%
%ADD14R,1.800000X1.800000*%
%TD*%
%TA.AperFunction,ComponentPad*%
%ADD15C,1.800000*%
%TD*%
%TA.AperFunction,ComponentPad*%
%ADD16O,1.600000X1.600000*%
%TD*%
%TA.AperFunction,ComponentPad*%
%ADD17R,1.600000X1.600000*%
%TD*%
%TA.AperFunction,WasherPad*%
%ADD18C,2.499360*%
%TD*%
%TA.AperFunction,ComponentPad*%
%ADD19C,2.499360*%
%TD*%
%TA.AperFunction,ComponentPad*%
%ADD20R,2.400000X1.600000*%
%TD*%
%TA.AperFunction,ComponentPad*%
%ADD21O,2.400000X1.600000*%
%TD*%
%TA.AperFunction,ComponentPad*%
%ADD22C,1.700000*%
%TD*%
%TA.AperFunction,ComponentPad*%
%ADD23R,1.000000X1.000000*%
%TD*%
%TA.AperFunction,ComponentPad*%
%ADD24O,1.000000X1.000000*%
%TD*%
%TA.AperFunction,ViaPad*%
%ADD25C,0.800000*%
%TD*%
%TA.AperFunction,Conductor*%
%ADD26C,0.300000*%
%TD*%
%TA.AperFunction,Conductor*%
%ADD27C,0.500000*%
%TD*%
%TA.AperFunction,Conductor*%
%ADD28C,0.250000*%
%TD*%
G04 APERTURE END LIST*
D10*
%TO.P,J6,1,Pin_1*%
%TO.N,XADC_INP0*%
X48260000Y-20955000D03*
D11*
%TO.P,J6,2,Pin_2*%
%TO.N,XADC_INN0*%
X50800000Y-20955000D03*
%TO.P,J6,3,Pin_3*%
%TO.N,XADC_VCC*%
X53340000Y-20955000D03*
%TO.P,J6,4,Pin_4*%
%TO.N,GND*%
X55880000Y-20955000D03*
%TD*%
D12*
%TO.P,R2,1*%
%TO.N,MIDI_IN*%
X83566000Y-98933000D03*
D13*
%TO.P,R2,2*%
%TO.N,+3.3V*%
X83566000Y-93853000D03*
%TD*%
D14*
%TO.P,D9,1,K*%
%TO.N,GND*%
X142494000Y-96774000D03*
D15*
%TO.P,D9,2,A*%
%TO.N,LED8*%
X139954000Y-96774000D03*
%TD*%
D14*
%TO.P,D2,1,K*%
%TO.N,GND*%
X106934000Y-96774000D03*
D15*
%TO.P,D2,2,A*%
%TO.N,LED1*%
X104394000Y-96774000D03*
%TD*%
D14*
%TO.P,D7,1,K*%
%TO.N,GND*%
X132334000Y-96774000D03*
D15*
%TO.P,D7,2,A*%
%TO.N,LED6*%
X129794000Y-96774000D03*
%TD*%
D16*
%TO.P,D1,2,A*%
%TO.N,Net-(D1-A)*%
X69342000Y-101600000D03*
D17*
%TO.P,D1,1,K*%
%TO.N,Net-(D1-K)*%
X69342000Y-93980000D03*
%TD*%
D18*
%TO.P,J2,*%
%TO.N,*%
X49621540Y-108994700D03*
X59624060Y-108994700D03*
D19*
%TO.P,J2,1*%
%TO.N,unconnected-(J2-Pad1)*%
X62120880Y-98999800D03*
%TO.P,J2,2*%
%TO.N,unconnected-(J2-Pad2)*%
X54622800Y-98997260D03*
%TO.P,J2,3*%
%TO.N,unconnected-(J2-Pad3)*%
X47124720Y-98999800D03*
%TO.P,J2,4*%
%TO.N,Net-(J2-Pad4)*%
X59618980Y-96497900D03*
%TO.P,J2,5*%
%TO.N,Net-(D1-A)*%
X49626620Y-96497900D03*
%TD*%
D14*
%TO.P,D5,1,K*%
%TO.N,GND*%
X122174000Y-96774000D03*
D15*
%TO.P,D5,2,A*%
%TO.N,LED4*%
X119634000Y-96774000D03*
%TD*%
D14*
%TO.P,D4,1,K*%
%TO.N,GND*%
X117094000Y-96774000D03*
D15*
%TO.P,D4,2,A*%
%TO.N,LED3*%
X114554000Y-96774000D03*
%TD*%
D10*
%TO.P,J5,1,Pin_1*%
%TO.N,+5V*%
X67310000Y-20955000D03*
D11*
%TO.P,J5,2,Pin_2*%
%TO.N,+3.3V*%
X69850000Y-20955000D03*
%TO.P,J5,3,Pin_3*%
%TO.N,GPIO_1*%
X72390000Y-20955000D03*
%TO.P,J5,4,Pin_4*%
%TO.N,GPIO_2*%
X74930000Y-20955000D03*
%TO.P,J5,5,Pin_5*%
%TO.N,GPIO_3*%
X77470000Y-20955000D03*
%TO.P,J5,6,Pin_6*%
%TO.N,GPIO_4*%
X80010000Y-20955000D03*
%TO.P,J5,7,Pin_7*%
%TO.N,GPIO_5*%
X82550000Y-20955000D03*
%TO.P,J5,8,Pin_8*%
%TO.N,GPIO_6*%
X85090000Y-20955000D03*
%TO.P,J5,9,Pin_9*%
%TO.N,GPIO_7*%
X87630000Y-20955000D03*
%TO.P,J5,10,Pin_10*%
%TO.N,GPIO_8*%
X90170000Y-20955000D03*
%TO.P,J5,11,Pin_11*%
%TO.N,GPIO_9*%
X92710000Y-20955000D03*
%TO.P,J5,12,Pin_12*%
%TO.N,GPIO_10*%
X95250000Y-20955000D03*
%TO.P,J5,13,Pin_13*%
%TO.N,GPIO_11*%
X97790000Y-20955000D03*
%TO.P,J5,14,Pin_14*%
%TO.N,GPIO_12*%
X100330000Y-20955000D03*
%TO.P,J5,15,Pin_15*%
%TO.N,GPIO_13*%
X102870000Y-20955000D03*
%TO.P,J5,16,Pin_16*%
%TO.N,GPIO_14*%
X105410000Y-20955000D03*
%TO.P,J5,17,Pin_17*%
%TO.N,GPIO_15*%
X107950000Y-20955000D03*
%TO.P,J5,18,Pin_18*%
%TO.N,GPIO_16*%
X110490000Y-20955000D03*
%TO.P,J5,19,Pin_19*%
%TO.N,GPIO_17*%
X113030000Y-20955000D03*
%TO.P,J5,20,Pin_20*%
%TO.N,GPIO_18*%
X115570000Y-20955000D03*
%TO.P,J5,21,Pin_21*%
%TO.N,GPIO_19*%
X118110000Y-20955000D03*
%TO.P,J5,22,Pin_22*%
%TO.N,GPIO_20*%
X120650000Y-20955000D03*
%TO.P,J5,23,Pin_23*%
%TO.N,GPIO_21*%
X123190000Y-20955000D03*
%TO.P,J5,24,Pin_24*%
%TO.N,GPIO_22*%
X125730000Y-20955000D03*
%TO.P,J5,25,Pin_25*%
%TO.N,GPIO_23*%
X128270000Y-20955000D03*
%TO.P,J5,26,Pin_26*%
%TO.N,GPIO_24*%
X130810000Y-20955000D03*
%TO.P,J5,27,Pin_27*%
%TO.N,GPIO_25*%
X133350000Y-20955000D03*
%TO.P,J5,28,Pin_28*%
%TO.N,GPIO_26*%
X135890000Y-20955000D03*
%TO.P,J5,29,Pin_29*%
%TO.N,GPIO_27*%
X138430000Y-20955000D03*
%TO.P,J5,30,Pin_30*%
%TO.N,GPIO_28*%
X140970000Y-20955000D03*
%TO.P,J5,31,Pin_31*%
%TO.N,GND*%
X143510000Y-20955000D03*
%TD*%
D20*
%TO.P,U1,1*%
%TO.N,Net-(D1-K)*%
X72400000Y-93970000D03*
D21*
%TO.P,U1,2*%
%TO.N,Net-(D1-A)*%
X72400000Y-96510000D03*
%TO.P,U1,3*%
%TO.N,unconnected-(U1-Pad3)*%
X72400000Y-99050000D03*
%TO.P,U1,4*%
%TO.N,MIDI_IN*%
X80020000Y-99050000D03*
%TO.P,U1,5*%
%TO.N,GND*%
X80020000Y-96510000D03*
%TO.P,U1,6*%
%TO.N,+3.3V*%
X80020000Y-93970000D03*
%TD*%
D10*
%TO.P,J4,1,Pin_1*%
%TO.N,BCLK*%
X86614000Y-106750000D03*
D11*
%TO.P,J4,2,Pin_2*%
%TO.N,DATA*%
X84074000Y-106750000D03*
%TO.P,J4,3,Pin_3*%
%TO.N,LRCLK*%
X81534000Y-106750000D03*
%TO.P,J4,4,Pin_4*%
%TO.N,GND*%
X78994000Y-106750000D03*
%TO.P,J4,5,Pin_5*%
X76454000Y-106750000D03*
%TO.P,J4,6,Pin_6*%
%TO.N,+5V*%
X73914000Y-106750000D03*
%TD*%
D14*
%TO.P,D3,1,K*%
%TO.N,GND*%
X112009000Y-96774000D03*
D15*
%TO.P,D3,2,A*%
%TO.N,LED2*%
X109469000Y-96774000D03*
%TD*%
D10*
%TO.P,J1,1,Pin_1*%
%TO.N,PMOD1_1*%
X115316000Y-104267000D03*
D11*
%TO.P,J1,2,Pin_2*%
%TO.N,PMOD1_2*%
X112776000Y-104267000D03*
%TO.P,J1,3,Pin_3*%
%TO.N,PMOD1_3*%
X110236000Y-104267000D03*
%TO.P,J1,4,Pin_4*%
%TO.N,PMOD1_4*%
X107696000Y-104267000D03*
%TO.P,J1,5,GND*%
%TO.N,GND*%
X105156000Y-104267000D03*
D22*
%TO.P,J1,6,VCC*%
%TO.N,+3.3V*%
X102616000Y-104267000D03*
D11*
%TO.P,J1,7,Pin_7*%
%TO.N,PMOD1_7*%
X115316000Y-106807000D03*
%TO.P,J1,8,Pin_8*%
%TO.N,PMOD1_8*%
X112776000Y-106807000D03*
%TO.P,J1,9,Pin_9*%
%TO.N,PMOD1_9*%
X110236000Y-106807000D03*
%TO.P,J1,10,Pin_10*%
%TO.N,PMOD1_10*%
X107696000Y-106807000D03*
%TO.P,J1,11,GND*%
%TO.N,GND*%
X105156000Y-106807000D03*
%TO.P,J1,12,VCC*%
%TO.N,+3.3V*%
X102616000Y-106807000D03*
%TD*%
D10*
%TO.P,J3,1,Pin_1*%
%TO.N,PMOD2_1*%
X141986000Y-104207000D03*
D11*
%TO.P,J3,2,Pin_2*%
%TO.N,PMOD2_2*%
X139446000Y-104207000D03*
%TO.P,J3,3,Pin_3*%
%TO.N,PMOD2_3*%
X136906000Y-104207000D03*
%TO.P,J3,4,Pin_4*%
%TO.N,PMOD2_4*%
X134366000Y-104207000D03*
%TO.P,J3,5,GND*%
%TO.N,GND*%
X131826000Y-104207000D03*
D22*
%TO.P,J3,6,VCC*%
%TO.N,+3.3V*%
X129286000Y-104207000D03*
D11*
%TO.P,J3,7,Pin_7*%
%TO.N,PMOD2_7*%
X141986000Y-106747000D03*
%TO.P,J3,8,Pin_8*%
%TO.N,PMOD2_8*%
X139446000Y-106747000D03*
%TO.P,J3,9,Pin_9*%
%TO.N,PMOD2_9*%
X136906000Y-106747000D03*
%TO.P,J3,10,Pin_10*%
%TO.N,PMOD2_10*%
X134366000Y-106747000D03*
%TO.P,J3,11,GND*%
%TO.N,GND*%
X131826000Y-106747000D03*
%TO.P,J3,12,VCC*%
%TO.N,+3.3V*%
X129286000Y-106747000D03*
%TD*%
D14*
%TO.P,D6,1,K*%
%TO.N,GND*%
X127254000Y-96774000D03*
D15*
%TO.P,D6,2,A*%
%TO.N,LED5*%
X124714000Y-96774000D03*
%TD*%
D13*
%TO.P,R1,2*%
%TO.N,Net-(D1-K)*%
X66675000Y-95885000D03*
D12*
%TO.P,R1,1*%
%TO.N,Net-(J2-Pad4)*%
X66675000Y-100965000D03*
%TD*%
D14*
%TO.P,D8,1,K*%
%TO.N,GND*%
X137414000Y-96774000D03*
D15*
%TO.P,D8,2,A*%
%TO.N,LED7*%
X134874000Y-96774000D03*
%TD*%
D23*
%TO.P,U2,CN1_1,VDD_5V*%
%TO.N,+5V*%
X71820000Y-85325000D03*
D24*
%TO.P,U2,CN1_2,GND*%
%TO.N,GND*%
X71820000Y-86595000D03*
%TO.P,U2,CN1_3,VDD_3.3V*%
%TO.N,+3.3V*%
X73090000Y-85325000D03*
%TO.P,U2,CN1_4,GND*%
%TO.N,GND*%
X73090000Y-86595000D03*
%TO.P,U2,CN1_5,VDD18_KEY_BACKUP*%
%TO.N,unconnected-(U2A-VDD18_KEY_BACKUP-PadCN1_5)*%
X74360000Y-85325000D03*
%TO.P,U2,CN1_6,JTAG_TCK*%
%TO.N,unconnected-(U2A-JTAG_TCK-PadCN1_6)*%
X74360000Y-86595000D03*
%TO.P,U2,CN1_7,IO_L11P_T1_13*%
%TO.N,unconnected-(U2A-IO_L11P_T1_13-PadCN1_7)*%
X75630000Y-85325000D03*
%TO.P,U2,CN1_8,JTAG_TMS*%
%TO.N,unconnected-(U2A-JTAG_TMS-PadCN1_8)*%
X75630000Y-86595000D03*
%TO.P,U2,CN1_9,IO_L11N_T1_13*%
%TO.N,unconnected-(U2A-IO_L11N_T1_13-PadCN1_9)*%
X76900000Y-85325000D03*
%TO.P,U2,CN1_10,JTAG_TDI*%
%TO.N,unconnected-(U2A-JTAG_TDI-PadCN1_10)*%
X76900000Y-86595000D03*
%TO.P,U2,CN1_11,IO_L12P_T1_13*%
%TO.N,unconnected-(U2A-IO_L12P_T1_13-PadCN1_11)*%
X78170000Y-85325000D03*
%TO.P,U2,CN1_12,JTAG_TDO*%
%TO.N,unconnected-(U2A-JTAG_TDO-PadCN1_12)*%
X78170000Y-86595000D03*
%TO.P,U2,CN1_13,IO_L12N_T1_13*%
%TO.N,unconnected-(U2A-IO_L12N_T1_13-PadCN1_13)*%
X79440000Y-85325000D03*
%TO.P,U2,CN1_14,JTAG_NTRST*%
%TO.N,unconnected-(U2A-JTAG_NTRST-PadCN1_14)*%
X79440000Y-86595000D03*
%TO.P,U2,CN1_15,VDDIO_13_PL*%
%TO.N,unconnected-(U2A-VDDIO_13_PL-PadCN1_15)*%
X80710000Y-85325000D03*
%TO.P,U2,CN1_16,IO_L14P_T2_13*%
%TO.N,MIDI_IN*%
X80710000Y-86595000D03*
%TO.P,U2,CN1_17,IO_L13P_T2_13*%
%TO.N,unconnected-(U2A-IO_L13P_T2_13-PadCN1_17)*%
X81980000Y-85325000D03*
%TO.P,U2,CN1_18,IO_L14N_T2_13*%
%TO.N,LRCLK*%
X81980000Y-86595000D03*
%TO.P,U2,CN1_19,IO_L13N_T2_13*%
%TO.N,unconnected-(U2A-IO_L13N_T2_13-PadCN1_19)*%
X83250000Y-85325000D03*
%TO.P,U2,CN1_20,IO_L21P_T3_13*%
%TO.N,DATA*%
X83250000Y-86595000D03*
%TO.P,U2,CN1_21,IO_L15P_T2_13*%
%TO.N,unconnected-(U2A-IO_L15P_T2_13-PadCN1_21)*%
X84520000Y-85325000D03*
%TO.P,U2,CN1_22,IO_L21N_T3_13*%
%TO.N,BCLK*%
X84520000Y-86595000D03*
%TO.P,U2,CN1_23,IO_L15N_T2_13*%
%TO.N,unconnected-(U2A-IO_L15N_T2_13-PadCN1_23)*%
X85790000Y-85325000D03*
%TO.P,U2,CN1_24,GND*%
%TO.N,GND*%
X85790000Y-86595000D03*
%TO.P,U2,CN1_25,GND*%
X87060000Y-85325000D03*
%TO.P,U2,CN1_26,IO_L1P_T0_34*%
%TO.N,PMOD1_10*%
X87060000Y-86595000D03*
%TO.P,U2,CN1_27,IO_L2P_T0_34*%
%TO.N,unconnected-(U2A-IO_L2P_T0_34-PadCN1_27)*%
X88330000Y-85325000D03*
%TO.P,U2,CN1_28,IO_L1N_T0_34*%
%TO.N,PMOD1_9*%
X88330000Y-86595000D03*
%TO.P,U2,CN1_29,IO_L2N_T0_34*%
%TO.N,unconnected-(U2A-IO_L2N_T0_34-PadCN1_29)*%
X89600000Y-85325000D03*
%TO.P,U2,CN1_30,IO_L3P_T0_34*%
%TO.N,PMOD1_8*%
X89600000Y-86595000D03*
%TO.P,U2,CN1_31,IO_L4P_T0_34*%
%TO.N,unconnected-(U2A-IO_L4P_T0_34-PadCN1_31)*%
X90870000Y-85325000D03*
%TO.P,U2,CN1_32,IO_L3N_T0_34*%
%TO.N,PMOD1_7*%
X90870000Y-86595000D03*
%TO.P,U2,CN1_33,IO_L4N_T0_34*%
%TO.N,unconnected-(U2A-IO_L4N_T0_34-PadCN1_33)*%
X92140000Y-85325000D03*
%TO.P,U2,CN1_34,GND*%
%TO.N,GND*%
X92140000Y-86595000D03*
%TO.P,U2,CN1_35,GND*%
X93410000Y-85325000D03*
%TO.P,U2,CN1_36,IO_L5P_T0_34*%
%TO.N,PMOD1_4*%
X93410000Y-86595000D03*
%TO.P,U2,CN1_37,IO_L6P_T0_34*%
%TO.N,unconnected-(U2A-IO_L6P_T0_34-PadCN1_37)*%
X94680000Y-85325000D03*
%TO.P,U2,CN1_38,IO_L5N_T0_34*%
%TO.N,PMOD1_3*%
X94680000Y-86595000D03*
%TO.P,U2,CN1_39,IO_L6N_T0_34*%
%TO.N,unconnected-(U2A-IO_L6N_T0_34-PadCN1_39)*%
X95950000Y-85325000D03*
%TO.P,U2,CN1_40,IO_L7P_T1_34*%
%TO.N,PMOD1_2*%
X95950000Y-86595000D03*
%TO.P,U2,CN1_41,IO_L8P_T1_34*%
%TO.N,unconnected-(U2A-IO_L8P_T1_34-PadCN1_41)*%
X97220000Y-85325000D03*
%TO.P,U2,CN1_42,IO_L7N_T1_34*%
%TO.N,PMOD1_1*%
X97220000Y-86595000D03*
%TO.P,U2,CN1_43,IO_L8N_T1_34*%
%TO.N,unconnected-(U2A-IO_L8N_T1_34-PadCN1_43)*%
X98490000Y-85325000D03*
%TO.P,U2,CN1_44,GND*%
%TO.N,GND*%
X98490000Y-86595000D03*
%TO.P,U2,CN1_45,IO_L11P_T1_34*%
%TO.N,unconnected-(U2A-IO_L11P_T1_34-PadCN1_45)*%
X99760000Y-85325000D03*
%TO.P,U2,CN1_46,IO_L10P_T1_34*%
%TO.N,PMOD2_10*%
X99760000Y-86595000D03*
%TO.P,U2,CN1_47,IO_L11N_T1_34*%
%TO.N,unconnected-(U2A-IO_L11N_T1_34-PadCN1_47)*%
X101030000Y-85325000D03*
%TO.P,U2,CN1_48,IO_L10N_T1_34*%
%TO.N,PMOD2_9*%
X101030000Y-86595000D03*
%TO.P,U2,CN1_49,VDDIO_34_PL*%
%TO.N,unconnected-(U2A-VDDIO_34_PL-PadCN1_49)*%
X102300000Y-85325000D03*
%TO.P,U2,CN1_50,IO_L13P_T2_34*%
%TO.N,PMOD2_8*%
X102300000Y-86595000D03*
%TO.P,U2,CN1_51,IO_L9P_T1_34*%
%TO.N,unconnected-(U2A-IO_L9P_T1_34-PadCN1_51)*%
X103570000Y-85325000D03*
%TO.P,U2,CN1_52,IO_L13N_T2_34*%
%TO.N,PMOD2_7*%
X103570000Y-86595000D03*
%TO.P,U2,CN1_53,IO_L15P_T2_34*%
%TO.N,unconnected-(U2A-IO_L15P_T2_34-PadCN1_53)*%
X104840000Y-85325000D03*
%TO.P,U2,CN1_54,GND*%
%TO.N,GND*%
X104840000Y-86595000D03*
%TO.P,U2,CN1_55,IO_L12P_T1_34*%
%TO.N,unconnected-(U2A-IO_L12P_T1_34-PadCN1_55)*%
X106110000Y-85325000D03*
%TO.P,U2,CN1_56,IO_L15P_T2_34*%
%TO.N,PMOD2_4*%
X106110000Y-86595000D03*
%TO.P,U2,CN1_57,IO_L12N_T1_34*%
%TO.N,unconnected-(U2A-IO_L12N_T1_34-PadCN1_57)*%
X107380000Y-85325000D03*
%TO.P,U2,CN1_58,IO_L15N_T2_34*%
%TO.N,PMOD2_3*%
X107380000Y-86595000D03*
%TO.P,U2,CN1_59,IO_L14P_T2_34*%
%TO.N,unconnected-(U2A-IO_L14P_T2_34-PadCN1_59)*%
X108650000Y-85325000D03*
%TO.P,U2,CN1_60,IO_L17P_T2_34*%
%TO.N,PMOD2_2*%
X108650000Y-86595000D03*
%TO.P,U2,CN1_61,IO_L14N_T2_34*%
%TO.N,unconnected-(U2A-IO_L14N_T2_34-PadCN1_61)*%
X109920000Y-85325000D03*
%TO.P,U2,CN1_62,IO_L17N_T2_34*%
%TO.N,PMOD2_1*%
X109920000Y-86595000D03*
%TO.P,U2,CN1_63,IO_L16P_T2_34*%
%TO.N,unconnected-(U2A-IO_L16P_T2_34-PadCN1_63)*%
X111190000Y-85325000D03*
%TO.P,U2,CN1_64,IO_L19P_T3_34*%
%TO.N,LED1*%
X111190000Y-86595000D03*
%TO.P,U2,CN1_65,IO_L16N_T2_34*%
%TO.N,unconnected-(U2A-IO_L16N_T2_34-PadCN1_65)*%
X112460000Y-85325000D03*
%TO.P,U2,CN1_66,IO_L19N_T3_34*%
%TO.N,LED2*%
X112460000Y-86595000D03*
%TO.P,U2,CN1_67,GND*%
%TO.N,GND*%
X113730000Y-85325000D03*
%TO.P,U2,CN1_68,GND*%
X113730000Y-86595000D03*
%TO.P,U2,CN1_69,IO_L18N_T2_34*%
%TO.N,unconnected-(U2A-IO_L18N_T2_34-PadCN1_69)*%
X115000000Y-85325000D03*
%TO.P,U2,CN1_70,IO_L18P_T2_34*%
%TO.N,LED3*%
X115000000Y-86595000D03*
%TO.P,U2,CN1_71,IO_L20P_T3_34*%
%TO.N,unconnected-(U2A-IO_L20P_T3_34-PadCN1_71)*%
X116270000Y-85325000D03*
%TO.P,U2,CN1_72,IO_L20N_T3_34*%
%TO.N,LED4*%
X116270000Y-86595000D03*
%TO.P,U2,CN1_73,IO_L21N_T3_34*%
%TO.N,unconnected-(U2A-IO_L21N_T3_34-PadCN1_73)*%
X117540000Y-85325000D03*
%TO.P,U2,CN1_74,IO_L21P_T3_34*%
%TO.N,LED5*%
X117540000Y-86595000D03*
%TO.P,U2,CN1_75,IO_L22P_T3_34*%
%TO.N,unconnected-(U2A-IO_L22P_T3_34-PadCN1_75)*%
X118810000Y-85325000D03*
%TO.P,U2,CN1_76,IO_L24P_T3_34*%
%TO.N,LED6*%
X118810000Y-86595000D03*
%TO.P,U2,CN1_77,IO_L22N_T3_34*%
%TO.N,unconnected-(U2A-IO_L22N_T3_34-PadCN1_77)*%
X120080000Y-85325000D03*
%TO.P,U2,CN1_78,IO_L24N_T3_34*%
%TO.N,LED7*%
X120080000Y-86595000D03*
%TO.P,U2,CN1_79,IO_L23P_T3_34*%
%TO.N,unconnected-(U2A-IO_L23P_T3_34-PadCN1_79)*%
X121350000Y-85325000D03*
%TO.P,U2,CN1_80,IO_L23N_T3_34*%
%TO.N,LED8*%
X121350000Y-86595000D03*
D23*
%TO.P,U2,CN2_1,VDD_5V*%
%TO.N,+5V*%
X71820000Y-32475000D03*
D24*
%TO.P,U2,CN2_2,GND*%
%TO.N,GND*%
X71820000Y-33745000D03*
%TO.P,U2,CN2_3,VDD_3.3V*%
%TO.N,+3.3V*%
X73090000Y-32475000D03*
%TO.P,U2,CN2_4,GND*%
%TO.N,GND*%
X73090000Y-33745000D03*
%TO.P,U2,CN2_5,XADC_INP0*%
%TO.N,XADC_INP0*%
X74360000Y-32475000D03*
%TO.P,U2,CN2_6,DXP_0*%
%TO.N,unconnected-(U2B-DXP_0-PadCN2_6)*%
X74360000Y-33745000D03*
%TO.P,U2,CN2_7,XADC_INN0*%
%TO.N,XADC_INN0*%
X75630000Y-32475000D03*
%TO.P,U2,CN2_8,DXN_0*%
%TO.N,unconnected-(U2B-DXN_0-PadCN2_8)*%
X75630000Y-33745000D03*
%TO.P,U2,CN2_9,XADC_VCC*%
%TO.N,XADC_VCC*%
X76900000Y-32475000D03*
%TO.P,U2,CN2_10,GND*%
%TO.N,GND*%
X76900000Y-33745000D03*
%TO.P,U2,CN2_11,PS_MIO0_500*%
%TO.N,GPIO_1*%
X78170000Y-32475000D03*
%TO.P,U2,CN2_12,PS_MIO10_500*%
%TO.N,unconnected-(U2B-PS_MIO10_500-PadCN2_12)*%
X78170000Y-33745000D03*
%TO.P,U2,CN2_13,PS_MIO8_500*%
%TO.N,GPIO_2*%
X79440000Y-32475000D03*
%TO.P,U2,CN2_14,PS_MIO11_500*%
%TO.N,unconnected-(U2B-PS_MIO11_500-PadCN2_14)*%
X79440000Y-33745000D03*
%TO.P,U2,CN2_15,PS_MIO9_500*%
%TO.N,GPIO_3*%
X80710000Y-32475000D03*
%TO.P,U2,CN2_16,PS_MIO14_500*%
%TO.N,unconnected-(U2B-PS_MIO14_500-PadCN2_16)*%
X80710000Y-33745000D03*
%TO.P,U2,CN2_17,PS_MIO12_500*%
%TO.N,GPIO_4*%
X81980000Y-32475000D03*
%TO.P,U2,CN2_18,PS_MIO15_500*%
%TO.N,unconnected-(U2B-PS_MIO15_500-PadCN2_18)*%
X81980000Y-33745000D03*
%TO.P,U2,CN2_19,PS_MIO13_500*%
%TO.N,GPIO_5*%
X83250000Y-32475000D03*
%TO.P,U2,CN2_20,GND*%
%TO.N,GND*%
X83250000Y-33745000D03*
%TO.P,U2,CN2_21,GND*%
X84520000Y-32475000D03*
%TO.P,U2,CN2_22,IO_L2P_T0_35*%
%TO.N,unconnected-(U2B-IO_L2P_T0_35-PadCN2_22)*%
X84520000Y-33745000D03*
%TO.P,U2,CN2_23,IO_L1P_T0_35*%
%TO.N,GPIO_6*%
X85790000Y-32475000D03*
%TO.P,U2,CN2_24,IO_L2N_T0_35*%
%TO.N,unconnected-(U2B-IO_L2N_T0_35-PadCN2_24)*%
X85790000Y-33745000D03*
%TO.P,U2,CN2_25,IO_L18N_T2_35*%
%TO.N,GPIO_7*%
X87060000Y-32475000D03*
%TO.P,U2,CN2_26,IO_L4P_T0_35*%
%TO.N,unconnected-(U2B-IO_L4P_T0_35-PadCN2_26)*%
X87060000Y-33745000D03*
%TO.P,U2,CN2_27,IO_L3P_T0_35*%
%TO.N,GPIO_8*%
X88330000Y-32475000D03*
%TO.P,U2,CN2_28,IO_L4N_T0_35*%
%TO.N,unconnected-(U2B-IO_L4N_T0_35-PadCN2_28)*%
X88330000Y-33745000D03*
%TO.P,U2,CN2_29,IO_L3N_T0_35*%
%TO.N,GPIO_9*%
X89600000Y-32475000D03*
%TO.P,U2,CN2_30,GND*%
%TO.N,GND*%
X89600000Y-33745000D03*
%TO.P,U2,CN2_31,GND*%
X90870000Y-32475000D03*
%TO.P,U2,CN2_32,IO_L6P_T0_35*%
%TO.N,unconnected-(U2B-IO_L6P_T0_35-PadCN2_32)*%
X90870000Y-33745000D03*
%TO.P,U2,CN2_33,IO_L5P_T0_35*%
%TO.N,GPIO_10*%
X92140000Y-32475000D03*
%TO.P,U2,CN2_34,IO_L6N_T0_35*%
%TO.N,unconnected-(U2B-IO_L6N_T0_35-PadCN2_34)*%
X92140000Y-33745000D03*
%TO.P,U2,CN2_35,IO_L5N_T0_35*%
%TO.N,GPIO_11*%
X93410000Y-32475000D03*
%TO.P,U2,CN2_36,IO_L8P_T1_35*%
%TO.N,unconnected-(U2B-IO_L8P_T1_35-PadCN2_36)*%
X93410000Y-33745000D03*
%TO.P,U2,CN2_37,IO_L7P_T1_35*%
%TO.N,GPIO_12*%
X94680000Y-32475000D03*
%TO.P,U2,CN2_38,IO_L8N_T1_35*%
%TO.N,unconnected-(U2B-IO_L8N_T1_35-PadCN2_38)*%
X94680000Y-33745000D03*
%TO.P,U2,CN2_39,IO_L7N_T1_35*%
%TO.N,GPIO_13*%
X95950000Y-32475000D03*
%TO.P,U2,CN2_40,GND*%
%TO.N,GND*%
X95950000Y-33745000D03*
%TO.P,U2,CN2_41,GND*%
X97220000Y-32475000D03*
%TO.P,U2,CN2_42,IO_L10P_T1_35*%
%TO.N,unconnected-(U2B-IO_L10P_T1_35-PadCN2_42)*%
X97220000Y-33745000D03*
%TO.P,U2,CN2_43,IO_L9P_T1_35*%
%TO.N,GPIO_14*%
X98490000Y-32475000D03*
%TO.P,U2,CN2_44,IO_L10N_T1_35*%
%TO.N,unconnected-(U2B-IO_L10N_T1_35-PadCN2_44)*%
X98490000Y-33745000D03*
%TO.P,U2,CN2_45,IO_L9N_T1_35*%
%TO.N,GPIO_15*%
X99760000Y-32475000D03*
%TO.P,U2,CN2_46,IO_L12P_T1_35*%
%TO.N,unconnected-(U2B-IO_L12P_T1_35-PadCN2_46)*%
X99760000Y-33745000D03*
%TO.P,U2,CN2_47,IO_L11P_T1_35*%
%TO.N,GPIO_16*%
X101030000Y-32475000D03*
%TO.P,U2,CN2_48,IO_L12N_T1_35*%
%TO.N,unconnected-(U2B-IO_L12N_T1_35-PadCN2_48)*%
X101030000Y-33745000D03*
%TO.P,U2,CN2_49,IO_L11N_T1_35*%
%TO.N,GPIO_17*%
X102300000Y-32475000D03*
%TO.P,U2,CN2_50,GND*%
%TO.N,GND*%
X102300000Y-33745000D03*
%TO.P,U2,CN2_51,VDDIO_35_PL*%
%TO.N,unconnected-(U2B-VDDIO_35_PL-PadCN2_51)*%
X103570000Y-32475000D03*
%TO.P,U2,CN2_52,IO_L14P_T2_35*%
%TO.N,unconnected-(U2B-IO_L14P_T2_35-PadCN2_52)*%
X103570000Y-33745000D03*
%TO.P,U2,CN2_53,IO_L13P_35*%
%TO.N,GPIO_18*%
X104840000Y-32475000D03*
%TO.P,U2,CN2_54,IO_L14N_T2_35*%
%TO.N,unconnected-(U2B-IO_L14N_T2_35-PadCN2_54)*%
X104840000Y-33745000D03*
%TO.P,U2,CN2_55,IO_L13N_35*%
%TO.N,GPIO_19*%
X106110000Y-32475000D03*
%TO.P,U2,CN2_56,IO_L16P_T2_35*%
%TO.N,unconnected-(U2B-IO_L16P_T2_35-PadCN2_56)*%
X106110000Y-33745000D03*
%TO.P,U2,CN2_57,IO_L15P_T2_35*%
%TO.N,GPIO_20*%
X107380000Y-32475000D03*
%TO.P,U2,CN2_58,IO_L16N_T2_35*%
%TO.N,unconnected-(U2B-IO_L16N_T2_35-PadCN2_58)*%
X107380000Y-33745000D03*
%TO.P,U2,CN2_59,IO_L15N_T2_35*%
%TO.N,GPIO_21*%
X108650000Y-32475000D03*
%TO.P,U2,CN2_60,GND*%
%TO.N,GND*%
X108650000Y-33745000D03*
%TO.P,U2,CN2_61,GND*%
X109920000Y-32475000D03*
%TO.P,U2,CN2_62,IO_L18P_T2_35*%
%TO.N,unconnected-(U2B-IO_L18P_T2_35-PadCN2_62)*%
X109920000Y-33745000D03*
%TO.P,U2,CN2_63,IO_L17P_T2_35*%
%TO.N,GPIO_22*%
X111190000Y-32475000D03*
%TO.P,U2,CN2_64,IO_L18N_T2_35*%
%TO.N,unconnected-(U2B-IO_L18N_T2_35-PadCN2_64)*%
X111190000Y-33745000D03*
%TO.P,U2,CN2_65,IO_L17N_T2_35*%
%TO.N,GPIO_23*%
X112460000Y-32475000D03*
%TO.P,U2,CN2_66,IO_L20P_T3_35*%
%TO.N,unconnected-(U2B-IO_L20P_T3_35-PadCN2_66)*%
X112460000Y-33745000D03*
%TO.P,U2,CN2_67,IO_L19P_T3_35*%
%TO.N,GPIO_24*%
X113730000Y-32475000D03*
%TO.P,U2,CN2_68,IO_L20N_T3_35*%
%TO.N,unconnected-(U2B-IO_L20N_T3_35-PadCN2_68)*%
X113730000Y-33745000D03*
%TO.P,U2,CN2_69,IO_L19N_T3_35*%
%TO.N,GPIO_25*%
X115000000Y-32475000D03*
%TO.P,U2,CN2_70,GND*%
%TO.N,GND*%
X115000000Y-33745000D03*
%TO.P,U2,CN2_71,GND*%
X116270000Y-32475000D03*
%TO.P,U2,CN2_72,IO_L22P_T3_35*%
%TO.N,unconnected-(U2B-IO_L22P_T3_35-PadCN2_72)*%
X116270000Y-33745000D03*
%TO.P,U2,CN2_73,IO_L21P_T3_35*%
%TO.N,GPIO_26*%
X117540000Y-32475000D03*
%TO.P,U2,CN2_74,IO_L22N_T3_35*%
%TO.N,unconnected-(U2B-IO_L22N_T3_35-PadCN2_74)*%
X117540000Y-33745000D03*
%TO.P,U2,CN2_75,IO_L21N_T3_35*%
%TO.N,GPIO_27*%
X118810000Y-32475000D03*
%TO.P,U2,CN2_76,IO_L24P_T3_35*%
%TO.N,unconnected-(U2B-IO_L24P_T3_35-PadCN2_76)*%
X118810000Y-33745000D03*
%TO.P,U2,CN2_77,IO_L23P_T3_35*%
%TO.N,GPIO_28*%
X120080000Y-32475000D03*
%TO.P,U2,CN2_78,IO_L24N_T3_35*%
%TO.N,unconnected-(U2B-IO_L24N_T3_35-PadCN2_78)*%
X120080000Y-33745000D03*
%TO.P,U2,CN2_79,IO_L23N_T3_35*%
%TO.N,unconnected-(U2B-IO_L23N_T3_35-PadCN2_79)*%
X121350000Y-32475000D03*
%TO.P,U2,CN2_80,GND*%
%TO.N,GND*%
X121350000Y-33745000D03*
%TD*%
D25*
%TO.N,GND*%
X108331000Y-100203000D03*
X80137000Y-90297000D03*
X83947000Y-102743000D03*
X83185000Y-89535000D03*
X125222000Y-106426000D03*
X70612000Y-65278000D03*
X99314000Y-90932000D03*
X107950000Y-89535000D03*
X109728000Y-93980000D03*
%TO.N,LED1*%
X107392700Y-93803700D03*
%TO.N,+5V*%
X68199300Y-32466900D03*
%TD*%
D26*
%TO.N,LRCLK*%
X81980000Y-106304000D02*
X81980000Y-86595000D01*
X81534000Y-106750000D02*
X81980000Y-106304000D01*
%TO.N,MIDI_IN*%
X80137000Y-98933000D02*
X80020000Y-99050000D01*
X78470000Y-88835000D02*
X80710000Y-86595000D01*
X78470000Y-98917000D02*
X78470000Y-88835000D01*
X78603000Y-99050000D02*
X78470000Y-98917000D01*
X80020000Y-99050000D02*
X78603000Y-99050000D01*
%TO.N,Net-(D1-K)*%
X68580000Y-93980000D02*
X66675000Y-95885000D01*
X69342000Y-93980000D02*
X68580000Y-93980000D01*
X72390000Y-93980000D02*
X72400000Y-93970000D01*
X69342000Y-93980000D02*
X72390000Y-93980000D01*
D27*
%TO.N,+5V*%
X71288600Y-89958600D02*
X74764000Y-93434000D01*
X70866500Y-89958600D02*
X71288600Y-89958600D01*
X74764000Y-93434000D02*
X74764000Y-105900000D01*
X74764000Y-105900000D02*
X73914000Y-106750000D01*
%TO.N,+3.3V*%
X73090000Y-39054000D02*
X69850000Y-35814000D01*
X73090000Y-85325000D02*
X73090000Y-39054000D01*
X69850000Y-35814000D02*
X69850000Y-27686000D01*
X73090000Y-32475000D02*
X73090000Y-30926000D01*
X69850000Y-20955000D02*
X69850000Y-27686000D01*
X73090000Y-30926000D02*
X69850000Y-27686000D01*
D28*
%TO.N,GPIO_28*%
X130275000Y-31650000D02*
X140970000Y-20955000D01*
X120905000Y-31650000D02*
X130275000Y-31650000D01*
X120080000Y-32475000D02*
X120905000Y-31650000D01*
%TO.N,GPIO_27*%
X130545000Y-28840000D02*
X138430000Y-20955000D01*
X122445000Y-28840000D02*
X130545000Y-28840000D01*
X118810000Y-32475000D02*
X122445000Y-28840000D01*
%TO.N,GPIO_26*%
X128455000Y-28390000D02*
X135890000Y-20955000D01*
X121625000Y-28390000D02*
X128455000Y-28390000D01*
X117540000Y-32475000D02*
X121625000Y-28390000D01*
%TO.N,GPIO_25*%
X119507000Y-27940000D02*
X126365000Y-27940000D01*
X126365000Y-27940000D02*
X133350000Y-20955000D01*
X115825000Y-31622000D02*
X119507000Y-27940000D01*
X115825000Y-31650000D02*
X115825000Y-31622000D01*
X115000000Y-32475000D02*
X115825000Y-31650000D01*
%TO.N,GPIO_24*%
X124587000Y-27178000D02*
X130810000Y-20955000D01*
X119027000Y-27178000D02*
X124587000Y-27178000D01*
X113730000Y-32475000D02*
X119027000Y-27178000D01*
%TO.N,GPIO_23*%
X118392000Y-26543000D02*
X122682000Y-26543000D01*
X122682000Y-26543000D02*
X128270000Y-20955000D01*
X112460000Y-32475000D02*
X118392000Y-26543000D01*
%TO.N,GPIO_22*%
X117729000Y-25908000D02*
X120777000Y-25908000D01*
X116542900Y-27094100D02*
X117729000Y-25908000D01*
X116542900Y-27122100D02*
X116542900Y-27094100D01*
X120777000Y-25908000D02*
X125730000Y-20955000D01*
D26*
%TO.N,GPIO_21*%
X115951000Y-25146000D02*
X118999000Y-25146000D01*
X118999000Y-25146000D02*
X123190000Y-20955000D01*
X114477900Y-26619100D02*
X115951000Y-25146000D01*
X108650000Y-32475000D02*
X114477900Y-26647100D01*
X114477900Y-26647100D02*
X114477900Y-26619100D01*
%TO.N,GPIO_12*%
X94680000Y-26605000D02*
X100330000Y-20955000D01*
X94680000Y-32475000D02*
X94680000Y-26605000D01*
D28*
%TO.N,GPIO_20*%
X117729000Y-23876000D02*
X118237000Y-23368000D01*
X109383400Y-30443600D02*
X115951000Y-23876000D01*
X115951000Y-23876000D02*
X117729000Y-23876000D01*
X109383400Y-30471600D02*
X109383400Y-30443600D01*
X120650000Y-20955000D02*
X118237000Y-23368000D01*
%TO.N,PMOD2_4*%
X128682600Y-105572000D02*
X126111000Y-103000400D01*
X133001000Y-105572000D02*
X128682600Y-105572000D01*
X134366000Y-104207000D02*
X133001000Y-105572000D01*
D26*
X126111000Y-103000400D02*
X113939800Y-103000400D01*
D28*
%TO.N,LED1*%
X111190000Y-86595000D02*
X111190000Y-90006400D01*
X111190000Y-90006400D02*
X107392700Y-93803700D01*
%TO.N,LED2*%
X112460000Y-86595000D02*
X112460000Y-93783000D01*
X112460000Y-93783000D02*
X109469000Y-96774000D01*
%TO.N,LED3*%
X115000000Y-96328000D02*
X114554000Y-96774000D01*
X115000000Y-86595000D02*
X115000000Y-96328000D01*
%TO.N,LED4*%
X116270000Y-86595000D02*
X116270000Y-93410000D01*
X116270000Y-93410000D02*
X119634000Y-96774000D01*
%TO.N,LED5*%
X117540000Y-89600000D02*
X124714000Y-96774000D01*
X117540000Y-86595000D02*
X117540000Y-89600000D01*
%TO.N,LED6*%
X129794000Y-96774000D02*
X128116700Y-95096700D01*
X127311700Y-95096700D02*
X118810000Y-86595000D01*
X128116700Y-95096700D02*
X127311700Y-95096700D01*
%TO.N,LED7*%
X122469700Y-88984700D02*
X127084700Y-88984700D01*
X127084700Y-88984700D02*
X134874000Y-96774000D01*
X120080000Y-86595000D02*
X122469700Y-88984700D01*
%TO.N,PMOD1_2*%
X95950000Y-86595000D02*
X95950000Y-91122604D01*
X107120396Y-102293000D02*
X110802000Y-102293000D01*
X110802000Y-102293000D02*
X112776000Y-104267000D01*
X95950000Y-91122604D02*
X107120396Y-102293000D01*
%TO.N,PMOD1_3*%
X106934000Y-102743000D02*
X108712000Y-102743000D01*
X94680000Y-90489000D02*
X106934000Y-102743000D01*
X108712000Y-102743000D02*
X110236000Y-104267000D01*
X109490700Y-104267000D02*
X110236000Y-104267000D01*
X94680000Y-86595000D02*
X94680000Y-90489000D01*
%TO.N,PMOD1_4*%
X93410000Y-89981000D02*
X93410000Y-86595000D01*
X107696000Y-104267000D02*
X93410000Y-89981000D01*
D27*
%TO.N,+3.3V*%
X73090000Y-32105900D02*
X73090000Y-32475000D01*
D28*
%TO.N,PMOD1_9*%
X106332900Y-104604300D02*
X106332900Y-103685700D01*
X107172500Y-105443900D02*
X106332900Y-104604300D01*
X89265100Y-87530100D02*
X88330000Y-86595000D01*
X110236000Y-106807000D02*
X108872900Y-105443900D01*
X108872900Y-105443900D02*
X107172500Y-105443900D01*
X106332900Y-103685700D02*
X90177300Y-87530100D01*
X90177300Y-87530100D02*
X89265100Y-87530100D01*
%TO.N,Net-(J2-Pad4)*%
X62207900Y-96497900D02*
X66675000Y-100965000D01*
X59619000Y-96497900D02*
X62207900Y-96497900D01*
%TO.N,PMOD2_4*%
X106110000Y-93596900D02*
X106110000Y-86595000D01*
X108201500Y-95688400D02*
X106110000Y-93596900D01*
X113939800Y-103000400D02*
X108201500Y-97262100D01*
X108201500Y-97262100D02*
X108201500Y-95688400D01*
%TO.N,PMOD2_8*%
X108920500Y-98706500D02*
X114137900Y-103923900D01*
X102300000Y-86595000D02*
X102300000Y-90719800D01*
X138240900Y-107952100D02*
X139446000Y-106747000D01*
X119833300Y-107952100D02*
X138240900Y-107952100D01*
X114330600Y-105443900D02*
X117325100Y-105443900D01*
X106572600Y-98706500D02*
X108920500Y-98706500D01*
X105664000Y-94083800D02*
X105664000Y-97797900D01*
X114137900Y-105251200D02*
X114330600Y-105443900D01*
X117325100Y-105443900D02*
X119833300Y-107952100D01*
X105664000Y-97797900D02*
X106572600Y-98706500D01*
X102300000Y-90719800D02*
X105664000Y-94083800D01*
X114137900Y-103923900D02*
X114137900Y-105251200D01*
%TO.N,BCLK*%
X86275900Y-106411900D02*
X86275900Y-88350900D01*
X86275900Y-88350900D02*
X84520000Y-86595000D01*
X86614000Y-106750000D02*
X86275900Y-106411900D01*
%TO.N,DATA*%
X85130600Y-88475600D02*
X83250000Y-86595000D01*
X85130600Y-105693400D02*
X85130600Y-88475600D01*
X84074000Y-106750000D02*
X85130600Y-105693400D01*
D27*
%TO.N,+5V*%
X71740800Y-85325000D02*
X68199300Y-81783500D01*
X70866500Y-89958600D02*
X70866500Y-86199300D01*
X70866500Y-86199300D02*
X71740800Y-85325000D01*
X67310000Y-31577600D02*
X67310000Y-20955000D01*
X68199300Y-81783500D02*
X68199300Y-32466900D01*
X71740800Y-85325000D02*
X71820000Y-85325000D01*
X68199300Y-32466900D02*
X67310000Y-31577600D01*
D28*
%TO.N,GPIO_1*%
X72390000Y-20955000D02*
X72390000Y-26695000D01*
X72390000Y-26695000D02*
X78170000Y-32475000D01*
%TO.N,GPIO_2*%
X74930000Y-20955000D02*
X74930000Y-27965000D01*
X74930000Y-27965000D02*
X79440000Y-32475000D01*
%TO.N,GPIO_3*%
X77470000Y-20955000D02*
X77470000Y-29235000D01*
X77470000Y-29235000D02*
X80710000Y-32475000D01*
%TO.N,GPIO_4*%
X80010000Y-20955000D02*
X81980000Y-22925000D01*
X81980000Y-22925000D02*
X81980000Y-32475000D01*
%TO.N,GPIO_5*%
X83250000Y-21655000D02*
X83250000Y-32475000D01*
X82550000Y-20955000D02*
X83250000Y-21655000D01*
%TO.N,GPIO_6*%
X85790000Y-21655000D02*
X85790000Y-32475000D01*
X85090000Y-20955000D02*
X85790000Y-21655000D01*
%TO.N,GPIO_7*%
X87630000Y-20955000D02*
X87060000Y-21525000D01*
X87060000Y-21525000D02*
X87060000Y-32475000D01*
%TO.N,GPIO_8*%
X88330000Y-22795000D02*
X88330000Y-32475000D01*
X90170000Y-20955000D02*
X88330000Y-22795000D01*
%TO.N,GPIO_9*%
X89600000Y-24065000D02*
X89600000Y-32475000D01*
X92710000Y-20955000D02*
X89600000Y-24065000D01*
%TO.N,GPIO_10*%
X92140000Y-24065000D02*
X95250000Y-20955000D01*
X92140000Y-32475000D02*
X92140000Y-24065000D01*
%TO.N,GPIO_11*%
X97790000Y-20955000D02*
X93410000Y-25335000D01*
X93410000Y-25335000D02*
X93410000Y-32475000D01*
%TO.N,GPIO_13*%
X95950000Y-27875000D02*
X95950000Y-32475000D01*
X102870000Y-20955000D02*
X95950000Y-27875000D01*
%TO.N,GPIO_14*%
X98490000Y-27875000D02*
X105410000Y-20955000D01*
X98490000Y-32475000D02*
X98490000Y-27875000D01*
%TO.N,GPIO_15*%
X99760000Y-29145000D02*
X99760000Y-32475000D01*
X107950000Y-20955000D02*
X99760000Y-29145000D01*
%TO.N,GPIO_16*%
X101030000Y-30415000D02*
X101030000Y-32475000D01*
X110490000Y-20955000D02*
X101030000Y-30415000D01*
%TO.N,GPIO_17*%
X113030000Y-20955000D02*
X102300000Y-31685000D01*
X102300000Y-31685000D02*
X102300000Y-32475000D01*
%TO.N,GPIO_18*%
X104840000Y-31685000D02*
X104840000Y-32475000D01*
X115570000Y-20955000D02*
X104840000Y-31685000D01*
%TO.N,GPIO_19*%
X118110000Y-20955000D02*
X117630000Y-20955000D01*
X117630000Y-20955000D02*
X106110000Y-32475000D01*
%TO.N,GPIO_20*%
X109383400Y-30471600D02*
X107380000Y-32475000D01*
%TO.N,GPIO_22*%
X116542900Y-27122100D02*
X111190000Y-32475000D01*
%TO.N,MIDI_IN*%
X80321000Y-86984000D02*
X80710000Y-86595000D01*
%TD*%
%TA.AperFunction,Conductor*%
%TO.N,GND*%
G36*
X125892587Y-103670585D02*
G01*
X125913229Y-103687219D01*
X128113846Y-105887836D01*
X128147331Y-105949159D01*
X128142347Y-106018851D01*
X128127741Y-106046638D01*
X128111968Y-106069164D01*
X128111967Y-106069166D01*
X128012097Y-106283335D01*
X128012094Y-106283344D01*
X127950938Y-106511586D01*
X127950936Y-106511596D01*
X127930341Y-106746999D01*
X127930341Y-106747000D01*
X127950936Y-106982403D01*
X127950938Y-106982413D01*
X128001337Y-107170507D01*
X127999674Y-107240357D01*
X127960511Y-107298219D01*
X127896283Y-107325723D01*
X127881562Y-107326600D01*
X120143753Y-107326600D01*
X120076714Y-107306915D01*
X120056072Y-107290281D01*
X117825903Y-105060112D01*
X117816080Y-105047850D01*
X117815859Y-105048034D01*
X117810886Y-105042022D01*
X117761876Y-104995999D01*
X117759077Y-104993286D01*
X117739577Y-104973785D01*
X117739571Y-104973780D01*
X117736386Y-104971309D01*
X117727534Y-104963748D01*
X117695682Y-104933838D01*
X117695680Y-104933836D01*
X117695677Y-104933835D01*
X117678129Y-104924188D01*
X117661863Y-104913504D01*
X117656336Y-104909217D01*
X117646036Y-104901227D01*
X117646035Y-104901226D01*
X117646032Y-104901224D01*
X117605949Y-104883878D01*
X117595463Y-104878741D01*
X117557194Y-104857703D01*
X117557192Y-104857702D01*
X117537793Y-104852722D01*
X117519381Y-104846418D01*
X117500998Y-104838462D01*
X117500992Y-104838460D01*
X117457860Y-104831629D01*
X117446422Y-104829261D01*
X117404120Y-104818400D01*
X117404119Y-104818400D01*
X117384084Y-104818400D01*
X117364686Y-104816873D01*
X117357262Y-104815697D01*
X117344905Y-104813740D01*
X117344904Y-104813740D01*
X117301425Y-104817850D01*
X117289756Y-104818400D01*
X116790500Y-104818400D01*
X116723461Y-104798715D01*
X116677706Y-104745911D01*
X116666500Y-104694400D01*
X116666499Y-103774900D01*
X116686183Y-103707861D01*
X116738987Y-103662106D01*
X116790499Y-103650900D01*
X125825548Y-103650900D01*
X125892587Y-103670585D01*
G37*
%TD.AperFunction*%
%TA.AperFunction,Conductor*%
G36*
X132933877Y-106199224D02*
G01*
X132933904Y-106198939D01*
X132941663Y-106199672D01*
X132941667Y-106199673D01*
X132949096Y-106199439D01*
X133016720Y-106217007D01*
X133064112Y-106268346D01*
X133076225Y-106337158D01*
X133072768Y-106355470D01*
X133030939Y-106511583D01*
X133030936Y-106511596D01*
X133010341Y-106746999D01*
X133010341Y-106747000D01*
X133030936Y-106982403D01*
X133030938Y-106982413D01*
X133081337Y-107170507D01*
X133079674Y-107240357D01*
X133040511Y-107298219D01*
X132976283Y-107325723D01*
X132961562Y-107326600D01*
X130690438Y-107326600D01*
X130623399Y-107306915D01*
X130577644Y-107254111D01*
X130567700Y-107184953D01*
X130570663Y-107170507D01*
X130604986Y-107042408D01*
X130621063Y-106982408D01*
X130641659Y-106747000D01*
X130621063Y-106511592D01*
X130578728Y-106353593D01*
X130580391Y-106283743D01*
X130619554Y-106225881D01*
X130683782Y-106198377D01*
X130698503Y-106197500D01*
X132918257Y-106197500D01*
X132933877Y-106199224D01*
G37*
%TD.AperFunction*%
%TA.AperFunction,Conductor*%
G36*
X84429751Y-99868146D02*
G01*
X84483692Y-99912555D01*
X84505061Y-99979077D01*
X84505100Y-99982203D01*
X84505100Y-105305772D01*
X84485415Y-105372811D01*
X84432611Y-105418566D01*
X84363453Y-105428510D01*
X84349008Y-105425547D01*
X84309416Y-105414939D01*
X84309412Y-105414938D01*
X84309408Y-105414937D01*
X84309406Y-105414936D01*
X84309403Y-105414936D01*
X84074001Y-105394341D01*
X84073999Y-105394341D01*
X83838596Y-105414936D01*
X83838586Y-105414938D01*
X83610344Y-105476094D01*
X83610335Y-105476098D01*
X83396171Y-105575964D01*
X83396169Y-105575965D01*
X83202597Y-105711505D01*
X83035508Y-105878594D01*
X82905574Y-106064159D01*
X82850997Y-106107784D01*
X82781498Y-106114976D01*
X82719144Y-106083454D01*
X82702424Y-106064158D01*
X82700323Y-106061158D01*
X82652925Y-105993465D01*
X82630598Y-105927258D01*
X82630500Y-105922342D01*
X82630500Y-99985485D01*
X82650185Y-99918446D01*
X82702989Y-99872691D01*
X82772147Y-99862747D01*
X82835703Y-99891772D01*
X82838039Y-99893849D01*
X82839437Y-99895123D01*
X82839439Y-99895125D01*
X83028595Y-100012245D01*
X83028596Y-100012245D01*
X83028599Y-100012247D01*
X83236060Y-100092618D01*
X83454757Y-100133500D01*
X83454759Y-100133500D01*
X83677241Y-100133500D01*
X83677243Y-100133500D01*
X83895940Y-100092618D01*
X84103401Y-100012247D01*
X84292562Y-99895124D01*
X84297561Y-99890566D01*
X84360364Y-99859949D01*
X84429751Y-99868146D01*
G37*
%TD.AperFunction*%
%TA.AperFunction,Conductor*%
G36*
X105093082Y-98081053D02*
G01*
X105110803Y-98100654D01*
X105137180Y-98136959D01*
X105143593Y-98146721D01*
X105165828Y-98184317D01*
X105165833Y-98184324D01*
X105179990Y-98198480D01*
X105192627Y-98213275D01*
X105204406Y-98229487D01*
X105226881Y-98248080D01*
X105238057Y-98257325D01*
X105246698Y-98265188D01*
X106071797Y-99090288D01*
X106081622Y-99102551D01*
X106081843Y-99102369D01*
X106086811Y-99108374D01*
X106135822Y-99154399D01*
X106138621Y-99157112D01*
X106158122Y-99176614D01*
X106158126Y-99176617D01*
X106158129Y-99176620D01*
X106161302Y-99179081D01*
X106170174Y-99186659D01*
X106202018Y-99216562D01*
X106219576Y-99226214D01*
X106235835Y-99236895D01*
X106251664Y-99249173D01*
X106291755Y-99266521D01*
X106302226Y-99271651D01*
X106316627Y-99279568D01*
X106340502Y-99292694D01*
X106340504Y-99292695D01*
X106340508Y-99292697D01*
X106359916Y-99297680D01*
X106378319Y-99303981D01*
X106396701Y-99311936D01*
X106396702Y-99311936D01*
X106396704Y-99311937D01*
X106439850Y-99318770D01*
X106451272Y-99321136D01*
X106493581Y-99332000D01*
X106513616Y-99332000D01*
X106533014Y-99333526D01*
X106552794Y-99336659D01*
X106552795Y-99336660D01*
X106552795Y-99336659D01*
X106552796Y-99336660D01*
X106596275Y-99332550D01*
X106607944Y-99332000D01*
X108610048Y-99332000D01*
X108677087Y-99351685D01*
X108697729Y-99368319D01*
X110785228Y-101455819D01*
X110818713Y-101517142D01*
X110813729Y-101586834D01*
X110771857Y-101642767D01*
X110706393Y-101667184D01*
X110697547Y-101667500D01*
X107430849Y-101667500D01*
X107363810Y-101647815D01*
X107343168Y-101631181D01*
X104081778Y-98369791D01*
X104048293Y-98308468D01*
X104053277Y-98238776D01*
X104095149Y-98182843D01*
X104160613Y-98158426D01*
X104189863Y-98159800D01*
X104277951Y-98174500D01*
X104277952Y-98174500D01*
X104510048Y-98174500D01*
X104510049Y-98174500D01*
X104738981Y-98136298D01*
X104958503Y-98060936D01*
X104958511Y-98060931D01*
X104960669Y-98059986D01*
X104961631Y-98059862D01*
X104963354Y-98059271D01*
X104963475Y-98059625D01*
X105029969Y-98051079D01*
X105093082Y-98081053D01*
G37*
%TD.AperFunction*%
%TA.AperFunction,Conductor*%
G36*
X106494703Y-94866639D02*
G01*
X106501181Y-94872671D01*
X107539681Y-95911171D01*
X107573166Y-95972494D01*
X107576000Y-95998852D01*
X107576000Y-97179355D01*
X107574275Y-97194972D01*
X107574561Y-97194999D01*
X107573826Y-97202765D01*
X107575939Y-97269972D01*
X107576000Y-97273867D01*
X107576000Y-97301457D01*
X107576503Y-97305435D01*
X107577418Y-97317067D01*
X107578790Y-97360724D01*
X107578791Y-97360727D01*
X107584380Y-97379967D01*
X107588324Y-97399011D01*
X107590836Y-97418892D01*
X107606914Y-97459503D01*
X107610697Y-97470552D01*
X107622881Y-97512488D01*
X107633080Y-97529734D01*
X107641638Y-97547203D01*
X107649014Y-97565832D01*
X107674681Y-97601160D01*
X107681093Y-97610921D01*
X107703328Y-97648517D01*
X107703333Y-97648524D01*
X107717490Y-97662680D01*
X107730128Y-97677476D01*
X107741905Y-97693686D01*
X107741906Y-97693687D01*
X107775557Y-97721525D01*
X107784198Y-97729388D01*
X107924129Y-97869319D01*
X107957614Y-97930642D01*
X107952630Y-98000334D01*
X107910758Y-98056267D01*
X107845294Y-98080684D01*
X107836448Y-98081000D01*
X106883053Y-98081000D01*
X106816014Y-98061315D01*
X106795372Y-98044681D01*
X106325819Y-97575128D01*
X106292334Y-97513805D01*
X106289500Y-97487447D01*
X106289500Y-94960352D01*
X106309185Y-94893313D01*
X106361989Y-94847558D01*
X106431147Y-94837614D01*
X106494703Y-94866639D01*
G37*
%TD.AperFunction*%
%TA.AperFunction,Conductor*%
G36*
X81268350Y-95052088D02*
G01*
X81316163Y-95103036D01*
X81329500Y-95158980D01*
X81329500Y-97861019D01*
X81309815Y-97928058D01*
X81257011Y-97973813D01*
X81187853Y-97983757D01*
X81134378Y-97962595D01*
X81113759Y-97948158D01*
X81072734Y-97919432D01*
X81072728Y-97919429D01*
X80866497Y-97823261D01*
X80866488Y-97823258D01*
X80646697Y-97764366D01*
X80646687Y-97764364D01*
X80476785Y-97749500D01*
X80476784Y-97749500D01*
X79563216Y-97749500D01*
X79563215Y-97749500D01*
X79393312Y-97764364D01*
X79393302Y-97764366D01*
X79276593Y-97795638D01*
X79206743Y-97793975D01*
X79148881Y-97754812D01*
X79121377Y-97690583D01*
X79120500Y-97675863D01*
X79120500Y-95344136D01*
X79140185Y-95277097D01*
X79192989Y-95231342D01*
X79262147Y-95221398D01*
X79276582Y-95224358D01*
X79393308Y-95255635D01*
X79563214Y-95270499D01*
X79563215Y-95270500D01*
X79563216Y-95270500D01*
X80476785Y-95270500D01*
X80476785Y-95270499D01*
X80646692Y-95255635D01*
X80866496Y-95196739D01*
X81072734Y-95100568D01*
X81134378Y-95057404D01*
X81200583Y-95035078D01*
X81268350Y-95052088D01*
G37*
%TD.AperFunction*%
%TA.AperFunction,Conductor*%
G36*
X98346771Y-86316234D02*
G01*
X98490000Y-86330341D01*
X98633208Y-86316236D01*
X98701852Y-86329255D01*
X98752562Y-86377320D01*
X98769237Y-86445170D01*
X98768763Y-86451793D01*
X98754659Y-86594999D01*
X98773975Y-86791129D01*
X98831188Y-86979733D01*
X98924086Y-87153532D01*
X98924090Y-87153539D01*
X99049116Y-87305883D01*
X99201460Y-87430909D01*
X99201467Y-87430913D01*
X99375266Y-87523811D01*
X99375269Y-87523811D01*
X99375273Y-87523814D01*
X99563868Y-87581024D01*
X99760000Y-87600341D01*
X99956132Y-87581024D01*
X100144727Y-87523814D01*
X100318538Y-87430910D01*
X100318544Y-87430904D01*
X100323607Y-87427523D01*
X100324703Y-87429164D01*
X100380639Y-87405405D01*
X100449507Y-87417194D01*
X100466148Y-87427888D01*
X100466393Y-87427523D01*
X100471458Y-87430907D01*
X100471462Y-87430910D01*
X100613077Y-87506605D01*
X100645263Y-87523809D01*
X100645273Y-87523814D01*
X100833868Y-87581024D01*
X101030000Y-87600341D01*
X101226132Y-87581024D01*
X101414727Y-87523814D01*
X101492049Y-87482484D01*
X101560448Y-87468243D01*
X101625692Y-87493242D01*
X101667063Y-87549547D01*
X101674500Y-87591843D01*
X101674500Y-90637055D01*
X101672775Y-90652672D01*
X101673061Y-90652699D01*
X101672326Y-90660465D01*
X101674439Y-90727672D01*
X101674500Y-90731567D01*
X101674500Y-90759157D01*
X101675003Y-90763135D01*
X101675918Y-90774767D01*
X101677290Y-90818424D01*
X101677291Y-90818427D01*
X101682880Y-90837667D01*
X101686824Y-90856711D01*
X101687684Y-90863513D01*
X101689336Y-90876592D01*
X101705414Y-90917203D01*
X101709197Y-90928252D01*
X101721381Y-90970188D01*
X101731580Y-90987434D01*
X101740138Y-91004903D01*
X101747514Y-91023532D01*
X101773181Y-91058860D01*
X101779593Y-91068621D01*
X101801828Y-91106217D01*
X101801833Y-91106224D01*
X101815990Y-91120380D01*
X101828628Y-91135176D01*
X101840405Y-91151386D01*
X101840406Y-91151387D01*
X101874057Y-91179225D01*
X101882698Y-91187088D01*
X105002181Y-94306571D01*
X105035666Y-94367894D01*
X105038500Y-94394252D01*
X105038500Y-95340854D01*
X105018815Y-95407893D01*
X104966011Y-95453648D01*
X104896853Y-95463592D01*
X104874237Y-95458135D01*
X104738984Y-95411702D01*
X104567282Y-95383050D01*
X104510049Y-95373500D01*
X104277951Y-95373500D01*
X104232164Y-95381140D01*
X104049015Y-95411702D01*
X103829504Y-95487061D01*
X103829495Y-95487064D01*
X103625371Y-95597531D01*
X103625365Y-95597535D01*
X103442222Y-95740081D01*
X103442219Y-95740084D01*
X103285016Y-95910852D01*
X103158075Y-96105151D01*
X103064842Y-96317699D01*
X103007866Y-96542691D01*
X103007864Y-96542702D01*
X102988700Y-96773993D01*
X102988700Y-96773995D01*
X102988700Y-96774000D01*
X102994759Y-96847123D01*
X103006185Y-96985020D01*
X102992103Y-97053456D01*
X102943257Y-97103415D01*
X102875156Y-97119035D01*
X102809421Y-97095357D01*
X102794927Y-97082940D01*
X96611819Y-90899832D01*
X96578334Y-90838509D01*
X96575500Y-90812151D01*
X96575500Y-87591843D01*
X96595185Y-87524804D01*
X96647989Y-87479049D01*
X96717147Y-87469105D01*
X96757948Y-87482483D01*
X96811274Y-87510986D01*
X96835263Y-87523809D01*
X96835273Y-87523814D01*
X97023868Y-87581024D01*
X97220000Y-87600341D01*
X97416132Y-87581024D01*
X97604727Y-87523814D01*
X97604737Y-87523809D01*
X97707080Y-87469105D01*
X97778538Y-87430910D01*
X97930883Y-87305883D01*
X98055910Y-87153538D01*
X98113750Y-87045328D01*
X98148811Y-86979733D01*
X98148811Y-86979732D01*
X98148814Y-86979727D01*
X98206024Y-86791132D01*
X98225341Y-86595000D01*
X98211236Y-86451791D01*
X98224255Y-86383147D01*
X98272320Y-86332437D01*
X98340170Y-86315762D01*
X98346771Y-86316234D01*
G37*
%TD.AperFunction*%
%TA.AperFunction,Conductor*%
G36*
X111750161Y-90429519D02*
G01*
X111807382Y-90469611D01*
X111833845Y-90534276D01*
X111834500Y-90547005D01*
X111834500Y-93472547D01*
X111814815Y-93539586D01*
X111798181Y-93560228D01*
X109967520Y-95390888D01*
X109906197Y-95424373D01*
X109839577Y-95420488D01*
X109813986Y-95411702D01*
X109623204Y-95379867D01*
X109585049Y-95373500D01*
X109352951Y-95373500D01*
X109307164Y-95381140D01*
X109124015Y-95411702D01*
X108920786Y-95481471D01*
X108850987Y-95484621D01*
X108790566Y-95449535D01*
X108773794Y-95427317D01*
X108772053Y-95424373D01*
X108769920Y-95420766D01*
X108761361Y-95403294D01*
X108753987Y-95384669D01*
X108742348Y-95368650D01*
X108728311Y-95349330D01*
X108721905Y-95339577D01*
X108706471Y-95313480D01*
X108699672Y-95301983D01*
X108699665Y-95301974D01*
X108685506Y-95287815D01*
X108672868Y-95273019D01*
X108661094Y-95256813D01*
X108653240Y-95250316D01*
X108627440Y-95228972D01*
X108618799Y-95221109D01*
X108022887Y-94625197D01*
X107989402Y-94563874D01*
X107994386Y-94494182D01*
X108018415Y-94454547D01*
X108125233Y-94335916D01*
X108219879Y-94171984D01*
X108278374Y-93991956D01*
X108296021Y-93824045D01*
X108322605Y-93759432D01*
X108331652Y-93749336D01*
X111573788Y-90507201D01*
X111586042Y-90497386D01*
X111585859Y-90497164D01*
X111591868Y-90492191D01*
X111591877Y-90492186D01*
X111620109Y-90462120D01*
X111680347Y-90426727D01*
X111750161Y-90429519D01*
G37*
%TD.AperFunction*%
%TA.AperFunction,Conductor*%
G36*
X109339507Y-87417194D02*
G01*
X109356148Y-87427888D01*
X109356393Y-87427523D01*
X109361458Y-87430907D01*
X109361462Y-87430910D01*
X109503077Y-87506605D01*
X109535263Y-87523809D01*
X109535273Y-87523814D01*
X109723868Y-87581024D01*
X109920000Y-87600341D01*
X110116132Y-87581024D01*
X110304727Y-87523814D01*
X110382049Y-87482484D01*
X110450448Y-87468243D01*
X110515692Y-87493242D01*
X110557063Y-87549547D01*
X110564500Y-87591843D01*
X110564500Y-89695947D01*
X110544815Y-89762986D01*
X110528181Y-89783628D01*
X107444928Y-92866881D01*
X107383605Y-92900366D01*
X107357247Y-92903200D01*
X107298054Y-92903200D01*
X107265597Y-92910098D01*
X107112897Y-92942555D01*
X107112892Y-92942557D01*
X106939970Y-93019548D01*
X106939966Y-93019551D01*
X106932384Y-93025060D01*
X106866577Y-93048539D01*
X106798524Y-93032713D01*
X106749830Y-92982606D01*
X106735500Y-92924741D01*
X106735500Y-87591843D01*
X106755185Y-87524804D01*
X106807989Y-87479049D01*
X106877147Y-87469105D01*
X106917948Y-87482483D01*
X106971274Y-87510986D01*
X106995263Y-87523809D01*
X106995273Y-87523814D01*
X107183868Y-87581024D01*
X107380000Y-87600341D01*
X107576132Y-87581024D01*
X107764727Y-87523814D01*
X107938538Y-87430910D01*
X107938544Y-87430904D01*
X107943607Y-87427523D01*
X107944703Y-87429164D01*
X108000639Y-87405405D01*
X108069507Y-87417194D01*
X108086148Y-87427888D01*
X108086393Y-87427523D01*
X108091458Y-87430907D01*
X108091462Y-87430910D01*
X108233077Y-87506605D01*
X108265263Y-87523809D01*
X108265273Y-87523814D01*
X108453868Y-87581024D01*
X108650000Y-87600341D01*
X108846132Y-87581024D01*
X109034727Y-87523814D01*
X109208538Y-87430910D01*
X109208544Y-87430904D01*
X109213607Y-87427523D01*
X109214703Y-87429164D01*
X109270639Y-87405405D01*
X109339507Y-87417194D01*
G37*
%TD.AperFunction*%
%TA.AperFunction,Conductor*%
G36*
X82812952Y-87495848D02*
G01*
X82841274Y-87510986D01*
X82865263Y-87523809D01*
X82865273Y-87523814D01*
X83053868Y-87581024D01*
X83250000Y-87600341D01*
X83301560Y-87595262D01*
X83370203Y-87608280D01*
X83401394Y-87630984D01*
X84468781Y-88698371D01*
X84502266Y-88759694D01*
X84505100Y-88786052D01*
X84505100Y-92803796D01*
X84485415Y-92870835D01*
X84432611Y-92916590D01*
X84363453Y-92926534D01*
X84299897Y-92897509D01*
X84297566Y-92895437D01*
X84292562Y-92890876D01*
X84292560Y-92890874D01*
X84103404Y-92773754D01*
X84103398Y-92773752D01*
X84088491Y-92767977D01*
X83895940Y-92693382D01*
X83677243Y-92652500D01*
X83454757Y-92652500D01*
X83236060Y-92693382D01*
X83107308Y-92743261D01*
X83028601Y-92773752D01*
X83028595Y-92773754D01*
X82839439Y-92890874D01*
X82839431Y-92890881D01*
X82838030Y-92892158D01*
X82837212Y-92892556D01*
X82834864Y-92894330D01*
X82834516Y-92893870D01*
X82775224Y-92922770D01*
X82705837Y-92914566D01*
X82651901Y-92870152D01*
X82630539Y-92803628D01*
X82630500Y-92800514D01*
X82630500Y-87605206D01*
X82650185Y-87538167D01*
X82702989Y-87492412D01*
X82772147Y-87482468D01*
X82812952Y-87495848D01*
G37*
%TD.AperFunction*%
%TA.AperFunction,Conductor*%
G36*
X81280692Y-87506605D02*
G01*
X81322063Y-87562910D01*
X81329500Y-87605206D01*
X81329500Y-92781019D01*
X81309815Y-92848058D01*
X81257011Y-92893813D01*
X81187853Y-92903757D01*
X81134378Y-92882595D01*
X81077951Y-92843085D01*
X81072734Y-92839432D01*
X81014876Y-92812452D01*
X80866497Y-92743261D01*
X80866488Y-92743258D01*
X80646697Y-92684366D01*
X80646687Y-92684364D01*
X80476785Y-92669500D01*
X80476784Y-92669500D01*
X79563216Y-92669500D01*
X79563215Y-92669500D01*
X79393312Y-92684364D01*
X79393302Y-92684366D01*
X79276593Y-92715638D01*
X79206743Y-92713975D01*
X79148881Y-92674812D01*
X79121377Y-92610583D01*
X79120500Y-92595863D01*
X79120500Y-89155807D01*
X79140185Y-89088768D01*
X79156814Y-89068131D01*
X80590792Y-87634152D01*
X80652113Y-87600669D01*
X80690622Y-87598432D01*
X80710000Y-87600341D01*
X80906132Y-87581024D01*
X81094727Y-87523814D01*
X81147046Y-87495848D01*
X81215448Y-87481606D01*
X81280692Y-87506605D01*
G37*
%TD.AperFunction*%
%TA.AperFunction,Conductor*%
G36*
X104696771Y-86316234D02*
G01*
X104840000Y-86330341D01*
X104983208Y-86316236D01*
X105051852Y-86329255D01*
X105102562Y-86377320D01*
X105119237Y-86445170D01*
X105118763Y-86451793D01*
X105104659Y-86594999D01*
X105123975Y-86791129D01*
X105181188Y-86979733D01*
X105274086Y-87153532D01*
X105274090Y-87153539D01*
X105399117Y-87305884D01*
X105439163Y-87338748D01*
X105478499Y-87396493D01*
X105484500Y-87434602D01*
X105484500Y-92720347D01*
X105464815Y-92787386D01*
X105412011Y-92833141D01*
X105342853Y-92843085D01*
X105279297Y-92814060D01*
X105272819Y-92808028D01*
X102961819Y-90497028D01*
X102928334Y-90435705D01*
X102925500Y-90409347D01*
X102925500Y-87591843D01*
X102945185Y-87524804D01*
X102997989Y-87479049D01*
X103067147Y-87469105D01*
X103107948Y-87482483D01*
X103161274Y-87510986D01*
X103185263Y-87523809D01*
X103185273Y-87523814D01*
X103373868Y-87581024D01*
X103570000Y-87600341D01*
X103766132Y-87581024D01*
X103954727Y-87523814D01*
X103954737Y-87523809D01*
X104057080Y-87469105D01*
X104128538Y-87430910D01*
X104280883Y-87305883D01*
X104405910Y-87153538D01*
X104463750Y-87045328D01*
X104498811Y-86979733D01*
X104498811Y-86979732D01*
X104498814Y-86979727D01*
X104556024Y-86791132D01*
X104575341Y-86595000D01*
X104561236Y-86451791D01*
X104574255Y-86383147D01*
X104622320Y-86332437D01*
X104690170Y-86315762D01*
X104696771Y-86316234D01*
G37*
%TD.AperFunction*%
%TA.AperFunction,Conductor*%
G36*
X91996771Y-86316234D02*
G01*
X92140000Y-86330341D01*
X92283208Y-86316236D01*
X92351852Y-86329255D01*
X92402562Y-86377320D01*
X92419237Y-86445170D01*
X92418763Y-86451793D01*
X92404659Y-86594999D01*
X92423975Y-86791129D01*
X92481188Y-86979733D01*
X92574086Y-87153532D01*
X92574090Y-87153539D01*
X92699117Y-87305884D01*
X92739163Y-87338748D01*
X92778499Y-87396493D01*
X92784500Y-87434602D01*
X92784500Y-88953347D01*
X92764815Y-89020386D01*
X92712011Y-89066141D01*
X92642853Y-89076085D01*
X92579297Y-89047060D01*
X92572819Y-89041028D01*
X91243189Y-87711398D01*
X91209704Y-87650075D01*
X91214688Y-87580383D01*
X91256560Y-87524450D01*
X91272417Y-87514359D01*
X91383490Y-87454988D01*
X91428538Y-87430910D01*
X91580883Y-87305883D01*
X91705910Y-87153538D01*
X91763750Y-87045328D01*
X91798811Y-86979733D01*
X91798811Y-86979732D01*
X91798814Y-86979727D01*
X91856024Y-86791132D01*
X91875341Y-86595000D01*
X91861236Y-86451791D01*
X91874255Y-86383147D01*
X91922320Y-86332437D01*
X91990170Y-86315762D01*
X91996771Y-86316234D01*
G37*
%TD.AperFunction*%
%TA.AperFunction,Conductor*%
G36*
X85646771Y-86316234D02*
G01*
X85790000Y-86330341D01*
X85933208Y-86316236D01*
X86001852Y-86329255D01*
X86052562Y-86377320D01*
X86069237Y-86445170D01*
X86068763Y-86451793D01*
X86054659Y-86594999D01*
X86073975Y-86791129D01*
X86131190Y-86979739D01*
X86133518Y-86985359D01*
X86131608Y-86986149D01*
X86143928Y-87045328D01*
X86118926Y-87110571D01*
X86062620Y-87151940D01*
X85992886Y-87156300D01*
X85932647Y-87123056D01*
X85555984Y-86746393D01*
X85522499Y-86685070D01*
X85520262Y-86646561D01*
X85525341Y-86595000D01*
X85511236Y-86451791D01*
X85524255Y-86383147D01*
X85572320Y-86332437D01*
X85640170Y-86315762D01*
X85646771Y-86316234D01*
G37*
%TD.AperFunction*%
%TA.AperFunction,Conductor*%
G36*
X69155003Y-36131552D02*
G01*
X69177398Y-36157123D01*
X69215980Y-36215785D01*
X69217889Y-36218782D01*
X69248972Y-36269174D01*
X69257289Y-36282658D01*
X69261766Y-36288319D01*
X69261719Y-36288356D01*
X69266482Y-36294202D01*
X69266528Y-36294164D01*
X69271173Y-36299699D01*
X69325707Y-36351149D01*
X69328295Y-36353663D01*
X72303181Y-39328549D01*
X72336666Y-39389872D01*
X72339500Y-39416230D01*
X72339500Y-84200500D01*
X72319815Y-84267539D01*
X72267011Y-84313294D01*
X72215500Y-84324500D01*
X71853030Y-84324500D01*
X71785991Y-84304815D01*
X71765349Y-84288181D01*
X68986119Y-81508951D01*
X68952634Y-81447628D01*
X68949800Y-81421270D01*
X68949800Y-36225265D01*
X68969485Y-36158226D01*
X69022289Y-36112471D01*
X69091447Y-36102527D01*
X69155003Y-36131552D01*
G37*
%TD.AperFunction*%
%TA.AperFunction,Conductor*%
G36*
X84080703Y-21856045D02*
G01*
X84087181Y-21862077D01*
X84218599Y-21993495D01*
X84315384Y-22061265D01*
X84412165Y-22129032D01*
X84412167Y-22129033D01*
X84412170Y-22129035D01*
X84626337Y-22228903D01*
X84626343Y-22228904D01*
X84626344Y-22228905D01*
X84681285Y-22243626D01*
X84854592Y-22290063D01*
X85051309Y-22307273D01*
X85116376Y-22332725D01*
X85157355Y-22389316D01*
X85164500Y-22430801D01*
X85164500Y-31635397D01*
X85144815Y-31702436D01*
X85119166Y-31731249D01*
X85079114Y-31764118D01*
X84954090Y-31916460D01*
X84954086Y-31916467D01*
X84861188Y-32090266D01*
X84803975Y-32278870D01*
X84784659Y-32475000D01*
X84798763Y-32618206D01*
X84785744Y-32686852D01*
X84737679Y-32737562D01*
X84669828Y-32754237D01*
X84663206Y-32753763D01*
X84520000Y-32739659D01*
X84376793Y-32753763D01*
X84308147Y-32740744D01*
X84257436Y-32692679D01*
X84240762Y-32624828D01*
X84241234Y-32618230D01*
X84255341Y-32475000D01*
X84236024Y-32278868D01*
X84178814Y-32090273D01*
X84178811Y-32090269D01*
X84178811Y-32090266D01*
X84085913Y-31916467D01*
X84085909Y-31916460D01*
X83960885Y-31764118D01*
X83920834Y-31731249D01*
X83881500Y-31673503D01*
X83875500Y-31635397D01*
X83875500Y-21949758D01*
X83895185Y-21882719D01*
X83947989Y-21836964D01*
X84017147Y-21827020D01*
X84080703Y-21856045D01*
G37*
%TD.AperFunction*%
%TA.AperFunction,Conductor*%
G36*
X92374123Y-22263142D02*
G01*
X92474592Y-22290063D01*
X92651034Y-22305500D01*
X92709999Y-22310659D01*
X92710387Y-22310659D01*
X92710551Y-22310707D01*
X92715394Y-22311131D01*
X92715308Y-22312104D01*
X92777426Y-22330344D01*
X92823181Y-22383148D01*
X92833125Y-22452306D01*
X92804100Y-22515862D01*
X92798068Y-22522340D01*
X91756208Y-23564199D01*
X91743951Y-23574020D01*
X91744134Y-23574241D01*
X91738122Y-23579214D01*
X91692098Y-23628223D01*
X91689391Y-23631016D01*
X91669889Y-23650517D01*
X91669875Y-23650534D01*
X91667407Y-23653715D01*
X91659843Y-23662570D01*
X91629937Y-23694418D01*
X91629936Y-23694420D01*
X91620284Y-23711976D01*
X91609610Y-23728226D01*
X91597329Y-23744061D01*
X91597324Y-23744068D01*
X91579975Y-23784158D01*
X91574838Y-23794644D01*
X91553803Y-23832906D01*
X91548822Y-23852307D01*
X91542521Y-23870710D01*
X91534562Y-23889102D01*
X91534561Y-23889105D01*
X91527728Y-23932243D01*
X91525360Y-23943674D01*
X91514501Y-23985971D01*
X91514500Y-23985982D01*
X91514500Y-24006016D01*
X91512973Y-24025415D01*
X91509840Y-24045194D01*
X91509840Y-24045195D01*
X91513950Y-24088674D01*
X91514500Y-24100343D01*
X91514500Y-31635397D01*
X91494815Y-31702436D01*
X91469166Y-31731249D01*
X91429114Y-31764118D01*
X91304090Y-31916460D01*
X91304086Y-31916467D01*
X91211188Y-32090266D01*
X91153975Y-32278870D01*
X91134659Y-32475000D01*
X91148763Y-32618206D01*
X91135744Y-32686852D01*
X91087679Y-32737562D01*
X91019828Y-32754237D01*
X91013206Y-32753763D01*
X90870000Y-32739659D01*
X90726793Y-32753763D01*
X90658147Y-32740744D01*
X90607436Y-32692679D01*
X90590762Y-32624828D01*
X90591234Y-32618230D01*
X90605341Y-32475000D01*
X90586024Y-32278868D01*
X90528814Y-32090273D01*
X90528811Y-32090269D01*
X90528811Y-32090266D01*
X90435913Y-31916467D01*
X90435909Y-31916460D01*
X90310885Y-31764118D01*
X90270834Y-31731249D01*
X90231500Y-31673503D01*
X90225500Y-31635397D01*
X90225500Y-24375452D01*
X90245185Y-24308413D01*
X90261819Y-24287771D01*
X91025198Y-23524392D01*
X92254354Y-22295235D01*
X92315675Y-22261752D01*
X92374123Y-22263142D01*
G37*
%TD.AperFunction*%
%TA.AperFunction,Conductor*%
G36*
X102534123Y-22263142D02*
G01*
X102634592Y-22290063D01*
X102811034Y-22305500D01*
X102869999Y-22310659D01*
X102870387Y-22310659D01*
X102870551Y-22310707D01*
X102875394Y-22311131D01*
X102875308Y-22312104D01*
X102937426Y-22330344D01*
X102983181Y-22383148D01*
X102993125Y-22452306D01*
X102964100Y-22515862D01*
X102958068Y-22522340D01*
X98106208Y-27374199D01*
X98093951Y-27384020D01*
X98094134Y-27384241D01*
X98088122Y-27389214D01*
X98042098Y-27438223D01*
X98039391Y-27441016D01*
X98019889Y-27460517D01*
X98019875Y-27460534D01*
X98017407Y-27463715D01*
X98009843Y-27472570D01*
X97979937Y-27504418D01*
X97979936Y-27504420D01*
X97970284Y-27521976D01*
X97959610Y-27538226D01*
X97947329Y-27554061D01*
X97947324Y-27554068D01*
X97929975Y-27594158D01*
X97924838Y-27604644D01*
X97903803Y-27642906D01*
X97898822Y-27662307D01*
X97892521Y-27680710D01*
X97884562Y-27699102D01*
X97884561Y-27699105D01*
X97877728Y-27742243D01*
X97875360Y-27753674D01*
X97864501Y-27795971D01*
X97864500Y-27795982D01*
X97864500Y-27816016D01*
X97862973Y-27835415D01*
X97859840Y-27855194D01*
X97859840Y-27855195D01*
X97863950Y-27898674D01*
X97864500Y-27910343D01*
X97864500Y-31635397D01*
X97844815Y-31702436D01*
X97819166Y-31731249D01*
X97779114Y-31764118D01*
X97654090Y-31916460D01*
X97654086Y-31916467D01*
X97561188Y-32090266D01*
X97503975Y-32278870D01*
X97484659Y-32475000D01*
X97498763Y-32618206D01*
X97485744Y-32686852D01*
X97437679Y-32737562D01*
X97369828Y-32754237D01*
X97363206Y-32753763D01*
X97220000Y-32739659D01*
X97076793Y-32753763D01*
X97008147Y-32740744D01*
X96957436Y-32692679D01*
X96940762Y-32624828D01*
X96941234Y-32618230D01*
X96955341Y-32475000D01*
X96936024Y-32278868D01*
X96878814Y-32090273D01*
X96878811Y-32090269D01*
X96878811Y-32090266D01*
X96785913Y-31916467D01*
X96785909Y-31916460D01*
X96660885Y-31764118D01*
X96620834Y-31731249D01*
X96581500Y-31673503D01*
X96575500Y-31635397D01*
X96575500Y-28185452D01*
X96595185Y-28118413D01*
X96611819Y-28097771D01*
X99501572Y-25208018D01*
X102414354Y-22295235D01*
X102475675Y-22261752D01*
X102534123Y-22263142D01*
G37*
%TD.AperFunction*%
%TA.AperFunction,Conductor*%
G36*
X110175625Y-31971833D02*
G01*
X110231558Y-32013705D01*
X110255975Y-32079169D01*
X110250952Y-32124010D01*
X110203975Y-32278869D01*
X110184659Y-32475000D01*
X110198763Y-32618206D01*
X110185744Y-32686852D01*
X110137679Y-32737562D01*
X110069828Y-32754237D01*
X110063206Y-32753763D01*
X109920000Y-32739659D01*
X109776793Y-32753763D01*
X109708147Y-32740744D01*
X109657436Y-32692679D01*
X109640762Y-32624828D01*
X109641234Y-32618230D01*
X109655341Y-32475000D01*
X109653432Y-32455624D01*
X109666449Y-32386982D01*
X109689151Y-32355793D01*
X110044612Y-32000332D01*
X110105933Y-31966849D01*
X110175625Y-31971833D01*
G37*
%TD.AperFunction*%
%TA.AperFunction,Conductor*%
G36*
X116575816Y-31858286D02*
G01*
X116631749Y-31900158D01*
X116656166Y-31965622D01*
X116641841Y-32032920D01*
X116611188Y-32090268D01*
X116611187Y-32090270D01*
X116611186Y-32090273D01*
X116586880Y-32170399D01*
X116553975Y-32278870D01*
X116534659Y-32475000D01*
X116548763Y-32618206D01*
X116535744Y-32686852D01*
X116487679Y-32737562D01*
X116419828Y-32754237D01*
X116413206Y-32753763D01*
X116270000Y-32739659D01*
X116126793Y-32753763D01*
X116058147Y-32740744D01*
X116007436Y-32692679D01*
X115990762Y-32624828D01*
X115991234Y-32618230D01*
X116005341Y-32475000D01*
X116000262Y-32423439D01*
X116013280Y-32354795D01*
X116035981Y-32323608D01*
X116208788Y-32150801D01*
X116221042Y-32140986D01*
X116220859Y-32140764D01*
X116226868Y-32135791D01*
X116226877Y-32135786D01*
X116272949Y-32086722D01*
X116275566Y-32084023D01*
X116295120Y-32064471D01*
X116297576Y-32061303D01*
X116305156Y-32052427D01*
X116335062Y-32020582D01*
X116344715Y-32003020D01*
X116355392Y-31986767D01*
X116367673Y-31970936D01*
X116367677Y-31970924D01*
X116369855Y-31967244D01*
X116388906Y-31942682D01*
X116444803Y-31886785D01*
X116506124Y-31853302D01*
X116575816Y-31858286D01*
G37*
%TD.AperFunction*%
%TA.AperFunction,Conductor*%
G36*
X146628039Y-18434685D02*
G01*
X146673794Y-18487489D01*
X146685000Y-18539000D01*
X146685000Y-110366000D01*
X146665315Y-110433039D01*
X146612511Y-110478794D01*
X146561000Y-110490000D01*
X60901597Y-110490000D01*
X60834558Y-110470315D01*
X60788803Y-110417511D01*
X60778859Y-110348353D01*
X60807884Y-110284797D01*
X60817247Y-110275109D01*
X60910631Y-110188463D01*
X61074182Y-109983376D01*
X61205340Y-109756204D01*
X61259030Y-109619403D01*
X61301174Y-109512023D01*
X61317851Y-109438952D01*
X61359545Y-109256282D01*
X61379148Y-108994700D01*
X61359545Y-108733118D01*
X61322137Y-108569222D01*
X61301174Y-108477376D01*
X61237958Y-108316305D01*
X61205340Y-108233196D01*
X61205339Y-108233195D01*
X61205340Y-108233195D01*
X61129974Y-108102659D01*
X61074182Y-108006024D01*
X60910631Y-107800937D01*
X60718339Y-107622517D01*
X60501604Y-107474749D01*
X60501600Y-107474747D01*
X60501597Y-107474745D01*
X60501596Y-107474744D01*
X60265268Y-107360936D01*
X60265270Y-107360936D01*
X60014605Y-107283616D01*
X60014599Y-107283614D01*
X59755225Y-107244520D01*
X59755218Y-107244520D01*
X59492902Y-107244520D01*
X59492894Y-107244520D01*
X59233520Y-107283614D01*
X59233514Y-107283616D01*
X58982850Y-107360936D01*
X58746523Y-107474744D01*
X58746522Y-107474745D01*
X58529780Y-107622517D01*
X58337491Y-107800935D01*
X58337489Y-107800937D01*
X58173938Y-108006024D01*
X58042780Y-108233195D01*
X57946945Y-108477376D01*
X57888574Y-108733122D01*
X57888573Y-108733127D01*
X57868972Y-108994695D01*
X57868972Y-108994704D01*
X57888573Y-109256272D01*
X57888574Y-109256277D01*
X57946945Y-109512023D01*
X58042780Y-109756204D01*
X58042779Y-109756204D01*
X58125930Y-109900224D01*
X58173938Y-109983376D01*
X58337489Y-110188463D01*
X58430865Y-110275103D01*
X58466619Y-110335129D01*
X58464244Y-110404958D01*
X58424494Y-110462419D01*
X58359988Y-110489267D01*
X58346523Y-110490000D01*
X50899077Y-110490000D01*
X50832038Y-110470315D01*
X50786283Y-110417511D01*
X50776339Y-110348353D01*
X50805364Y-110284797D01*
X50814727Y-110275109D01*
X50908111Y-110188463D01*
X51071662Y-109983376D01*
X51202820Y-109756204D01*
X51256510Y-109619403D01*
X51298654Y-109512023D01*
X51315331Y-109438952D01*
X51357025Y-109256282D01*
X51376628Y-108994700D01*
X51357025Y-108733118D01*
X51319617Y-108569222D01*
X51298654Y-108477376D01*
X51235438Y-108316305D01*
X51202820Y-108233196D01*
X51202819Y-108233195D01*
X51202820Y-108233195D01*
X51127454Y-108102659D01*
X51071662Y-108006024D01*
X50908111Y-107800937D01*
X50715819Y-107622517D01*
X50499084Y-107474749D01*
X50499080Y-107474747D01*
X50499077Y-107474745D01*
X50499076Y-107474744D01*
X50262748Y-107360936D01*
X50262750Y-107360936D01*
X50012085Y-107283616D01*
X50012079Y-107283614D01*
X49752705Y-107244520D01*
X49752698Y-107244520D01*
X49490382Y-107244520D01*
X49490374Y-107244520D01*
X49231000Y-107283614D01*
X49230994Y-107283616D01*
X48980330Y-107360936D01*
X48744003Y-107474744D01*
X48744002Y-107474745D01*
X48527260Y-107622517D01*
X48334971Y-107800935D01*
X48334969Y-107800937D01*
X48171418Y-108006024D01*
X48040260Y-108233195D01*
X47944425Y-108477376D01*
X47886054Y-108733122D01*
X47886053Y-108733127D01*
X47866452Y-108994695D01*
X47866452Y-108994704D01*
X47886053Y-109256272D01*
X47886054Y-109256277D01*
X47944425Y-109512023D01*
X48040260Y-109756204D01*
X48040259Y-109756204D01*
X48123410Y-109900224D01*
X48171418Y-109983376D01*
X48334969Y-110188463D01*
X48428345Y-110275103D01*
X48464099Y-110335129D01*
X48461724Y-110404958D01*
X48421974Y-110462419D01*
X48357468Y-110489267D01*
X48344003Y-110490000D01*
X43939000Y-110490000D01*
X43871961Y-110470315D01*
X43826206Y-110417511D01*
X43815000Y-110366000D01*
X43815000Y-98999804D01*
X45369632Y-98999804D01*
X45389233Y-99261372D01*
X45389234Y-99261377D01*
X45447605Y-99517123D01*
X45543440Y-99761304D01*
X45543439Y-99761304D01*
X45620701Y-99895124D01*
X45674598Y-99988476D01*
X45838149Y-100193563D01*
X46030441Y-100371983D01*
X46247176Y-100519751D01*
X46247181Y-100519753D01*
X46247182Y-100519754D01*
X46247183Y-100519755D01*
X46372701Y-100580200D01*
X46483510Y-100633563D01*
X46483511Y-100633563D01*
X46483514Y-100633565D01*
X46734176Y-100710884D01*
X46734177Y-100710884D01*
X46734180Y-100710885D01*
X46993554Y-100749979D01*
X46993559Y-100749979D01*
X46993562Y-100749980D01*
X46993563Y-100749980D01*
X47255877Y-100749980D01*
X47255878Y-100749980D01*
X47272730Y-100747440D01*
X47515259Y-100710885D01*
X47515260Y-100710884D01*
X47515264Y-100710884D01*
X47765926Y-100633565D01*
X48002264Y-100519751D01*
X48218999Y-100371983D01*
X48411291Y-100193563D01*
X48574842Y-99988476D01*
X48706000Y-99761304D01*
X48776980Y-99580449D01*
X48801834Y-99517123D01*
X48835797Y-99368319D01*
X48860205Y-99261382D01*
X48860206Y-99261372D01*
X48879808Y-98999804D01*
X48879808Y-98999795D01*
X48879618Y-98997264D01*
X52867712Y-98997264D01*
X52887313Y-99258832D01*
X52887314Y-99258837D01*
X52887314Y-99258841D01*
X52887315Y-99258842D01*
X52890897Y-99274534D01*
X52945685Y-99514583D01*
X53041520Y-99758764D01*
X53041519Y-99758764D01*
X53104672Y-99868146D01*
X53172678Y-99985936D01*
X53336229Y-100191023D01*
X53528521Y-100369443D01*
X53745256Y-100517211D01*
X53745261Y-100517213D01*
X53745262Y-100517214D01*
X53745263Y-100517215D01*
X53870781Y-100577660D01*
X53981590Y-100631023D01*
X53981591Y-100631023D01*
X53981594Y-100631025D01*
X54232256Y-100708344D01*
X54232257Y-100708344D01*
X54232260Y-100708345D01*
X54491634Y-100747439D01*
X54491639Y-100747439D01*
X54491642Y-100747440D01*
X54491643Y-100747440D01*
X54753957Y-100747440D01*
X54753958Y-100747440D01*
X54780331Y-100743465D01*
X55013339Y-100708345D01*
X55013340Y-100708344D01*
X55013344Y-100708344D01*
X55264006Y-100631025D01*
X55450757Y-100541090D01*
X55500336Y-100517215D01*
X55500336Y-100517214D01*
X55500344Y-100517211D01*
X55717079Y-100369443D01*
X55909371Y-100191023D01*
X56072922Y-99985936D01*
X56204080Y-99758764D01*
X56274063Y-99580449D01*
X56299914Y-99514583D01*
X56325427Y-99402800D01*
X56358285Y-99258842D01*
X56360231Y-99232872D01*
X56377888Y-98997264D01*
X56377888Y-98997255D01*
X56358286Y-98735687D01*
X56358285Y-98735682D01*
X56358285Y-98735678D01*
X56300494Y-98482479D01*
X56299914Y-98479936D01*
X56215631Y-98265188D01*
X56204080Y-98235756D01*
X56204079Y-98235755D01*
X56204080Y-98235755D01*
X56143982Y-98131663D01*
X56072922Y-98008584D01*
X55909371Y-97803497D01*
X55717079Y-97625077D01*
X55500344Y-97477309D01*
X55500340Y-97477307D01*
X55500337Y-97477305D01*
X55500336Y-97477304D01*
X55264008Y-97363496D01*
X55264010Y-97363496D01*
X55013345Y-97286176D01*
X55013339Y-97286174D01*
X54753965Y-97247080D01*
X54753958Y-97247080D01*
X54491642Y-97247080D01*
X54491634Y-97247080D01*
X54232260Y-97286174D01*
X54232254Y-97286176D01*
X53981590Y-97363496D01*
X53745263Y-97477304D01*
X53745262Y-97477305D01*
X53528520Y-97625077D01*
X53336231Y-97803495D01*
X53336229Y-97803497D01*
X53172678Y-98008584D01*
X53041520Y-98235755D01*
X52945685Y-98479936D01*
X52887314Y-98735682D01*
X52887313Y-98735687D01*
X52867712Y-98997255D01*
X52867712Y-98997264D01*
X48879618Y-98997264D01*
X48860206Y-98738227D01*
X48860205Y-98738222D01*
X48860205Y-98738218D01*
X48822977Y-98575113D01*
X48801834Y-98482476D01*
X48709840Y-98248080D01*
X48706000Y-98238296D01*
X48705999Y-98238294D01*
X48704707Y-98235002D01*
X48698538Y-98165406D01*
X48730976Y-98103522D01*
X48791721Y-98068999D01*
X48861487Y-98072798D01*
X48873926Y-98077975D01*
X48985414Y-98131665D01*
X49236076Y-98208984D01*
X49236077Y-98208984D01*
X49236080Y-98208985D01*
X49495454Y-98248079D01*
X49495459Y-98248079D01*
X49495462Y-98248080D01*
X49495463Y-98248080D01*
X49757777Y-98248080D01*
X49757778Y-98248080D01*
X49757785Y-98248079D01*
X50017159Y-98208985D01*
X50017160Y-98208984D01*
X50017164Y-98208984D01*
X50267826Y-98131665D01*
X50504164Y-98017851D01*
X50720899Y-97870083D01*
X50913191Y-97691663D01*
X51076742Y-97486576D01*
X51207900Y-97259404D01*
X51276152Y-97085500D01*
X51303734Y-97015223D01*
X51320411Y-96942152D01*
X51362105Y-96759482D01*
X51363813Y-96736692D01*
X51381708Y-96497904D01*
X57863892Y-96497904D01*
X57883493Y-96759472D01*
X57883494Y-96759477D01*
X57941865Y-97015223D01*
X58037700Y-97259404D01*
X58037699Y-97259404D01*
X58099264Y-97366036D01*
X58168858Y-97486576D01*
X58332409Y-97691663D01*
X58524701Y-97870083D01*
X58741436Y-98017851D01*
X58741441Y-98017853D01*
X58741442Y-98017854D01*
X58741443Y-98017855D01*
X58830901Y-98060935D01*
X58977770Y-98131663D01*
X58977771Y-98131663D01*
X58977774Y-98131665D01*
X59228436Y-98208984D01*
X59228437Y-98208984D01*
X59228440Y-98208985D01*
X59487814Y-98248079D01*
X59487819Y-98248079D01*
X59487822Y-98248080D01*
X59487823Y-98248080D01*
X59750137Y-98248080D01*
X59750138Y-98248080D01*
X59750145Y-98248079D01*
X60009519Y-98208985D01*
X60009520Y-98208984D01*
X60009524Y-98208984D01*
X60260186Y-98131665D01*
X60371665Y-98077979D01*
X60440603Y-98066628D01*
X60504738Y-98094350D01*
X60543704Y-98152345D01*
X60545129Y-98222200D01*
X60540892Y-98235002D01*
X60443765Y-98482476D01*
X60385394Y-98738222D01*
X60385393Y-98738227D01*
X60365792Y-98999795D01*
X60365792Y-98999804D01*
X60385393Y-99261372D01*
X60385394Y-99261377D01*
X60443765Y-99517123D01*
X60539600Y-99761304D01*
X60539599Y-99761304D01*
X60616861Y-99895124D01*
X60670758Y-99988476D01*
X60834309Y-100193563D01*
X61026601Y-100371983D01*
X61243336Y-100519751D01*
X61243341Y-100519753D01*
X61243342Y-100519754D01*
X61243343Y-100519755D01*
X61368861Y-100580200D01*
X61479670Y-100633563D01*
X61479671Y-100633563D01*
X61479674Y-100633565D01*
X61730336Y-100710884D01*
X61730337Y-100710884D01*
X61730340Y-100710885D01*
X61989714Y-100749979D01*
X61989719Y-100749979D01*
X61989722Y-100749980D01*
X61989723Y-100749980D01*
X62252037Y-100749980D01*
X62252038Y-100749980D01*
X62268890Y-100747440D01*
X62511419Y-100710885D01*
X62511420Y-100710884D01*
X62511424Y-100710884D01*
X62762086Y-100633565D01*
X62998424Y-100519751D01*
X63215159Y-100371983D01*
X63407451Y-100193563D01*
X63571002Y-99988476D01*
X63702160Y-99761304D01*
X63773140Y-99580449D01*
X63797994Y-99517123D01*
X63825031Y-99398663D01*
X63849261Y-99292506D01*
X63883367Y-99231532D01*
X63945028Y-99198673D01*
X64014666Y-99204368D01*
X64057831Y-99232421D01*
X65456107Y-100630697D01*
X65489592Y-100692020D01*
X65490266Y-100737742D01*
X65490414Y-100737756D01*
X65490287Y-100739125D01*
X65490317Y-100741153D01*
X65489884Y-100743465D01*
X65469357Y-100964999D01*
X65469357Y-100965000D01*
X65489884Y-101186535D01*
X65489885Y-101186537D01*
X65550769Y-101400523D01*
X65550775Y-101400538D01*
X65649938Y-101599683D01*
X65649943Y-101599691D01*
X65784020Y-101777238D01*
X65948437Y-101927123D01*
X65948439Y-101927125D01*
X66137595Y-102044245D01*
X66137596Y-102044245D01*
X66137599Y-102044247D01*
X66345060Y-102124618D01*
X66563757Y-102165500D01*
X66563759Y-102165500D01*
X66786241Y-102165500D01*
X66786243Y-102165500D01*
X67004940Y-102124618D01*
X67212401Y-102044247D01*
X67401562Y-101927124D01*
X67565981Y-101777236D01*
X67700058Y-101599689D01*
X67799229Y-101400528D01*
X67810848Y-101359690D01*
X67848127Y-101300597D01*
X67911437Y-101271040D01*
X67980676Y-101280402D01*
X68033863Y-101325712D01*
X68054110Y-101392583D01*
X68053642Y-101404432D01*
X68036532Y-101599998D01*
X68036532Y-101600001D01*
X68056364Y-101826686D01*
X68056366Y-101826697D01*
X68115258Y-102046488D01*
X68115261Y-102046497D01*
X68211431Y-102252732D01*
X68211432Y-102252734D01*
X68341954Y-102439141D01*
X68502858Y-102600045D01*
X68502861Y-102600047D01*
X68689266Y-102730568D01*
X68895504Y-102826739D01*
X69115308Y-102885635D01*
X69277230Y-102899801D01*
X69341998Y-102905468D01*
X69342000Y-102905468D01*
X69342002Y-102905468D01*
X69398673Y-102900509D01*
X69568692Y-102885635D01*
X69788496Y-102826739D01*
X69994734Y-102730568D01*
X70181139Y-102600047D01*
X70342047Y-102439139D01*
X70472568Y-102252734D01*
X70568739Y-102046496D01*
X70627635Y-101826692D01*
X70647468Y-101600000D01*
X70627635Y-101373308D01*
X70568739Y-101153504D01*
X70472568Y-100947266D01*
X70342047Y-100760861D01*
X70342045Y-100760858D01*
X70181141Y-100599954D01*
X69994734Y-100469432D01*
X69994732Y-100469431D01*
X69788497Y-100373261D01*
X69788488Y-100373258D01*
X69568697Y-100314366D01*
X69568693Y-100314365D01*
X69568692Y-100314365D01*
X69568691Y-100314364D01*
X69568686Y-100314364D01*
X69342002Y-100294532D01*
X69341998Y-100294532D01*
X69115313Y-100314364D01*
X69115302Y-100314366D01*
X68895511Y-100373258D01*
X68895502Y-100373261D01*
X68689267Y-100469431D01*
X68689265Y-100469432D01*
X68502858Y-100599954D01*
X68341954Y-100760858D01*
X68211432Y-100947265D01*
X68211431Y-100947267D01*
X68115261Y-101153502D01*
X68115258Y-101153512D01*
X68107914Y-101180919D01*
X68071548Y-101240578D01*
X68008700Y-101271106D01*
X67939325Y-101262809D01*
X67885448Y-101218322D01*
X67864175Y-101151770D01*
X67864668Y-101137395D01*
X67880643Y-100965000D01*
X67860115Y-100743464D01*
X67799229Y-100529472D01*
X67799224Y-100529461D01*
X67700061Y-100330316D01*
X67700056Y-100330308D01*
X67565979Y-100152761D01*
X67401562Y-100002876D01*
X67401560Y-100002874D01*
X67212404Y-99885754D01*
X67212398Y-99885752D01*
X67004940Y-99805382D01*
X66786243Y-99764500D01*
X66563757Y-99764500D01*
X66519623Y-99772749D01*
X66455571Y-99784723D01*
X66386056Y-99777691D01*
X66345106Y-99750515D01*
X62708703Y-96114112D01*
X62698880Y-96101850D01*
X62698659Y-96102034D01*
X62693686Y-96096022D01*
X62644676Y-96049999D01*
X62641877Y-96047286D01*
X62622377Y-96027785D01*
X62622371Y-96027780D01*
X62619186Y-96025309D01*
X62610334Y-96017748D01*
X62578482Y-95987838D01*
X62578480Y-95987836D01*
X62578477Y-95987835D01*
X62560929Y-95978188D01*
X62544663Y-95967504D01*
X62528832Y-95955224D01*
X62488749Y-95937878D01*
X62478263Y-95932741D01*
X62439994Y-95911703D01*
X62439992Y-95911702D01*
X62420593Y-95906722D01*
X62402181Y-95900418D01*
X62383798Y-95892462D01*
X62383792Y-95892460D01*
X62340660Y-95885629D01*
X62337622Y-95885000D01*
X65469357Y-95885000D01*
X65489884Y-96106535D01*
X65489885Y-96106537D01*
X65550769Y-96320523D01*
X65550775Y-96320538D01*
X65649938Y-96519683D01*
X65649943Y-96519691D01*
X65784020Y-96697238D01*
X65948437Y-96847123D01*
X65948439Y-96847125D01*
X66137595Y-96964245D01*
X66137596Y-96964245D01*
X66137599Y-96964247D01*
X66345060Y-97044618D01*
X66563757Y-97085500D01*
X66563759Y-97085500D01*
X66786241Y-97085500D01*
X66786243Y-97085500D01*
X67004940Y-97044618D01*
X67212401Y-96964247D01*
X67401562Y-96847124D01*
X67565981Y-96697236D01*
X67700058Y-96519689D01*
X67799229Y-96320528D01*
X67860115Y-96106536D01*
X67880643Y-95885000D01*
X67880616Y-95884714D01*
X67868923Y-95758519D01*
X67861785Y-95681489D01*
X67875200Y-95612922D01*
X67897572Y-95582372D01*
X68211624Y-95268320D01*
X68272945Y-95234837D01*
X68342633Y-95239820D01*
X68434517Y-95274091D01*
X68494127Y-95280500D01*
X70189872Y-95280499D01*
X70249483Y-95274091D01*
X70384331Y-95223796D01*
X70499546Y-95137546D01*
X70575477Y-95036115D01*
X70631410Y-94994245D01*
X70701102Y-94989261D01*
X70762425Y-95022746D01*
X70774006Y-95036111D01*
X70842454Y-95127546D01*
X70855814Y-95137547D01*
X70957664Y-95213793D01*
X70957671Y-95213797D01*
X70977276Y-95221109D01*
X71092517Y-95264091D01*
X71127596Y-95267862D01*
X71192144Y-95294599D01*
X71231993Y-95351991D01*
X71234488Y-95421816D01*
X71198836Y-95481905D01*
X71185464Y-95492725D01*
X71160858Y-95509954D01*
X70999954Y-95670858D01*
X70869432Y-95857265D01*
X70869431Y-95857267D01*
X70773261Y-96063502D01*
X70773258Y-96063511D01*
X70714366Y-96283302D01*
X70714364Y-96283313D01*
X70694532Y-96509998D01*
X70694532Y-96510001D01*
X70714364Y-96736686D01*
X70714366Y-96736697D01*
X70773258Y-96956488D01*
X70773261Y-96956497D01*
X70869431Y-97162732D01*
X70869432Y-97162734D01*
X70999954Y-97349141D01*
X71160858Y-97510045D01*
X71160861Y-97510047D01*
X71347266Y-97640568D01*
X71405275Y-97667618D01*
X71457714Y-97713791D01*
X71476866Y-97780984D01*
X71456650Y-97847865D01*
X71405275Y-97892382D01*
X71347267Y-97919431D01*
X71347265Y-97919432D01*
X71160858Y-98049954D01*
X70999954Y-98210858D01*
X70869432Y-98397265D01*
X70869431Y-98397267D01*
X70773261Y-98603502D01*
X70773258Y-98603511D01*
X70714366Y-98823302D01*
X70714364Y-98823313D01*
X70694532Y-99049998D01*
X70694532Y-99050001D01*
X70714364Y-99276686D01*
X70714366Y-99276697D01*
X70773258Y-99496488D01*
X70773261Y-99496497D01*
X70869431Y-99702732D01*
X70869432Y-99702734D01*
X70999954Y-99889141D01*
X71160858Y-100050045D01*
X71160861Y-100050047D01*
X71347266Y-100180568D01*
X71553504Y-100276739D01*
X71773308Y-100335635D01*
X71943214Y-100350499D01*
X71943215Y-100350500D01*
X71943216Y-100350500D01*
X72856785Y-100350500D01*
X72856785Y-100350499D01*
X73026692Y-100335635D01*
X73246496Y-100276739D01*
X73452734Y-100180568D01*
X73639139Y-100050047D01*
X73714137Y-99975049D01*
X73801819Y-99887368D01*
X73863142Y-99853883D01*
X73932834Y-99858867D01*
X73988767Y-99900739D01*
X74013184Y-99966203D01*
X74013500Y-99975049D01*
X74013500Y-105272010D01*
X73993815Y-105339049D01*
X73941011Y-105384804D01*
X73900308Y-105395538D01*
X73678596Y-105414936D01*
X73678586Y-105414938D01*
X73450344Y-105476094D01*
X73450335Y-105476098D01*
X73236171Y-105575964D01*
X73236169Y-105575965D01*
X73042597Y-105711505D01*
X72875505Y-105878597D01*
X72739965Y-106072169D01*
X72739964Y-106072171D01*
X72640098Y-106286335D01*
X72640094Y-106286344D01*
X72578938Y-106514586D01*
X72578936Y-106514596D01*
X72558341Y-106749999D01*
X72558341Y-106750000D01*
X72578936Y-106985403D01*
X72578938Y-106985413D01*
X72640094Y-107213655D01*
X72640096Y-107213659D01*
X72640097Y-107213663D01*
X72723358Y-107392217D01*
X72739965Y-107427830D01*
X72739967Y-107427834D01*
X72848281Y-107582521D01*
X72875505Y-107621401D01*
X73042599Y-107788495D01*
X73124001Y-107845493D01*
X73236165Y-107924032D01*
X73236167Y-107924033D01*
X73236170Y-107924035D01*
X73450337Y-108023903D01*
X73678592Y-108085063D01*
X73855034Y-108100500D01*
X73913999Y-108105659D01*
X73914000Y-108105659D01*
X73914001Y-108105659D01*
X73972966Y-108100500D01*
X74149408Y-108085063D01*
X74377663Y-108023903D01*
X74591830Y-107924035D01*
X74785401Y-107788495D01*
X74952495Y-107621401D01*
X75088035Y-107427830D01*
X75187903Y-107213663D01*
X75249063Y-106985408D01*
X75269659Y-106750000D01*
X75269396Y-106746999D01*
X75251551Y-106543031D01*
X75265317Y-106474531D01*
X75280088Y-106452519D01*
X75282526Y-106449612D01*
X75282530Y-106449610D01*
X75314382Y-106411649D01*
X75321671Y-106403694D01*
X75325591Y-106399776D01*
X75344853Y-106375413D01*
X75347076Y-106372686D01*
X75361522Y-106355470D01*
X75395302Y-106315214D01*
X75395304Y-106315209D01*
X75399274Y-106309175D01*
X75399325Y-106309208D01*
X75403369Y-106302860D01*
X75403317Y-106302828D01*
X75407106Y-106296682D01*
X75407111Y-106296677D01*
X75438832Y-106228647D01*
X75440358Y-106225496D01*
X75474040Y-106158433D01*
X75474041Y-106158428D01*
X75476508Y-106151650D01*
X75476566Y-106151671D01*
X75479043Y-106144544D01*
X75478986Y-106144526D01*
X75481256Y-106137676D01*
X75483012Y-106129171D01*
X75496439Y-106064139D01*
X75497187Y-106060762D01*
X75514500Y-105987721D01*
X75514500Y-105987717D01*
X75514501Y-105987713D01*
X75515339Y-105980548D01*
X75515398Y-105980554D01*
X75516164Y-105973054D01*
X75516105Y-105973049D01*
X75516734Y-105965859D01*
X75515853Y-105935597D01*
X75514552Y-105890869D01*
X75514500Y-105887262D01*
X75514500Y-93497705D01*
X75515809Y-93479735D01*
X75518827Y-93459130D01*
X75519289Y-93455977D01*
X75518709Y-93449350D01*
X75514972Y-93406630D01*
X75514500Y-93395822D01*
X75514500Y-93390296D01*
X75514500Y-93390291D01*
X75510901Y-93359509D01*
X75510536Y-93355929D01*
X75503999Y-93281201D01*
X75502539Y-93274129D01*
X75502597Y-93274116D01*
X75500965Y-93266757D01*
X75500906Y-93266772D01*
X75499241Y-93259751D01*
X75499241Y-93259745D01*
X75473569Y-93189212D01*
X75472421Y-93185909D01*
X75448814Y-93114666D01*
X75448810Y-93114659D01*
X75445760Y-93108118D01*
X75445815Y-93108091D01*
X75442533Y-93101313D01*
X75442480Y-93101340D01*
X75439235Y-93094880D01*
X75398025Y-93032223D01*
X75396086Y-93029181D01*
X75390144Y-93019548D01*
X75356712Y-92965345D01*
X75356711Y-92965344D01*
X75356710Y-92965342D01*
X75352234Y-92959682D01*
X75352281Y-92959644D01*
X75347519Y-92953799D01*
X75347474Y-92953838D01*
X75342831Y-92948305D01*
X75288272Y-92896831D01*
X75285685Y-92894318D01*
X71864329Y-89472961D01*
X71852549Y-89459330D01*
X71838210Y-89440070D01*
X71800251Y-89408219D01*
X71792286Y-89400918D01*
X71788380Y-89397011D01*
X71764043Y-89377768D01*
X71761247Y-89375490D01*
X71703814Y-89327298D01*
X71697780Y-89323329D01*
X71697812Y-89323280D01*
X71691453Y-89319228D01*
X71691422Y-89319279D01*
X71679131Y-89311698D01*
X71680327Y-89309758D01*
X71636152Y-89270858D01*
X71617000Y-89204654D01*
X71617000Y-86561529D01*
X71636685Y-86494490D01*
X71653315Y-86473852D01*
X71765349Y-86361817D01*
X71826672Y-86328333D01*
X71853030Y-86325499D01*
X72367871Y-86325499D01*
X72367872Y-86325499D01*
X72427483Y-86319091D01*
X72562331Y-86268796D01*
X72570379Y-86262770D01*
X72635842Y-86238351D01*
X72699474Y-86251895D01*
X72699645Y-86251483D01*
X72701875Y-86252406D01*
X72703146Y-86252677D01*
X72705273Y-86253814D01*
X72893868Y-86311024D01*
X73090000Y-86330341D01*
X73233208Y-86316236D01*
X73301852Y-86329255D01*
X73352562Y-86377320D01*
X73369237Y-86445170D01*
X73368763Y-86451793D01*
X73354659Y-86594999D01*
X73373975Y-86791129D01*
X73431188Y-86979733D01*
X73524086Y-87153532D01*
X73524090Y-87153539D01*
X73649116Y-87305883D01*
X73801460Y-87430909D01*
X73801467Y-87430913D01*
X73975266Y-87523811D01*
X73975269Y-87523811D01*
X73975273Y-87523814D01*
X74163868Y-87581024D01*
X74360000Y-87600341D01*
X74556132Y-87581024D01*
X74744727Y-87523814D01*
X74918538Y-87430910D01*
X74918544Y-87430904D01*
X74923607Y-87427523D01*
X74924703Y-87429164D01*
X74980639Y-87405405D01*
X75049507Y-87417194D01*
X75066148Y-87427888D01*
X75066393Y-87427523D01*
X75071458Y-87430907D01*
X75071462Y-87430910D01*
X75213077Y-87506605D01*
X75245263Y-87523809D01*
X75245273Y-87523814D01*
X75433868Y-87581024D01*
X75630000Y-87600341D01*
X75826132Y-87581024D01*
X76014727Y-87523814D01*
X76188538Y-87430910D01*
X76188544Y-87430904D01*
X76193607Y-87427523D01*
X76194703Y-87429164D01*
X76250639Y-87405405D01*
X76319507Y-87417194D01*
X76336148Y-87427888D01*
X76336393Y-87427523D01*
X76341458Y-87430907D01*
X76341462Y-87430910D01*
X76483077Y-87506605D01*
X76515263Y-87523809D01*
X76515273Y-87523814D01*
X76703868Y-87581024D01*
X76900000Y-87600341D01*
X77096132Y-87581024D01*
X77284727Y-87523814D01*
X77458538Y-87430910D01*
X77458544Y-87430904D01*
X77463607Y-87427523D01*
X77464703Y-87429164D01*
X77520639Y-87405405D01*
X77589507Y-87417194D01*
X77606148Y-87427888D01*
X77606393Y-87427523D01*
X77611458Y-87430907D01*
X77611462Y-87430910D01*
X77753077Y-87506605D01*
X77785263Y-87523809D01*
X77785273Y-87523814D01*
X77973868Y-87581024D01*
X78170000Y-87600341D01*
X78366132Y-87581024D01*
X78520986Y-87534048D01*
X78590852Y-87533425D01*
X78649965Y-87570672D01*
X78679556Y-87633966D01*
X78670231Y-87703211D01*
X78644662Y-87740390D01*
X78070483Y-88314569D01*
X78057910Y-88324643D01*
X78058065Y-88324830D01*
X78052058Y-88329799D01*
X78004133Y-88380833D01*
X78001427Y-88383625D01*
X77981090Y-88403963D01*
X77981077Y-88403978D01*
X77978373Y-88407463D01*
X77970806Y-88416322D01*
X77939552Y-88449607D01*
X77929322Y-88468213D01*
X77918646Y-88484464D01*
X77905640Y-88501232D01*
X77905636Y-88501238D01*
X77887508Y-88543130D01*
X77882369Y-88553619D01*
X77860372Y-88593630D01*
X77860372Y-88593631D01*
X77855091Y-88614199D01*
X77848791Y-88632601D01*
X77840364Y-88652073D01*
X77833223Y-88697162D01*
X77830854Y-88708600D01*
X77819500Y-88752817D01*
X77819500Y-88774044D01*
X77817973Y-88793444D01*
X77814653Y-88814403D01*
X77818950Y-88859858D01*
X77819500Y-88871528D01*
X77819500Y-98831494D01*
X77817732Y-98847505D01*
X77817974Y-98847528D01*
X77817240Y-98855294D01*
X77819439Y-98925262D01*
X77819500Y-98929157D01*
X77819500Y-98957920D01*
X77819501Y-98957938D01*
X77820053Y-98962311D01*
X77820968Y-98973941D01*
X77822402Y-99019567D01*
X77822403Y-99019570D01*
X77828323Y-99039948D01*
X77832268Y-99058996D01*
X77834928Y-99080054D01*
X77834931Y-99080065D01*
X77851737Y-99122514D01*
X77855520Y-99133563D01*
X77868254Y-99177395D01*
X77868255Y-99177397D01*
X77879060Y-99195666D01*
X77887617Y-99213134D01*
X77892795Y-99226211D01*
X77895432Y-99232872D01*
X77922266Y-99269806D01*
X77928678Y-99279568D01*
X77947821Y-99311937D01*
X77951919Y-99318865D01*
X77951923Y-99318869D01*
X77966925Y-99333871D01*
X77979563Y-99348669D01*
X77992033Y-99365833D01*
X77992036Y-99365837D01*
X78027213Y-99394937D01*
X78035854Y-99402800D01*
X78082564Y-99449510D01*
X78092635Y-99462080D01*
X78092822Y-99461926D01*
X78097795Y-99467937D01*
X78148832Y-99515864D01*
X78151629Y-99518575D01*
X78171967Y-99538913D01*
X78175450Y-99541615D01*
X78184326Y-99549196D01*
X78210145Y-99573441D01*
X78217607Y-99580448D01*
X78217609Y-99580449D01*
X78236205Y-99590672D01*
X78252470Y-99601357D01*
X78269232Y-99614360D01*
X78269235Y-99614361D01*
X78269236Y-99614362D01*
X78311140Y-99632495D01*
X78321612Y-99637625D01*
X78361632Y-99659627D01*
X78377340Y-99663659D01*
X78382186Y-99664904D01*
X78400598Y-99671207D01*
X78420073Y-99679635D01*
X78427900Y-99680874D01*
X78491035Y-99710800D01*
X78510080Y-99732223D01*
X78530443Y-99761304D01*
X78619954Y-99889141D01*
X78780858Y-100050045D01*
X78780861Y-100050047D01*
X78967266Y-100180568D01*
X79173504Y-100276739D01*
X79393308Y-100335635D01*
X79563214Y-100350499D01*
X79563215Y-100350500D01*
X79563216Y-100350500D01*
X80476785Y-100350500D01*
X80476785Y-100350499D01*
X80646692Y-100335635D01*
X80866496Y-100276739D01*
X81072734Y-100180568D01*
X81134378Y-100137404D01*
X81200583Y-100115078D01*
X81268350Y-100132088D01*
X81316163Y-100183036D01*
X81329500Y-100238980D01*
X81329500Y-105311506D01*
X81309815Y-105378545D01*
X81257011Y-105424300D01*
X81237593Y-105431281D01*
X81070344Y-105476094D01*
X81070335Y-105476098D01*
X80856171Y-105575964D01*
X80856169Y-105575965D01*
X80662597Y-105711505D01*
X80495505Y-105878597D01*
X80359965Y-106072169D01*
X80359964Y-106072171D01*
X80260098Y-106286335D01*
X80260094Y-106286344D01*
X80198938Y-106514586D01*
X80198936Y-106514596D01*
X80178341Y-106749999D01*
X80178341Y-106750000D01*
X80198936Y-106985403D01*
X80198938Y-106985413D01*
X80260094Y-107213655D01*
X80260096Y-107213659D01*
X80260097Y-107213663D01*
X80343358Y-107392217D01*
X80359965Y-107427830D01*
X80359967Y-107427834D01*
X80468281Y-107582521D01*
X80495505Y-107621401D01*
X80662599Y-107788495D01*
X80744001Y-107845493D01*
X80856165Y-107924032D01*
X80856167Y-107924033D01*
X80856170Y-107924035D01*
X81070337Y-108023903D01*
X81298592Y-108085063D01*
X81475034Y-108100500D01*
X81533999Y-108105659D01*
X81534000Y-108105659D01*
X81534001Y-108105659D01*
X81592966Y-108100500D01*
X81769408Y-108085063D01*
X81997663Y-108023903D01*
X82211830Y-107924035D01*
X82405401Y-107788495D01*
X82572495Y-107621401D01*
X82702425Y-107435842D01*
X82757002Y-107392217D01*
X82826500Y-107385023D01*
X82888855Y-107416546D01*
X82905575Y-107435842D01*
X83035500Y-107621395D01*
X83035505Y-107621401D01*
X83202599Y-107788495D01*
X83284001Y-107845493D01*
X83396165Y-107924032D01*
X83396167Y-107924033D01*
X83396170Y-107924035D01*
X83610337Y-108023903D01*
X83838592Y-108085063D01*
X84015034Y-108100500D01*
X84073999Y-108105659D01*
X84074000Y-108105659D01*
X84074001Y-108105659D01*
X84132966Y-108100500D01*
X84309408Y-108085063D01*
X84537663Y-108023903D01*
X84751830Y-107924035D01*
X84945401Y-107788495D01*
X85067329Y-107666566D01*
X85128648Y-107633084D01*
X85198340Y-107638068D01*
X85254274Y-107679939D01*
X85271189Y-107710917D01*
X85320202Y-107842328D01*
X85320206Y-107842335D01*
X85406452Y-107957544D01*
X85406455Y-107957547D01*
X85521664Y-108043793D01*
X85521671Y-108043797D01*
X85656517Y-108094091D01*
X85656516Y-108094091D01*
X85663444Y-108094835D01*
X85716127Y-108100500D01*
X87511872Y-108100499D01*
X87571483Y-108094091D01*
X87706331Y-108043796D01*
X87821546Y-107957546D01*
X87907796Y-107842331D01*
X87958091Y-107707483D01*
X87964500Y-107647873D01*
X87964500Y-106807000D01*
X101260341Y-106807000D01*
X101280936Y-107042403D01*
X101280938Y-107042413D01*
X101342094Y-107270655D01*
X101342096Y-107270659D01*
X101342097Y-107270663D01*
X101422004Y-107442023D01*
X101441965Y-107484830D01*
X101441967Y-107484834D01*
X101550281Y-107639521D01*
X101577505Y-107678401D01*
X101744599Y-107845495D01*
X101841384Y-107913265D01*
X101938165Y-107981032D01*
X101938167Y-107981033D01*
X101938170Y-107981035D01*
X102152337Y-108080903D01*
X102152343Y-108080904D01*
X102152344Y-108080905D01*
X102175976Y-108087237D01*
X102380592Y-108142063D01*
X102568918Y-108158539D01*
X102615999Y-108162659D01*
X102616000Y-108162659D01*
X102616001Y-108162659D01*
X102655234Y-108159226D01*
X102851408Y-108142063D01*
X103079663Y-108080903D01*
X103293830Y-107981035D01*
X103487401Y-107845495D01*
X103654495Y-107678401D01*
X103790035Y-107484830D01*
X103889903Y-107270663D01*
X103951063Y-107042408D01*
X103971659Y-106807000D01*
X103951063Y-106571592D01*
X103889903Y-106343337D01*
X103790035Y-106129171D01*
X103784425Y-106121158D01*
X103654494Y-105935597D01*
X103487402Y-105768506D01*
X103487396Y-105768501D01*
X103301842Y-105638575D01*
X103258217Y-105583998D01*
X103251023Y-105514500D01*
X103282546Y-105452145D01*
X103301842Y-105435425D01*
X103343995Y-105405909D01*
X103487401Y-105305495D01*
X103654495Y-105138401D01*
X103790035Y-104944830D01*
X103889903Y-104730663D01*
X103951063Y-104502408D01*
X103971659Y-104267000D01*
X103951063Y-104031592D01*
X103889903Y-103803337D01*
X103790035Y-103589171D01*
X103772959Y-103564783D01*
X103654494Y-103395597D01*
X103487402Y-103228506D01*
X103487395Y-103228501D01*
X103293834Y-103092967D01*
X103293830Y-103092965D01*
X103165164Y-103032967D01*
X103079663Y-102993097D01*
X103079659Y-102993096D01*
X103079655Y-102993094D01*
X102851413Y-102931938D01*
X102851403Y-102931936D01*
X102616001Y-102911341D01*
X102615999Y-102911341D01*
X102380596Y-102931936D01*
X102380586Y-102931938D01*
X102152344Y-102993094D01*
X102152335Y-102993098D01*
X101938171Y-103092964D01*
X101938169Y-103092965D01*
X101744597Y-103228505D01*
X101577505Y-103395597D01*
X101441965Y-103589169D01*
X101441964Y-103589171D01*
X101342098Y-103803335D01*
X101342094Y-103803344D01*
X101280938Y-104031586D01*
X101280936Y-104031596D01*
X101260341Y-104266999D01*
X101260341Y-104267000D01*
X101280936Y-104502403D01*
X101280938Y-104502413D01*
X101342094Y-104730655D01*
X101342096Y-104730659D01*
X101342097Y-104730663D01*
X101433564Y-104926815D01*
X101441965Y-104944830D01*
X101441967Y-104944834D01*
X101535493Y-105078402D01*
X101577501Y-105138396D01*
X101577506Y-105138402D01*
X101744597Y-105305493D01*
X101744603Y-105305498D01*
X101930158Y-105435425D01*
X101973783Y-105490002D01*
X101980977Y-105559500D01*
X101949454Y-105621855D01*
X101930158Y-105638575D01*
X101744597Y-105768505D01*
X101577505Y-105935597D01*
X101441965Y-106129169D01*
X101441964Y-106129171D01*
X101342098Y-106343335D01*
X101342094Y-106343344D01*
X101280938Y-106571586D01*
X101280936Y-106571596D01*
X101260341Y-106806999D01*
X101260341Y-106807000D01*
X87964500Y-106807000D01*
X87964499Y-105852128D01*
X87958091Y-105792517D01*
X87949135Y-105768506D01*
X87907797Y-105657671D01*
X87907793Y-105657664D01*
X87821547Y-105542455D01*
X87821544Y-105542452D01*
X87706335Y-105456206D01*
X87706328Y-105456202D01*
X87571482Y-105405908D01*
X87571483Y-105405908D01*
X87511883Y-105399501D01*
X87511881Y-105399500D01*
X87511873Y-105399500D01*
X87511865Y-105399500D01*
X87025400Y-105399500D01*
X86958361Y-105379815D01*
X86912606Y-105327011D01*
X86901400Y-105275500D01*
X86901400Y-88433642D01*
X86903124Y-88418022D01*
X86902839Y-88417995D01*
X86903573Y-88410233D01*
X86901461Y-88343012D01*
X86901400Y-88339118D01*
X86901400Y-88311556D01*
X86901400Y-88311550D01*
X86900896Y-88307568D01*
X86899981Y-88295929D01*
X86898610Y-88252273D01*
X86893019Y-88233030D01*
X86889073Y-88213978D01*
X86886564Y-88194108D01*
X86870479Y-88153483D01*
X86866706Y-88142462D01*
X86854518Y-88100510D01*
X86854517Y-88100509D01*
X86854517Y-88100507D01*
X86854516Y-88100506D01*
X86844323Y-88083271D01*
X86835761Y-88065794D01*
X86828387Y-88047169D01*
X86802716Y-88011837D01*
X86796305Y-88002077D01*
X86774070Y-87964480D01*
X86774068Y-87964478D01*
X86774065Y-87964474D01*
X86759906Y-87950315D01*
X86747268Y-87935519D01*
X86744695Y-87931977D01*
X86735494Y-87919313D01*
X86728936Y-87913888D01*
X86701840Y-87891472D01*
X86693199Y-87883609D01*
X86531941Y-87722351D01*
X86498456Y-87661028D01*
X86503440Y-87591336D01*
X86545312Y-87535403D01*
X86610776Y-87510986D01*
X86668865Y-87523354D01*
X86669641Y-87521482D01*
X86675260Y-87523809D01*
X86675268Y-87523811D01*
X86675273Y-87523814D01*
X86863868Y-87581024D01*
X87060000Y-87600341D01*
X87256132Y-87581024D01*
X87444727Y-87523814D01*
X87618538Y-87430910D01*
X87618544Y-87430904D01*
X87623607Y-87427523D01*
X87624703Y-87429164D01*
X87680639Y-87405405D01*
X87749507Y-87417194D01*
X87766148Y-87427888D01*
X87766393Y-87427523D01*
X87771458Y-87430907D01*
X87771462Y-87430910D01*
X87913077Y-87506605D01*
X87945263Y-87523809D01*
X87945273Y-87523814D01*
X88133868Y-87581024D01*
X88330000Y-87600341D01*
X88381560Y-87595262D01*
X88450203Y-87608280D01*
X88481394Y-87630984D01*
X88764297Y-87913888D01*
X88774122Y-87926151D01*
X88774343Y-87925969D01*
X88779311Y-87931974D01*
X88779313Y-87931976D01*
X88779314Y-87931977D01*
X88813926Y-87964480D01*
X88828322Y-87977999D01*
X88831121Y-87980712D01*
X88850622Y-88000214D01*
X88850626Y-88000217D01*
X88850629Y-88000220D01*
X88853802Y-88002681D01*
X88862674Y-88010259D01*
X88894518Y-88040162D01*
X88912076Y-88049814D01*
X88928335Y-88060495D01*
X88944164Y-88072773D01*
X88984255Y-88090121D01*
X88994726Y-88095251D01*
X89004292Y-88100510D01*
X89033002Y-88116294D01*
X89033004Y-88116295D01*
X89033008Y-88116297D01*
X89052416Y-88121280D01*
X89070819Y-88127581D01*
X89089201Y-88135536D01*
X89089202Y-88135536D01*
X89089204Y-88135537D01*
X89132350Y-88142370D01*
X89143772Y-88144736D01*
X89186081Y-88155600D01*
X89206116Y-88155600D01*
X89225514Y-88157126D01*
X89245294Y-88160259D01*
X89245295Y-88160260D01*
X89245295Y-88160259D01*
X89245296Y-88160260D01*
X89288775Y-88156150D01*
X89300444Y-88155600D01*
X89866848Y-88155600D01*
X89933887Y-88175285D01*
X89954529Y-88191919D01*
X105671081Y-103908471D01*
X105704566Y-103969794D01*
X105707400Y-103996152D01*
X105707400Y-104521555D01*
X105705675Y-104537172D01*
X105705961Y-104537199D01*
X105705226Y-104544965D01*
X105707339Y-104612172D01*
X105707400Y-104616067D01*
X105707400Y-104643657D01*
X105707903Y-104647635D01*
X105708818Y-104659267D01*
X105710190Y-104702924D01*
X105710191Y-104702927D01*
X105715780Y-104722167D01*
X105719724Y-104741211D01*
X105722236Y-104761092D01*
X105738314Y-104801703D01*
X105742097Y-104812752D01*
X105754281Y-104854688D01*
X105764480Y-104871934D01*
X105773036Y-104889400D01*
X105777718Y-104901224D01*
X105780414Y-104908032D01*
X105806081Y-104943360D01*
X105812493Y-104953121D01*
X105834728Y-104990717D01*
X105834733Y-104990724D01*
X105848890Y-105004880D01*
X105861527Y-105019675D01*
X105873306Y-105035887D01*
X105902589Y-105060112D01*
X105906957Y-105063725D01*
X105915598Y-105071588D01*
X106634218Y-105790208D01*
X106667703Y-105851531D01*
X106662719Y-105921223D01*
X106648112Y-105949012D01*
X106521965Y-106129169D01*
X106521964Y-106129171D01*
X106422098Y-106343335D01*
X106422094Y-106343344D01*
X106360938Y-106571586D01*
X106360936Y-106571596D01*
X106340341Y-106806999D01*
X106340341Y-106807000D01*
X106360936Y-107042403D01*
X106360938Y-107042413D01*
X106422094Y-107270655D01*
X106422096Y-107270659D01*
X106422097Y-107270663D01*
X106502004Y-107442023D01*
X106521965Y-107484830D01*
X106521967Y-107484834D01*
X106630281Y-107639521D01*
X106657505Y-107678401D01*
X106824599Y-107845495D01*
X106921384Y-107913265D01*
X107018165Y-107981032D01*
X107018167Y-107981033D01*
X107018170Y-107981035D01*
X107232337Y-108080903D01*
X107232343Y-108080904D01*
X107232344Y-108080905D01*
X107255976Y-108087237D01*
X107460592Y-108142063D01*
X107648918Y-108158539D01*
X107695999Y-108162659D01*
X107696000Y-108162659D01*
X107696001Y-108162659D01*
X107735234Y-108159226D01*
X107931408Y-108142063D01*
X108159663Y-108080903D01*
X108373830Y-107981035D01*
X108567401Y-107845495D01*
X108734495Y-107678401D01*
X108864425Y-107492842D01*
X108919002Y-107449217D01*
X108988500Y-107442023D01*
X109050855Y-107473546D01*
X109067575Y-107492842D01*
X109197500Y-107678395D01*
X109197505Y-107678401D01*
X109364599Y-107845495D01*
X109461384Y-107913265D01*
X109558165Y-107981032D01*
X109558167Y-107981033D01*
X109558170Y-107981035D01*
X109772337Y-108080903D01*
X109772343Y-108080904D01*
X109772344Y-108080905D01*
X109795976Y-108087237D01*
X110000592Y-108142063D01*
X110188918Y-108158539D01*
X110235999Y-108162659D01*
X110236000Y-108162659D01*
X110236001Y-108162659D01*
X110275234Y-108159226D01*
X110471408Y-108142063D01*
X110699663Y-108080903D01*
X110913830Y-107981035D01*
X111107401Y-107845495D01*
X111274495Y-107678401D01*
X111404425Y-107492842D01*
X111459002Y-107449217D01*
X111528500Y-107442023D01*
X111590855Y-107473546D01*
X111607575Y-107492842D01*
X111737500Y-107678395D01*
X111737505Y-107678401D01*
X111904599Y-107845495D01*
X112001384Y-107913265D01*
X112098165Y-107981032D01*
X112098167Y-107981033D01*
X112098170Y-107981035D01*
X112312337Y-108080903D01*
X112312343Y-108080904D01*
X112312344Y-108080905D01*
X112335976Y-108087237D01*
X112540592Y-108142063D01*
X112728918Y-108158539D01*
X112775999Y-108162659D01*
X112776000Y-108162659D01*
X112776001Y-108162659D01*
X112815234Y-108159226D01*
X113011408Y-108142063D01*
X113239663Y-108080903D01*
X113453830Y-107981035D01*
X113647401Y-107845495D01*
X113814495Y-107678401D01*
X113944425Y-107492842D01*
X113999002Y-107449217D01*
X114068500Y-107442023D01*
X114130855Y-107473546D01*
X114147575Y-107492842D01*
X114277500Y-107678395D01*
X114277505Y-107678401D01*
X114444599Y-107845495D01*
X114541384Y-107913265D01*
X114638165Y-107981032D01*
X114638167Y-107981033D01*
X114638170Y-107981035D01*
X114852337Y-108080903D01*
X114852343Y-108080904D01*
X114852344Y-108080905D01*
X114875976Y-108087237D01*
X115080592Y-108142063D01*
X115268918Y-108158539D01*
X115315999Y-108162659D01*
X115316000Y-108162659D01*
X115316001Y-108162659D01*
X115355234Y-108159226D01*
X115551408Y-108142063D01*
X115779663Y-108080903D01*
X115993830Y-107981035D01*
X116187401Y-107845495D01*
X116354495Y-107678401D01*
X116490035Y-107484830D01*
X116589903Y-107270663D01*
X116651063Y-107042408D01*
X116671659Y-106807000D01*
X116651063Y-106571592D01*
X116589903Y-106343337D01*
X116544423Y-106245805D01*
X116533931Y-106176727D01*
X116562451Y-106112943D01*
X116620927Y-106074704D01*
X116656805Y-106069400D01*
X117014648Y-106069400D01*
X117081687Y-106089085D01*
X117102328Y-106105718D01*
X118218641Y-107222032D01*
X119332497Y-108335888D01*
X119342322Y-108348151D01*
X119342543Y-108347969D01*
X119347511Y-108353974D01*
X119396522Y-108399999D01*
X119399321Y-108402712D01*
X119418822Y-108422214D01*
X119418826Y-108422217D01*
X119418829Y-108422220D01*
X119422002Y-108424681D01*
X119430874Y-108432259D01*
X119462718Y-108462162D01*
X119480276Y-108471814D01*
X119496535Y-108482495D01*
X119512364Y-108494773D01*
X119552455Y-108512121D01*
X119562926Y-108517251D01*
X119585480Y-108529650D01*
X119601202Y-108538294D01*
X119601204Y-108538295D01*
X119601208Y-108538297D01*
X119620616Y-108543280D01*
X119639019Y-108549581D01*
X119657401Y-108557536D01*
X119657402Y-108557536D01*
X119657404Y-108557537D01*
X119700550Y-108564370D01*
X119711972Y-108566736D01*
X119754281Y-108577600D01*
X119774316Y-108577600D01*
X119793714Y-108579126D01*
X119813494Y-108582259D01*
X119813495Y-108582260D01*
X119813495Y-108582259D01*
X119813496Y-108582260D01*
X119856975Y-108578150D01*
X119868644Y-108577600D01*
X138158157Y-108577600D01*
X138173777Y-108579324D01*
X138173804Y-108579039D01*
X138181560Y-108579771D01*
X138181567Y-108579773D01*
X138248773Y-108577661D01*
X138252668Y-108577600D01*
X138280246Y-108577600D01*
X138280250Y-108577600D01*
X138284224Y-108577097D01*
X138295863Y-108576180D01*
X138339527Y-108574809D01*
X138358769Y-108569217D01*
X138377812Y-108565274D01*
X138397692Y-108562764D01*
X138438301Y-108546685D01*
X138449344Y-108542903D01*
X138491290Y-108530718D01*
X138508529Y-108520522D01*
X138526003Y-108511962D01*
X138544627Y-108504588D01*
X138544627Y-108504587D01*
X138544632Y-108504586D01*
X138579983Y-108478900D01*
X138589714Y-108472508D01*
X138627320Y-108450270D01*
X138641489Y-108436099D01*
X138656279Y-108423468D01*
X138672487Y-108411694D01*
X138700338Y-108378026D01*
X138708179Y-108369409D01*
X138990353Y-108087235D01*
X139051674Y-108053752D01*
X139110125Y-108055143D01*
X139144780Y-108064428D01*
X139210592Y-108082063D01*
X139398918Y-108098539D01*
X139445999Y-108102659D01*
X139446000Y-108102659D01*
X139446001Y-108102659D01*
X139485234Y-108099226D01*
X139681408Y-108082063D01*
X139909663Y-108020903D01*
X140123830Y-107921035D01*
X140317401Y-107785495D01*
X140484495Y-107618401D01*
X140614425Y-107432842D01*
X140669002Y-107389217D01*
X140738500Y-107382023D01*
X140800855Y-107413546D01*
X140817575Y-107432842D01*
X140947500Y-107618395D01*
X140947505Y-107618401D01*
X141114599Y-107785495D01*
X141195765Y-107842328D01*
X141308165Y-107921032D01*
X141308167Y-107921033D01*
X141308170Y-107921035D01*
X141522337Y-108020903D01*
X141522343Y-108020904D01*
X141522344Y-108020905D01*
X141577285Y-108035626D01*
X141750592Y-108082063D01*
X141938918Y-108098539D01*
X141985999Y-108102659D01*
X141986000Y-108102659D01*
X141986001Y-108102659D01*
X142025234Y-108099226D01*
X142221408Y-108082063D01*
X142449663Y-108020903D01*
X142663830Y-107921035D01*
X142857401Y-107785495D01*
X143024495Y-107618401D01*
X143160035Y-107424830D01*
X143259903Y-107210663D01*
X143321063Y-106982408D01*
X143341659Y-106747000D01*
X143321063Y-106511592D01*
X143259903Y-106283337D01*
X143160035Y-106069171D01*
X143160031Y-106069166D01*
X143024496Y-105875600D01*
X142986262Y-105837366D01*
X142902567Y-105753671D01*
X142869084Y-105692351D01*
X142874068Y-105622659D01*
X142915939Y-105566725D01*
X142946915Y-105549810D01*
X143078331Y-105500796D01*
X143193546Y-105414546D01*
X143279796Y-105299331D01*
X143330091Y-105164483D01*
X143336500Y-105104873D01*
X143336499Y-103309128D01*
X143330091Y-103249517D01*
X143328810Y-103246083D01*
X143279797Y-103114671D01*
X143279793Y-103114664D01*
X143193547Y-102999455D01*
X143193544Y-102999452D01*
X143078335Y-102913206D01*
X143078328Y-102913202D01*
X142943482Y-102862908D01*
X142943483Y-102862908D01*
X142883883Y-102856501D01*
X142883881Y-102856500D01*
X142883873Y-102856500D01*
X142883864Y-102856500D01*
X141088129Y-102856500D01*
X141088123Y-102856501D01*
X141028516Y-102862908D01*
X140893671Y-102913202D01*
X140893664Y-102913206D01*
X140778455Y-102999452D01*
X140778452Y-102999455D01*
X140692206Y-103114664D01*
X140692203Y-103114669D01*
X140643189Y-103246083D01*
X140601317Y-103302016D01*
X140535853Y-103326433D01*
X140467580Y-103311581D01*
X140439326Y-103290430D01*
X140317402Y-103168506D01*
X140317395Y-103168501D01*
X140123834Y-103032967D01*
X140123830Y-103032965D01*
X140123828Y-103032964D01*
X139909663Y-102933097D01*
X139909659Y-102933096D01*
X139909655Y-102933094D01*
X139681413Y-102871938D01*
X139681403Y-102871936D01*
X139446001Y-102851341D01*
X139445999Y-102851341D01*
X139210596Y-102871936D01*
X139210586Y-102871938D01*
X138982344Y-102933094D01*
X138982335Y-102933098D01*
X138768171Y-103032964D01*
X138768169Y-103032965D01*
X138574597Y-103168505D01*
X138407505Y-103335597D01*
X138277575Y-103521158D01*
X138222998Y-103564783D01*
X138153500Y-103571977D01*
X138091145Y-103540454D01*
X138074425Y-103521158D01*
X137944494Y-103335597D01*
X137777402Y-103168506D01*
X137777395Y-103168501D01*
X137583834Y-103032967D01*
X137583830Y-103032965D01*
X137583828Y-103032964D01*
X137369663Y-102933097D01*
X137369659Y-102933096D01*
X137369655Y-102933094D01*
X137141413Y-102871938D01*
X137141403Y-102871936D01*
X136906001Y-102851341D01*
X136905999Y-102851341D01*
X136670596Y-102871936D01*
X136670586Y-102871938D01*
X136442344Y-102933094D01*
X136442335Y-102933098D01*
X136228171Y-103032964D01*
X136228169Y-103032965D01*
X136034597Y-103168505D01*
X135867505Y-103335597D01*
X135737575Y-103521158D01*
X135682998Y-103564783D01*
X135613500Y-103571977D01*
X135551145Y-103540454D01*
X135534425Y-103521158D01*
X135404494Y-103335597D01*
X135237402Y-103168506D01*
X135237395Y-103168501D01*
X135043834Y-103032967D01*
X135043830Y-103032965D01*
X135043828Y-103032964D01*
X134829663Y-102933097D01*
X134829659Y-102933096D01*
X134829655Y-102933094D01*
X134601413Y-102871938D01*
X134601403Y-102871936D01*
X134366001Y-102851341D01*
X134365999Y-102851341D01*
X134130596Y-102871936D01*
X134130586Y-102871938D01*
X133902344Y-102933094D01*
X133902335Y-102933098D01*
X133688171Y-103032964D01*
X133688169Y-103032965D01*
X133494597Y-103168505D01*
X133327505Y-103335597D01*
X133191965Y-103529169D01*
X133191964Y-103529171D01*
X133092098Y-103743335D01*
X133092094Y-103743344D01*
X133030938Y-103971586D01*
X133030936Y-103971596D01*
X133010341Y-104206999D01*
X133010341Y-104207000D01*
X133030937Y-104442408D01*
X133057855Y-104542873D01*
X133056192Y-104612723D01*
X133025761Y-104662646D01*
X132778226Y-104910182D01*
X132716906Y-104943666D01*
X132690547Y-104946500D01*
X130625919Y-104946500D01*
X130558880Y-104926815D01*
X130513125Y-104874011D01*
X130503181Y-104804853D01*
X130513537Y-104770095D01*
X130524814Y-104745911D01*
X130559903Y-104670663D01*
X130621063Y-104442408D01*
X130641659Y-104207000D01*
X130621063Y-103971592D01*
X130559903Y-103743337D01*
X130460035Y-103529171D01*
X130454425Y-103521158D01*
X130324494Y-103335597D01*
X130157402Y-103168506D01*
X130157395Y-103168501D01*
X129963834Y-103032967D01*
X129963830Y-103032965D01*
X129963828Y-103032964D01*
X129749663Y-102933097D01*
X129749659Y-102933096D01*
X129749655Y-102933094D01*
X129521413Y-102871938D01*
X129521403Y-102871936D01*
X129286001Y-102851341D01*
X129285999Y-102851341D01*
X129050596Y-102871936D01*
X129050586Y-102871938D01*
X128822344Y-102933094D01*
X128822335Y-102933098D01*
X128608171Y-103032964D01*
X128608169Y-103032965D01*
X128414597Y-103168505D01*
X128247505Y-103335597D01*
X128111965Y-103529169D01*
X128111964Y-103529171D01*
X128012098Y-103743335D01*
X128012094Y-103743345D01*
X128009871Y-103751642D01*
X127973504Y-103811301D01*
X127910657Y-103841829D01*
X127841281Y-103833532D01*
X127802416Y-103807226D01*
X127306771Y-103311581D01*
X126692843Y-102697652D01*
X126675828Y-102676414D01*
X126616202Y-102582459D01*
X126496396Y-102469954D01*
X126496388Y-102469948D01*
X126352371Y-102390774D01*
X126352361Y-102390771D01*
X126193180Y-102349900D01*
X126193177Y-102349900D01*
X114225252Y-102349900D01*
X114158213Y-102330215D01*
X114137571Y-102313581D01*
X110054686Y-98230695D01*
X110021201Y-98169372D01*
X110026185Y-98099680D01*
X110068057Y-98043747D01*
X110083338Y-98033966D01*
X110237626Y-97950470D01*
X110420784Y-97807913D01*
X110577979Y-97637153D01*
X110704924Y-97442849D01*
X110798157Y-97230300D01*
X110855134Y-97005305D01*
X110858536Y-96964247D01*
X110874300Y-96774006D01*
X113148700Y-96774006D01*
X113167864Y-97005297D01*
X113167866Y-97005308D01*
X113224842Y-97230300D01*
X113318075Y-97442848D01*
X113445016Y-97637147D01*
X113445019Y-97637151D01*
X113445021Y-97637153D01*
X113602216Y-97807913D01*
X113602219Y-97807915D01*
X113602222Y-97807918D01*
X113785365Y-97950464D01*
X113785371Y-97950468D01*
X113785374Y-97950470D01*
X113939648Y-98033959D01*
X113987741Y-98059986D01*
X113989497Y-98060936D01*
X114048096Y-98081053D01*
X114209015Y-98136297D01*
X114209017Y-98136297D01*
X114209019Y-98136298D01*
X114437951Y-98174500D01*
X114437952Y-98174500D01*
X114670048Y-98174500D01*
X114670049Y-98174500D01*
X114898981Y-98136298D01*
X115118503Y-98060936D01*
X115322626Y-97950470D01*
X115505784Y-97807913D01*
X115662979Y-97637153D01*
X115789924Y-97442849D01*
X115883157Y-97230300D01*
X115940134Y-97005305D01*
X115943536Y-96964247D01*
X115959300Y-96774006D01*
X115959300Y-96773993D01*
X115940135Y-96542702D01*
X115940133Y-96542691D01*
X115883157Y-96317699D01*
X115789924Y-96105151D01*
X115662979Y-95910846D01*
X115662977Y-95910844D01*
X115658266Y-95905726D01*
X115627347Y-95843070D01*
X115625500Y-95821748D01*
X115625500Y-93952132D01*
X115645185Y-93885093D01*
X115697989Y-93839338D01*
X115767147Y-93829394D01*
X115828539Y-93856588D01*
X115835108Y-93862022D01*
X115844058Y-93869426D01*
X115852698Y-93877288D01*
X118252650Y-96277240D01*
X118286135Y-96338563D01*
X118285175Y-96395361D01*
X118247866Y-96542690D01*
X118247864Y-96542702D01*
X118228700Y-96773993D01*
X118228700Y-96774006D01*
X118247864Y-97005297D01*
X118247866Y-97005308D01*
X118304842Y-97230300D01*
X118398075Y-97442848D01*
X118525016Y-97637147D01*
X118525019Y-97637151D01*
X118525021Y-97637153D01*
X118682216Y-97807913D01*
X118682219Y-97807915D01*
X118682222Y-97807918D01*
X118865365Y-97950464D01*
X118865371Y-97950468D01*
X118865374Y-97950470D01*
X119019648Y-98033959D01*
X119067741Y-98059986D01*
X119069497Y-98060936D01*
X119128096Y-98081053D01*
X119289015Y-98136297D01*
X119289017Y-98136297D01*
X119289019Y-98136298D01*
X119517951Y-98174500D01*
X119517952Y-98174500D01*
X119750048Y-98174500D01*
X119750049Y-98174500D01*
X119978981Y-98136298D01*
X120198503Y-98060936D01*
X120402626Y-97950470D01*
X120585784Y-97807913D01*
X120742979Y-97637153D01*
X120869924Y-97442849D01*
X120963157Y-97230300D01*
X121020134Y-97005305D01*
X121023536Y-96964247D01*
X121039300Y-96774006D01*
X121039300Y-96773993D01*
X121020135Y-96542702D01*
X121020133Y-96542691D01*
X120963157Y-96317699D01*
X120869924Y-96105151D01*
X120742983Y-95910852D01*
X120742980Y-95910849D01*
X120742979Y-95910847D01*
X120585784Y-95740087D01*
X120585779Y-95740083D01*
X120585777Y-95740081D01*
X120402634Y-95597535D01*
X120402628Y-95597531D01*
X120198504Y-95487064D01*
X120198495Y-95487061D01*
X119978984Y-95411702D01*
X119807282Y-95383050D01*
X119750049Y-95373500D01*
X119517951Y-95373500D01*
X119460718Y-95383050D01*
X119289016Y-95411702D01*
X119263421Y-95420489D01*
X119193622Y-95423638D01*
X119135479Y-95390888D01*
X116931819Y-93187228D01*
X116898334Y-93125905D01*
X116895500Y-93099547D01*
X116895500Y-90142132D01*
X116915185Y-90075093D01*
X116967989Y-90029338D01*
X117037147Y-90019394D01*
X117098541Y-90046589D01*
X117114058Y-90059426D01*
X117122698Y-90067288D01*
X123332650Y-96277241D01*
X123366135Y-96338564D01*
X123365175Y-96395362D01*
X123327865Y-96542698D01*
X123308700Y-96773993D01*
X123308700Y-96774006D01*
X123327864Y-97005297D01*
X123327866Y-97005308D01*
X123384842Y-97230300D01*
X123478075Y-97442848D01*
X123605016Y-97637147D01*
X123605019Y-97637151D01*
X123605021Y-97637153D01*
X123762216Y-97807913D01*
X123762219Y-97807915D01*
X123762222Y-97807918D01*
X123945365Y-97950464D01*
X123945371Y-97950468D01*
X123945374Y-97950470D01*
X124099648Y-98033959D01*
X124147741Y-98059986D01*
X124149497Y-98060936D01*
X124208096Y-98081053D01*
X124369015Y-98136297D01*
X124369017Y-98136297D01*
X124369019Y-98136298D01*
X124597951Y-98174500D01*
X124597952Y-98174500D01*
X124830048Y-98174500D01*
X124830049Y-98174500D01*
X125058981Y-98136298D01*
X125278503Y-98060936D01*
X125482626Y-97950470D01*
X125665784Y-97807913D01*
X125822979Y-97637153D01*
X125949924Y-97442849D01*
X126043157Y-97230300D01*
X126100134Y-97005305D01*
X126103536Y-96964247D01*
X126119300Y-96774006D01*
X126119300Y-96773993D01*
X126100135Y-96542702D01*
X126100133Y-96542691D01*
X126043157Y-96317699D01*
X125949924Y-96105151D01*
X125822983Y-95910852D01*
X125822980Y-95910849D01*
X125822979Y-95910847D01*
X125665784Y-95740087D01*
X125665779Y-95740083D01*
X125665777Y-95740081D01*
X125482634Y-95597535D01*
X125482628Y-95597531D01*
X125278504Y-95487064D01*
X125278495Y-95487061D01*
X125058984Y-95411702D01*
X124887282Y-95383050D01*
X124830049Y-95373500D01*
X124597951Y-95373500D01*
X124559795Y-95379867D01*
X124369014Y-95411702D01*
X124343419Y-95420489D01*
X124273620Y-95423637D01*
X124215478Y-95390888D01*
X118201819Y-89377228D01*
X118168334Y-89315905D01*
X118165500Y-89289547D01*
X118165500Y-87591843D01*
X118185185Y-87524804D01*
X118237989Y-87479049D01*
X118307147Y-87469105D01*
X118347948Y-87482483D01*
X118401274Y-87510986D01*
X118425263Y-87523809D01*
X118425273Y-87523814D01*
X118613868Y-87581024D01*
X118810000Y-87600341D01*
X118861560Y-87595262D01*
X118930203Y-87608280D01*
X118961394Y-87630984D01*
X126810897Y-95480488D01*
X126820722Y-95492751D01*
X126820943Y-95492569D01*
X126825911Y-95498574D01*
X126825913Y-95498576D01*
X126825914Y-95498577D01*
X126874922Y-95544599D01*
X126877721Y-95547312D01*
X126897222Y-95566814D01*
X126897226Y-95566817D01*
X126897229Y-95566820D01*
X126900402Y-95569281D01*
X126909274Y-95576859D01*
X126941118Y-95606762D01*
X126958676Y-95616414D01*
X126974935Y-95627095D01*
X126990764Y-95639373D01*
X127030855Y-95656721D01*
X127041326Y-95661851D01*
X127057715Y-95670861D01*
X127079602Y-95682894D01*
X127079604Y-95682895D01*
X127079608Y-95682897D01*
X127099016Y-95687880D01*
X127117419Y-95694181D01*
X127135801Y-95702136D01*
X127135802Y-95702136D01*
X127135804Y-95702137D01*
X127178950Y-95708970D01*
X127190372Y-95711336D01*
X127232681Y-95722200D01*
X127252716Y-95722200D01*
X127272114Y-95723726D01*
X127291894Y-95726859D01*
X127291895Y-95726860D01*
X127291895Y-95726859D01*
X127291896Y-95726860D01*
X127335375Y-95722750D01*
X127347044Y-95722200D01*
X127806248Y-95722200D01*
X127873287Y-95741885D01*
X127893929Y-95758519D01*
X128412650Y-96277240D01*
X128446135Y-96338563D01*
X128445175Y-96395361D01*
X128407866Y-96542690D01*
X128407864Y-96542702D01*
X128388700Y-96773993D01*
X128388700Y-96774006D01*
X128407864Y-97005297D01*
X128407866Y-97005308D01*
X128464842Y-97230300D01*
X128558075Y-97442848D01*
X128685016Y-97637147D01*
X128685019Y-97637151D01*
X128685021Y-97637153D01*
X128842216Y-97807913D01*
X128842219Y-97807915D01*
X128842222Y-97807918D01*
X129025365Y-97950464D01*
X129025371Y-97950468D01*
X129025374Y-97950470D01*
X129179648Y-98033959D01*
X129227741Y-98059986D01*
X129229497Y-98060936D01*
X129288096Y-98081053D01*
X129449015Y-98136297D01*
X129449017Y-98136297D01*
X129449019Y-98136298D01*
X129677951Y-98174500D01*
X129677952Y-98174500D01*
X129910048Y-98174500D01*
X129910049Y-98174500D01*
X130138981Y-98136298D01*
X130358503Y-98060936D01*
X130562626Y-97950470D01*
X130745784Y-97807913D01*
X130902979Y-97637153D01*
X131029924Y-97442849D01*
X131123157Y-97230300D01*
X131180134Y-97005305D01*
X131183536Y-96964247D01*
X131199300Y-96774006D01*
X131199300Y-96773993D01*
X131180135Y-96542702D01*
X131180133Y-96542691D01*
X131123157Y-96317699D01*
X131029924Y-96105151D01*
X130902983Y-95910852D01*
X130902980Y-95910849D01*
X130902979Y-95910847D01*
X130745784Y-95740087D01*
X130745779Y-95740083D01*
X130745777Y-95740081D01*
X130562634Y-95597535D01*
X130562628Y-95597531D01*
X130358504Y-95487064D01*
X130358495Y-95487061D01*
X130138984Y-95411702D01*
X129967282Y-95383050D01*
X129910049Y-95373500D01*
X129677951Y-95373500D01*
X129620718Y-95383050D01*
X129449016Y-95411702D01*
X129423421Y-95420489D01*
X129353622Y-95423638D01*
X129295479Y-95390888D01*
X128617503Y-94712912D01*
X128607680Y-94700650D01*
X128607459Y-94700834D01*
X128602486Y-94694822D01*
X128553476Y-94648799D01*
X128550677Y-94646086D01*
X128531177Y-94626585D01*
X128529388Y-94625197D01*
X128527986Y-94624109D01*
X128519134Y-94616548D01*
X128487282Y-94586638D01*
X128487280Y-94586636D01*
X128487277Y-94586635D01*
X128469729Y-94576988D01*
X128453463Y-94566304D01*
X128450330Y-94563874D01*
X128437636Y-94554027D01*
X128437635Y-94554026D01*
X128437632Y-94554024D01*
X128397549Y-94536678D01*
X128387063Y-94531541D01*
X128348794Y-94510503D01*
X128348792Y-94510502D01*
X128329393Y-94505522D01*
X128310981Y-94499218D01*
X128292598Y-94491262D01*
X128292592Y-94491260D01*
X128249460Y-94484429D01*
X128238022Y-94482061D01*
X128195720Y-94471200D01*
X128195719Y-94471200D01*
X128175684Y-94471200D01*
X128156286Y-94469673D01*
X128148862Y-94468497D01*
X128136505Y-94466540D01*
X128136504Y-94466540D01*
X128093025Y-94470650D01*
X128081356Y-94471200D01*
X127622153Y-94471200D01*
X127555114Y-94451515D01*
X127534472Y-94434881D01*
X122921472Y-89821881D01*
X122887987Y-89760558D01*
X122892971Y-89690866D01*
X122934843Y-89634933D01*
X123000307Y-89610516D01*
X123009153Y-89610200D01*
X126774248Y-89610200D01*
X126841287Y-89629885D01*
X126861929Y-89646519D01*
X133492650Y-96277240D01*
X133526135Y-96338563D01*
X133525175Y-96395361D01*
X133487866Y-96542690D01*
X133487864Y-96542702D01*
X133468700Y-96773993D01*
X133468700Y-96774006D01*
X133487864Y-97005297D01*
X133487866Y-97005308D01*
X133544842Y-97230300D01*
X133638075Y-97442848D01*
X133765016Y-97637147D01*
X133765019Y-97637151D01*
X133765021Y-97637153D01*
X133922216Y-97807913D01*
X133922219Y-97807915D01*
X133922222Y-97807918D01*
X134105365Y-97950464D01*
X134105371Y-97950468D01*
X134105374Y-97950470D01*
X134259648Y-98033959D01*
X134307741Y-98059986D01*
X134309497Y-98060936D01*
X134368096Y-98081053D01*
X134529015Y-98136297D01*
X134529017Y-98136297D01*
X134529019Y-98136298D01*
X134757951Y-98174500D01*
X134757952Y-98174500D01*
X134990048Y-98174500D01*
X134990049Y-98174500D01*
X135218981Y-98136298D01*
X135438503Y-98060936D01*
X135642626Y-97950470D01*
X135825784Y-97807913D01*
X135982979Y-97637153D01*
X136109924Y-97442849D01*
X136203157Y-97230300D01*
X136260134Y-97005305D01*
X136263536Y-96964247D01*
X136279300Y-96774006D01*
X138548700Y-96774006D01*
X138567864Y-97005297D01*
X138567866Y-97005308D01*
X138624842Y-97230300D01*
X138718075Y-97442848D01*
X138845016Y-97637147D01*
X138845019Y-97637151D01*
X138845021Y-97637153D01*
X139002216Y-97807913D01*
X139002219Y-97807915D01*
X139002222Y-97807918D01*
X139185365Y-97950464D01*
X139185371Y-97950468D01*
X139185374Y-97950470D01*
X139339648Y-98033959D01*
X139387741Y-98059986D01*
X139389497Y-98060936D01*
X139448096Y-98081053D01*
X139609015Y-98136297D01*
X139609017Y-98136297D01*
X139609019Y-98136298D01*
X139837951Y-98174500D01*
X139837952Y-98174500D01*
X140070048Y-98174500D01*
X140070049Y-98174500D01*
X140298981Y-98136298D01*
X140518503Y-98060936D01*
X140722626Y-97950470D01*
X140905784Y-97807913D01*
X141062979Y-97637153D01*
X141189924Y-97442849D01*
X141283157Y-97230300D01*
X141340134Y-97005305D01*
X141343536Y-96964247D01*
X141359300Y-96774006D01*
X141359300Y-96773993D01*
X141340135Y-96542702D01*
X141340133Y-96542691D01*
X141283157Y-96317699D01*
X141189924Y-96105151D01*
X141062983Y-95910852D01*
X141062980Y-95910849D01*
X141062979Y-95910847D01*
X140905784Y-95740087D01*
X140905779Y-95740083D01*
X140905777Y-95740081D01*
X140722634Y-95597535D01*
X140722628Y-95597531D01*
X140518504Y-95487064D01*
X140518495Y-95487061D01*
X140298984Y-95411702D01*
X140127282Y-95383050D01*
X140070049Y-95373500D01*
X139837951Y-95373500D01*
X139792164Y-95381140D01*
X139609015Y-95411702D01*
X139389504Y-95487061D01*
X139389495Y-95487064D01*
X139185371Y-95597531D01*
X139185365Y-95597535D01*
X139002222Y-95740081D01*
X139002219Y-95740084D01*
X138845016Y-95910852D01*
X138718075Y-96105151D01*
X138624842Y-96317699D01*
X138567866Y-96542691D01*
X138567864Y-96542702D01*
X138548700Y-96773993D01*
X138548700Y-96774006D01*
X136279300Y-96774006D01*
X136279300Y-96773993D01*
X136260135Y-96542702D01*
X136260133Y-96542691D01*
X136203157Y-96317699D01*
X136109924Y-96105151D01*
X135982983Y-95910852D01*
X135982980Y-95910849D01*
X135982979Y-95910847D01*
X135825784Y-95740087D01*
X135825779Y-95740083D01*
X135825777Y-95740081D01*
X135642634Y-95597535D01*
X135642628Y-95597531D01*
X135438504Y-95487064D01*
X135438495Y-95487061D01*
X135218984Y-95411702D01*
X135047282Y-95383050D01*
X134990049Y-95373500D01*
X134757951Y-95373500D01*
X134719795Y-95379867D01*
X134529014Y-95411702D01*
X134503419Y-95420489D01*
X134433620Y-95423637D01*
X134375478Y-95390888D01*
X127585503Y-88600912D01*
X127575680Y-88588650D01*
X127575459Y-88588834D01*
X127570486Y-88582822D01*
X127521476Y-88536799D01*
X127518677Y-88534086D01*
X127499173Y-88514582D01*
X127499170Y-88514578D01*
X127495988Y-88512110D01*
X127487120Y-88504536D01*
X127455282Y-88474638D01*
X127437729Y-88464988D01*
X127421463Y-88454304D01*
X127405632Y-88442024D01*
X127365549Y-88424678D01*
X127355063Y-88419541D01*
X127316794Y-88398503D01*
X127316792Y-88398502D01*
X127297393Y-88393522D01*
X127278981Y-88387218D01*
X127260598Y-88379262D01*
X127260592Y-88379260D01*
X127217460Y-88372429D01*
X127206022Y-88370061D01*
X127163720Y-88359200D01*
X127163719Y-88359200D01*
X127143684Y-88359200D01*
X127124286Y-88357673D01*
X127116862Y-88356497D01*
X127104505Y-88354540D01*
X127104504Y-88354540D01*
X127061025Y-88358650D01*
X127049356Y-88359200D01*
X122780153Y-88359200D01*
X122713114Y-88339515D01*
X122692472Y-88322881D01*
X121945940Y-87576349D01*
X121912455Y-87515026D01*
X121917439Y-87445334D01*
X121954955Y-87392815D01*
X122060883Y-87305883D01*
X122185910Y-87153538D01*
X122243750Y-87045328D01*
X122278811Y-86979733D01*
X122278811Y-86979732D01*
X122278814Y-86979727D01*
X122336024Y-86791132D01*
X122355341Y-86595000D01*
X122336024Y-86398868D01*
X122278814Y-86210273D01*
X122185910Y-86036462D01*
X122185907Y-86036458D01*
X122182523Y-86031393D01*
X122184164Y-86030296D01*
X122160405Y-85974361D01*
X122172194Y-85905493D01*
X122182888Y-85888851D01*
X122182523Y-85888607D01*
X122185904Y-85883544D01*
X122185910Y-85883538D01*
X122278814Y-85709727D01*
X122336024Y-85521132D01*
X122355341Y-85325000D01*
X122336024Y-85128868D01*
X122278814Y-84940273D01*
X122278811Y-84940269D01*
X122278811Y-84940266D01*
X122185913Y-84766467D01*
X122185909Y-84766460D01*
X122060883Y-84614116D01*
X121908539Y-84489090D01*
X121908532Y-84489086D01*
X121734733Y-84396188D01*
X121734727Y-84396186D01*
X121608997Y-84358046D01*
X121546129Y-84338975D01*
X121350000Y-84319659D01*
X121153870Y-84338975D01*
X120965266Y-84396188D01*
X120791467Y-84489086D01*
X120786399Y-84492473D01*
X120785305Y-84490836D01*
X120729337Y-84514596D01*
X120660471Y-84502795D01*
X120643843Y-84492109D01*
X120643601Y-84492473D01*
X120638532Y-84489086D01*
X120464733Y-84396188D01*
X120464727Y-84396186D01*
X120338997Y-84358046D01*
X120276129Y-84338975D01*
X120080000Y-84319659D01*
X119883870Y-84338975D01*
X119695266Y-84396188D01*
X119521467Y-84489086D01*
X119516399Y-84492473D01*
X119515305Y-84490836D01*
X119459337Y-84514596D01*
X119390471Y-84502795D01*
X119373843Y-84492109D01*
X119373601Y-84492473D01*
X119368532Y-84489086D01*
X119194733Y-84396188D01*
X119194727Y-84396186D01*
X119068997Y-84358046D01*
X119006129Y-84338975D01*
X118810000Y-84319659D01*
X118613870Y-84338975D01*
X118425266Y-84396188D01*
X118251467Y-84489086D01*
X118246399Y-84492473D01*
X118245305Y-84490836D01*
X118189337Y-84514596D01*
X118120471Y-84502795D01*
X118103843Y-84492109D01*
X118103601Y-84492473D01*
X118098532Y-84489086D01*
X117924733Y-84396188D01*
X117924727Y-84396186D01*
X117798997Y-84358046D01*
X117736129Y-84338975D01*
X117540000Y-84319659D01*
X117343870Y-84338975D01*
X117155266Y-84396188D01*
X116981467Y-84489086D01*
X116976399Y-84492473D01*
X116975305Y-84490836D01*
X116919337Y-84514596D01*
X116850471Y-84502795D01*
X116833843Y-84492109D01*
X116833601Y-84492473D01*
X116828532Y-84489086D01*
X116654733Y-84396188D01*
X116654727Y-84396186D01*
X116528997Y-84358046D01*
X116466129Y-84338975D01*
X116270000Y-84319659D01*
X116073870Y-84338975D01*
X115885266Y-84396188D01*
X115711467Y-84489086D01*
X115706399Y-84492473D01*
X115705305Y-84490836D01*
X115649337Y-84514596D01*
X115580471Y-84502795D01*
X115563843Y-84492109D01*
X115563601Y-84492473D01*
X115558532Y-84489086D01*
X115384733Y-84396188D01*
X115384727Y-84396186D01*
X115258997Y-84358046D01*
X115196129Y-84338975D01*
X115000000Y-84319659D01*
X114803870Y-84338975D01*
X114615266Y-84396188D01*
X114441467Y-84489086D01*
X114441460Y-84489090D01*
X114289116Y-84614116D01*
X114164090Y-84766460D01*
X114164086Y-84766467D01*
X114071188Y-84940266D01*
X114013975Y-85128870D01*
X113994659Y-85325000D01*
X114013975Y-85521129D01*
X114013976Y-85521132D01*
X114052226Y-85647226D01*
X114071188Y-85709733D01*
X114164086Y-85883532D01*
X114167473Y-85888601D01*
X114165836Y-85889694D01*
X114189596Y-85945663D01*
X114177795Y-86014529D01*
X114167109Y-86031156D01*
X114167473Y-86031399D01*
X114164086Y-86036467D01*
X114071188Y-86210266D01*
X114013975Y-86398870D01*
X113994659Y-86595000D01*
X114013975Y-86791129D01*
X114071188Y-86979733D01*
X114164086Y-87153532D01*
X114164090Y-87153539D01*
X114289117Y-87305884D01*
X114329163Y-87338748D01*
X114368499Y-87396493D01*
X114374500Y-87434602D01*
X114374500Y-95279065D01*
X114354815Y-95346104D01*
X114302011Y-95391859D01*
X114270910Y-95401374D01*
X114209016Y-95411702D01*
X113989504Y-95487061D01*
X113989495Y-95487064D01*
X113785371Y-95597531D01*
X113785365Y-95597535D01*
X113602222Y-95740081D01*
X113602219Y-95740084D01*
X113445016Y-95910852D01*
X113318075Y-96105151D01*
X113224842Y-96317699D01*
X113167866Y-96542691D01*
X113167864Y-96542702D01*
X113148700Y-96773993D01*
X113148700Y-96774006D01*
X110874300Y-96774006D01*
X110874300Y-96773993D01*
X110855135Y-96542702D01*
X110855132Y-96542686D01*
X110843789Y-96497895D01*
X110817823Y-96395361D01*
X110820447Y-96325544D01*
X110850345Y-96277243D01*
X112843786Y-94283802D01*
X112856048Y-94273980D01*
X112855865Y-94273759D01*
X112861868Y-94268791D01*
X112861877Y-94268786D01*
X112907934Y-94219739D01*
X112910582Y-94217006D01*
X112930120Y-94197470D01*
X112932570Y-94194310D01*
X112940154Y-94185429D01*
X112970062Y-94153582D01*
X112979714Y-94136023D01*
X112990389Y-94119772D01*
X113002674Y-94103936D01*
X113020030Y-94063825D01*
X113025161Y-94053354D01*
X113046194Y-94015098D01*
X113046194Y-94015097D01*
X113046197Y-94015092D01*
X113051180Y-93995680D01*
X113057477Y-93977291D01*
X113065438Y-93958895D01*
X113072270Y-93915748D01*
X113074639Y-93904316D01*
X113085499Y-93862022D01*
X113085500Y-93862017D01*
X113085500Y-93841983D01*
X113087027Y-93822582D01*
X113090160Y-93802804D01*
X113086050Y-93759324D01*
X113085500Y-93747655D01*
X113085500Y-87434602D01*
X113105185Y-87367563D01*
X113130837Y-87338748D01*
X113170882Y-87305884D01*
X113295909Y-87153539D01*
X113295913Y-87153532D01*
X113388811Y-86979733D01*
X113388811Y-86979732D01*
X113388814Y-86979727D01*
X113446024Y-86791132D01*
X113465341Y-86595000D01*
X113446024Y-86398868D01*
X113388814Y-86210273D01*
X113295910Y-86036462D01*
X113295907Y-86036458D01*
X113292523Y-86031393D01*
X113294164Y-86030296D01*
X113270405Y-85974361D01*
X113282194Y-85905493D01*
X113292888Y-85888851D01*
X113292523Y-85888607D01*
X113295904Y-85883544D01*
X113295910Y-85883538D01*
X113388814Y-85709727D01*
X113446024Y-85521132D01*
X113465341Y-85325000D01*
X113446024Y-85128868D01*
X113388814Y-84940273D01*
X113388811Y-84940269D01*
X113388811Y-84940266D01*
X113295913Y-84766467D01*
X113295909Y-84766460D01*
X113170883Y-84614116D01*
X113018539Y-84489090D01*
X113018532Y-84489086D01*
X112844733Y-84396188D01*
X112844727Y-84396186D01*
X112718997Y-84358046D01*
X112656129Y-84338975D01*
X112460000Y-84319659D01*
X112263870Y-84338975D01*
X112075266Y-84396188D01*
X111901467Y-84489086D01*
X111896399Y-84492473D01*
X111895305Y-84490836D01*
X111839337Y-84514596D01*
X111770471Y-84502795D01*
X111753843Y-84492109D01*
X111753601Y-84492473D01*
X111748532Y-84489086D01*
X111574733Y-84396188D01*
X111574727Y-84396186D01*
X111448997Y-84358046D01*
X111386129Y-84338975D01*
X111190000Y-84319659D01*
X110993870Y-84338975D01*
X110805266Y-84396188D01*
X110631467Y-84489086D01*
X110626399Y-84492473D01*
X110625305Y-84490836D01*
X110569337Y-84514596D01*
X110500471Y-84502795D01*
X110483843Y-84492109D01*
X110483601Y-84492473D01*
X110478532Y-84489086D01*
X110304733Y-84396188D01*
X110304727Y-84396186D01*
X110178997Y-84358046D01*
X110116129Y-84338975D01*
X109920000Y-84319659D01*
X109723870Y-84338975D01*
X109535266Y-84396188D01*
X109361467Y-84489086D01*
X109356399Y-84492473D01*
X109355305Y-84490836D01*
X109299337Y-84514596D01*
X109230471Y-84502795D01*
X109213843Y-84492109D01*
X109213601Y-84492473D01*
X109208532Y-84489086D01*
X109034733Y-84396188D01*
X109034727Y-84396186D01*
X108908997Y-84358046D01*
X108846129Y-84338975D01*
X108650000Y-84319659D01*
X108453870Y-84338975D01*
X108265266Y-84396188D01*
X108091467Y-84489086D01*
X108086399Y-84492473D01*
X108085305Y-84490836D01*
X108029337Y-84514596D01*
X107960471Y-84502795D01*
X107943843Y-84492109D01*
X107943601Y-84492473D01*
X107938532Y-84489086D01*
X107764733Y-84396188D01*
X107764727Y-84396186D01*
X107638997Y-84358046D01*
X107576129Y-84338975D01*
X107380000Y-84319659D01*
X107183870Y-84338975D01*
X106995266Y-84396188D01*
X106821467Y-84489086D01*
X106816399Y-84492473D01*
X106815305Y-84490836D01*
X106759337Y-84514596D01*
X106690471Y-84502795D01*
X106673843Y-84492109D01*
X106673601Y-84492473D01*
X106668532Y-84489086D01*
X106494733Y-84396188D01*
X106494727Y-84396186D01*
X106368997Y-84358046D01*
X106306129Y-84338975D01*
X106110000Y-84319659D01*
X105913870Y-84338975D01*
X105725266Y-84396188D01*
X105551467Y-84489086D01*
X105546399Y-84492473D01*
X105545305Y-84490836D01*
X105489337Y-84514596D01*
X105420471Y-84502795D01*
X105403843Y-84492109D01*
X105403601Y-84492473D01*
X105398532Y-84489086D01*
X105224733Y-84396188D01*
X105224727Y-84396186D01*
X105098997Y-84358046D01*
X105036129Y-84338975D01*
X104840000Y-84319659D01*
X104643870Y-84338975D01*
X104455266Y-84396188D01*
X104281467Y-84489086D01*
X104276399Y-84492473D01*
X104275305Y-84490836D01*
X104219337Y-84514596D01*
X104150471Y-84502795D01*
X104133843Y-84492109D01*
X104133601Y-84492473D01*
X104128532Y-84489086D01*
X103954733Y-84396188D01*
X103954727Y-84396186D01*
X103828997Y-84358046D01*
X103766129Y-84338975D01*
X103570000Y-84319659D01*
X103373870Y-84338975D01*
X103185266Y-84396188D01*
X103011467Y-84489086D01*
X103006399Y-84492473D01*
X103005305Y-84490836D01*
X102949337Y-84514596D01*
X102880471Y-84502795D01*
X102863843Y-84492109D01*
X102863601Y-84492473D01*
X102858532Y-84489086D01*
X102684733Y-84396188D01*
X102684727Y-84396186D01*
X102558997Y-84358046D01*
X102496129Y-84338975D01*
X102300000Y-84319659D01*
X102103870Y-84338975D01*
X101915266Y-84396188D01*
X101741467Y-84489086D01*
X101736399Y-84492473D01*
X101735305Y-84490836D01*
X101679337Y-84514596D01*
X101610471Y-84502795D01*
X101593843Y-84492109D01*
X101593601Y-84492473D01*
X101588532Y-84489086D01*
X101414733Y-84396188D01*
X101414727Y-84396186D01*
X101288997Y-84358046D01*
X101226129Y-84338975D01*
X101030000Y-84319659D01*
X100833870Y-84338975D01*
X100645266Y-84396188D01*
X100471467Y-84489086D01*
X100466399Y-84492473D01*
X100465305Y-84490836D01*
X100409337Y-84514596D01*
X100340471Y-84502795D01*
X100323843Y-84492109D01*
X100323601Y-84492473D01*
X100318532Y-84489086D01*
X100144733Y-84396188D01*
X100144727Y-84396186D01*
X100018997Y-84358046D01*
X99956129Y-84338975D01*
X99760000Y-84319659D01*
X99563870Y-84338975D01*
X99375266Y-84396188D01*
X99201467Y-84489086D01*
X99196399Y-84492473D01*
X99195305Y-84490836D01*
X99139337Y-84514596D01*
X99070471Y-84502795D01*
X99053843Y-84492109D01*
X99053601Y-84492473D01*
X99048532Y-84489086D01*
X98874733Y-84396188D01*
X98874727Y-84396186D01*
X98748997Y-84358046D01*
X98686129Y-84338975D01*
X98490000Y-84319659D01*
X98293870Y-84338975D01*
X98105266Y-84396188D01*
X97931467Y-84489086D01*
X97926399Y-84492473D01*
X97925305Y-84490836D01*
X97869337Y-84514596D01*
X97800471Y-84502795D01*
X97783843Y-84492109D01*
X97783601Y-84492473D01*
X97778532Y-84489086D01*
X97604733Y-84396188D01*
X97604727Y-84396186D01*
X97478997Y-84358046D01*
X97416129Y-84338975D01*
X97220000Y-84319659D01*
X97023870Y-84338975D01*
X96835266Y-84396188D01*
X96661467Y-84489086D01*
X96656399Y-84492473D01*
X96655305Y-84490836D01*
X96599337Y-84514596D01*
X96530471Y-84502795D01*
X96513843Y-84492109D01*
X96513601Y-84492473D01*
X96508532Y-84489086D01*
X96334733Y-84396188D01*
X96334727Y-84396186D01*
X96208997Y-84358046D01*
X96146129Y-84338975D01*
X95950000Y-84319659D01*
X95753870Y-84338975D01*
X95565266Y-84396188D01*
X95391467Y-84489086D01*
X95386399Y-84492473D01*
X95385305Y-84490836D01*
X95329337Y-84514596D01*
X95260471Y-84502795D01*
X95243843Y-84492109D01*
X95243601Y-84492473D01*
X95238532Y-84489086D01*
X95064733Y-84396188D01*
X95064727Y-84396186D01*
X94938997Y-84358046D01*
X94876129Y-84338975D01*
X94680000Y-84319659D01*
X94483870Y-84338975D01*
X94295266Y-84396188D01*
X94121467Y-84489086D01*
X94121460Y-84489090D01*
X93969116Y-84614116D01*
X93844090Y-84766460D01*
X93844086Y-84766467D01*
X93751188Y-84940266D01*
X93693975Y-85128870D01*
X93674659Y-85325000D01*
X93688763Y-85468206D01*
X93675744Y-85536852D01*
X93627679Y-85587562D01*
X93559828Y-85604237D01*
X93553206Y-85603763D01*
X93410000Y-85589659D01*
X93266793Y-85603763D01*
X93198147Y-85590744D01*
X93147436Y-85542679D01*
X93130762Y-85474828D01*
X93131234Y-85468230D01*
X93145341Y-85325000D01*
X93126024Y-85128868D01*
X93068814Y-84940273D01*
X93068811Y-84940269D01*
X93068811Y-84940266D01*
X92975913Y-84766467D01*
X92975909Y-84766460D01*
X92850883Y-84614116D01*
X92698539Y-84489090D01*
X92698532Y-84489086D01*
X92524733Y-84396188D01*
X92524727Y-84396186D01*
X92398997Y-84358046D01*
X92336129Y-84338975D01*
X92140000Y-84319659D01*
X91943870Y-84338975D01*
X91755266Y-84396188D01*
X91581467Y-84489086D01*
X91576399Y-84492473D01*
X91575305Y-84490836D01*
X91519337Y-84514596D01*
X91450471Y-84502795D01*
X91433843Y-84492109D01*
X91433601Y-84492473D01*
X91428532Y-84489086D01*
X91254733Y-84396188D01*
X91254727Y-84396186D01*
X91128997Y-84358046D01*
X91066129Y-84338975D01*
X90870000Y-84319659D01*
X90673870Y-84338975D01*
X90485266Y-84396188D01*
X90311467Y-84489086D01*
X90306399Y-84492473D01*
X90305305Y-84490836D01*
X90249337Y-84514596D01*
X90180471Y-84502795D01*
X90163843Y-84492109D01*
X90163601Y-84492473D01*
X90158532Y-84489086D01*
X89984733Y-84396188D01*
X89984727Y-84396186D01*
X89858997Y-84358046D01*
X89796129Y-84338975D01*
X89600000Y-84319659D01*
X89403870Y-84338975D01*
X89215266Y-84396188D01*
X89041467Y-84489086D01*
X89036399Y-84492473D01*
X89035305Y-84490836D01*
X88979337Y-84514596D01*
X88910471Y-84502795D01*
X88893843Y-84492109D01*
X88893601Y-84492473D01*
X88888532Y-84489086D01*
X88714733Y-84396188D01*
X88714727Y-84396186D01*
X88588997Y-84358046D01*
X88526129Y-84338975D01*
X88330000Y-84319659D01*
X88133870Y-84338975D01*
X87945266Y-84396188D01*
X87771467Y-84489086D01*
X87771460Y-84489090D01*
X87619116Y-84614116D01*
X87494090Y-84766460D01*
X87494086Y-84766467D01*
X87401188Y-84940266D01*
X87343975Y-85128870D01*
X87324659Y-85325000D01*
X87338763Y-85468206D01*
X87325744Y-85536852D01*
X87277679Y-85587562D01*
X87209828Y-85604237D01*
X87203206Y-85603763D01*
X87060000Y-85589659D01*
X86916793Y-85603763D01*
X86848147Y-85590744D01*
X86797436Y-85542679D01*
X86780762Y-85474828D01*
X86781234Y-85468230D01*
X86795341Y-85325000D01*
X86776024Y-85128868D01*
X86718814Y-84940273D01*
X86718811Y-84940269D01*
X86718811Y-84940266D01*
X86625913Y-84766467D01*
X86625909Y-84766460D01*
X86500883Y-84614116D01*
X86348539Y-84489090D01*
X86348532Y-84489086D01*
X86174733Y-84396188D01*
X86174727Y-84396186D01*
X86048997Y-84358046D01*
X85986129Y-84338975D01*
X85790000Y-84319659D01*
X85593870Y-84338975D01*
X85405266Y-84396188D01*
X85231467Y-84489086D01*
X85226399Y-84492473D01*
X85225305Y-84490836D01*
X85169337Y-84514596D01*
X85100471Y-84502795D01*
X85083843Y-84492109D01*
X85083601Y-84492473D01*
X85078532Y-84489086D01*
X84904733Y-84396188D01*
X84904727Y-84396186D01*
X84778997Y-84358046D01*
X84716129Y-84338975D01*
X84520000Y-84319659D01*
X84323870Y-84338975D01*
X84135266Y-84396188D01*
X83961467Y-84489086D01*
X83956399Y-84492473D01*
X83955305Y-84490836D01*
X83899337Y-84514596D01*
X83830471Y-84502795D01*
X83813843Y-84492109D01*
X83813601Y-84492473D01*
X83808532Y-84489086D01*
X83634733Y-84396188D01*
X83634727Y-84396186D01*
X83508997Y-84358046D01*
X83446129Y-84338975D01*
X83250000Y-84319659D01*
X83053870Y-84338975D01*
X82865266Y-84396188D01*
X82691467Y-84489086D01*
X82686399Y-84492473D01*
X82685305Y-84490836D01*
X82629337Y-84514596D01*
X82560471Y-84502795D01*
X82543843Y-84492109D01*
X82543601Y-84492473D01*
X82538532Y-84489086D01*
X82364733Y-84396188D01*
X82364727Y-84396186D01*
X82238997Y-84358046D01*
X82176129Y-84338975D01*
X81980000Y-84319659D01*
X81783870Y-84338975D01*
X81595266Y-84396188D01*
X81421467Y-84489086D01*
X81416399Y-84492473D01*
X81415305Y-84490836D01*
X81359337Y-84514596D01*
X81290471Y-84502795D01*
X81273843Y-84492109D01*
X81273601Y-84492473D01*
X81268532Y-84489086D01*
X81094733Y-84396188D01*
X81094727Y-84396186D01*
X80968997Y-84358046D01*
X80906129Y-84338975D01*
X80710000Y-84319659D01*
X80513870Y-84338975D01*
X80325266Y-84396188D01*
X80151467Y-84489086D01*
X80146399Y-84492473D01*
X80145305Y-84490836D01*
X80089337Y-84514596D01*
X80020471Y-84502795D01*
X80003843Y-84492109D01*
X80003601Y-84492473D01*
X79998532Y-84489086D01*
X79824733Y-84396188D01*
X79824727Y-84396186D01*
X79698997Y-84358046D01*
X79636129Y-84338975D01*
X79440000Y-84319659D01*
X79243870Y-84338975D01*
X79055266Y-84396188D01*
X78881467Y-84489086D01*
X78876399Y-84492473D01*
X78875305Y-84490836D01*
X78819337Y-84514596D01*
X78750471Y-84502795D01*
X78733843Y-84492109D01*
X78733601Y-84492473D01*
X78728532Y-84489086D01*
X78554733Y-84396188D01*
X78554727Y-84396186D01*
X78428997Y-84358046D01*
X78366129Y-84338975D01*
X78170000Y-84319659D01*
X77973870Y-84338975D01*
X77785266Y-84396188D01*
X77611467Y-84489086D01*
X77606399Y-84492473D01*
X77605305Y-84490836D01*
X77549337Y-84514596D01*
X77480471Y-84502795D01*
X77463843Y-84492109D01*
X77463601Y-84492473D01*
X77458532Y-84489086D01*
X77284733Y-84396188D01*
X77284727Y-84396186D01*
X77158997Y-84358046D01*
X77096129Y-84338975D01*
X76900000Y-84319659D01*
X76703870Y-84338975D01*
X76515266Y-84396188D01*
X76341467Y-84489086D01*
X76336399Y-84492473D01*
X76335305Y-84490836D01*
X76279337Y-84514596D01*
X76210471Y-84502795D01*
X76193843Y-84492109D01*
X76193601Y-84492473D01*
X76188532Y-84489086D01*
X76014733Y-84396188D01*
X76014727Y-84396186D01*
X75888997Y-84358046D01*
X75826129Y-84338975D01*
X75630000Y-84319659D01*
X75433870Y-84338975D01*
X75245266Y-84396188D01*
X75071467Y-84489086D01*
X75066399Y-84492473D01*
X75065305Y-84490836D01*
X75009337Y-84514596D01*
X74940471Y-84502795D01*
X74923843Y-84492109D01*
X74923601Y-84492473D01*
X74918532Y-84489086D01*
X74744733Y-84396188D01*
X74744727Y-84396186D01*
X74618997Y-84358046D01*
X74556129Y-84338975D01*
X74360000Y-84319659D01*
X74163869Y-84338975D01*
X74000495Y-84388535D01*
X73930628Y-84389158D01*
X73871516Y-84351910D01*
X73841925Y-84288616D01*
X73840500Y-84269874D01*
X73840500Y-39117705D01*
X73841809Y-39099735D01*
X73842129Y-39097547D01*
X73845289Y-39075977D01*
X73840972Y-39026630D01*
X73840500Y-39015822D01*
X73840500Y-39010296D01*
X73840500Y-39010291D01*
X73836901Y-38979509D01*
X73836536Y-38975929D01*
X73829999Y-38901201D01*
X73828539Y-38894129D01*
X73828597Y-38894116D01*
X73826965Y-38886757D01*
X73826906Y-38886772D01*
X73825241Y-38879751D01*
X73825241Y-38879745D01*
X73799569Y-38809212D01*
X73798421Y-38805909D01*
X73774814Y-38734666D01*
X73774810Y-38734659D01*
X73771760Y-38728118D01*
X73771815Y-38728091D01*
X73768533Y-38721313D01*
X73768480Y-38721340D01*
X73765235Y-38714880D01*
X73724025Y-38652223D01*
X73722086Y-38649181D01*
X73682710Y-38585342D01*
X73678234Y-38579682D01*
X73678281Y-38579644D01*
X73673519Y-38573799D01*
X73673474Y-38573838D01*
X73668831Y-38568305D01*
X73614272Y-38516831D01*
X73611685Y-38514318D01*
X70636819Y-35539451D01*
X70603334Y-35478128D01*
X70600500Y-35451770D01*
X70600500Y-33165425D01*
X70620185Y-33098386D01*
X70672989Y-33052631D01*
X70742147Y-33042687D01*
X70805703Y-33071712D01*
X70840682Y-33122092D01*
X70876202Y-33217328D01*
X70876206Y-33217335D01*
X70962452Y-33332544D01*
X70962455Y-33332547D01*
X71077664Y-33418793D01*
X71077671Y-33418797D01*
X71212517Y-33469091D01*
X71212516Y-33469091D01*
X71219444Y-33469835D01*
X71272127Y-33475500D01*
X72367872Y-33475499D01*
X72427483Y-33469091D01*
X72562331Y-33418796D01*
X72570379Y-33412770D01*
X72635842Y-33388351D01*
X72699474Y-33401895D01*
X72699645Y-33401483D01*
X72701875Y-33402406D01*
X72703146Y-33402677D01*
X72705273Y-33403814D01*
X72893868Y-33461024D01*
X73090000Y-33480341D01*
X73233208Y-33466236D01*
X73301852Y-33479255D01*
X73352562Y-33527320D01*
X73369237Y-33595170D01*
X73368763Y-33601793D01*
X73354659Y-33744999D01*
X73373975Y-33941129D01*
X73431188Y-34129733D01*
X73524086Y-34303532D01*
X73524090Y-34303539D01*
X73649116Y-34455883D01*
X73801460Y-34580909D01*
X73801467Y-34580913D01*
X73975266Y-34673811D01*
X73975269Y-34673811D01*
X73975273Y-34673814D01*
X74163868Y-34731024D01*
X74360000Y-34750341D01*
X74556132Y-34731024D01*
X74744727Y-34673814D01*
X74918538Y-34580910D01*
X74918544Y-34580904D01*
X74923607Y-34577523D01*
X74924703Y-34579164D01*
X74980639Y-34555405D01*
X75049507Y-34567194D01*
X75066148Y-34577888D01*
X75066393Y-34577523D01*
X75071458Y-34580907D01*
X75071462Y-34580910D01*
X75245273Y-34673814D01*
X75433868Y-34731024D01*
X75630000Y-34750341D01*
X75826132Y-34731024D01*
X76014727Y-34673814D01*
X76188538Y-34580910D01*
X76340883Y-34455883D01*
X76465910Y-34303538D01*
X76558814Y-34129727D01*
X76616024Y-33941132D01*
X76635341Y-33745000D01*
X76621236Y-33601791D01*
X76634255Y-33533147D01*
X76682320Y-33482437D01*
X76750170Y-33465762D01*
X76756771Y-33466234D01*
X76900000Y-33480341D01*
X77043208Y-33466236D01*
X77111852Y-33479255D01*
X77162562Y-33527320D01*
X77179237Y-33595170D01*
X77178763Y-33601793D01*
X77164659Y-33744999D01*
X77183975Y-33941129D01*
X77241188Y-34129733D01*
X77334086Y-34303532D01*
X77334090Y-34303539D01*
X77459116Y-34455883D01*
X77611460Y-34580909D01*
X77611467Y-34580913D01*
X77785266Y-34673811D01*
X77785269Y-34673811D01*
X77785273Y-34673814D01*
X77973868Y-34731024D01*
X78170000Y-34750341D01*
X78366132Y-34731024D01*
X78554727Y-34673814D01*
X78728538Y-34580910D01*
X78728544Y-34580904D01*
X78733607Y-34577523D01*
X78734703Y-34579164D01*
X78790639Y-34555405D01*
X78859507Y-34567194D01*
X78876148Y-34577888D01*
X78876393Y-34577523D01*
X78881458Y-34580907D01*
X78881462Y-34580910D01*
X79055273Y-34673814D01*
X79243868Y-34731024D01*
X79440000Y-34750341D01*
X79636132Y-34731024D01*
X79824727Y-34673814D01*
X79998538Y-34580910D01*
X79998544Y-34580904D01*
X80003607Y-34577523D01*
X80004703Y-34579164D01*
X80060639Y-34555405D01*
X80129507Y-34567194D01*
X80146148Y-34577888D01*
X80146393Y-34577523D01*
X80151458Y-34580907D01*
X80151462Y-34580910D01*
X80325273Y-34673814D01*
X80513868Y-34731024D01*
X80710000Y-34750341D01*
X80906132Y-34731024D01*
X81094727Y-34673814D01*
X81268538Y-34580910D01*
X81268544Y-34580904D01*
X81273607Y-34577523D01*
X81274703Y-34579164D01*
X81330639Y-34555405D01*
X81399507Y-34567194D01*
X81416148Y-34577888D01*
X81416393Y-34577523D01*
X81421458Y-34580907D01*
X81421462Y-34580910D01*
X81595273Y-34673814D01*
X81783868Y-34731024D01*
X81980000Y-34750341D01*
X82176132Y-34731024D01*
X82364727Y-34673814D01*
X82538538Y-34580910D01*
X82690883Y-34455883D01*
X82815910Y-34303538D01*
X82908814Y-34129727D01*
X82966024Y-33941132D01*
X82985341Y-33745000D01*
X82971236Y-33601791D01*
X82984255Y-33533147D01*
X83032320Y-33482437D01*
X83100170Y-33465762D01*
X83106771Y-33466234D01*
X83250000Y-33480341D01*
X83393208Y-33466236D01*
X83461852Y-33479255D01*
X83512562Y-33527320D01*
X83529237Y-33595170D01*
X83528763Y-33601793D01*
X83514659Y-33744999D01*
X83533975Y-33941129D01*
X83591188Y-34129733D01*
X83684086Y-34303532D01*
X83684090Y-34303539D01*
X83809116Y-34455883D01*
X83961460Y-34580909D01*
X83961467Y-34580913D01*
X84135266Y-34673811D01*
X84135269Y-34673811D01*
X84135273Y-34673814D01*
X84323868Y-34731024D01*
X84520000Y-34750341D01*
X84716132Y-34731024D01*
X84904727Y-34673814D01*
X85078538Y-34580910D01*
X85078544Y-34580904D01*
X85083607Y-34577523D01*
X85084703Y-34579164D01*
X85140639Y-34555405D01*
X85209507Y-34567194D01*
X85226148Y-34577888D01*
X85226393Y-34577523D01*
X85231458Y-34580907D01*
X85231462Y-34580910D01*
X85405273Y-34673814D01*
X85593868Y-34731024D01*
X85790000Y-34750341D01*
X85986132Y-34731024D01*
X86174727Y-34673814D01*
X86348538Y-34580910D01*
X86348544Y-34580904D01*
X86353607Y-34577523D01*
X86354703Y-34579164D01*
X86410639Y-34555405D01*
X86479507Y-34567194D01*
X86496148Y-34577888D01*
X86496393Y-34577523D01*
X86501458Y-34580907D01*
X86501462Y-34580910D01*
X86675273Y-34673814D01*
X86863868Y-34731024D01*
X87060000Y-34750341D01*
X87256132Y-34731024D01*
X87444727Y-34673814D01*
X87618538Y-34580910D01*
X87618544Y-34580904D01*
X87623607Y-34577523D01*
X87624703Y-34579164D01*
X87680639Y-34555405D01*
X87749507Y-34567194D01*
X87766148Y-34577888D01*
X87766393Y-34577523D01*
X87771458Y-34580907D01*
X87771462Y-34580910D01*
X87945273Y-34673814D01*
X88133868Y-34731024D01*
X88330000Y-34750341D01*
X88526132Y-34731024D01*
X88714727Y-34673814D01*
X88888538Y-34580910D01*
X89040883Y-34455883D01*
X89165910Y-34303538D01*
X89258814Y-34129727D01*
X89316024Y-33941132D01*
X89335341Y-33745000D01*
X89321236Y-33601791D01*
X89334255Y-33533147D01*
X89382320Y-33482437D01*
X89450170Y-33465762D01*
X89456771Y-33466234D01*
X89600000Y-33480341D01*
X89743208Y-33466236D01*
X89811852Y-33479255D01*
X89862562Y-33527320D01*
X89879237Y-33595170D01*
X89878763Y-33601793D01*
X89864659Y-33744999D01*
X89883975Y-33941129D01*
X89941188Y-34129733D01*
X90034086Y-34303532D01*
X90034090Y-34303539D01*
X90159116Y-34455883D01*
X90311460Y-34580909D01*
X90311467Y-34580913D01*
X90485266Y-34673811D01*
X90485269Y-34673811D01*
X90485273Y-34673814D01*
X90673868Y-34731024D01*
X90870000Y-34750341D01*
X91066132Y-34731024D01*
X91254727Y-34673814D01*
X91428538Y-34580910D01*
X91428544Y-34580904D01*
X91433607Y-34577523D01*
X91434703Y-34579164D01*
X91490639Y-34555405D01*
X91559507Y-34567194D01*
X91576148Y-34577888D01*
X91576393Y-34577523D01*
X91581458Y-34580907D01*
X91581462Y-34580910D01*
X91755273Y-34673814D01*
X91943868Y-34731024D01*
X92140000Y-34750341D01*
X92336132Y-34731024D01*
X92524727Y-34673814D01*
X92698538Y-34580910D01*
X92698544Y-34580904D01*
X92703607Y-34577523D01*
X92704703Y-34579164D01*
X92760639Y-34555405D01*
X92829507Y-34567194D01*
X92846148Y-34577888D01*
X92846393Y-34577523D01*
X92851458Y-34580907D01*
X92851462Y-34580910D01*
X93025273Y-34673814D01*
X93213868Y-34731024D01*
X93410000Y-34750341D01*
X93606132Y-34731024D01*
X93794727Y-34673814D01*
X93968538Y-34580910D01*
X93968544Y-34580904D01*
X93973607Y-34577523D01*
X93974703Y-34579164D01*
X94030639Y-34555405D01*
X94099507Y-34567194D01*
X94116148Y-34577888D01*
X94116393Y-34577523D01*
X94121458Y-34580907D01*
X94121462Y-34580910D01*
X94295273Y-34673814D01*
X94483868Y-34731024D01*
X94680000Y-34750341D01*
X94876132Y-34731024D01*
X95064727Y-34673814D01*
X95238538Y-34580910D01*
X95390883Y-34455883D01*
X95515910Y-34303538D01*
X95608814Y-34129727D01*
X95666024Y-33941132D01*
X95685341Y-33745000D01*
X95671236Y-33601791D01*
X95684255Y-33533147D01*
X95732320Y-33482437D01*
X95800170Y-33465762D01*
X95806771Y-33466234D01*
X95950000Y-33480341D01*
X96093208Y-33466236D01*
X96161852Y-33479255D01*
X96212562Y-33527320D01*
X96229237Y-33595170D01*
X96228763Y-33601793D01*
X96214659Y-33744999D01*
X96233975Y-33941129D01*
X96291188Y-34129733D01*
X96384086Y-34303532D01*
X96384090Y-34303539D01*
X96509116Y-34455883D01*
X96661460Y-34580909D01*
X96661467Y-34580913D01*
X96835266Y-34673811D01*
X96835269Y-34673811D01*
X96835273Y-34673814D01*
X97023868Y-34731024D01*
X97220000Y-34750341D01*
X97416132Y-34731024D01*
X97604727Y-34673814D01*
X97778538Y-34580910D01*
X97778544Y-34580904D01*
X97783607Y-34577523D01*
X97784703Y-34579164D01*
X97840639Y-34555405D01*
X97909507Y-34567194D01*
X97926148Y-34577888D01*
X97926393Y-34577523D01*
X97931458Y-34580907D01*
X97931462Y-34580910D01*
X98105273Y-34673814D01*
X98293868Y-34731024D01*
X98490000Y-34750341D01*
X98686132Y-34731024D01*
X98874727Y-34673814D01*
X99048538Y-34580910D01*
X99048544Y-34580904D01*
X99053607Y-34577523D01*
X99054703Y-34579164D01*
X99110639Y-34555405D01*
X99179507Y-34567194D01*
X99196148Y-34577888D01*
X99196393Y-34577523D01*
X99201458Y-34580907D01*
X99201462Y-34580910D01*
X99375273Y-34673814D01*
X99563868Y-34731024D01*
X99760000Y-34750341D01*
X99956132Y-34731024D01*
X100144727Y-34673814D01*
X100318538Y-34580910D01*
X100318544Y-34580904D01*
X100323607Y-34577523D01*
X100324703Y-34579164D01*
X100380639Y-34555405D01*
X100449507Y-34567194D01*
X100466148Y-34577888D01*
X100466393Y-34577523D01*
X100471458Y-34580907D01*
X100471462Y-34580910D01*
X100645273Y-34673814D01*
X100833868Y-34731024D01*
X101030000Y-34750341D01*
X101226132Y-34731024D01*
X101414727Y-34673814D01*
X101588538Y-34580910D01*
X101740883Y-34455883D01*
X101865910Y-34303538D01*
X101958814Y-34129727D01*
X102016024Y-33941132D01*
X102035341Y-33745000D01*
X102021236Y-33601791D01*
X102034255Y-33533147D01*
X102082320Y-33482437D01*
X102150170Y-33465762D01*
X102156771Y-33466234D01*
X102300000Y-33480341D01*
X102443208Y-33466236D01*
X102511852Y-33479255D01*
X102562562Y-33527320D01*
X102579237Y-33595170D01*
X102578763Y-33601793D01*
X102564659Y-33744999D01*
X102583975Y-33941129D01*
X102641188Y-34129733D01*
X102734086Y-34303532D01*
X102734090Y-34303539D01*
X102859116Y-34455883D01*
X103011460Y-34580909D01*
X103011467Y-34580913D01*
X103185266Y-34673811D01*
X103185269Y-34673811D01*
X103185273Y-34673814D01*
X103373868Y-34731024D01*
X103570000Y-34750341D01*
X103766132Y-34731024D01*
X103954727Y-34673814D01*
X104128538Y-34580910D01*
X104128544Y-34580904D01*
X104133607Y-34577523D01*
X104134703Y-34579164D01*
X104190639Y-34555405D01*
X104259507Y-34567194D01*
X104276148Y-34577888D01*
X104276393Y-34577523D01*
X104281458Y-34580907D01*
X104281462Y-34580910D01*
X104455273Y-34673814D01*
X104643868Y-34731024D01*
X104840000Y-34750341D01*
X105036132Y-34731024D01*
X105224727Y-34673814D01*
X105398538Y-34580910D01*
X105398544Y-34580904D01*
X105403607Y-34577523D01*
X105404703Y-34579164D01*
X105460639Y-34555405D01*
X105529507Y-34567194D01*
X105546148Y-34577888D01*
X105546393Y-34577523D01*
X105551458Y-34580907D01*
X105551462Y-34580910D01*
X105725273Y-34673814D01*
X105913868Y-34731024D01*
X106110000Y-34750341D01*
X106306132Y-34731024D01*
X106494727Y-34673814D01*
X106668538Y-34580910D01*
X106668544Y-34580904D01*
X106673607Y-34577523D01*
X106674703Y-34579164D01*
X106730639Y-34555405D01*
X106799507Y-34567194D01*
X106816148Y-34577888D01*
X106816393Y-34577523D01*
X106821458Y-34580907D01*
X106821462Y-34580910D01*
X106995273Y-34673814D01*
X107183868Y-34731024D01*
X107380000Y-34750341D01*
X107576132Y-34731024D01*
X107764727Y-34673814D01*
X107938538Y-34580910D01*
X108090883Y-34455883D01*
X108215910Y-34303538D01*
X108308814Y-34129727D01*
X108366024Y-33941132D01*
X108385341Y-33745000D01*
X108371236Y-33601791D01*
X108384255Y-33533147D01*
X108432320Y-33482437D01*
X108500170Y-33465762D01*
X108506771Y-33466234D01*
X108650000Y-33480341D01*
X108793208Y-33466236D01*
X108861852Y-33479255D01*
X108912562Y-33527320D01*
X108929237Y-33595170D01*
X108928763Y-33601793D01*
X108914659Y-33744999D01*
X108933975Y-33941129D01*
X108991188Y-34129733D01*
X109084086Y-34303532D01*
X109084090Y-34303539D01*
X109209116Y-34455883D01*
X109361460Y-34580909D01*
X109361467Y-34580913D01*
X109535266Y-34673811D01*
X109535269Y-34673811D01*
X109535273Y-34673814D01*
X109723868Y-34731024D01*
X109920000Y-34750341D01*
X110116132Y-34731024D01*
X110304727Y-34673814D01*
X110478538Y-34580910D01*
X110478544Y-34580904D01*
X110483607Y-34577523D01*
X110484703Y-34579164D01*
X110540639Y-34555405D01*
X110609507Y-34567194D01*
X110626148Y-34577888D01*
X110626393Y-34577523D01*
X110631458Y-34580907D01*
X110631462Y-34580910D01*
X110805273Y-34673814D01*
X110993868Y-34731024D01*
X111190000Y-34750341D01*
X111386132Y-34731024D01*
X111574727Y-34673814D01*
X111748538Y-34580910D01*
X111748544Y-34580904D01*
X111753607Y-34577523D01*
X111754703Y-34579164D01*
X111810639Y-34555405D01*
X111879507Y-34567194D01*
X111896148Y-34577888D01*
X111896393Y-34577523D01*
X111901458Y-34580907D01*
X111901462Y-34580910D01*
X112075273Y-34673814D01*
X112263868Y-34731024D01*
X112460000Y-34750341D01*
X112656132Y-34731024D01*
X112844727Y-34673814D01*
X113018538Y-34580910D01*
X113018544Y-34580904D01*
X113023607Y-34577523D01*
X113024703Y-34579164D01*
X113080639Y-34555405D01*
X113149507Y-34567194D01*
X113166148Y-34577888D01*
X113166393Y-34577523D01*
X113171458Y-34580907D01*
X113171462Y-34580910D01*
X113345273Y-34673814D01*
X113533868Y-34731024D01*
X113730000Y-34750341D01*
X113926132Y-34731024D01*
X114114727Y-34673814D01*
X114288538Y-34580910D01*
X114440883Y-34455883D01*
X114565910Y-34303538D01*
X114658814Y-34129727D01*
X114716024Y-33941132D01*
X114735341Y-33745000D01*
X114721236Y-33601791D01*
X114734255Y-33533147D01*
X114782320Y-33482437D01*
X114850170Y-33465762D01*
X114856771Y-33466234D01*
X115000000Y-33480341D01*
X115143208Y-33466236D01*
X115211852Y-33479255D01*
X115262562Y-33527320D01*
X115279237Y-33595170D01*
X115278763Y-33601793D01*
X115264659Y-33744999D01*
X115283975Y-33941129D01*
X115341188Y-34129733D01*
X115434086Y-34303532D01*
X115434090Y-34303539D01*
X115559116Y-34455883D01*
X115711460Y-34580909D01*
X115711467Y-34580913D01*
X115885266Y-34673811D01*
X115885269Y-34673811D01*
X115885273Y-34673814D01*
X116073868Y-34731024D01*
X116270000Y-34750341D01*
X116466132Y-34731024D01*
X116654727Y-34673814D01*
X116828538Y-34580910D01*
X116828544Y-34580904D01*
X116833607Y-34577523D01*
X116834703Y-34579164D01*
X116890639Y-34555405D01*
X116959507Y-34567194D01*
X116976148Y-34577888D01*
X116976393Y-34577523D01*
X116981458Y-34580907D01*
X116981462Y-34580910D01*
X117155273Y-34673814D01*
X117343868Y-34731024D01*
X117540000Y-34750341D01*
X117736132Y-34731024D01*
X117924727Y-34673814D01*
X118098538Y-34580910D01*
X118098544Y-34580904D01*
X118103607Y-34577523D01*
X118104703Y-34579164D01*
X118160639Y-34555405D01*
X118229507Y-34567194D01*
X118246148Y-34577888D01*
X118246393Y-34577523D01*
X118251458Y-34580907D01*
X118251462Y-34580910D01*
X118425273Y-34673814D01*
X118613868Y-34731024D01*
X118810000Y-34750341D01*
X119006132Y-34731024D01*
X119194727Y-34673814D01*
X119368538Y-34580910D01*
X119368544Y-34580904D01*
X119373607Y-34577523D01*
X119374703Y-34579164D01*
X119430639Y-34555405D01*
X119499507Y-34567194D01*
X119516148Y-34577888D01*
X119516393Y-34577523D01*
X119521458Y-34580907D01*
X119521462Y-34580910D01*
X119695273Y-34673814D01*
X119883868Y-34731024D01*
X120080000Y-34750341D01*
X120276132Y-34731024D01*
X120464727Y-34673814D01*
X120638538Y-34580910D01*
X120790883Y-34455883D01*
X120915910Y-34303538D01*
X121008814Y-34129727D01*
X121066024Y-33941132D01*
X121085341Y-33745000D01*
X121071236Y-33601791D01*
X121084255Y-33533147D01*
X121132320Y-33482437D01*
X121200170Y-33465762D01*
X121206771Y-33466234D01*
X121350000Y-33480341D01*
X121546132Y-33461024D01*
X121734727Y-33403814D01*
X121736853Y-33402678D01*
X121868060Y-33332546D01*
X121908538Y-33310910D01*
X122060883Y-33185883D01*
X122185910Y-33033538D01*
X122278814Y-32859727D01*
X122336024Y-32671132D01*
X122355341Y-32475000D01*
X122349102Y-32411653D01*
X122362121Y-32343008D01*
X122410186Y-32292298D01*
X122472505Y-32275500D01*
X130192257Y-32275500D01*
X130207877Y-32277224D01*
X130207904Y-32276939D01*
X130215660Y-32277671D01*
X130215667Y-32277673D01*
X130282873Y-32275561D01*
X130286768Y-32275500D01*
X130314346Y-32275500D01*
X130314350Y-32275500D01*
X130318324Y-32274997D01*
X130329963Y-32274080D01*
X130373627Y-32272709D01*
X130392869Y-32267117D01*
X130411912Y-32263174D01*
X130431792Y-32260664D01*
X130472401Y-32244585D01*
X130483444Y-32240803D01*
X130525390Y-32228618D01*
X130542629Y-32218422D01*
X130560103Y-32209862D01*
X130578727Y-32202488D01*
X130578727Y-32202487D01*
X130578732Y-32202486D01*
X130614083Y-32176800D01*
X130623814Y-32170408D01*
X130661420Y-32148170D01*
X130675589Y-32133999D01*
X130690379Y-32121368D01*
X130706587Y-32109594D01*
X130734438Y-32075926D01*
X130742279Y-32067309D01*
X140514354Y-22295235D01*
X140575675Y-22261752D01*
X140634123Y-22263142D01*
X140734592Y-22290063D01*
X140911034Y-22305500D01*
X140969999Y-22310659D01*
X140970000Y-22310659D01*
X140970001Y-22310659D01*
X141028966Y-22305500D01*
X141205408Y-22290063D01*
X141433663Y-22228903D01*
X141647830Y-22129035D01*
X141841401Y-21993495D01*
X142008495Y-21826401D01*
X142144035Y-21632830D01*
X142243903Y-21418663D01*
X142305063Y-21190408D01*
X142325659Y-20955000D01*
X142305063Y-20719592D01*
X142243903Y-20491337D01*
X142144035Y-20277171D01*
X142138425Y-20269158D01*
X142008494Y-20083597D01*
X141841402Y-19916506D01*
X141841395Y-19916501D01*
X141647834Y-19780967D01*
X141647830Y-19780965D01*
X141647828Y-19780964D01*
X141433663Y-19681097D01*
X141433659Y-19681096D01*
X141433655Y-19681094D01*
X141205413Y-19619938D01*
X141205403Y-19619936D01*
X140970001Y-19599341D01*
X140969999Y-19599341D01*
X140734596Y-19619936D01*
X140734586Y-19619938D01*
X140506344Y-19681094D01*
X140506335Y-19681098D01*
X140292171Y-19780964D01*
X140292169Y-19780965D01*
X140098597Y-19916505D01*
X139931505Y-20083597D01*
X139801575Y-20269158D01*
X139746998Y-20312783D01*
X139677500Y-20319977D01*
X139615145Y-20288454D01*
X139598425Y-20269158D01*
X139468494Y-20083597D01*
X139301402Y-19916506D01*
X139301395Y-19916501D01*
X139107834Y-19780967D01*
X139107830Y-19780965D01*
X139107828Y-19780964D01*
X138893663Y-19681097D01*
X138893659Y-19681096D01*
X138893655Y-19681094D01*
X138665413Y-19619938D01*
X138665403Y-19619936D01*
X138430001Y-19599341D01*
X138429999Y-19599341D01*
X138194596Y-19619936D01*
X138194586Y-19619938D01*
X137966344Y-19681094D01*
X137966335Y-19681098D01*
X137752171Y-19780964D01*
X137752169Y-19780965D01*
X137558597Y-19916505D01*
X137391505Y-20083597D01*
X137261575Y-20269158D01*
X137206998Y-20312783D01*
X137137500Y-20319977D01*
X137075145Y-20288454D01*
X137058425Y-20269158D01*
X136928494Y-20083597D01*
X136761402Y-19916506D01*
X136761395Y-19916501D01*
X136567834Y-19780967D01*
X136567830Y-19780965D01*
X136567828Y-19780964D01*
X136353663Y-19681097D01*
X136353659Y-19681096D01*
X136353655Y-19681094D01*
X136125413Y-19619938D01*
X136125403Y-19619936D01*
X135890001Y-19599341D01*
X135889999Y-19599341D01*
X135654596Y-19619936D01*
X135654586Y-19619938D01*
X135426344Y-19681094D01*
X135426335Y-19681098D01*
X135212171Y-19780964D01*
X135212169Y-19780965D01*
X135018597Y-19916505D01*
X134851505Y-20083597D01*
X134721575Y-20269158D01*
X134666998Y-20312783D01*
X134597500Y-20319977D01*
X134535145Y-20288454D01*
X134518425Y-20269158D01*
X134388494Y-20083597D01*
X134221402Y-19916506D01*
X134221395Y-19916501D01*
X134027834Y-19780967D01*
X134027830Y-19780965D01*
X134027828Y-19780964D01*
X133813663Y-19681097D01*
X133813659Y-19681096D01*
X133813655Y-19681094D01*
X133585413Y-19619938D01*
X133585403Y-19619936D01*
X133350001Y-19599341D01*
X133349999Y-19599341D01*
X133114596Y-19619936D01*
X133114586Y-19619938D01*
X132886344Y-19681094D01*
X132886335Y-19681098D01*
X132672171Y-19780964D01*
X132672169Y-19780965D01*
X132478597Y-19916505D01*
X132311505Y-20083597D01*
X132181575Y-20269158D01*
X132126998Y-20312783D01*
X132057500Y-20319977D01*
X131995145Y-20288454D01*
X131978425Y-20269158D01*
X131848494Y-20083597D01*
X131681402Y-19916506D01*
X131681395Y-19916501D01*
X131487834Y-19780967D01*
X131487830Y-19780965D01*
X131487828Y-19780964D01*
X131273663Y-19681097D01*
X131273659Y-19681096D01*
X131273655Y-19681094D01*
X131045413Y-19619938D01*
X131045403Y-19619936D01*
X130810001Y-19599341D01*
X130809999Y-19599341D01*
X130574596Y-19619936D01*
X130574586Y-19619938D01*
X130346344Y-19681094D01*
X130346335Y-19681098D01*
X130132171Y-19780964D01*
X130132169Y-19780965D01*
X129938597Y-19916505D01*
X129771505Y-20083597D01*
X129641575Y-20269158D01*
X129586998Y-20312783D01*
X129517500Y-20319977D01*
X129455145Y-20288454D01*
X129438425Y-20269158D01*
X129308494Y-20083597D01*
X129141402Y-19916506D01*
X129141395Y-19916501D01*
X128947834Y-19780967D01*
X128947830Y-19780965D01*
X128947828Y-19780964D01*
X128733663Y-19681097D01*
X128733659Y-19681096D01*
X128733655Y-19681094D01*
X128505413Y-19619938D01*
X128505403Y-19619936D01*
X128270001Y-19599341D01*
X128269999Y-19599341D01*
X128034596Y-19619936D01*
X128034586Y-19619938D01*
X127806344Y-19681094D01*
X127806335Y-19681098D01*
X127592171Y-19780964D01*
X127592169Y-19780965D01*
X127398597Y-19916505D01*
X127231505Y-20083597D01*
X127101575Y-20269158D01*
X127046998Y-20312783D01*
X126977500Y-20319977D01*
X126915145Y-20288454D01*
X126898425Y-20269158D01*
X126768494Y-20083597D01*
X126601402Y-19916506D01*
X126601395Y-19916501D01*
X126407834Y-19780967D01*
X126407830Y-19780965D01*
X126407828Y-19780964D01*
X126193663Y-19681097D01*
X126193659Y-19681096D01*
X126193655Y-19681094D01*
X125965413Y-19619938D01*
X125965403Y-19619936D01*
X125730001Y-19599341D01*
X125729999Y-19599341D01*
X125494596Y-19619936D01*
X125494586Y-19619938D01*
X125266344Y-19681094D01*
X125266335Y-19681098D01*
X125052171Y-19780964D01*
X125052169Y-19780965D01*
X124858597Y-19916505D01*
X124691505Y-20083597D01*
X124561575Y-20269158D01*
X124506998Y-20312783D01*
X124437500Y-20319977D01*
X124375145Y-20288454D01*
X124358425Y-20269158D01*
X124228494Y-20083597D01*
X124061402Y-19916506D01*
X124061395Y-19916501D01*
X123867834Y-19780967D01*
X123867830Y-19780965D01*
X123867828Y-19780964D01*
X123653663Y-19681097D01*
X123653659Y-19681096D01*
X123653655Y-19681094D01*
X123425413Y-19619938D01*
X123425403Y-19619936D01*
X123190001Y-19599341D01*
X123189999Y-19599341D01*
X122954596Y-19619936D01*
X122954586Y-19619938D01*
X122726344Y-19681094D01*
X122726335Y-19681098D01*
X122512171Y-19780964D01*
X122512169Y-19780965D01*
X122318597Y-19916505D01*
X122151505Y-20083597D01*
X122021575Y-20269158D01*
X121966998Y-20312783D01*
X121897500Y-20319977D01*
X121835145Y-20288454D01*
X121818425Y-20269158D01*
X121688494Y-20083597D01*
X121521402Y-19916506D01*
X121521395Y-19916501D01*
X121327834Y-19780967D01*
X121327830Y-19780965D01*
X121327828Y-19780964D01*
X121113663Y-19681097D01*
X121113659Y-19681096D01*
X121113655Y-19681094D01*
X120885413Y-19619938D01*
X120885403Y-19619936D01*
X120650001Y-19599341D01*
X120649999Y-19599341D01*
X120414596Y-19619936D01*
X120414586Y-19619938D01*
X120186344Y-19681094D01*
X120186335Y-19681098D01*
X119972171Y-19780964D01*
X119972169Y-19780965D01*
X119778597Y-19916505D01*
X119611505Y-20083597D01*
X119481575Y-20269158D01*
X119426998Y-20312783D01*
X119357500Y-20319977D01*
X119295145Y-20288454D01*
X119278425Y-20269158D01*
X119148494Y-20083597D01*
X118981402Y-19916506D01*
X118981395Y-19916501D01*
X118787834Y-19780967D01*
X118787830Y-19780965D01*
X118787828Y-19780964D01*
X118573663Y-19681097D01*
X118573659Y-19681096D01*
X118573655Y-19681094D01*
X118345413Y-19619938D01*
X118345403Y-19619936D01*
X118110001Y-19599341D01*
X118109999Y-19599341D01*
X117874596Y-19619936D01*
X117874586Y-19619938D01*
X117646344Y-19681094D01*
X117646335Y-19681098D01*
X117432171Y-19780964D01*
X117432169Y-19780965D01*
X117238597Y-19916505D01*
X117071505Y-20083597D01*
X116941575Y-20269158D01*
X116886998Y-20312783D01*
X116817500Y-20319977D01*
X116755145Y-20288454D01*
X116738425Y-20269158D01*
X116608494Y-20083597D01*
X116441402Y-19916506D01*
X116441395Y-19916501D01*
X116247834Y-19780967D01*
X116247830Y-19780965D01*
X116247828Y-19780964D01*
X116033663Y-19681097D01*
X116033659Y-19681096D01*
X116033655Y-19681094D01*
X115805413Y-19619938D01*
X115805403Y-19619936D01*
X115570001Y-19599341D01*
X115569999Y-19599341D01*
X115334596Y-19619936D01*
X115334586Y-19619938D01*
X115106344Y-19681094D01*
X115106335Y-19681098D01*
X114892171Y-19780964D01*
X114892169Y-19780965D01*
X114698597Y-19916505D01*
X114531505Y-20083597D01*
X114401575Y-20269158D01*
X114346998Y-20312783D01*
X114277500Y-20319977D01*
X114215145Y-20288454D01*
X114198425Y-20269158D01*
X114068494Y-20083597D01*
X113901402Y-19916506D01*
X113901395Y-19916501D01*
X113707834Y-19780967D01*
X113707830Y-19780965D01*
X113707828Y-19780964D01*
X113493663Y-19681097D01*
X113493659Y-19681096D01*
X113493655Y-19681094D01*
X113265413Y-19619938D01*
X113265403Y-19619936D01*
X113030001Y-19599341D01*
X113029999Y-19599341D01*
X112794596Y-19619936D01*
X112794586Y-19619938D01*
X112566344Y-19681094D01*
X112566335Y-19681098D01*
X112352171Y-19780964D01*
X112352169Y-19780965D01*
X112158597Y-19916505D01*
X111991505Y-20083597D01*
X111861575Y-20269158D01*
X111806998Y-20312783D01*
X111737500Y-20319977D01*
X111675145Y-20288454D01*
X111658425Y-20269158D01*
X111528494Y-20083597D01*
X111361402Y-19916506D01*
X111361395Y-19916501D01*
X111167834Y-19780967D01*
X111167830Y-19780965D01*
X111167828Y-19780964D01*
X110953663Y-19681097D01*
X110953659Y-19681096D01*
X110953655Y-19681094D01*
X110725413Y-19619938D01*
X110725403Y-19619936D01*
X110490001Y-19599341D01*
X110489999Y-19599341D01*
X110254596Y-19619936D01*
X110254586Y-19619938D01*
X110026344Y-19681094D01*
X110026335Y-19681098D01*
X109812171Y-19780964D01*
X109812169Y-19780965D01*
X109618597Y-19916505D01*
X109451505Y-20083597D01*
X109321575Y-20269158D01*
X109266998Y-20312783D01*
X109197500Y-20319977D01*
X109135145Y-20288454D01*
X109118425Y-20269158D01*
X108988494Y-20083597D01*
X108821402Y-19916506D01*
X108821395Y-19916501D01*
X108627834Y-19780967D01*
X108627830Y-19780965D01*
X108627828Y-19780964D01*
X108413663Y-19681097D01*
X108413659Y-19681096D01*
X108413655Y-19681094D01*
X108185413Y-19619938D01*
X108185403Y-19619936D01*
X107950001Y-19599341D01*
X107949999Y-19599341D01*
X107714596Y-19619936D01*
X107714586Y-19619938D01*
X107486344Y-19681094D01*
X107486335Y-19681098D01*
X107272171Y-19780964D01*
X107272169Y-19780965D01*
X107078597Y-19916505D01*
X106911505Y-20083597D01*
X106781575Y-20269158D01*
X106726998Y-20312783D01*
X106657500Y-20319977D01*
X106595145Y-20288454D01*
X106578425Y-20269158D01*
X106448494Y-20083597D01*
X106281402Y-19916506D01*
X106281395Y-19916501D01*
X106087834Y-19780967D01*
X106087830Y-19780965D01*
X106087828Y-19780964D01*
X105873663Y-19681097D01*
X105873659Y-19681096D01*
X105873655Y-19681094D01*
X105645413Y-19619938D01*
X105645403Y-19619936D01*
X105410001Y-19599341D01*
X105409999Y-19599341D01*
X105174596Y-19619936D01*
X105174586Y-19619938D01*
X104946344Y-19681094D01*
X104946335Y-19681098D01*
X104732171Y-19780964D01*
X104732169Y-19780965D01*
X104538597Y-19916505D01*
X104371505Y-20083597D01*
X104241575Y-20269158D01*
X104186998Y-20312783D01*
X104117500Y-20319977D01*
X104055145Y-20288454D01*
X104038425Y-20269158D01*
X103908494Y-20083597D01*
X103741402Y-19916506D01*
X103741395Y-19916501D01*
X103547834Y-19780967D01*
X103547830Y-19780965D01*
X103547828Y-19780964D01*
X103333663Y-19681097D01*
X103333659Y-19681096D01*
X103333655Y-19681094D01*
X103105413Y-19619938D01*
X103105403Y-19619936D01*
X102870001Y-19599341D01*
X102869999Y-19599341D01*
X102634596Y-19619936D01*
X102634586Y-19619938D01*
X102406344Y-19681094D01*
X102406335Y-19681098D01*
X102192171Y-19780964D01*
X102192169Y-19780965D01*
X101998597Y-19916505D01*
X101831505Y-20083597D01*
X101701575Y-20269158D01*
X101646998Y-20312783D01*
X101577500Y-20319977D01*
X101515145Y-20288454D01*
X101498425Y-20269158D01*
X101368494Y-20083597D01*
X101201402Y-19916506D01*
X101201395Y-19916501D01*
X101007834Y-19780967D01*
X101007830Y-19780965D01*
X101007828Y-19780964D01*
X100793663Y-19681097D01*
X100793659Y-19681096D01*
X100793655Y-19681094D01*
X100565413Y-19619938D01*
X100565403Y-19619936D01*
X100330001Y-19599341D01*
X100329999Y-19599341D01*
X100094596Y-19619936D01*
X100094586Y-19619938D01*
X99866344Y-19681094D01*
X99866335Y-19681098D01*
X99652171Y-19780964D01*
X99652169Y-19780965D01*
X99458597Y-19916505D01*
X99291505Y-20083597D01*
X99161575Y-20269158D01*
X99106998Y-20312783D01*
X99037500Y-20319977D01*
X98975145Y-20288454D01*
X98958425Y-20269158D01*
X98828494Y-20083597D01*
X98661402Y-19916506D01*
X98661395Y-19916501D01*
X98467834Y-19780967D01*
X98467830Y-19780965D01*
X98467828Y-19780964D01*
X98253663Y-19681097D01*
X98253659Y-19681096D01*
X98253655Y-19681094D01*
X98025413Y-19619938D01*
X98025403Y-19619936D01*
X97790001Y-19599341D01*
X97789999Y-19599341D01*
X97554596Y-19619936D01*
X97554586Y-19619938D01*
X97326344Y-19681094D01*
X97326335Y-19681098D01*
X97112171Y-19780964D01*
X97112169Y-19780965D01*
X96918597Y-19916505D01*
X96751505Y-20083597D01*
X96621575Y-20269158D01*
X96566998Y-20312783D01*
X96497500Y-20319977D01*
X96435145Y-20288454D01*
X96418425Y-20269158D01*
X96288494Y-20083597D01*
X96121402Y-19916506D01*
X96121395Y-19916501D01*
X95927834Y-19780967D01*
X95927830Y-19780965D01*
X95927828Y-19780964D01*
X95713663Y-19681097D01*
X95713659Y-19681096D01*
X95713655Y-19681094D01*
X95485413Y-19619938D01*
X95485403Y-19619936D01*
X95250001Y-19599341D01*
X95249999Y-19599341D01*
X95014596Y-19619936D01*
X95014586Y-19619938D01*
X94786344Y-19681094D01*
X94786335Y-19681098D01*
X94572171Y-19780964D01*
X94572169Y-19780965D01*
X94378597Y-19916505D01*
X94211505Y-20083597D01*
X94081575Y-20269158D01*
X94026998Y-20312783D01*
X93957500Y-20319977D01*
X93895145Y-20288454D01*
X93878425Y-20269158D01*
X93748494Y-20083597D01*
X93581402Y-19916506D01*
X93581395Y-19916501D01*
X93387834Y-19780967D01*
X93387830Y-19780965D01*
X93387828Y-19780964D01*
X93173663Y-19681097D01*
X93173659Y-19681096D01*
X93173655Y-19681094D01*
X92945413Y-19619938D01*
X92945403Y-19619936D01*
X92710001Y-19599341D01*
X92709999Y-19599341D01*
X92474596Y-19619936D01*
X92474586Y-19619938D01*
X92246344Y-19681094D01*
X92246335Y-19681098D01*
X92032171Y-19780964D01*
X92032169Y-19780965D01*
X91838597Y-19916505D01*
X91671505Y-20083597D01*
X91541575Y-20269158D01*
X91486998Y-20312783D01*
X91417500Y-20319977D01*
X91355145Y-20288454D01*
X91338425Y-20269158D01*
X91208494Y-20083597D01*
X91041402Y-19916506D01*
X91041395Y-19916501D01*
X90847834Y-19780967D01*
X90847830Y-19780965D01*
X90847828Y-19780964D01*
X90633663Y-19681097D01*
X90633659Y-19681096D01*
X90633655Y-19681094D01*
X90405413Y-19619938D01*
X90405403Y-19619936D01*
X90170001Y-19599341D01*
X90169999Y-19599341D01*
X89934596Y-19619936D01*
X89934586Y-19619938D01*
X89706344Y-19681094D01*
X89706335Y-19681098D01*
X89492171Y-19780964D01*
X89492169Y-19780965D01*
X89298597Y-19916505D01*
X89131505Y-20083597D01*
X89001575Y-20269158D01*
X88946998Y-20312783D01*
X88877500Y-20319977D01*
X88815145Y-20288454D01*
X88798425Y-20269158D01*
X88668494Y-20083597D01*
X88501402Y-19916506D01*
X88501395Y-19916501D01*
X88307834Y-19780967D01*
X88307830Y-19780965D01*
X88307828Y-19780964D01*
X88093663Y-19681097D01*
X88093659Y-19681096D01*
X88093655Y-19681094D01*
X87865413Y-19619938D01*
X87865403Y-19619936D01*
X87630001Y-19599341D01*
X87629999Y-19599341D01*
X87394596Y-19619936D01*
X87394586Y-19619938D01*
X87166344Y-19681094D01*
X87166335Y-19681098D01*
X86952171Y-19780964D01*
X86952169Y-19780965D01*
X86758597Y-19916505D01*
X86591505Y-20083597D01*
X86461575Y-20269158D01*
X86406998Y-20312783D01*
X86337500Y-20319977D01*
X86275145Y-20288454D01*
X86258425Y-20269158D01*
X86128494Y-20083597D01*
X85961402Y-19916506D01*
X85961395Y-19916501D01*
X85767834Y-19780967D01*
X85767830Y-19780965D01*
X85767828Y-19780964D01*
X85553663Y-19681097D01*
X85553659Y-19681096D01*
X85553655Y-19681094D01*
X85325413Y-19619938D01*
X85325403Y-19619936D01*
X85090001Y-19599341D01*
X85089999Y-19599341D01*
X84854596Y-19619936D01*
X84854586Y-19619938D01*
X84626344Y-19681094D01*
X84626335Y-19681098D01*
X84412171Y-19780964D01*
X84412169Y-19780965D01*
X84218597Y-19916505D01*
X84051505Y-20083597D01*
X83921575Y-20269158D01*
X83866998Y-20312783D01*
X83797500Y-20319977D01*
X83735145Y-20288454D01*
X83718425Y-20269158D01*
X83588494Y-20083597D01*
X83421402Y-19916506D01*
X83421395Y-19916501D01*
X83227834Y-19780967D01*
X83227830Y-19780965D01*
X83227828Y-19780964D01*
X83013663Y-19681097D01*
X83013659Y-19681096D01*
X83013655Y-19681094D01*
X82785413Y-19619938D01*
X82785403Y-19619936D01*
X82550001Y-19599341D01*
X82549999Y-19599341D01*
X82314596Y-19619936D01*
X82314586Y-19619938D01*
X82086344Y-19681094D01*
X82086335Y-19681098D01*
X81872171Y-19780964D01*
X81872169Y-19780965D01*
X81678597Y-19916505D01*
X81511505Y-20083597D01*
X81381575Y-20269158D01*
X81326998Y-20312783D01*
X81257500Y-20319977D01*
X81195145Y-20288454D01*
X81178425Y-20269158D01*
X81048494Y-20083597D01*
X80881402Y-19916506D01*
X80881395Y-19916501D01*
X80687834Y-19780967D01*
X80687830Y-19780965D01*
X80687828Y-19780964D01*
X80473663Y-19681097D01*
X80473659Y-19681096D01*
X80473655Y-19681094D01*
X80245413Y-19619938D01*
X80245403Y-19619936D01*
X80010001Y-19599341D01*
X80009999Y-19599341D01*
X79774596Y-19619936D01*
X79774586Y-19619938D01*
X79546344Y-19681094D01*
X79546335Y-19681098D01*
X79332171Y-19780964D01*
X79332169Y-19780965D01*
X79138597Y-19916505D01*
X78971505Y-20083597D01*
X78841575Y-20269158D01*
X78786998Y-20312783D01*
X78717500Y-20319977D01*
X78655145Y-20288454D01*
X78638425Y-20269158D01*
X78508494Y-20083597D01*
X78341402Y-19916506D01*
X78341395Y-19916501D01*
X78147834Y-19780967D01*
X78147830Y-19780965D01*
X78147828Y-19780964D01*
X77933663Y-19681097D01*
X77933659Y-19681096D01*
X77933655Y-19681094D01*
X77705413Y-19619938D01*
X77705403Y-19619936D01*
X77470001Y-19599341D01*
X77469999Y-19599341D01*
X77234596Y-19619936D01*
X77234586Y-19619938D01*
X77006344Y-19681094D01*
X77006335Y-19681098D01*
X76792171Y-19780964D01*
X76792169Y-19780965D01*
X76598597Y-19916505D01*
X76431505Y-20083597D01*
X76301575Y-20269158D01*
X76246998Y-20312783D01*
X76177500Y-20319977D01*
X76115145Y-20288454D01*
X76098425Y-20269158D01*
X75968494Y-20083597D01*
X75801402Y-19916506D01*
X75801395Y-19916501D01*
X75607834Y-19780967D01*
X75607830Y-19780965D01*
X75607828Y-19780964D01*
X75393663Y-19681097D01*
X75393659Y-19681096D01*
X75393655Y-19681094D01*
X75165413Y-19619938D01*
X75165403Y-19619936D01*
X74930001Y-19599341D01*
X74929999Y-19599341D01*
X74694596Y-19619936D01*
X74694586Y-19619938D01*
X74466344Y-19681094D01*
X74466335Y-19681098D01*
X74252171Y-19780964D01*
X74252169Y-19780965D01*
X74058597Y-19916505D01*
X73891505Y-20083597D01*
X73761575Y-20269158D01*
X73706998Y-20312783D01*
X73637500Y-20319977D01*
X73575145Y-20288454D01*
X73558425Y-20269158D01*
X73428494Y-20083597D01*
X73261402Y-19916506D01*
X73261395Y-19916501D01*
X73067834Y-19780967D01*
X73067830Y-19780965D01*
X73067828Y-19780964D01*
X72853663Y-19681097D01*
X72853659Y-19681096D01*
X72853655Y-19681094D01*
X72625413Y-19619938D01*
X72625403Y-19619936D01*
X72390001Y-19599341D01*
X72389999Y-19599341D01*
X72154596Y-19619936D01*
X72154586Y-19619938D01*
X71926344Y-19681094D01*
X71926335Y-19681098D01*
X71712171Y-19780964D01*
X71712169Y-19780965D01*
X71518597Y-19916505D01*
X71351505Y-20083597D01*
X71221575Y-20269158D01*
X71166998Y-20312783D01*
X71097500Y-20319977D01*
X71035145Y-20288454D01*
X71018425Y-20269158D01*
X70888494Y-20083597D01*
X70721402Y-19916506D01*
X70721395Y-19916501D01*
X70527834Y-19780967D01*
X70527830Y-19780965D01*
X70527828Y-19780964D01*
X70313663Y-19681097D01*
X70313659Y-19681096D01*
X70313655Y-19681094D01*
X70085413Y-19619938D01*
X70085403Y-19619936D01*
X69850001Y-19599341D01*
X69849999Y-19599341D01*
X69614596Y-19619936D01*
X69614586Y-19619938D01*
X69386344Y-19681094D01*
X69386335Y-19681098D01*
X69172171Y-19780964D01*
X69172169Y-19780965D01*
X68978600Y-19916503D01*
X68856673Y-20038430D01*
X68795350Y-20071914D01*
X68725658Y-20066930D01*
X68669725Y-20025058D01*
X68652810Y-19994081D01*
X68603797Y-19862671D01*
X68603793Y-19862664D01*
X68517547Y-19747455D01*
X68517544Y-19747452D01*
X68402335Y-19661206D01*
X68402328Y-19661202D01*
X68267482Y-19610908D01*
X68267483Y-19610908D01*
X68207883Y-19604501D01*
X68207881Y-19604500D01*
X68207873Y-19604500D01*
X68207864Y-19604500D01*
X66412129Y-19604500D01*
X66412123Y-19604501D01*
X66352516Y-19610908D01*
X66217671Y-19661202D01*
X66217664Y-19661206D01*
X66102455Y-19747452D01*
X66102452Y-19747455D01*
X66016206Y-19862664D01*
X66016202Y-19862671D01*
X65965908Y-19997517D01*
X65959501Y-20057116D01*
X65959500Y-20057135D01*
X65959500Y-21852870D01*
X65959501Y-21852876D01*
X65965908Y-21912483D01*
X66016202Y-22047328D01*
X66016206Y-22047335D01*
X66102452Y-22162544D01*
X66102455Y-22162547D01*
X66217664Y-22248793D01*
X66217671Y-22248797D01*
X66252406Y-22261752D01*
X66352517Y-22299091D01*
X66412127Y-22305500D01*
X66435497Y-22305499D01*
X66502536Y-22325181D01*
X66548292Y-22377983D01*
X66559500Y-22429499D01*
X66559500Y-31513894D01*
X66558191Y-31531863D01*
X66554710Y-31555625D01*
X66559028Y-31604968D01*
X66559500Y-31615776D01*
X66559500Y-31621311D01*
X66563098Y-31652095D01*
X66563464Y-31655683D01*
X66570000Y-31730391D01*
X66571461Y-31737467D01*
X66571403Y-31737478D01*
X66573034Y-31744837D01*
X66573092Y-31744824D01*
X66574757Y-31751849D01*
X66574758Y-31751854D01*
X66574759Y-31751855D01*
X66590102Y-31794012D01*
X66600400Y-31822305D01*
X66601582Y-31825707D01*
X66625182Y-31896926D01*
X66628236Y-31903474D01*
X66628182Y-31903498D01*
X66631470Y-31910288D01*
X66631521Y-31910263D01*
X66634761Y-31916714D01*
X66675979Y-31979384D01*
X66677889Y-31982382D01*
X66697210Y-32013705D01*
X66717289Y-32046258D01*
X66721766Y-32051919D01*
X66721719Y-32051956D01*
X66726482Y-32057802D01*
X66726528Y-32057764D01*
X66731173Y-32063299D01*
X66785709Y-32114751D01*
X66788297Y-32117265D01*
X67286528Y-32615495D01*
X67316778Y-32664858D01*
X67372118Y-32835177D01*
X67372121Y-32835184D01*
X67432187Y-32939221D01*
X67448800Y-33001221D01*
X67448800Y-81719794D01*
X67447491Y-81737763D01*
X67444010Y-81761525D01*
X67448328Y-81810868D01*
X67448800Y-81821676D01*
X67448800Y-81827211D01*
X67452398Y-81857995D01*
X67452764Y-81861583D01*
X67459300Y-81936291D01*
X67460761Y-81943367D01*
X67460703Y-81943378D01*
X67462334Y-81950737D01*
X67462392Y-81950724D01*
X67464057Y-81957749D01*
X67489700Y-82028205D01*
X67490882Y-82031607D01*
X67514482Y-82102826D01*
X67517536Y-82109374D01*
X67517482Y-82109398D01*
X67520770Y-82116188D01*
X67520821Y-82116163D01*
X67524061Y-82122614D01*
X67565279Y-82185284D01*
X67567189Y-82188282D01*
X67598272Y-82238674D01*
X67606589Y-82252158D01*
X67611066Y-82257819D01*
X67611019Y-82257856D01*
X67615782Y-82263702D01*
X67615828Y-82263664D01*
X67620473Y-82269199D01*
X67675008Y-82320650D01*
X67677596Y-82323164D01*
X70591750Y-85237318D01*
X70625235Y-85298641D01*
X70620251Y-85368333D01*
X70591750Y-85412680D01*
X70380858Y-85623572D01*
X70367229Y-85635351D01*
X70347969Y-85649690D01*
X70316132Y-85687631D01*
X70308846Y-85695584D01*
X70304907Y-85699524D01*
X70285676Y-85723845D01*
X70283402Y-85726637D01*
X70235194Y-85784090D01*
X70231229Y-85790119D01*
X70231182Y-85790088D01*
X70227130Y-85796447D01*
X70227179Y-85796477D01*
X70223389Y-85802621D01*
X70191692Y-85870594D01*
X70190123Y-85873836D01*
X70156457Y-85940872D01*
X70153988Y-85947657D01*
X70153932Y-85947636D01*
X70151460Y-85954750D01*
X70151515Y-85954769D01*
X70149243Y-85961625D01*
X70134073Y-86035088D01*
X70133293Y-86038604D01*
X70115999Y-86111579D01*
X70115161Y-86118754D01*
X70115101Y-86118747D01*
X70114335Y-86126245D01*
X70114395Y-86126251D01*
X70113765Y-86133440D01*
X70115948Y-86208428D01*
X70116000Y-86212035D01*
X70116000Y-89933154D01*
X70115790Y-89940364D01*
X70112168Y-90002533D01*
X70112169Y-90002535D01*
X70122982Y-90063863D01*
X70124027Y-90070996D01*
X70131257Y-90132849D01*
X70131261Y-90132864D01*
X70135094Y-90143395D01*
X70140686Y-90164264D01*
X70142633Y-90175308D01*
X70142634Y-90175310D01*
X70145648Y-90182296D01*
X70167301Y-90232496D01*
X70169959Y-90239185D01*
X70191262Y-90297716D01*
X70197424Y-90307084D01*
X70207679Y-90326104D01*
X70212120Y-90336399D01*
X70212124Y-90336406D01*
X70249314Y-90386360D01*
X70253440Y-90392252D01*
X70287670Y-90444296D01*
X70295830Y-90451995D01*
X70310190Y-90468131D01*
X70316890Y-90477130D01*
X70364602Y-90517165D01*
X70369991Y-90521962D01*
X70415278Y-90564690D01*
X70415280Y-90564690D01*
X70415282Y-90564692D01*
X70424989Y-90570296D01*
X70442695Y-90582694D01*
X70451286Y-90589902D01*
X70451287Y-90589902D01*
X70451289Y-90589904D01*
X70506938Y-90617851D01*
X70513264Y-90621261D01*
X70567219Y-90652412D01*
X70577963Y-90655628D01*
X70598044Y-90663606D01*
X70608067Y-90668640D01*
X70621810Y-90671897D01*
X70668674Y-90683005D01*
X70675636Y-90684870D01*
X70735290Y-90702730D01*
X70746478Y-90703381D01*
X70767872Y-90706514D01*
X70778779Y-90709100D01*
X70841055Y-90709100D01*
X70848264Y-90709309D01*
X70910435Y-90712931D01*
X70910443Y-90712929D01*
X70917644Y-90712511D01*
X70917768Y-90714642D01*
X70976768Y-90721221D01*
X71016545Y-90747913D01*
X72726451Y-92457819D01*
X72759936Y-92519142D01*
X72754952Y-92588834D01*
X72713080Y-92644767D01*
X72647616Y-92669184D01*
X72638770Y-92669500D01*
X71152129Y-92669500D01*
X71152123Y-92669501D01*
X71092516Y-92675908D01*
X70957671Y-92726202D01*
X70957664Y-92726206D01*
X70842455Y-92812452D01*
X70766522Y-92913884D01*
X70710588Y-92955755D01*
X70640896Y-92960738D01*
X70579573Y-92927252D01*
X70567994Y-92913889D01*
X70499546Y-92822454D01*
X70470238Y-92800514D01*
X70384335Y-92736206D01*
X70384328Y-92736202D01*
X70249482Y-92685908D01*
X70249483Y-92685908D01*
X70189883Y-92679501D01*
X70189881Y-92679500D01*
X70189873Y-92679500D01*
X70189864Y-92679500D01*
X68494129Y-92679500D01*
X68494123Y-92679501D01*
X68434516Y-92685908D01*
X68299671Y-92736202D01*
X68299664Y-92736206D01*
X68184455Y-92822452D01*
X68184452Y-92822455D01*
X68098206Y-92937664D01*
X68098202Y-92937671D01*
X68047908Y-93072517D01*
X68041501Y-93132116D01*
X68041500Y-93132135D01*
X68041500Y-93547191D01*
X68021815Y-93614230D01*
X68005181Y-93634872D01*
X66975105Y-94664947D01*
X66913782Y-94698432D01*
X66864640Y-94699154D01*
X66786243Y-94684500D01*
X66563757Y-94684500D01*
X66345060Y-94725382D01*
X66213864Y-94776207D01*
X66137601Y-94805752D01*
X66137595Y-94805754D01*
X65948439Y-94922874D01*
X65948437Y-94922876D01*
X65784020Y-95072761D01*
X65649943Y-95250308D01*
X65649938Y-95250316D01*
X65550775Y-95449461D01*
X65550769Y-95449476D01*
X65489885Y-95663462D01*
X65489884Y-95663464D01*
X65469357Y-95884999D01*
X65469357Y-95885000D01*
X62337622Y-95885000D01*
X62329222Y-95883261D01*
X62286920Y-95872400D01*
X62286919Y-95872400D01*
X62266884Y-95872400D01*
X62247486Y-95870873D01*
X62240062Y-95869697D01*
X62227705Y-95867740D01*
X62227704Y-95867740D01*
X62184225Y-95871850D01*
X62172556Y-95872400D01*
X61338179Y-95872400D01*
X61271140Y-95852715D01*
X61225385Y-95799911D01*
X61222751Y-95793702D01*
X61214981Y-95773907D01*
X61200260Y-95736396D01*
X61200259Y-95736395D01*
X61200260Y-95736395D01*
X61144243Y-95639372D01*
X61069102Y-95509224D01*
X60905551Y-95304137D01*
X60713259Y-95125717D01*
X60496524Y-94977949D01*
X60496520Y-94977947D01*
X60496517Y-94977945D01*
X60496516Y-94977944D01*
X60260188Y-94864136D01*
X60260190Y-94864136D01*
X60009525Y-94786816D01*
X60009519Y-94786814D01*
X59750145Y-94747720D01*
X59750138Y-94747720D01*
X59487822Y-94747720D01*
X59487814Y-94747720D01*
X59228440Y-94786814D01*
X59228434Y-94786816D01*
X58977770Y-94864136D01*
X58741443Y-94977944D01*
X58741442Y-94977945D01*
X58524700Y-95125717D01*
X58332411Y-95304135D01*
X58332409Y-95304137D01*
X58168858Y-95509224D01*
X58037700Y-95736395D01*
X57941865Y-95980576D01*
X57883494Y-96236322D01*
X57883493Y-96236327D01*
X57863892Y-96497895D01*
X57863892Y-96497904D01*
X51381708Y-96497904D01*
X51381708Y-96497895D01*
X51362106Y-96236327D01*
X51362105Y-96236322D01*
X51362105Y-96236318D01*
X51314509Y-96027785D01*
X51303734Y-95980576D01*
X51240518Y-95819505D01*
X51207900Y-95736396D01*
X51207899Y-95736395D01*
X51207900Y-95736395D01*
X51151883Y-95639372D01*
X51076742Y-95509224D01*
X50913191Y-95304137D01*
X50720899Y-95125717D01*
X50504164Y-94977949D01*
X50504160Y-94977947D01*
X50504157Y-94977945D01*
X50504156Y-94977944D01*
X50267828Y-94864136D01*
X50267830Y-94864136D01*
X50017165Y-94786816D01*
X50017159Y-94786814D01*
X49757785Y-94747720D01*
X49757778Y-94747720D01*
X49495462Y-94747720D01*
X49495454Y-94747720D01*
X49236080Y-94786814D01*
X49236074Y-94786816D01*
X48985410Y-94864136D01*
X48749083Y-94977944D01*
X48749082Y-94977945D01*
X48532340Y-95125717D01*
X48340051Y-95304135D01*
X48340049Y-95304137D01*
X48176498Y-95509224D01*
X48045340Y-95736395D01*
X47949505Y-95980576D01*
X47891134Y-96236322D01*
X47891133Y-96236327D01*
X47871532Y-96497895D01*
X47871532Y-96497904D01*
X47891133Y-96759472D01*
X47891134Y-96759477D01*
X47949505Y-97015223D01*
X48046632Y-97262697D01*
X48052801Y-97332294D01*
X48020363Y-97394177D01*
X47959618Y-97428700D01*
X47889852Y-97424901D01*
X47877403Y-97419719D01*
X47765928Y-97366036D01*
X47765930Y-97366036D01*
X47515265Y-97288716D01*
X47515259Y-97288714D01*
X47255885Y-97249620D01*
X47255878Y-97249620D01*
X46993562Y-97249620D01*
X46993554Y-97249620D01*
X46734180Y-97288714D01*
X46734174Y-97288716D01*
X46483510Y-97366036D01*
X46247183Y-97479844D01*
X46247182Y-97479845D01*
X46030440Y-97627617D01*
X45838151Y-97806035D01*
X45838149Y-97806037D01*
X45674598Y-98011124D01*
X45543440Y-98238295D01*
X45447605Y-98482476D01*
X45389234Y-98738222D01*
X45389233Y-98738227D01*
X45369632Y-98999795D01*
X45369632Y-98999804D01*
X43815000Y-98999804D01*
X43815000Y-21852870D01*
X46909500Y-21852870D01*
X46909501Y-21852876D01*
X46915908Y-21912483D01*
X46966202Y-22047328D01*
X46966206Y-22047335D01*
X47052452Y-22162544D01*
X47052455Y-22162547D01*
X47167664Y-22248793D01*
X47167671Y-22248797D01*
X47302517Y-22299091D01*
X47302516Y-22299091D01*
X47309444Y-22299835D01*
X47362127Y-22305500D01*
X49157872Y-22305499D01*
X49217483Y-22299091D01*
X49352331Y-22248796D01*
X49467546Y-22162546D01*
X49553796Y-22047331D01*
X49602810Y-21915916D01*
X49644681Y-21859984D01*
X49710145Y-21835566D01*
X49778418Y-21850417D01*
X49806673Y-21871569D01*
X49928599Y-21993495D01*
X50025384Y-22061265D01*
X50122165Y-22129032D01*
X50122167Y-22129033D01*
X50122170Y-22129035D01*
X50336337Y-22228903D01*
X50336343Y-22228904D01*
X50336344Y-22228905D01*
X50391285Y-22243626D01*
X50564592Y-22290063D01*
X50741034Y-22305500D01*
X50799999Y-22310659D01*
X50800000Y-22310659D01*
X50800001Y-22310659D01*
X50858966Y-22305500D01*
X51035408Y-22290063D01*
X51263663Y-22228903D01*
X51477830Y-22129035D01*
X51671401Y-21993495D01*
X51838495Y-21826401D01*
X51968425Y-21640842D01*
X52023002Y-21597217D01*
X52092500Y-21590023D01*
X52154855Y-21621546D01*
X52171575Y-21640842D01*
X52301500Y-21826395D01*
X52301505Y-21826401D01*
X52468599Y-21993495D01*
X52565384Y-22061265D01*
X52662165Y-22129032D01*
X52662167Y-22129033D01*
X52662170Y-22129035D01*
X52876337Y-22228903D01*
X52876343Y-22228904D01*
X52876344Y-22228905D01*
X52931285Y-22243626D01*
X53104592Y-22290063D01*
X53281034Y-22305500D01*
X53339999Y-22310659D01*
X53340000Y-22310659D01*
X53340001Y-22310659D01*
X53398966Y-22305500D01*
X53575408Y-22290063D01*
X53803663Y-22228903D01*
X54017830Y-22129035D01*
X54211401Y-21993495D01*
X54378495Y-21826401D01*
X54514035Y-21632830D01*
X54613903Y-21418663D01*
X54675063Y-21190408D01*
X54695659Y-20955000D01*
X54675063Y-20719592D01*
X54613903Y-20491337D01*
X54514035Y-20277171D01*
X54508425Y-20269158D01*
X54378494Y-20083597D01*
X54211402Y-19916506D01*
X54211395Y-19916501D01*
X54017834Y-19780967D01*
X54017830Y-19780965D01*
X54017828Y-19780964D01*
X53803663Y-19681097D01*
X53803659Y-19681096D01*
X53803655Y-19681094D01*
X53575413Y-19619938D01*
X53575403Y-19619936D01*
X53340001Y-19599341D01*
X53339999Y-19599341D01*
X53104596Y-19619936D01*
X53104586Y-19619938D01*
X52876344Y-19681094D01*
X52876335Y-19681098D01*
X52662171Y-19780964D01*
X52662169Y-19780965D01*
X52468597Y-19916505D01*
X52301505Y-20083597D01*
X52171575Y-20269158D01*
X52116998Y-20312783D01*
X52047500Y-20319977D01*
X51985145Y-20288454D01*
X51968425Y-20269158D01*
X51838494Y-20083597D01*
X51671402Y-19916506D01*
X51671395Y-19916501D01*
X51477834Y-19780967D01*
X51477830Y-19780965D01*
X51477828Y-19780964D01*
X51263663Y-19681097D01*
X51263659Y-19681096D01*
X51263655Y-19681094D01*
X51035413Y-19619938D01*
X51035403Y-19619936D01*
X50800001Y-19599341D01*
X50799999Y-19599341D01*
X50564596Y-19619936D01*
X50564586Y-19619938D01*
X50336344Y-19681094D01*
X50336335Y-19681098D01*
X50122171Y-19780964D01*
X50122169Y-19780965D01*
X49928600Y-19916503D01*
X49806673Y-20038430D01*
X49745350Y-20071914D01*
X49675658Y-20066930D01*
X49619725Y-20025058D01*
X49602810Y-19994081D01*
X49553797Y-19862671D01*
X49553793Y-19862664D01*
X49467547Y-19747455D01*
X49467544Y-19747452D01*
X49352335Y-19661206D01*
X49352328Y-19661202D01*
X49217482Y-19610908D01*
X49217483Y-19610908D01*
X49157883Y-19604501D01*
X49157881Y-19604500D01*
X49157873Y-19604500D01*
X49157864Y-19604500D01*
X47362129Y-19604500D01*
X47362123Y-19604501D01*
X47302516Y-19610908D01*
X47167671Y-19661202D01*
X47167664Y-19661206D01*
X47052455Y-19747452D01*
X47052452Y-19747455D01*
X46966206Y-19862664D01*
X46966202Y-19862671D01*
X46915908Y-19997517D01*
X46909501Y-20057116D01*
X46909500Y-20057135D01*
X46909500Y-21852870D01*
X43815000Y-21852870D01*
X43815000Y-18539000D01*
X43834685Y-18471961D01*
X43887489Y-18426206D01*
X43939000Y-18415000D01*
X146561000Y-18415000D01*
X146628039Y-18434685D01*
G37*
%TD.AperFunction*%
%TD*%
M02*
