M48
; DRILL file {KiCad 7.0.10} date Wed Jan 10 20:25:07 2024
; FORMAT={-:-/ absolute / inch / decimal}
; #@! TF.CreationDate,2024-01-10T20:25:07+00:00
; #@! TF.GenerationSoftware,Kicad,Pcbnew,7.0.10
; #@! TF.FileFunction,MixedPlating,1,2
FMAT,2
INCH
; #@! TA.AperFunction,Plated,PTH,ViaDrill
T1C0.0157
; #@! TA.AperFunction,Plated,PTH,ComponentDrill
T2C0.0276
; #@! TA.AperFunction,Plated,PTH,ComponentDrill
T3C0.0315
; #@! TA.AperFunction,Plated,PTH,ComponentDrill
T4C0.0354
; #@! TA.AperFunction,Plated,PTH,ComponentDrill
T5C0.0394
; #@! TA.AperFunction,Plated,PTH,ComponentDrill
T6C0.0550
; #@! TA.AperFunction,NonPlated,NPTH,ComponentDrill
T7C0.0550
%
G90
G05
T1
X2.685Y-1.2782
X2.78Y-2.57
X3.155Y-3.555
X3.275Y-3.525
X3.305Y-4.045
X3.91Y-3.58
X4.2281Y-3.6931
X4.25Y-3.525
X4.265Y-3.945
X4.32Y-3.7
X4.93Y-4.19
T2
X2.625Y-3.775
X2.625Y-3.975
X2.8276Y-1.2785
X2.8276Y-1.3285
X2.8276Y-3.3593
X2.8276Y-3.4093
X2.8776Y-1.2785
X2.8776Y-1.3285
X2.8776Y-3.3593
X2.8776Y-3.4093
X2.9276Y-1.2785
X2.9276Y-1.3285
X2.9276Y-3.3593
X2.9276Y-3.4093
X2.9776Y-1.2785
X2.9776Y-1.3285
X2.9776Y-3.3593
X2.9776Y-3.4093
X3.0276Y-1.2785
X3.0276Y-1.3285
X3.0276Y-3.3593
X3.0276Y-3.4093
X3.0776Y-1.2785
X3.0776Y-1.3285
X3.0776Y-3.3593
X3.0776Y-3.4093
X3.1276Y-1.2785
X3.1276Y-1.3285
X3.1276Y-3.3593
X3.1276Y-3.4093
X3.1776Y-1.2785
X3.1776Y-1.3285
X3.1776Y-3.3593
X3.1776Y-3.4093
X3.2276Y-1.2785
X3.2276Y-1.3285
X3.2276Y-3.3593
X3.2276Y-3.4093
X3.2776Y-1.2785
X3.2776Y-1.3285
X3.2776Y-3.3593
X3.2776Y-3.4093
X3.29Y-3.695
X3.29Y-3.895
X3.3276Y-1.2785
X3.3276Y-1.3285
X3.3276Y-3.3593
X3.3276Y-3.4093
X3.3776Y-1.2785
X3.3776Y-1.3285
X3.3776Y-3.3593
X3.3776Y-3.4093
X3.4276Y-1.2785
X3.4276Y-1.3285
X3.4276Y-3.3593
X3.4276Y-3.4093
X3.4776Y-1.2785
X3.4776Y-1.3285
X3.4776Y-3.3593
X3.4776Y-3.4093
X3.5276Y-1.2785
X3.5276Y-1.3285
X3.5276Y-3.3593
X3.5276Y-3.4093
X3.5776Y-1.2785
X3.5776Y-1.3285
X3.5776Y-3.3593
X3.5776Y-3.4093
X3.6276Y-1.2785
X3.6276Y-1.3285
X3.6276Y-3.3593
X3.6276Y-3.4093
X3.6776Y-1.2785
X3.6776Y-1.3285
X3.6776Y-3.3593
X3.6776Y-3.4093
X3.7276Y-1.2785
X3.7276Y-1.3285
X3.7276Y-3.3593
X3.7276Y-3.4093
X3.7776Y-1.2785
X3.7776Y-1.3285
X3.7776Y-3.3593
X3.7776Y-3.4093
X3.8276Y-1.2785
X3.8276Y-1.3285
X3.8276Y-3.3593
X3.8276Y-3.4093
X3.8776Y-1.2785
X3.8776Y-1.3285
X3.8776Y-3.3593
X3.8776Y-3.4093
X3.9276Y-1.2785
X3.9276Y-1.3285
X3.9276Y-3.3593
X3.9276Y-3.4093
X3.9776Y-1.2785
X3.9776Y-1.3285
X3.9776Y-3.3593
X3.9776Y-3.4093
X4.0276Y-1.2785
X4.0276Y-1.3285
X4.0276Y-3.3593
X4.0276Y-3.4093
X4.0776Y-1.2785
X4.0776Y-1.3285
X4.0776Y-3.3593
X4.0776Y-3.4093
X4.1276Y-1.2785
X4.1276Y-1.3285
X4.1276Y-3.3593
X4.1276Y-3.4093
X4.1776Y-1.2785
X4.1776Y-1.3285
X4.1776Y-3.3593
X4.1776Y-3.4093
X4.2276Y-1.2785
X4.2276Y-1.3285
X4.2276Y-3.3593
X4.2276Y-3.4093
X4.2776Y-1.2785
X4.2776Y-1.3285
X4.2776Y-3.3593
X4.2776Y-3.4093
X4.3276Y-1.2785
X4.3276Y-1.3285
X4.3276Y-3.3593
X4.3276Y-3.4093
X4.3776Y-1.2785
X4.3776Y-1.3285
X4.3776Y-3.3593
X4.3776Y-3.4093
X4.4276Y-1.2785
X4.4276Y-1.3285
X4.4276Y-3.3593
X4.4276Y-3.4093
X4.4776Y-1.2785
X4.4776Y-1.3285
X4.4776Y-3.3593
X4.4776Y-3.4093
X4.5276Y-1.2785
X4.5276Y-1.3285
X4.5276Y-3.3593
X4.5276Y-3.4093
X4.5776Y-1.2785
X4.5776Y-1.3285
X4.5776Y-3.3593
X4.5776Y-3.4093
X4.6276Y-1.2785
X4.6276Y-1.3285
X4.6276Y-3.3593
X4.6276Y-3.4093
X4.6776Y-1.2785
X4.6776Y-1.3285
X4.6776Y-3.3593
X4.6776Y-3.4093
X4.7276Y-1.2785
X4.7276Y-1.3285
X4.7276Y-3.3593
X4.7276Y-3.4093
X4.7776Y-1.2785
X4.7776Y-1.3285
X4.7776Y-3.3593
X4.7776Y-3.4093
T3
X2.73Y-3.7
X2.73Y-4.0
X2.8504Y-3.6996
X2.8504Y-3.7996
X2.8504Y-3.8996
X3.1504Y-3.6996
X3.1504Y-3.7996
X3.1504Y-3.8996
T4
X4.11Y-3.81
X4.21Y-3.81
X4.3098Y-3.81
X4.4098Y-3.81
X4.51Y-3.81
X4.61Y-3.81
X4.71Y-3.81
X4.81Y-3.81
X4.91Y-3.81
X5.01Y-3.81
X5.11Y-3.81
X5.21Y-3.81
X5.31Y-3.81
X5.41Y-3.81
X5.51Y-3.81
X5.61Y-3.81
T5
X1.9Y-0.825
X2.0Y-0.825
X2.1Y-0.825
X2.2Y-0.825
X2.65Y-0.825
X2.75Y-0.825
X2.85Y-0.825
X2.91Y-4.2028
X2.95Y-0.825
X3.01Y-4.2028
X3.05Y-0.825
X3.11Y-4.2028
X3.15Y-0.825
X3.21Y-4.2028
X3.25Y-0.825
X3.31Y-4.2028
X3.35Y-0.825
X3.41Y-4.2028
X3.45Y-0.825
X3.55Y-0.825
X3.65Y-0.825
X3.75Y-0.825
X3.85Y-0.825
X3.95Y-0.825
X4.04Y-4.105
X4.04Y-4.205
X4.05Y-0.825
X4.14Y-4.105
X4.14Y-4.205
X4.15Y-0.825
X4.24Y-4.105
X4.24Y-4.205
X4.25Y-0.825
X4.34Y-4.105
X4.34Y-4.205
X4.35Y-0.825
X4.44Y-4.105
X4.44Y-4.205
X4.45Y-0.825
X4.54Y-4.105
X4.54Y-4.205
X4.55Y-0.825
X4.65Y-0.825
X4.75Y-0.825
X4.85Y-0.825
X4.95Y-0.825
X5.05Y-0.825
X5.09Y-4.1026
X5.09Y-4.2026
X5.15Y-0.825
X5.19Y-4.1026
X5.19Y-4.2026
X5.25Y-0.825
X5.29Y-4.1026
X5.29Y-4.2026
X5.35Y-0.825
X5.39Y-4.1026
X5.39Y-4.2026
X5.45Y-0.825
X5.49Y-4.1026
X5.49Y-4.2026
X5.55Y-0.825
X5.59Y-4.1026
X5.59Y-4.2026
X5.65Y-0.825
T6
X1.8553Y-3.8976
X1.9538Y-3.7991
X2.1505Y-3.8975
X2.3472Y-3.7991
X2.4457Y-3.8976
T7
X1.9536Y-4.2911
X2.3474Y-4.2911
M30
