%TF.GenerationSoftware,KiCad,Pcbnew,7.0.10*%
%TF.CreationDate,2024-01-10T20:22:15+00:00*%
%TF.ProjectId,Breakout,42726561-6b6f-4757-942e-6b696361645f,rev?*%
%TF.SameCoordinates,Original*%
%TF.FileFunction,Soldermask,Top*%
%TF.FilePolarity,Negative*%
%FSLAX46Y46*%
G04 Gerber Fmt 4.6, Leading zero omitted, Abs format (unit mm)*
G04 Created by KiCad (PCBNEW 7.0.10) date 2024-01-10 20:22:15*
%MOMM*%
%LPD*%
G01*
G04 APERTURE LIST*
%ADD10R,1.700000X1.700000*%
%ADD11O,1.700000X1.700000*%
%ADD12C,1.400000*%
%ADD13O,1.400000X1.400000*%
%ADD14R,1.800000X1.800000*%
%ADD15C,1.800000*%
%ADD16O,1.600000X1.600000*%
%ADD17R,1.600000X1.600000*%
%ADD18C,2.499360*%
%ADD19R,2.400000X1.600000*%
%ADD20O,2.400000X1.600000*%
%ADD21C,1.700000*%
%ADD22R,1.000000X1.000000*%
%ADD23O,1.000000X1.000000*%
G04 APERTURE END LIST*
D10*
%TO.C,J6*%
X48260000Y-20955000D03*
D11*
X50800000Y-20955000D03*
X53340000Y-20955000D03*
X55880000Y-20955000D03*
%TD*%
D12*
%TO.C,R2*%
X83566000Y-98933000D03*
D13*
X83566000Y-93853000D03*
%TD*%
D14*
%TO.C,D9*%
X142494000Y-96774000D03*
D15*
X139954000Y-96774000D03*
%TD*%
D14*
%TO.C,D2*%
X106934000Y-96774000D03*
D15*
X104394000Y-96774000D03*
%TD*%
D14*
%TO.C,D7*%
X132334000Y-96774000D03*
D15*
X129794000Y-96774000D03*
%TD*%
D16*
%TO.C,D1*%
X69342000Y-101600000D03*
D17*
X69342000Y-93980000D03*
%TD*%
D18*
%TO.C,J2*%
X49621540Y-108994700D03*
X59624060Y-108994700D03*
X62120880Y-98999800D03*
X54622800Y-98997260D03*
X47124720Y-98999800D03*
X59618980Y-96497900D03*
X49626620Y-96497900D03*
%TD*%
D14*
%TO.C,D5*%
X122174000Y-96774000D03*
D15*
X119634000Y-96774000D03*
%TD*%
D14*
%TO.C,D4*%
X117094000Y-96774000D03*
D15*
X114554000Y-96774000D03*
%TD*%
D10*
%TO.C,J5*%
X67310000Y-20955000D03*
D11*
X69850000Y-20955000D03*
X72390000Y-20955000D03*
X74930000Y-20955000D03*
X77470000Y-20955000D03*
X80010000Y-20955000D03*
X82550000Y-20955000D03*
X85090000Y-20955000D03*
X87630000Y-20955000D03*
X90170000Y-20955000D03*
X92710000Y-20955000D03*
X95250000Y-20955000D03*
X97790000Y-20955000D03*
X100330000Y-20955000D03*
X102870000Y-20955000D03*
X105410000Y-20955000D03*
X107950000Y-20955000D03*
X110490000Y-20955000D03*
X113030000Y-20955000D03*
X115570000Y-20955000D03*
X118110000Y-20955000D03*
X120650000Y-20955000D03*
X123190000Y-20955000D03*
X125730000Y-20955000D03*
X128270000Y-20955000D03*
X130810000Y-20955000D03*
X133350000Y-20955000D03*
X135890000Y-20955000D03*
X138430000Y-20955000D03*
X140970000Y-20955000D03*
X143510000Y-20955000D03*
%TD*%
D19*
%TO.C,U1*%
X72400000Y-93970000D03*
D20*
X72400000Y-96510000D03*
X72400000Y-99050000D03*
X80020000Y-99050000D03*
X80020000Y-96510000D03*
X80020000Y-93970000D03*
%TD*%
D10*
%TO.C,J4*%
X86614000Y-106750000D03*
D11*
X84074000Y-106750000D03*
X81534000Y-106750000D03*
X78994000Y-106750000D03*
X76454000Y-106750000D03*
X73914000Y-106750000D03*
%TD*%
D14*
%TO.C,D3*%
X112009000Y-96774000D03*
D15*
X109469000Y-96774000D03*
%TD*%
D10*
%TO.C,J1*%
X115316000Y-104267000D03*
D11*
X112776000Y-104267000D03*
X110236000Y-104267000D03*
X107696000Y-104267000D03*
X105156000Y-104267000D03*
D21*
X102616000Y-104267000D03*
D11*
X115316000Y-106807000D03*
X112776000Y-106807000D03*
X110236000Y-106807000D03*
X107696000Y-106807000D03*
X105156000Y-106807000D03*
X102616000Y-106807000D03*
%TD*%
D10*
%TO.C,J3*%
X141986000Y-104207000D03*
D11*
X139446000Y-104207000D03*
X136906000Y-104207000D03*
X134366000Y-104207000D03*
X131826000Y-104207000D03*
D21*
X129286000Y-104207000D03*
D11*
X141986000Y-106747000D03*
X139446000Y-106747000D03*
X136906000Y-106747000D03*
X134366000Y-106747000D03*
X131826000Y-106747000D03*
X129286000Y-106747000D03*
%TD*%
D14*
%TO.C,D6*%
X127254000Y-96774000D03*
D15*
X124714000Y-96774000D03*
%TD*%
D13*
%TO.C,R1*%
X66675000Y-95885000D03*
D12*
X66675000Y-100965000D03*
%TD*%
D14*
%TO.C,D8*%
X137414000Y-96774000D03*
D15*
X134874000Y-96774000D03*
%TD*%
D22*
%TO.C,U2*%
X71820000Y-85325000D03*
D23*
X71820000Y-86595000D03*
X73090000Y-85325000D03*
X73090000Y-86595000D03*
X74360000Y-85325000D03*
X74360000Y-86595000D03*
X75630000Y-85325000D03*
X75630000Y-86595000D03*
X76900000Y-85325000D03*
X76900000Y-86595000D03*
X78170000Y-85325000D03*
X78170000Y-86595000D03*
X79440000Y-85325000D03*
X79440000Y-86595000D03*
X80710000Y-85325000D03*
X80710000Y-86595000D03*
X81980000Y-85325000D03*
X81980000Y-86595000D03*
X83250000Y-85325000D03*
X83250000Y-86595000D03*
X84520000Y-85325000D03*
X84520000Y-86595000D03*
X85790000Y-85325000D03*
X85790000Y-86595000D03*
X87060000Y-85325000D03*
X87060000Y-86595000D03*
X88330000Y-85325000D03*
X88330000Y-86595000D03*
X89600000Y-85325000D03*
X89600000Y-86595000D03*
X90870000Y-85325000D03*
X90870000Y-86595000D03*
X92140000Y-85325000D03*
X92140000Y-86595000D03*
X93410000Y-85325000D03*
X93410000Y-86595000D03*
X94680000Y-85325000D03*
X94680000Y-86595000D03*
X95950000Y-85325000D03*
X95950000Y-86595000D03*
X97220000Y-85325000D03*
X97220000Y-86595000D03*
X98490000Y-85325000D03*
X98490000Y-86595000D03*
X99760000Y-85325000D03*
X99760000Y-86595000D03*
X101030000Y-85325000D03*
X101030000Y-86595000D03*
X102300000Y-85325000D03*
X102300000Y-86595000D03*
X103570000Y-85325000D03*
X103570000Y-86595000D03*
X104840000Y-85325000D03*
X104840000Y-86595000D03*
X106110000Y-85325000D03*
X106110000Y-86595000D03*
X107380000Y-85325000D03*
X107380000Y-86595000D03*
X108650000Y-85325000D03*
X108650000Y-86595000D03*
X109920000Y-85325000D03*
X109920000Y-86595000D03*
X111190000Y-85325000D03*
X111190000Y-86595000D03*
X112460000Y-85325000D03*
X112460000Y-86595000D03*
X113730000Y-85325000D03*
X113730000Y-86595000D03*
X115000000Y-85325000D03*
X115000000Y-86595000D03*
X116270000Y-85325000D03*
X116270000Y-86595000D03*
X117540000Y-85325000D03*
X117540000Y-86595000D03*
X118810000Y-85325000D03*
X118810000Y-86595000D03*
X120080000Y-85325000D03*
X120080000Y-86595000D03*
X121350000Y-85325000D03*
X121350000Y-86595000D03*
D22*
X71820000Y-32475000D03*
D23*
X71820000Y-33745000D03*
X73090000Y-32475000D03*
X73090000Y-33745000D03*
X74360000Y-32475000D03*
X74360000Y-33745000D03*
X75630000Y-32475000D03*
X75630000Y-33745000D03*
X76900000Y-32475000D03*
X76900000Y-33745000D03*
X78170000Y-32475000D03*
X78170000Y-33745000D03*
X79440000Y-32475000D03*
X79440000Y-33745000D03*
X80710000Y-32475000D03*
X80710000Y-33745000D03*
X81980000Y-32475000D03*
X81980000Y-33745000D03*
X83250000Y-32475000D03*
X83250000Y-33745000D03*
X84520000Y-32475000D03*
X84520000Y-33745000D03*
X85790000Y-32475000D03*
X85790000Y-33745000D03*
X87060000Y-32475000D03*
X87060000Y-33745000D03*
X88330000Y-32475000D03*
X88330000Y-33745000D03*
X89600000Y-32475000D03*
X89600000Y-33745000D03*
X90870000Y-32475000D03*
X90870000Y-33745000D03*
X92140000Y-32475000D03*
X92140000Y-33745000D03*
X93410000Y-32475000D03*
X93410000Y-33745000D03*
X94680000Y-32475000D03*
X94680000Y-33745000D03*
X95950000Y-32475000D03*
X95950000Y-33745000D03*
X97220000Y-32475000D03*
X97220000Y-33745000D03*
X98490000Y-32475000D03*
X98490000Y-33745000D03*
X99760000Y-32475000D03*
X99760000Y-33745000D03*
X101030000Y-32475000D03*
X101030000Y-33745000D03*
X102300000Y-32475000D03*
X102300000Y-33745000D03*
X103570000Y-32475000D03*
X103570000Y-33745000D03*
X104840000Y-32475000D03*
X104840000Y-33745000D03*
X106110000Y-32475000D03*
X106110000Y-33745000D03*
X107380000Y-32475000D03*
X107380000Y-33745000D03*
X108650000Y-32475000D03*
X108650000Y-33745000D03*
X109920000Y-32475000D03*
X109920000Y-33745000D03*
X111190000Y-32475000D03*
X111190000Y-33745000D03*
X112460000Y-32475000D03*
X112460000Y-33745000D03*
X113730000Y-32475000D03*
X113730000Y-33745000D03*
X115000000Y-32475000D03*
X115000000Y-33745000D03*
X116270000Y-32475000D03*
X116270000Y-33745000D03*
X117540000Y-32475000D03*
X117540000Y-33745000D03*
X118810000Y-32475000D03*
X118810000Y-33745000D03*
X120080000Y-32475000D03*
X120080000Y-33745000D03*
X121350000Y-32475000D03*
X121350000Y-33745000D03*
%TD*%
M02*
