M48
; DRILL file {KiCad 7.0.10} date Thu Jan 11 10:13:57 2024
; FORMAT={-:-/ absolute / inch / decimal}
; #@! TF.CreationDate,2024-01-11T10:13:57+00:00
; #@! TF.GenerationSoftware,Kicad,Pcbnew,7.0.10
; #@! TF.FileFunction,MixedPlating,1,2
FMAT,2
INCH
; #@! TA.AperFunction,Plated,PTH,ViaDrill
T1C0.0157
; #@! TA.AperFunction,Plated,PTH,ComponentDrill
T2C0.0256
; #@! TA.AperFunction,Plated,PTH,ComponentDrill
T3C0.0394
%
G90
G05
T1
X4.101Y-3.3421
X4.3748Y-3.8031
X4.4048Y-3.8327
X4.4302Y-3.8747
X4.4612Y-3.9395
X4.6046Y-3.3431
X5.0617Y-3.4045
X5.0799Y-4.0767
X5.2358Y-4.0047
X5.3877Y-3.3441
X5.5657Y-3.9521
X5.6024Y-3.2946
X6.3067Y-3.9104
X6.3862Y-3.9428
X6.4778Y-3.9398
X6.5351Y-3.4486
X6.5664Y-3.5134
X6.5945Y-3.5764
X6.8492Y-3.9579
X7.0339Y-3.2266
X7.047Y-3.6673
T2
X4.743Y-3.767
X4.743Y-3.817
X4.793Y-3.767
X4.793Y-3.817
X4.843Y-3.767
X4.843Y-3.817
X4.893Y-3.767
X4.893Y-3.817
X4.943Y-3.767
X4.943Y-3.817
X4.993Y-3.767
X4.993Y-3.817
X5.043Y-3.767
X5.043Y-3.817
X5.093Y-3.767
X5.093Y-3.817
X5.143Y-3.767
X5.143Y-3.817
X5.193Y-3.767
X5.193Y-3.817
X5.243Y-3.767
X5.243Y-3.817
X5.293Y-3.767
X5.293Y-3.817
X5.343Y-3.767
X5.343Y-3.817
X5.393Y-3.767
X5.393Y-3.817
X5.443Y-3.767
X5.443Y-3.817
X5.493Y-3.767
X5.493Y-3.817
X5.543Y-3.767
X5.543Y-3.817
X5.593Y-3.767
X5.593Y-3.817
X5.643Y-3.767
X5.643Y-3.817
X5.693Y-3.767
X5.693Y-3.817
X5.743Y-3.767
X5.743Y-3.817
X5.793Y-3.767
X5.793Y-3.817
X5.843Y-3.767
X5.843Y-3.817
X5.893Y-3.767
X5.893Y-3.817
X5.943Y-3.767
X5.943Y-3.817
X5.993Y-3.767
X5.993Y-3.817
X6.043Y-3.767
X6.043Y-3.817
X6.093Y-3.767
X6.093Y-3.817
X6.143Y-3.767
X6.143Y-3.817
X6.193Y-3.767
X6.193Y-3.817
X6.243Y-3.767
X6.243Y-3.817
X6.293Y-3.767
X6.293Y-3.817
X6.343Y-3.767
X6.343Y-3.817
X6.393Y-3.767
X6.393Y-3.817
X6.443Y-3.767
X6.443Y-3.817
X6.493Y-3.767
X6.493Y-3.817
X6.543Y-3.767
X6.543Y-3.817
X6.593Y-3.767
X6.593Y-3.817
X6.643Y-3.767
X6.643Y-3.817
X6.693Y-3.767
X6.693Y-3.817
T3
X3.705Y-3.045
X3.705Y-3.145
X3.805Y-3.045
X3.805Y-3.145
X3.905Y-3.045
X3.905Y-3.145
X4.005Y-3.045
X4.005Y-3.145
X4.105Y-3.045
X4.105Y-3.145
X4.205Y-3.045
X4.205Y-3.145
X4.305Y-3.045
X4.305Y-3.145
X4.405Y-3.045
X4.405Y-3.145
X4.505Y-3.045
X4.505Y-3.145
X4.605Y-3.045
X4.605Y-3.145
X4.705Y-3.045
X4.705Y-3.145
X4.805Y-3.045
X4.805Y-3.145
X4.905Y-3.045
X4.905Y-3.145
X5.005Y-3.045
X5.005Y-3.145
X5.105Y-3.045
X5.105Y-3.145
X5.205Y-3.045
X5.205Y-3.145
X5.305Y-3.045
X5.305Y-3.145
X5.405Y-3.045
X5.405Y-3.145
X5.505Y-3.045
X5.505Y-3.145
X5.605Y-3.045
X5.605Y-3.145
X5.705Y-3.045
X5.705Y-3.145
X5.805Y-3.045
X5.805Y-3.145
X5.905Y-3.045
X5.905Y-3.145
X6.005Y-3.045
X6.005Y-3.145
X6.105Y-3.045
X6.105Y-3.145
X6.205Y-3.045
X6.205Y-3.145
X6.305Y-3.045
X6.305Y-3.145
X6.405Y-3.045
X6.405Y-3.145
X6.505Y-3.045
X6.505Y-3.145
X6.605Y-3.045
X6.605Y-3.145
X6.705Y-3.045
X6.705Y-3.145
X6.805Y-3.045
X6.805Y-3.145
X6.905Y-3.045
X6.905Y-3.145
X7.005Y-3.045
X7.005Y-3.145
X7.105Y-3.045
X7.105Y-3.145
X7.205Y-3.045
X7.205Y-3.145
X7.305Y-3.045
X7.305Y-3.145
X7.405Y-3.045
X7.405Y-3.145
X7.505Y-3.045
X7.505Y-3.145
X7.605Y-3.045
X7.605Y-3.145
M30
