M48
; DRILL file {KiCad 7.0.10} date Thu Jan 11 09:38:08 2024
; FORMAT={-:-/ absolute / inch / decimal}
; #@! TF.CreationDate,2024-01-11T09:38:08+00:00
; #@! TF.GenerationSoftware,Kicad,Pcbnew,7.0.10
; #@! TF.FileFunction,MixedPlating,1,2
FMAT,2
INCH
; #@! TA.AperFunction,Plated,PTH,ViaDrill
T1C0.0157
; #@! TA.AperFunction,Plated,PTH,ComponentDrill
T2C0.0256
; #@! TA.AperFunction,Plated,PTH,ComponentDrill
T3C0.0276
; #@! TA.AperFunction,Plated,PTH,ComponentDrill
T4C0.0315
; #@! TA.AperFunction,Plated,PTH,ComponentDrill
T5C0.0354
; #@! TA.AperFunction,Plated,PTH,ComponentDrill
T6C0.0394
; #@! TA.AperFunction,Plated,PTH,ComponentDrill
T7C0.0550
; #@! TA.AperFunction,NonPlated,NPTH,ComponentDrill
T8C0.0550
%
G90
G05
T1
X2.685Y-1.2782
X2.78Y-2.57
X3.155Y-3.555
X3.275Y-3.525
X3.305Y-4.045
X3.91Y-3.58
X4.2281Y-3.6931
X4.25Y-3.525
X4.265Y-3.945
X4.32Y-3.7
X4.93Y-4.19
T2
X2.828Y-1.279
X2.828Y-1.329
X2.828Y-3.359
X2.828Y-3.409
X2.878Y-1.279
X2.878Y-1.329
X2.878Y-3.359
X2.878Y-3.409
X2.928Y-1.279
X2.928Y-1.329
X2.928Y-3.359
X2.928Y-3.409
X2.978Y-1.279
X2.978Y-1.329
X2.978Y-3.359
X2.978Y-3.409
X3.028Y-1.279
X3.028Y-1.329
X3.028Y-3.359
X3.028Y-3.409
X3.078Y-1.279
X3.078Y-1.329
X3.078Y-3.359
X3.078Y-3.409
X3.128Y-1.279
X3.128Y-1.329
X3.128Y-3.359
X3.128Y-3.409
X3.178Y-1.279
X3.178Y-1.329
X3.178Y-3.359
X3.178Y-3.409
X3.228Y-1.279
X3.228Y-1.329
X3.228Y-3.359
X3.228Y-3.409
X3.278Y-1.279
X3.278Y-1.329
X3.278Y-3.359
X3.278Y-3.409
X3.328Y-1.279
X3.328Y-1.329
X3.328Y-3.359
X3.328Y-3.409
X3.378Y-1.279
X3.378Y-1.329
X3.378Y-3.359
X3.378Y-3.409
X3.428Y-1.279
X3.428Y-1.329
X3.428Y-3.359
X3.428Y-3.409
X3.478Y-1.279
X3.478Y-1.329
X3.478Y-3.359
X3.478Y-3.409
X3.528Y-1.279
X3.528Y-1.329
X3.528Y-3.359
X3.528Y-3.409
X3.578Y-1.279
X3.578Y-1.329
X3.578Y-3.359
X3.578Y-3.409
X3.628Y-1.279
X3.628Y-1.329
X3.628Y-3.359
X3.628Y-3.409
X3.678Y-1.279
X3.678Y-1.329
X3.678Y-3.359
X3.678Y-3.409
X3.728Y-1.279
X3.728Y-1.329
X3.728Y-3.359
X3.728Y-3.409
X3.778Y-1.279
X3.778Y-1.329
X3.778Y-3.359
X3.778Y-3.409
X3.828Y-1.279
X3.828Y-1.329
X3.828Y-3.359
X3.828Y-3.409
X3.878Y-1.279
X3.878Y-1.329
X3.878Y-3.359
X3.878Y-3.409
X3.928Y-1.279
X3.928Y-1.329
X3.928Y-3.359
X3.928Y-3.409
X3.978Y-1.279
X3.978Y-1.329
X3.978Y-3.359
X3.978Y-3.409
X4.028Y-1.279
X4.028Y-1.329
X4.028Y-3.359
X4.028Y-3.409
X4.078Y-1.279
X4.078Y-1.329
X4.078Y-3.359
X4.078Y-3.409
X4.128Y-1.279
X4.128Y-1.329
X4.128Y-3.359
X4.128Y-3.409
X4.178Y-1.279
X4.178Y-1.329
X4.178Y-3.359
X4.178Y-3.409
X4.228Y-1.279
X4.228Y-1.329
X4.228Y-3.359
X4.228Y-3.409
X4.278Y-1.279
X4.278Y-1.329
X4.278Y-3.359
X4.278Y-3.409
X4.328Y-1.279
X4.328Y-1.329
X4.328Y-3.359
X4.328Y-3.409
X4.378Y-1.279
X4.378Y-1.329
X4.378Y-3.359
X4.378Y-3.409
X4.428Y-1.279
X4.428Y-1.329
X4.428Y-3.359
X4.428Y-3.409
X4.478Y-1.279
X4.478Y-1.329
X4.478Y-3.359
X4.478Y-3.409
X4.528Y-1.279
X4.528Y-1.329
X4.528Y-3.359
X4.528Y-3.409
X4.578Y-1.279
X4.578Y-1.329
X4.578Y-3.359
X4.578Y-3.409
X4.628Y-1.279
X4.628Y-1.329
X4.628Y-3.359
X4.628Y-3.409
X4.678Y-1.279
X4.678Y-1.329
X4.678Y-3.359
X4.678Y-3.409
X4.728Y-1.279
X4.728Y-1.329
X4.728Y-3.359
X4.728Y-3.409
X4.778Y-1.279
X4.778Y-1.329
X4.778Y-3.359
X4.778Y-3.409
T3
X2.625Y-3.775
X2.625Y-3.975
X3.29Y-3.695
X3.29Y-3.895
T4
X2.73Y-3.7
X2.73Y-4.0
X2.8504Y-3.6996
X2.8504Y-3.7996
X2.8504Y-3.8996
X3.1504Y-3.6996
X3.1504Y-3.7996
X3.1504Y-3.8996
T5
X4.11Y-3.81
X4.21Y-3.81
X4.3098Y-3.81
X4.4098Y-3.81
X4.51Y-3.81
X4.61Y-3.81
X4.71Y-3.81
X4.81Y-3.81
X4.91Y-3.81
X5.01Y-3.81
X5.11Y-3.81
X5.21Y-3.81
X5.31Y-3.81
X5.41Y-3.81
X5.51Y-3.81
X5.61Y-3.81
T6
X1.9Y-0.825
X2.0Y-0.825
X2.1Y-0.825
X2.2Y-0.825
X2.565Y-0.83
X2.665Y-0.83
X2.765Y-0.83
X2.865Y-0.83
X2.91Y-4.2028
X2.965Y-0.83
X3.01Y-4.2028
X3.065Y-0.83
X3.11Y-4.2028
X3.165Y-0.83
X3.21Y-4.2028
X3.265Y-0.83
X3.31Y-4.2028
X3.365Y-0.83
X3.41Y-4.2028
X3.465Y-0.83
X3.565Y-0.83
X3.665Y-0.83
X3.765Y-0.83
X3.865Y-0.83
X3.965Y-0.83
X4.04Y-4.105
X4.04Y-4.205
X4.065Y-0.83
X4.14Y-4.105
X4.14Y-4.205
X4.165Y-0.83
X4.24Y-4.105
X4.24Y-4.205
X4.265Y-0.83
X4.34Y-4.105
X4.34Y-4.205
X4.365Y-0.83
X4.44Y-4.105
X4.44Y-4.205
X4.465Y-0.83
X4.54Y-4.105
X4.54Y-4.205
X4.565Y-0.83
X4.665Y-0.83
X4.765Y-0.83
X4.865Y-0.83
X4.965Y-0.83
X5.065Y-0.83
X5.09Y-4.1026
X5.09Y-4.2026
X5.165Y-0.83
X5.19Y-4.1026
X5.19Y-4.2026
X5.265Y-0.83
X5.29Y-4.1026
X5.29Y-4.2026
X5.365Y-0.83
X5.39Y-4.1026
X5.39Y-4.2026
X5.465Y-0.83
X5.49Y-4.1026
X5.49Y-4.2026
X5.565Y-0.83
X5.59Y-4.1026
X5.59Y-4.2026
X5.665Y-0.83
T7
X1.8553Y-3.8976
X1.9538Y-3.7991
X2.1505Y-3.8975
X2.3472Y-3.7991
X2.4457Y-3.8976
T8
X1.9536Y-4.2911
X2.3474Y-4.2911
M30
