%TF.GenerationSoftware,KiCad,Pcbnew,7.0.10*%
%TF.CreationDate,2024-01-11T09:38:06+00:00*%
%TF.ProjectId,Breakout,42726561-6b6f-4757-942e-6b696361645f,rev?*%
%TF.SameCoordinates,Original*%
%TF.FileFunction,Copper,L2,Bot*%
%TF.FilePolarity,Positive*%
%FSLAX46Y46*%
G04 Gerber Fmt 4.6, Leading zero omitted, Abs format (unit mm)*
G04 Created by KiCad (PCBNEW 7.0.10) date 2024-01-11 09:38:06*
%MOMM*%
%LPD*%
G01*
G04 APERTURE LIST*
%TA.AperFunction,ComponentPad*%
%ADD10R,1.700000X1.700000*%
%TD*%
%TA.AperFunction,ComponentPad*%
%ADD11O,1.700000X1.700000*%
%TD*%
%TA.AperFunction,ComponentPad*%
%ADD12C,1.400000*%
%TD*%
%TA.AperFunction,ComponentPad*%
%ADD13O,1.400000X1.400000*%
%TD*%
%TA.AperFunction,ComponentPad*%
%ADD14R,1.800000X1.800000*%
%TD*%
%TA.AperFunction,ComponentPad*%
%ADD15C,1.800000*%
%TD*%
%TA.AperFunction,ComponentPad*%
%ADD16R,1.000000X1.000000*%
%TD*%
%TA.AperFunction,ComponentPad*%
%ADD17O,1.000000X1.000000*%
%TD*%
%TA.AperFunction,ComponentPad*%
%ADD18R,1.600000X1.600000*%
%TD*%
%TA.AperFunction,ComponentPad*%
%ADD19O,1.600000X1.600000*%
%TD*%
%TA.AperFunction,WasherPad*%
%ADD20C,2.499360*%
%TD*%
%TA.AperFunction,ComponentPad*%
%ADD21C,2.499360*%
%TD*%
%TA.AperFunction,ComponentPad*%
%ADD22R,2.400000X1.600000*%
%TD*%
%TA.AperFunction,ComponentPad*%
%ADD23O,2.400000X1.600000*%
%TD*%
%TA.AperFunction,ComponentPad*%
%ADD24C,1.700000*%
%TD*%
%TA.AperFunction,ViaPad*%
%ADD25C,0.800000*%
%TD*%
%TA.AperFunction,Conductor*%
%ADD26C,0.300000*%
%TD*%
%TA.AperFunction,Conductor*%
%ADD27C,0.250000*%
%TD*%
%TA.AperFunction,Conductor*%
%ADD28C,0.500000*%
%TD*%
G04 APERTURE END LIST*
D10*
%TO.P,J6,1,Pin_1*%
%TO.N,XADC_INP0*%
X48260000Y-20955000D03*
D11*
%TO.P,J6,2,Pin_2*%
%TO.N,XADC_INN0*%
X50800000Y-20955000D03*
%TO.P,J6,3,Pin_3*%
%TO.N,XADC_VCC*%
X53340000Y-20955000D03*
%TO.P,J6,4,Pin_4*%
%TO.N,GND*%
X55880000Y-20955000D03*
%TD*%
D12*
%TO.P,R2,1*%
%TO.N,MIDI_IN*%
X83566000Y-98933000D03*
D13*
%TO.P,R2,2*%
%TO.N,+3.3V*%
X83566000Y-93853000D03*
%TD*%
D14*
%TO.P,D9,1,K*%
%TO.N,GND*%
X142494000Y-96774000D03*
D15*
%TO.P,D9,2,A*%
%TO.N,LED8*%
X139954000Y-96774000D03*
%TD*%
D14*
%TO.P,D2,1,K*%
%TO.N,GND*%
X106934000Y-96774000D03*
D15*
%TO.P,D2,2,A*%
%TO.N,LED1*%
X104394000Y-96774000D03*
%TD*%
D10*
%TO.P,J5,1,Pin_1*%
%TO.N,+5V*%
X65151000Y-21082000D03*
D11*
%TO.P,J5,2,Pin_2*%
%TO.N,+3.3V*%
X67691000Y-21082000D03*
%TO.P,J5,3,Pin_3*%
%TO.N,GPIO_1*%
X70231000Y-21082000D03*
%TO.P,J5,4,Pin_4*%
%TO.N,GPIO_2*%
X72771000Y-21082000D03*
%TO.P,J5,5,Pin_5*%
%TO.N,GPIO_3*%
X75311000Y-21082000D03*
%TO.P,J5,6,Pin_6*%
%TO.N,GPIO_4*%
X77851000Y-21082000D03*
%TO.P,J5,7,Pin_7*%
%TO.N,GPIO_5*%
X80391000Y-21082000D03*
%TO.P,J5,8,Pin_8*%
%TO.N,GPIO_6*%
X82931000Y-21082000D03*
%TO.P,J5,9,Pin_9*%
%TO.N,GPIO_7*%
X85471000Y-21082000D03*
%TO.P,J5,10,Pin_10*%
%TO.N,GPIO_8*%
X88011000Y-21082000D03*
%TO.P,J5,11,Pin_11*%
%TO.N,GPIO_9*%
X90551000Y-21082000D03*
%TO.P,J5,12,Pin_12*%
%TO.N,GPIO_10*%
X93091000Y-21082000D03*
%TO.P,J5,13,Pin_13*%
%TO.N,GPIO_11*%
X95631000Y-21082000D03*
%TO.P,J5,14,Pin_14*%
%TO.N,GPIO_12*%
X98171000Y-21082000D03*
%TO.P,J5,15,Pin_15*%
%TO.N,GPIO_13*%
X100711000Y-21082000D03*
%TO.P,J5,16,Pin_16*%
%TO.N,GPIO_14*%
X103251000Y-21082000D03*
%TO.P,J5,17,Pin_17*%
%TO.N,GPIO_15*%
X105791000Y-21082000D03*
%TO.P,J5,18,Pin_18*%
%TO.N,GPIO_16*%
X108331000Y-21082000D03*
%TO.P,J5,19,Pin_19*%
%TO.N,GPIO_17*%
X110871000Y-21082000D03*
%TO.P,J5,20,Pin_20*%
%TO.N,GPIO_18*%
X113411000Y-21082000D03*
%TO.P,J5,21,Pin_21*%
%TO.N,GPIO_19*%
X115951000Y-21082000D03*
%TO.P,J5,22,Pin_22*%
%TO.N,GPIO_20*%
X118491000Y-21082000D03*
%TO.P,J5,23,Pin_23*%
%TO.N,GPIO_21*%
X121031000Y-21082000D03*
%TO.P,J5,24,Pin_24*%
%TO.N,GPIO_22*%
X123571000Y-21082000D03*
%TO.P,J5,25,Pin_25*%
%TO.N,GPIO_23*%
X126111000Y-21082000D03*
%TO.P,J5,26,Pin_26*%
%TO.N,GPIO_24*%
X128651000Y-21082000D03*
%TO.P,J5,27,Pin_27*%
%TO.N,GPIO_25*%
X131191000Y-21082000D03*
%TO.P,J5,28,Pin_28*%
%TO.N,GPIO_26*%
X133731000Y-21082000D03*
%TO.P,J5,29,Pin_29*%
%TO.N,GPIO_27*%
X136271000Y-21082000D03*
%TO.P,J5,30,Pin_30*%
%TO.N,GPIO_28*%
X138811000Y-21082000D03*
%TO.P,J5,31,Pin_31*%
%TO.N,GND*%
X141351000Y-21082000D03*
%TO.P,J5,32,Pin_32*%
X143891000Y-21082000D03*
%TD*%
D16*
%TO.P,J7,1,Pin_1*%
%TO.N,+5V*%
X71831200Y-32486600D03*
D17*
%TO.P,J7,2,Pin_2*%
%TO.N,GND*%
X71831200Y-33756600D03*
%TO.P,J7,3,Pin_3*%
%TO.N,+3.3V*%
X73101200Y-32486600D03*
%TO.P,J7,4,Pin_4*%
%TO.N,GND*%
X73101200Y-33756600D03*
%TO.P,J7,5,Pin_5*%
%TO.N,XADC_INP0*%
X74371200Y-32486600D03*
%TO.P,J7,6,Pin_6*%
%TO.N,unconnected-(J7-Pin_6-Pad6)*%
X74371200Y-33756600D03*
%TO.P,J7,7,Pin_7*%
%TO.N,XADC_INN0*%
X75641200Y-32486600D03*
%TO.P,J7,8,Pin_8*%
%TO.N,unconnected-(J7-Pin_8-Pad8)*%
X75641200Y-33756600D03*
%TO.P,J7,9,Pin_9*%
%TO.N,XADC_VCC*%
X76911200Y-32486600D03*
%TO.P,J7,10,Pin_10*%
%TO.N,GND*%
X76911200Y-33756600D03*
%TO.P,J7,11,Pin_11*%
%TO.N,GPIO_1*%
X78181200Y-32486600D03*
%TO.P,J7,12,Pin_12*%
%TO.N,unconnected-(J7-Pin_12-Pad12)*%
X78181200Y-33756600D03*
%TO.P,J7,13,Pin_13*%
%TO.N,GPIO_2*%
X79451200Y-32486600D03*
%TO.P,J7,14,Pin_14*%
%TO.N,unconnected-(J7-Pin_14-Pad14)*%
X79451200Y-33756600D03*
%TO.P,J7,15,Pin_15*%
%TO.N,GPIO_3*%
X80721200Y-32486600D03*
%TO.P,J7,16,Pin_16*%
%TO.N,unconnected-(J7-Pin_16-Pad16)*%
X80721200Y-33756600D03*
%TO.P,J7,17,Pin_17*%
%TO.N,GPIO_4*%
X81991200Y-32486600D03*
%TO.P,J7,18,Pin_18*%
%TO.N,unconnected-(J7-Pin_18-Pad18)*%
X81991200Y-33756600D03*
%TO.P,J7,19,Pin_19*%
%TO.N,GPIO_5*%
X83261200Y-32486600D03*
%TO.P,J7,20,Pin_20*%
%TO.N,GND*%
X83261200Y-33756600D03*
%TO.P,J7,21,Pin_21*%
X84531200Y-32486600D03*
%TO.P,J7,22,Pin_22*%
%TO.N,unconnected-(J7-Pin_22-Pad22)*%
X84531200Y-33756600D03*
%TO.P,J7,23,Pin_23*%
%TO.N,GPIO_6*%
X85801200Y-32486600D03*
%TO.P,J7,24,Pin_24*%
%TO.N,unconnected-(J7-Pin_24-Pad24)*%
X85801200Y-33756600D03*
%TO.P,J7,25,Pin_25*%
%TO.N,GPIO_7*%
X87071200Y-32486600D03*
%TO.P,J7,26,Pin_26*%
%TO.N,unconnected-(J7-Pin_26-Pad26)*%
X87071200Y-33756600D03*
%TO.P,J7,27,Pin_27*%
%TO.N,GPIO_8*%
X88341200Y-32486600D03*
%TO.P,J7,28,Pin_28*%
%TO.N,unconnected-(J7-Pin_28-Pad28)*%
X88341200Y-33756600D03*
%TO.P,J7,29,Pin_29*%
%TO.N,GPIO_9*%
X89611200Y-32486600D03*
%TO.P,J7,30,Pin_30*%
%TO.N,GND*%
X89611200Y-33756600D03*
%TO.P,J7,31,Pin_31*%
X90881200Y-32486600D03*
%TO.P,J7,32,Pin_32*%
%TO.N,unconnected-(J7-Pin_32-Pad32)*%
X90881200Y-33756600D03*
%TO.P,J7,33,Pin_33*%
%TO.N,GPIO_10*%
X92151200Y-32486600D03*
%TO.P,J7,34,Pin_34*%
%TO.N,unconnected-(J7-Pin_34-Pad34)*%
X92151200Y-33756600D03*
%TO.P,J7,35,Pin_35*%
%TO.N,GPIO_11*%
X93421200Y-32486600D03*
%TO.P,J7,36,Pin_36*%
%TO.N,unconnected-(J7-Pin_36-Pad36)*%
X93421200Y-33756600D03*
%TO.P,J7,37,Pin_37*%
%TO.N,GPIO_12*%
X94691200Y-32486600D03*
%TO.P,J7,38,Pin_38*%
%TO.N,unconnected-(J7-Pin_38-Pad38)*%
X94691200Y-33756600D03*
%TO.P,J7,39,Pin_39*%
%TO.N,GPIO_13*%
X95961200Y-32486600D03*
%TO.P,J7,40,Pin_40*%
%TO.N,GND*%
X95961200Y-33756600D03*
%TO.P,J7,41,Pin_41*%
X97231200Y-32486600D03*
%TO.P,J7,42,Pin_42*%
%TO.N,unconnected-(J7-Pin_42-Pad42)*%
X97231200Y-33756600D03*
%TO.P,J7,43,Pin_43*%
%TO.N,GPIO_14*%
X98501200Y-32486600D03*
%TO.P,J7,44,Pin_44*%
%TO.N,unconnected-(J7-Pin_44-Pad44)*%
X98501200Y-33756600D03*
%TO.P,J7,45,Pin_45*%
%TO.N,GPIO_15*%
X99771200Y-32486600D03*
%TO.P,J7,46,Pin_46*%
%TO.N,unconnected-(J7-Pin_46-Pad46)*%
X99771200Y-33756600D03*
%TO.P,J7,47,Pin_47*%
%TO.N,GPIO_16*%
X101041200Y-32486600D03*
%TO.P,J7,48,Pin_48*%
%TO.N,unconnected-(J7-Pin_48-Pad48)*%
X101041200Y-33756600D03*
%TO.P,J7,49,Pin_49*%
%TO.N,GPIO_17*%
X102311200Y-32486600D03*
%TO.P,J7,50,Pin_50*%
%TO.N,GND*%
X102311200Y-33756600D03*
%TO.P,J7,51,Pin_51*%
%TO.N,unconnected-(J7-Pin_51-Pad51)*%
X103581200Y-32486600D03*
%TO.P,J7,52,Pin_52*%
%TO.N,unconnected-(J7-Pin_52-Pad52)*%
X103581200Y-33756600D03*
%TO.P,J7,53,Pin_53*%
%TO.N,GPIO_18*%
X104851200Y-32486600D03*
%TO.P,J7,54,Pin_54*%
%TO.N,unconnected-(J7-Pin_54-Pad54)*%
X104851200Y-33756600D03*
%TO.P,J7,55,Pin_55*%
%TO.N,GPIO_19*%
X106121200Y-32486600D03*
%TO.P,J7,56,Pin_56*%
%TO.N,unconnected-(J7-Pin_56-Pad56)*%
X106121200Y-33756600D03*
%TO.P,J7,57,Pin_57*%
%TO.N,GPIO_20*%
X107391200Y-32486600D03*
%TO.P,J7,58,Pin_58*%
%TO.N,unconnected-(J7-Pin_58-Pad58)*%
X107391200Y-33756600D03*
%TO.P,J7,59,Pin_59*%
%TO.N,GPIO_21*%
X108661200Y-32486600D03*
%TO.P,J7,60,Pin_60*%
%TO.N,GND*%
X108661200Y-33756600D03*
%TO.P,J7,61,Pin_61*%
X109931200Y-32486600D03*
%TO.P,J7,62,Pin_62*%
%TO.N,unconnected-(J7-Pin_62-Pad62)*%
X109931200Y-33756600D03*
%TO.P,J7,63,Pin_63*%
%TO.N,GPIO_22*%
X111201200Y-32486600D03*
%TO.P,J7,64,Pin_64*%
%TO.N,unconnected-(J7-Pin_64-Pad64)*%
X111201200Y-33756600D03*
%TO.P,J7,65,Pin_65*%
%TO.N,GPIO_23*%
X112471200Y-32486600D03*
%TO.P,J7,66,Pin_66*%
%TO.N,unconnected-(J7-Pin_66-Pad66)*%
X112471200Y-33756600D03*
%TO.P,J7,67,Pin_67*%
%TO.N,GPIO_24*%
X113741200Y-32486600D03*
%TO.P,J7,68,Pin_68*%
%TO.N,unconnected-(J7-Pin_68-Pad68)*%
X113741200Y-33756600D03*
%TO.P,J7,69,Pin_69*%
%TO.N,GPIO_25*%
X115011200Y-32486600D03*
%TO.P,J7,70,Pin_70*%
%TO.N,GND*%
X115011200Y-33756600D03*
%TO.P,J7,71,Pin_71*%
X116281200Y-32486600D03*
%TO.P,J7,72,Pin_72*%
%TO.N,unconnected-(J7-Pin_72-Pad72)*%
X116281200Y-33756600D03*
%TO.P,J7,73,Pin_73*%
%TO.N,GPIO_26*%
X117551200Y-32486600D03*
%TO.P,J7,74,Pin_74*%
%TO.N,unconnected-(J7-Pin_74-Pad74)*%
X117551200Y-33756600D03*
%TO.P,J7,75,Pin_75*%
%TO.N,GPIO_27*%
X118821200Y-32486600D03*
%TO.P,J7,76,Pin_76*%
%TO.N,unconnected-(J7-Pin_76-Pad76)*%
X118821200Y-33756600D03*
%TO.P,J7,77,Pin_77*%
%TO.N,GPIO_28*%
X120091200Y-32486600D03*
%TO.P,J7,78,Pin_78*%
%TO.N,unconnected-(J7-Pin_78-Pad78)*%
X120091200Y-33756600D03*
%TO.P,J7,79,Pin_79*%
%TO.N,unconnected-(J7-Pin_79-Pad79)*%
X121361200Y-32486600D03*
%TO.P,J7,80,Pin_80*%
%TO.N,GND*%
X121361200Y-33756600D03*
%TD*%
D14*
%TO.P,D7,1,K*%
%TO.N,GND*%
X132334000Y-96774000D03*
D15*
%TO.P,D7,2,A*%
%TO.N,LED6*%
X129794000Y-96774000D03*
%TD*%
D18*
%TO.P,D1,1,K*%
%TO.N,Net-(D1-K)*%
X69342000Y-93980000D03*
D19*
%TO.P,D1,2,A*%
%TO.N,Net-(D1-A)*%
X69342000Y-101600000D03*
%TD*%
D20*
%TO.P,J2,*%
%TO.N,*%
X49621540Y-108994700D03*
X59624060Y-108994700D03*
D21*
%TO.P,J2,1*%
%TO.N,unconnected-(J2-Pad1)*%
X62120880Y-98999800D03*
%TO.P,J2,2*%
%TO.N,unconnected-(J2-Pad2)*%
X54622800Y-98997260D03*
%TO.P,J2,3*%
%TO.N,unconnected-(J2-Pad3)*%
X47124720Y-98999800D03*
%TO.P,J2,4*%
%TO.N,Net-(J2-Pad4)*%
X59618980Y-96497900D03*
%TO.P,J2,5*%
%TO.N,Net-(D1-A)*%
X49626620Y-96497900D03*
%TD*%
D14*
%TO.P,D5,1,K*%
%TO.N,GND*%
X122174000Y-96774000D03*
D15*
%TO.P,D5,2,A*%
%TO.N,LED4*%
X119634000Y-96774000D03*
%TD*%
D14*
%TO.P,D4,1,K*%
%TO.N,GND*%
X117094000Y-96774000D03*
D15*
%TO.P,D4,2,A*%
%TO.N,LED3*%
X114554000Y-96774000D03*
%TD*%
D22*
%TO.P,U1,1*%
%TO.N,Net-(D1-K)*%
X72400000Y-93970000D03*
D23*
%TO.P,U1,2*%
%TO.N,Net-(D1-A)*%
X72400000Y-96510000D03*
%TO.P,U1,3*%
%TO.N,unconnected-(U1-Pad3)*%
X72400000Y-99050000D03*
%TO.P,U1,4*%
%TO.N,MIDI_IN*%
X80020000Y-99050000D03*
%TO.P,U1,5*%
%TO.N,GND*%
X80020000Y-96510000D03*
%TO.P,U1,6*%
%TO.N,+3.3V*%
X80020000Y-93970000D03*
%TD*%
D10*
%TO.P,J4,1,Pin_1*%
%TO.N,BCLK*%
X86614000Y-106750000D03*
D11*
%TO.P,J4,2,Pin_2*%
%TO.N,DATA*%
X84074000Y-106750000D03*
%TO.P,J4,3,Pin_3*%
%TO.N,LRCLK*%
X81534000Y-106750000D03*
%TO.P,J4,4,Pin_4*%
%TO.N,GND*%
X78994000Y-106750000D03*
%TO.P,J4,5,Pin_5*%
X76454000Y-106750000D03*
%TO.P,J4,6,Pin_6*%
%TO.N,+5V*%
X73914000Y-106750000D03*
%TD*%
D14*
%TO.P,D3,1,K*%
%TO.N,GND*%
X112009000Y-96774000D03*
D15*
%TO.P,D3,2,A*%
%TO.N,LED2*%
X109469000Y-96774000D03*
%TD*%
D10*
%TO.P,J1,1,Pin_1*%
%TO.N,PMOD1_1*%
X115316000Y-104267000D03*
D11*
%TO.P,J1,2,Pin_2*%
%TO.N,PMOD1_2*%
X112776000Y-104267000D03*
%TO.P,J1,3,Pin_3*%
%TO.N,PMOD1_3*%
X110236000Y-104267000D03*
%TO.P,J1,4,Pin_4*%
%TO.N,PMOD1_4*%
X107696000Y-104267000D03*
%TO.P,J1,5,GND*%
%TO.N,GND*%
X105156000Y-104267000D03*
D24*
%TO.P,J1,6,VCC*%
%TO.N,+3.3V*%
X102616000Y-104267000D03*
D11*
%TO.P,J1,7,Pin_7*%
%TO.N,PMOD1_7*%
X115316000Y-106807000D03*
%TO.P,J1,8,Pin_8*%
%TO.N,PMOD1_8*%
X112776000Y-106807000D03*
%TO.P,J1,9,Pin_9*%
%TO.N,PMOD1_9*%
X110236000Y-106807000D03*
%TO.P,J1,10,Pin_10*%
%TO.N,PMOD1_10*%
X107696000Y-106807000D03*
%TO.P,J1,11,GND*%
%TO.N,GND*%
X105156000Y-106807000D03*
%TO.P,J1,12,VCC*%
%TO.N,+3.3V*%
X102616000Y-106807000D03*
%TD*%
D10*
%TO.P,J3,1,Pin_1*%
%TO.N,PMOD2_1*%
X141986000Y-104207000D03*
D11*
%TO.P,J3,2,Pin_2*%
%TO.N,PMOD2_2*%
X139446000Y-104207000D03*
%TO.P,J3,3,Pin_3*%
%TO.N,PMOD2_3*%
X136906000Y-104207000D03*
%TO.P,J3,4,Pin_4*%
%TO.N,PMOD2_4*%
X134366000Y-104207000D03*
%TO.P,J3,5,GND*%
%TO.N,GND*%
X131826000Y-104207000D03*
D24*
%TO.P,J3,6,VCC*%
%TO.N,+3.3V*%
X129286000Y-104207000D03*
D11*
%TO.P,J3,7,Pin_7*%
%TO.N,PMOD2_7*%
X141986000Y-106747000D03*
%TO.P,J3,8,Pin_8*%
%TO.N,PMOD2_8*%
X139446000Y-106747000D03*
%TO.P,J3,9,Pin_9*%
%TO.N,PMOD2_9*%
X136906000Y-106747000D03*
%TO.P,J3,10,Pin_10*%
%TO.N,PMOD2_10*%
X134366000Y-106747000D03*
%TO.P,J3,11,GND*%
%TO.N,GND*%
X131826000Y-106747000D03*
%TO.P,J3,12,VCC*%
%TO.N,+3.3V*%
X129286000Y-106747000D03*
%TD*%
D14*
%TO.P,D6,1,K*%
%TO.N,GND*%
X127254000Y-96774000D03*
D15*
%TO.P,D6,2,A*%
%TO.N,LED5*%
X124714000Y-96774000D03*
%TD*%
D12*
%TO.P,R1,1*%
%TO.N,Net-(J2-Pad4)*%
X66675000Y-100965000D03*
D13*
%TO.P,R1,2*%
%TO.N,Net-(D1-K)*%
X66675000Y-95885000D03*
%TD*%
D14*
%TO.P,D8,1,K*%
%TO.N,GND*%
X137414000Y-96774000D03*
D15*
%TO.P,D8,2,A*%
%TO.N,LED7*%
X134874000Y-96774000D03*
%TD*%
D16*
%TO.P,J8,1,Pin_1*%
%TO.N,+5V*%
X71831200Y-85318600D03*
D17*
%TO.P,J8,2,Pin_2*%
%TO.N,GND*%
X71831200Y-86588600D03*
%TO.P,J8,3,Pin_3*%
%TO.N,+3.3V*%
X73101200Y-85318600D03*
%TO.P,J8,4,Pin_4*%
%TO.N,GND*%
X73101200Y-86588600D03*
%TO.P,J8,5,Pin_5*%
%TO.N,unconnected-(J8-Pin_5-Pad5)*%
X74371200Y-85318600D03*
%TO.P,J8,6,Pin_6*%
%TO.N,unconnected-(J8-Pin_6-Pad6)*%
X74371200Y-86588600D03*
%TO.P,J8,7,Pin_7*%
%TO.N,unconnected-(J8-Pin_7-Pad7)*%
X75641200Y-85318600D03*
%TO.P,J8,8,Pin_8*%
%TO.N,unconnected-(J8-Pin_8-Pad8)*%
X75641200Y-86588600D03*
%TO.P,J8,9,Pin_9*%
%TO.N,unconnected-(J8-Pin_9-Pad9)*%
X76911200Y-85318600D03*
%TO.P,J8,10,Pin_10*%
%TO.N,unconnected-(J8-Pin_10-Pad10)*%
X76911200Y-86588600D03*
%TO.P,J8,11,Pin_11*%
%TO.N,unconnected-(J8-Pin_11-Pad11)*%
X78181200Y-85318600D03*
%TO.P,J8,12,Pin_12*%
%TO.N,unconnected-(J8-Pin_12-Pad12)*%
X78181200Y-86588600D03*
%TO.P,J8,13,Pin_13*%
%TO.N,unconnected-(J8-Pin_13-Pad13)*%
X79451200Y-85318600D03*
%TO.P,J8,14,Pin_14*%
%TO.N,unconnected-(J8-Pin_14-Pad14)*%
X79451200Y-86588600D03*
%TO.P,J8,15,Pin_15*%
%TO.N,unconnected-(J8-Pin_15-Pad15)*%
X80721200Y-85318600D03*
%TO.P,J8,16,Pin_16*%
%TO.N,MIDI_IN*%
X80721200Y-86588600D03*
%TO.P,J8,17,Pin_17*%
%TO.N,unconnected-(J8-Pin_17-Pad17)*%
X81991200Y-85318600D03*
%TO.P,J8,18,Pin_18*%
%TO.N,LRCLK*%
X81991200Y-86588600D03*
%TO.P,J8,19,Pin_19*%
%TO.N,unconnected-(J8-Pin_19-Pad19)*%
X83261200Y-85318600D03*
%TO.P,J8,20,Pin_20*%
%TO.N,DATA*%
X83261200Y-86588600D03*
%TO.P,J8,21,Pin_21*%
%TO.N,unconnected-(J8-Pin_21-Pad21)*%
X84531200Y-85318600D03*
%TO.P,J8,22,Pin_22*%
%TO.N,BCLK*%
X84531200Y-86588600D03*
%TO.P,J8,23,Pin_23*%
%TO.N,unconnected-(J8-Pin_23-Pad23)*%
X85801200Y-85318600D03*
%TO.P,J8,24,Pin_24*%
%TO.N,GND*%
X85801200Y-86588600D03*
%TO.P,J8,25,Pin_25*%
X87071200Y-85318600D03*
%TO.P,J8,26,Pin_26*%
%TO.N,PMOD1_10*%
X87071200Y-86588600D03*
%TO.P,J8,27,Pin_27*%
%TO.N,unconnected-(J8-Pin_27-Pad27)*%
X88341200Y-85318600D03*
%TO.P,J8,28,Pin_28*%
%TO.N,PMOD1_9*%
X88341200Y-86588600D03*
%TO.P,J8,29,Pin_29*%
%TO.N,unconnected-(J8-Pin_29-Pad29)*%
X89611200Y-85318600D03*
%TO.P,J8,30,Pin_30*%
%TO.N,PMOD1_8*%
X89611200Y-86588600D03*
%TO.P,J8,31,Pin_31*%
%TO.N,unconnected-(J8-Pin_31-Pad31)*%
X90881200Y-85318600D03*
%TO.P,J8,32,Pin_32*%
%TO.N,PMOD1_7*%
X90881200Y-86588600D03*
%TO.P,J8,33,Pin_33*%
%TO.N,unconnected-(J8-Pin_33-Pad33)*%
X92151200Y-85318600D03*
%TO.P,J8,34,Pin_34*%
%TO.N,GND*%
X92151200Y-86588600D03*
%TO.P,J8,35,Pin_35*%
X93421200Y-85318600D03*
%TO.P,J8,36,Pin_36*%
%TO.N,PMOD1_4*%
X93421200Y-86588600D03*
%TO.P,J8,37,Pin_37*%
%TO.N,unconnected-(J8-Pin_37-Pad37)*%
X94691200Y-85318600D03*
%TO.P,J8,38,Pin_38*%
%TO.N,PMOD1_3*%
X94691200Y-86588600D03*
%TO.P,J8,39,Pin_39*%
%TO.N,unconnected-(J8-Pin_39-Pad39)*%
X95961200Y-85318600D03*
%TO.P,J8,40,Pin_40*%
%TO.N,PMOD1_2*%
X95961200Y-86588600D03*
%TO.P,J8,41,Pin_41*%
%TO.N,unconnected-(J8-Pin_41-Pad41)*%
X97231200Y-85318600D03*
%TO.P,J8,42,Pin_42*%
%TO.N,PMOD1_1*%
X97231200Y-86588600D03*
%TO.P,J8,43,Pin_43*%
%TO.N,unconnected-(J8-Pin_43-Pad43)*%
X98501200Y-85318600D03*
%TO.P,J8,44,Pin_44*%
%TO.N,GND*%
X98501200Y-86588600D03*
%TO.P,J8,45,Pin_45*%
%TO.N,unconnected-(J8-Pin_45-Pad45)*%
X99771200Y-85318600D03*
%TO.P,J8,46,Pin_46*%
%TO.N,PMOD2_10*%
X99771200Y-86588600D03*
%TO.P,J8,47,Pin_47*%
%TO.N,unconnected-(J8-Pin_47-Pad47)*%
X101041200Y-85318600D03*
%TO.P,J8,48,Pin_48*%
%TO.N,PMOD2_9*%
X101041200Y-86588600D03*
%TO.P,J8,49,Pin_49*%
%TO.N,unconnected-(J8-Pin_49-Pad49)*%
X102311200Y-85318600D03*
%TO.P,J8,50,Pin_50*%
%TO.N,PMOD2_8*%
X102311200Y-86588600D03*
%TO.P,J8,51,Pin_51*%
%TO.N,unconnected-(J8-Pin_51-Pad51)*%
X103581200Y-85318600D03*
%TO.P,J8,52,Pin_52*%
%TO.N,PMOD2_7*%
X103581200Y-86588600D03*
%TO.P,J8,53,Pin_53*%
%TO.N,unconnected-(J8-Pin_53-Pad53)*%
X104851200Y-85318600D03*
%TO.P,J8,54,Pin_54*%
%TO.N,GND*%
X104851200Y-86588600D03*
%TO.P,J8,55,Pin_55*%
%TO.N,unconnected-(J8-Pin_55-Pad55)*%
X106121200Y-85318600D03*
%TO.P,J8,56,Pin_56*%
%TO.N,PMOD2_4*%
X106121200Y-86588600D03*
%TO.P,J8,57,Pin_57*%
%TO.N,unconnected-(J8-Pin_57-Pad57)*%
X107391200Y-85318600D03*
%TO.P,J8,58,Pin_58*%
%TO.N,PMOD2_3*%
X107391200Y-86588600D03*
%TO.P,J8,59,Pin_59*%
%TO.N,unconnected-(J8-Pin_59-Pad59)*%
X108661200Y-85318600D03*
%TO.P,J8,60,Pin_60*%
%TO.N,PMOD2_2*%
X108661200Y-86588600D03*
%TO.P,J8,61,Pin_61*%
%TO.N,unconnected-(J8-Pin_61-Pad61)*%
X109931200Y-85318600D03*
%TO.P,J8,62,Pin_62*%
%TO.N,PMOD2_1*%
X109931200Y-86588600D03*
%TO.P,J8,63,Pin_63*%
%TO.N,unconnected-(J8-Pin_63-Pad63)*%
X111201200Y-85318600D03*
%TO.P,J8,64,Pin_64*%
%TO.N,LED1*%
X111201200Y-86588600D03*
%TO.P,J8,65,Pin_65*%
%TO.N,unconnected-(J8-Pin_65-Pad65)*%
X112471200Y-85318600D03*
%TO.P,J8,66,Pin_66*%
%TO.N,LED2*%
X112471200Y-86588600D03*
%TO.P,J8,67,Pin_67*%
%TO.N,GND*%
X113741200Y-85318600D03*
%TO.P,J8,68,Pin_68*%
X113741200Y-86588600D03*
%TO.P,J8,69,Pin_69*%
%TO.N,unconnected-(J8-Pin_69-Pad69)*%
X115011200Y-85318600D03*
%TO.P,J8,70,Pin_70*%
%TO.N,LED3*%
X115011200Y-86588600D03*
%TO.P,J8,71,Pin_71*%
%TO.N,unconnected-(J8-Pin_71-Pad71)*%
X116281200Y-85318600D03*
%TO.P,J8,72,Pin_72*%
%TO.N,LED4*%
X116281200Y-86588600D03*
%TO.P,J8,73,Pin_73*%
%TO.N,unconnected-(J8-Pin_73-Pad73)*%
X117551200Y-85318600D03*
%TO.P,J8,74,Pin_74*%
%TO.N,LED5*%
X117551200Y-86588600D03*
%TO.P,J8,75,Pin_75*%
%TO.N,unconnected-(J8-Pin_75-Pad75)*%
X118821200Y-85318600D03*
%TO.P,J8,76,Pin_76*%
%TO.N,LED6*%
X118821200Y-86588600D03*
%TO.P,J8,77,Pin_77*%
%TO.N,unconnected-(J8-Pin_77-Pad77)*%
X120091200Y-85318600D03*
%TO.P,J8,78,Pin_78*%
%TO.N,LED7*%
X120091200Y-86588600D03*
%TO.P,J8,79,Pin_79*%
%TO.N,unconnected-(J8-Pin_79-Pad79)*%
X121361200Y-85318600D03*
%TO.P,J8,80,Pin_80*%
%TO.N,LED8*%
X121361200Y-86588600D03*
%TD*%
D25*
%TO.N,GND*%
X99314000Y-90932000D03*
X108331000Y-100203000D03*
X83947000Y-102743000D03*
X125222000Y-106426000D03*
X80137000Y-90297000D03*
X107950000Y-89535000D03*
X109728000Y-93980000D03*
X83185000Y-89535000D03*
X70612000Y-65278000D03*
%TO.N,LED1*%
X107392700Y-93803700D03*
%TO.N,+5V*%
X68199300Y-32466900D03*
%TD*%
D26*
%TO.N,Net-(D1-K)*%
X68580000Y-93980000D02*
X66675000Y-95885000D01*
X69342000Y-93980000D02*
X72390000Y-93980000D01*
X69342000Y-93980000D02*
X68580000Y-93980000D01*
X72390000Y-93980000D02*
X72400000Y-93970000D01*
D27*
%TO.N,LED1*%
X111190000Y-86595000D02*
X111190000Y-90006400D01*
X111190000Y-90006400D02*
X107392700Y-93803700D01*
%TO.N,LED2*%
X112460000Y-86595000D02*
X112460000Y-93783000D01*
X112460000Y-93783000D02*
X109469000Y-96774000D01*
%TO.N,LED3*%
X115000000Y-96328000D02*
X114554000Y-96774000D01*
X115000000Y-86595000D02*
X115000000Y-96328000D01*
%TO.N,LED4*%
X116270000Y-86595000D02*
X116270000Y-93410000D01*
X116270000Y-93410000D02*
X119634000Y-96774000D01*
%TO.N,LED5*%
X117540000Y-89600000D02*
X124714000Y-96774000D01*
X117540000Y-86595000D02*
X117540000Y-89600000D01*
%TO.N,LED6*%
X129794000Y-96774000D02*
X128116700Y-95096700D01*
X127311700Y-95096700D02*
X118810000Y-86595000D01*
X128116700Y-95096700D02*
X127311700Y-95096700D01*
%TO.N,LED7*%
X122469700Y-88984700D02*
X127084700Y-88984700D01*
X127084700Y-88984700D02*
X134874000Y-96774000D01*
X120080000Y-86595000D02*
X122469700Y-88984700D01*
%TO.N,PMOD1_2*%
X95950000Y-86595000D02*
X95950000Y-91122604D01*
X107120396Y-102293000D02*
X110802000Y-102293000D01*
X110802000Y-102293000D02*
X112776000Y-104267000D01*
X95950000Y-91122604D02*
X107120396Y-102293000D01*
%TO.N,PMOD1_3*%
X106934000Y-102743000D02*
X108712000Y-102743000D01*
X94680000Y-90489000D02*
X106934000Y-102743000D01*
X108712000Y-102743000D02*
X110236000Y-104267000D01*
X109490700Y-104267000D02*
X110236000Y-104267000D01*
X94680000Y-86595000D02*
X94680000Y-90489000D01*
%TO.N,PMOD1_4*%
X93410000Y-89981000D02*
X93410000Y-86595000D01*
X107696000Y-104267000D02*
X93410000Y-89981000D01*
D28*
%TO.N,+3.3V*%
X73090000Y-32105900D02*
X73090000Y-32475000D01*
X69850000Y-27686000D02*
X67564000Y-25400000D01*
X73090000Y-32475000D02*
X73090000Y-30926000D01*
X73090000Y-85325000D02*
X73090000Y-39054000D01*
X67691000Y-25273000D02*
X67691000Y-21082000D01*
X69850000Y-35814000D02*
X69850000Y-27686000D01*
X73090000Y-39054000D02*
X69850000Y-35814000D01*
X73090000Y-30926000D02*
X69850000Y-27686000D01*
X67564000Y-25400000D02*
X67691000Y-25273000D01*
D27*
%TO.N,PMOD1_9*%
X106332900Y-104604300D02*
X106332900Y-103685700D01*
X107172500Y-105443900D02*
X106332900Y-104604300D01*
X89265100Y-87530100D02*
X88330000Y-86595000D01*
X110236000Y-106807000D02*
X108872900Y-105443900D01*
X108872900Y-105443900D02*
X107172500Y-105443900D01*
X106332900Y-103685700D02*
X90177300Y-87530100D01*
X90177300Y-87530100D02*
X89265100Y-87530100D01*
%TO.N,Net-(J2-Pad4)*%
X62207900Y-96497900D02*
X66675000Y-100965000D01*
X59619000Y-96497900D02*
X62207900Y-96497900D01*
%TO.N,PMOD2_4*%
X128682600Y-105572000D02*
X126111000Y-103000400D01*
X106110000Y-93596900D02*
X106110000Y-86595000D01*
X134366000Y-104207000D02*
X133001000Y-105572000D01*
X108201500Y-95688400D02*
X106110000Y-93596900D01*
X113939800Y-103000400D02*
X108201500Y-97262100D01*
D26*
X126111000Y-103000400D02*
X113939800Y-103000400D01*
D27*
X108201500Y-97262100D02*
X108201500Y-95688400D01*
X133001000Y-105572000D02*
X128682600Y-105572000D01*
%TO.N,PMOD2_8*%
X108920500Y-98706500D02*
X114137900Y-103923900D01*
X102300000Y-86595000D02*
X102300000Y-90719800D01*
X138240900Y-107952100D02*
X139446000Y-106747000D01*
X119833300Y-107952100D02*
X138240900Y-107952100D01*
X114330600Y-105443900D02*
X117325100Y-105443900D01*
X106572600Y-98706500D02*
X108920500Y-98706500D01*
X105664000Y-94083800D02*
X105664000Y-97797900D01*
X114137900Y-105251200D02*
X114330600Y-105443900D01*
X117325100Y-105443900D02*
X119833300Y-107952100D01*
X105664000Y-97797900D02*
X106572600Y-98706500D01*
X102300000Y-90719800D02*
X105664000Y-94083800D01*
X114137900Y-103923900D02*
X114137900Y-105251200D01*
%TO.N,BCLK*%
X86275900Y-106411900D02*
X86275900Y-88350900D01*
X86275900Y-88350900D02*
X84520000Y-86595000D01*
X86614000Y-106750000D02*
X86275900Y-106411900D01*
%TO.N,DATA*%
X85130600Y-88475600D02*
X83250000Y-86595000D01*
X85130600Y-105693400D02*
X85130600Y-88475600D01*
X84074000Y-106750000D02*
X85130600Y-105693400D01*
D26*
%TO.N,LRCLK*%
X81534000Y-106750000D02*
X81980000Y-106304000D01*
X81980000Y-106304000D02*
X81980000Y-86595000D01*
D28*
%TO.N,+5V*%
X68199300Y-32466900D02*
X65151000Y-29418600D01*
X74764000Y-93434000D02*
X74764000Y-105900000D01*
X70866500Y-89958600D02*
X71288600Y-89958600D01*
X71740800Y-85325000D02*
X68199300Y-81783500D01*
X71288600Y-89958600D02*
X74764000Y-93434000D01*
X70866500Y-89958600D02*
X70866500Y-86199300D01*
X74764000Y-105900000D02*
X73914000Y-106750000D01*
X70866500Y-86199300D02*
X71740800Y-85325000D01*
X68199300Y-81783500D02*
X68199300Y-32466900D01*
X71740800Y-85325000D02*
X71820000Y-85325000D01*
X65151000Y-29418600D02*
X65151000Y-21082000D01*
D27*
%TO.N,GPIO_1*%
X70231000Y-24536000D02*
X70231000Y-21082000D01*
X78170000Y-32475000D02*
X70231000Y-24536000D01*
%TO.N,GPIO_2*%
X74930000Y-27965000D02*
X75108000Y-28143000D01*
X72771000Y-25806000D02*
X72771000Y-21082000D01*
X75108000Y-28143000D02*
X79440000Y-32475000D01*
X75108000Y-28143000D02*
X72771000Y-25806000D01*
%TO.N,GPIO_3*%
X77648000Y-29413000D02*
X80710000Y-32475000D01*
X77648000Y-29413000D02*
X75380000Y-27145000D01*
X75380000Y-27145000D02*
X75380000Y-21082000D01*
X77470000Y-29235000D02*
X77648000Y-29413000D01*
D26*
%TO.N,GPIO_4*%
X81991200Y-31318200D02*
X77851000Y-27178000D01*
X77851000Y-27178000D02*
X77851000Y-21082000D01*
X81991200Y-32486600D02*
X81991200Y-31318200D01*
%TO.N,GPIO_5*%
X83261200Y-32486600D02*
X83261200Y-30810200D01*
X83261200Y-30810200D02*
X80391000Y-27940000D01*
X80391000Y-27940000D02*
X80391000Y-21082000D01*
%TO.N,GPIO_6*%
X82931000Y-27686000D02*
X82931000Y-21082000D01*
X85801200Y-32486600D02*
X85801200Y-30556200D01*
X85801200Y-30556200D02*
X82931000Y-27686000D01*
D27*
X82550000Y-20955000D02*
X83250000Y-21655000D01*
D26*
%TO.N,GPIO_7*%
X87071200Y-32486600D02*
X87071200Y-30048200D01*
X87071200Y-30048200D02*
X85471000Y-28448000D01*
X85471000Y-28448000D02*
X85471000Y-21082000D01*
D27*
X85090000Y-20955000D02*
X85790000Y-21655000D01*
%TO.N,GPIO_8*%
X88330000Y-22795000D02*
X88330000Y-32475000D01*
D26*
X88341200Y-32486600D02*
X88341200Y-21412200D01*
X88341200Y-21412200D02*
X88011000Y-21082000D01*
%TO.N,GPIO_9*%
X89611200Y-32486600D02*
X89611200Y-22021800D01*
X89611200Y-22021800D02*
X90551000Y-21082000D01*
D27*
X89600000Y-24065000D02*
X89600000Y-32475000D01*
D26*
%TO.N,GPIO_10*%
X92151200Y-32486600D02*
X92151200Y-22021800D01*
D27*
X92140000Y-32475000D02*
X92140000Y-24065000D01*
D26*
X92151200Y-22021800D02*
X93091000Y-21082000D01*
%TO.N,GPIO_11*%
X93421200Y-32486600D02*
X93421200Y-23291800D01*
D27*
X93410000Y-25335000D02*
X93410000Y-32475000D01*
D26*
X93421200Y-23291800D02*
X95631000Y-21082000D01*
%TO.N,GPIO_12*%
X94691200Y-24561800D02*
X98171000Y-21082000D01*
X94680000Y-32475000D02*
X94680000Y-26605000D01*
X94691200Y-32486600D02*
X94691200Y-24561800D01*
D27*
%TO.N,GPIO_13*%
X95950000Y-27875000D02*
X95950000Y-32475000D01*
D26*
X95961200Y-32486600D02*
X95961200Y-25831800D01*
X95961200Y-25831800D02*
X100711000Y-21082000D01*
%TO.N,GPIO_14*%
X98501200Y-32486600D02*
X98501200Y-25831800D01*
X98501200Y-25831800D02*
X103251000Y-21082000D01*
D27*
X98490000Y-32475000D02*
X98490000Y-27875000D01*
%TO.N,GPIO_15*%
X99760000Y-29145000D02*
X99760000Y-32475000D01*
D26*
X99771200Y-32486600D02*
X99771200Y-27101800D01*
X99771200Y-27101800D02*
X105791000Y-21082000D01*
%TO.N,GPIO_16*%
X101041200Y-32486600D02*
X101041200Y-28371800D01*
X101041200Y-28371800D02*
X108331000Y-21082000D01*
D27*
X101030000Y-30415000D02*
X101030000Y-32475000D01*
D26*
%TO.N,GPIO_17*%
X102311200Y-29641800D02*
X110871000Y-21082000D01*
X102311200Y-32486600D02*
X102311200Y-29641800D01*
D27*
X102300000Y-31685000D02*
X102300000Y-32475000D01*
D26*
%TO.N,GPIO_18*%
X104851200Y-32486600D02*
X104851200Y-29641800D01*
X104851200Y-29641800D02*
X113411000Y-21082000D01*
D27*
X104840000Y-31685000D02*
X104840000Y-32475000D01*
D26*
%TO.N,GPIO_19*%
X106121200Y-32486600D02*
X106121200Y-30911800D01*
X106121200Y-30911800D02*
X115951000Y-21082000D01*
%TO.N,GPIO_20*%
X107391200Y-32486600D02*
X118491000Y-21386800D01*
D27*
X109383400Y-30443600D02*
X115951000Y-23876000D01*
X109383400Y-30471600D02*
X109383400Y-30443600D01*
D26*
X118491000Y-21386800D02*
X118491000Y-21082000D01*
D27*
X109383400Y-30471600D02*
X107380000Y-32475000D01*
D26*
%TO.N,GPIO_21*%
X110476400Y-31636600D02*
X121031000Y-21082000D01*
X108661200Y-32486600D02*
X109511200Y-31636600D01*
X109511200Y-31636600D02*
X110476400Y-31636600D01*
%TO.N,GPIO_22*%
X117619800Y-26068000D02*
X118585000Y-26068000D01*
X111201200Y-32486600D02*
X117619800Y-26068000D01*
D27*
X116542900Y-27122100D02*
X116542900Y-27094100D01*
X116542900Y-27122100D02*
X111190000Y-32475000D01*
D26*
X118585000Y-26068000D02*
X123571000Y-21082000D01*
%TO.N,GPIO_23*%
X118254800Y-26703000D02*
X120490000Y-26703000D01*
X120490000Y-26703000D02*
X126111000Y-21082000D01*
X112471200Y-32486600D02*
X118254800Y-26703000D01*
%TO.N,GPIO_24*%
X122530000Y-27203000D02*
X128651000Y-21082000D01*
X113741200Y-32486600D02*
X113809118Y-32486600D01*
X119092718Y-27203000D02*
X122530000Y-27203000D01*
X113809118Y-32486600D02*
X119092718Y-27203000D01*
%TO.N,GPIO_25*%
X119380000Y-28194000D02*
X124079000Y-28194000D01*
X115861200Y-31636600D02*
X115937400Y-31636600D01*
X124079000Y-28194000D02*
X131191000Y-21082000D01*
X115937400Y-31636600D02*
X119380000Y-28194000D01*
X115011200Y-32486600D02*
X115861200Y-31636600D01*
%TO.N,GPIO_26*%
X117551200Y-32486600D02*
X117551200Y-31419800D01*
X117551200Y-31419800D02*
X119761000Y-29210000D01*
X125603000Y-29210000D02*
X133731000Y-21082000D01*
X119761000Y-29210000D02*
X125603000Y-29210000D01*
%TO.N,GPIO_27*%
X120142000Y-30226000D02*
X127127000Y-30226000D01*
X127127000Y-30226000D02*
X136271000Y-21082000D01*
X118821200Y-32486600D02*
X118821200Y-31546800D01*
X118821200Y-31546800D02*
X120142000Y-30226000D01*
%TO.N,GPIO_28*%
X128481200Y-31411800D02*
X138811000Y-21082000D01*
X120091200Y-32486600D02*
X120091200Y-31411800D01*
X120091200Y-31411800D02*
X128481200Y-31411800D01*
%TO.N,MIDI_IN*%
X78603000Y-99050000D02*
X78470000Y-98917000D01*
X80020000Y-99050000D02*
X78603000Y-99050000D01*
X78470000Y-98917000D02*
X78470000Y-88835000D01*
D27*
X80321000Y-86984000D02*
X80710000Y-86595000D01*
D26*
X80137000Y-98933000D02*
X80020000Y-99050000D01*
X78470000Y-88835000D02*
X80710000Y-86595000D01*
%TD*%
%TA.AperFunction,Conductor*%
%TO.N,GND*%
G36*
X125892587Y-103670585D02*
G01*
X125913229Y-103687219D01*
X128113846Y-105887836D01*
X128147331Y-105949159D01*
X128142347Y-106018851D01*
X128127741Y-106046638D01*
X128111968Y-106069164D01*
X128111967Y-106069166D01*
X128012097Y-106283335D01*
X128012094Y-106283344D01*
X127950938Y-106511586D01*
X127950936Y-106511596D01*
X127930341Y-106746999D01*
X127930341Y-106747000D01*
X127950936Y-106982403D01*
X127950938Y-106982413D01*
X128001337Y-107170507D01*
X127999674Y-107240357D01*
X127960511Y-107298219D01*
X127896283Y-107325723D01*
X127881562Y-107326600D01*
X120143753Y-107326600D01*
X120076714Y-107306915D01*
X120056072Y-107290281D01*
X117825903Y-105060112D01*
X117816080Y-105047850D01*
X117815859Y-105048034D01*
X117810886Y-105042022D01*
X117761876Y-104995999D01*
X117759077Y-104993286D01*
X117739577Y-104973785D01*
X117739571Y-104973780D01*
X117736386Y-104971309D01*
X117727534Y-104963748D01*
X117695682Y-104933838D01*
X117695680Y-104933836D01*
X117695677Y-104933835D01*
X117678129Y-104924188D01*
X117661863Y-104913504D01*
X117656336Y-104909217D01*
X117646036Y-104901227D01*
X117646035Y-104901226D01*
X117646032Y-104901224D01*
X117605949Y-104883878D01*
X117595463Y-104878741D01*
X117557194Y-104857703D01*
X117557192Y-104857702D01*
X117537793Y-104852722D01*
X117519381Y-104846418D01*
X117500998Y-104838462D01*
X117500992Y-104838460D01*
X117457860Y-104831629D01*
X117446422Y-104829261D01*
X117404120Y-104818400D01*
X117404119Y-104818400D01*
X117384084Y-104818400D01*
X117364686Y-104816873D01*
X117357262Y-104815697D01*
X117344905Y-104813740D01*
X117344904Y-104813740D01*
X117301425Y-104817850D01*
X117289756Y-104818400D01*
X116790500Y-104818400D01*
X116723461Y-104798715D01*
X116677706Y-104745911D01*
X116666500Y-104694400D01*
X116666499Y-103774900D01*
X116686183Y-103707861D01*
X116738987Y-103662106D01*
X116790499Y-103650900D01*
X125825548Y-103650900D01*
X125892587Y-103670585D01*
G37*
%TD.AperFunction*%
%TA.AperFunction,Conductor*%
G36*
X132933877Y-106199224D02*
G01*
X132933904Y-106198939D01*
X132941663Y-106199672D01*
X132941667Y-106199673D01*
X132949096Y-106199439D01*
X133016720Y-106217007D01*
X133064112Y-106268346D01*
X133076225Y-106337158D01*
X133072768Y-106355470D01*
X133030939Y-106511583D01*
X133030936Y-106511596D01*
X133010341Y-106746999D01*
X133010341Y-106747000D01*
X133030936Y-106982403D01*
X133030938Y-106982413D01*
X133081337Y-107170507D01*
X133079674Y-107240357D01*
X133040511Y-107298219D01*
X132976283Y-107325723D01*
X132961562Y-107326600D01*
X130690438Y-107326600D01*
X130623399Y-107306915D01*
X130577644Y-107254111D01*
X130567700Y-107184953D01*
X130570663Y-107170507D01*
X130604986Y-107042408D01*
X130621063Y-106982408D01*
X130641659Y-106747000D01*
X130621063Y-106511592D01*
X130578728Y-106353593D01*
X130580391Y-106283743D01*
X130619554Y-106225881D01*
X130683782Y-106198377D01*
X130698503Y-106197500D01*
X132918257Y-106197500D01*
X132933877Y-106199224D01*
G37*
%TD.AperFunction*%
%TA.AperFunction,Conductor*%
G36*
X84429751Y-99868146D02*
G01*
X84483692Y-99912555D01*
X84505061Y-99979077D01*
X84505100Y-99982203D01*
X84505100Y-105305772D01*
X84485415Y-105372811D01*
X84432611Y-105418566D01*
X84363453Y-105428510D01*
X84349008Y-105425547D01*
X84309416Y-105414939D01*
X84309412Y-105414938D01*
X84309408Y-105414937D01*
X84309406Y-105414936D01*
X84309403Y-105414936D01*
X84074001Y-105394341D01*
X84073999Y-105394341D01*
X83838596Y-105414936D01*
X83838586Y-105414938D01*
X83610344Y-105476094D01*
X83610335Y-105476098D01*
X83396171Y-105575964D01*
X83396169Y-105575965D01*
X83202597Y-105711505D01*
X83035508Y-105878594D01*
X82905574Y-106064159D01*
X82850997Y-106107784D01*
X82781498Y-106114976D01*
X82719144Y-106083454D01*
X82702424Y-106064158D01*
X82700323Y-106061158D01*
X82652925Y-105993465D01*
X82630598Y-105927258D01*
X82630500Y-105922342D01*
X82630500Y-99985485D01*
X82650185Y-99918446D01*
X82702989Y-99872691D01*
X82772147Y-99862747D01*
X82835703Y-99891772D01*
X82838039Y-99893849D01*
X82839437Y-99895123D01*
X82839439Y-99895125D01*
X83028595Y-100012245D01*
X83028596Y-100012245D01*
X83028599Y-100012247D01*
X83236060Y-100092618D01*
X83454757Y-100133500D01*
X83454759Y-100133500D01*
X83677241Y-100133500D01*
X83677243Y-100133500D01*
X83895940Y-100092618D01*
X84103401Y-100012247D01*
X84292562Y-99895124D01*
X84297561Y-99890566D01*
X84360364Y-99859949D01*
X84429751Y-99868146D01*
G37*
%TD.AperFunction*%
%TA.AperFunction,Conductor*%
G36*
X105093082Y-98081053D02*
G01*
X105110803Y-98100654D01*
X105137180Y-98136959D01*
X105143593Y-98146721D01*
X105165828Y-98184317D01*
X105165833Y-98184324D01*
X105179990Y-98198480D01*
X105192627Y-98213275D01*
X105204406Y-98229487D01*
X105226881Y-98248080D01*
X105238057Y-98257325D01*
X105246698Y-98265188D01*
X106071797Y-99090288D01*
X106081622Y-99102551D01*
X106081843Y-99102369D01*
X106086811Y-99108374D01*
X106135822Y-99154399D01*
X106138621Y-99157112D01*
X106158122Y-99176614D01*
X106158126Y-99176617D01*
X106158129Y-99176620D01*
X106161302Y-99179081D01*
X106170174Y-99186659D01*
X106202018Y-99216562D01*
X106219576Y-99226214D01*
X106235835Y-99236895D01*
X106251664Y-99249173D01*
X106291755Y-99266521D01*
X106302226Y-99271651D01*
X106316627Y-99279568D01*
X106340502Y-99292694D01*
X106340504Y-99292695D01*
X106340508Y-99292697D01*
X106359916Y-99297680D01*
X106378319Y-99303981D01*
X106396701Y-99311936D01*
X106396702Y-99311936D01*
X106396704Y-99311937D01*
X106439850Y-99318770D01*
X106451272Y-99321136D01*
X106493581Y-99332000D01*
X106513616Y-99332000D01*
X106533014Y-99333526D01*
X106552794Y-99336659D01*
X106552795Y-99336660D01*
X106552795Y-99336659D01*
X106552796Y-99336660D01*
X106596275Y-99332550D01*
X106607944Y-99332000D01*
X108610048Y-99332000D01*
X108677087Y-99351685D01*
X108697729Y-99368319D01*
X110785228Y-101455819D01*
X110818713Y-101517142D01*
X110813729Y-101586834D01*
X110771857Y-101642767D01*
X110706393Y-101667184D01*
X110697547Y-101667500D01*
X107430849Y-101667500D01*
X107363810Y-101647815D01*
X107343168Y-101631181D01*
X104081778Y-98369791D01*
X104048293Y-98308468D01*
X104053277Y-98238776D01*
X104095149Y-98182843D01*
X104160613Y-98158426D01*
X104189863Y-98159800D01*
X104277951Y-98174500D01*
X104277952Y-98174500D01*
X104510048Y-98174500D01*
X104510049Y-98174500D01*
X104738981Y-98136298D01*
X104958503Y-98060936D01*
X104958511Y-98060931D01*
X104960669Y-98059986D01*
X104961631Y-98059862D01*
X104963354Y-98059271D01*
X104963475Y-98059625D01*
X105029969Y-98051079D01*
X105093082Y-98081053D01*
G37*
%TD.AperFunction*%
%TA.AperFunction,Conductor*%
G36*
X106494703Y-94866639D02*
G01*
X106501181Y-94872671D01*
X107539681Y-95911171D01*
X107573166Y-95972494D01*
X107576000Y-95998852D01*
X107576000Y-97179355D01*
X107574275Y-97194972D01*
X107574561Y-97194999D01*
X107573826Y-97202765D01*
X107575939Y-97269972D01*
X107576000Y-97273867D01*
X107576000Y-97301457D01*
X107576503Y-97305435D01*
X107577418Y-97317067D01*
X107578790Y-97360724D01*
X107578791Y-97360727D01*
X107584380Y-97379967D01*
X107588324Y-97399011D01*
X107590836Y-97418892D01*
X107606914Y-97459503D01*
X107610697Y-97470552D01*
X107622881Y-97512488D01*
X107633080Y-97529734D01*
X107641638Y-97547203D01*
X107649014Y-97565832D01*
X107674681Y-97601160D01*
X107681093Y-97610921D01*
X107703328Y-97648517D01*
X107703333Y-97648524D01*
X107717490Y-97662680D01*
X107730128Y-97677476D01*
X107741905Y-97693686D01*
X107741906Y-97693687D01*
X107775557Y-97721525D01*
X107784198Y-97729388D01*
X107924129Y-97869319D01*
X107957614Y-97930642D01*
X107952630Y-98000334D01*
X107910758Y-98056267D01*
X107845294Y-98080684D01*
X107836448Y-98081000D01*
X106883053Y-98081000D01*
X106816014Y-98061315D01*
X106795372Y-98044681D01*
X106325819Y-97575128D01*
X106292334Y-97513805D01*
X106289500Y-97487447D01*
X106289500Y-94960352D01*
X106309185Y-94893313D01*
X106361989Y-94847558D01*
X106431147Y-94837614D01*
X106494703Y-94866639D01*
G37*
%TD.AperFunction*%
%TA.AperFunction,Conductor*%
G36*
X81268350Y-95052088D02*
G01*
X81316163Y-95103036D01*
X81329500Y-95158980D01*
X81329500Y-97861019D01*
X81309815Y-97928058D01*
X81257011Y-97973813D01*
X81187853Y-97983757D01*
X81134378Y-97962595D01*
X81113759Y-97948158D01*
X81072734Y-97919432D01*
X81072728Y-97919429D01*
X80866497Y-97823261D01*
X80866488Y-97823258D01*
X80646697Y-97764366D01*
X80646687Y-97764364D01*
X80476785Y-97749500D01*
X80476784Y-97749500D01*
X79563216Y-97749500D01*
X79563215Y-97749500D01*
X79393312Y-97764364D01*
X79393302Y-97764366D01*
X79276593Y-97795638D01*
X79206743Y-97793975D01*
X79148881Y-97754812D01*
X79121377Y-97690583D01*
X79120500Y-97675863D01*
X79120500Y-95344136D01*
X79140185Y-95277097D01*
X79192989Y-95231342D01*
X79262147Y-95221398D01*
X79276582Y-95224358D01*
X79393308Y-95255635D01*
X79563214Y-95270499D01*
X79563215Y-95270500D01*
X79563216Y-95270500D01*
X80476785Y-95270500D01*
X80476785Y-95270499D01*
X80646692Y-95255635D01*
X80866496Y-95196739D01*
X81072734Y-95100568D01*
X81134378Y-95057404D01*
X81200583Y-95035078D01*
X81268350Y-95052088D01*
G37*
%TD.AperFunction*%
%TA.AperFunction,Conductor*%
G36*
X98357971Y-86309834D02*
G01*
X98501200Y-86323941D01*
X98644408Y-86309836D01*
X98713052Y-86322855D01*
X98763762Y-86370920D01*
X98780437Y-86438770D01*
X98779963Y-86445393D01*
X98765859Y-86588599D01*
X98785175Y-86784729D01*
X98842388Y-86973333D01*
X98935286Y-87147132D01*
X98935290Y-87147139D01*
X99060316Y-87299483D01*
X99212660Y-87424509D01*
X99212667Y-87424513D01*
X99386466Y-87517411D01*
X99386469Y-87517411D01*
X99386473Y-87517414D01*
X99575068Y-87574624D01*
X99771200Y-87593941D01*
X99967332Y-87574624D01*
X100155927Y-87517414D01*
X100329738Y-87424510D01*
X100329744Y-87424504D01*
X100334807Y-87421123D01*
X100335903Y-87422764D01*
X100391839Y-87399005D01*
X100460707Y-87410794D01*
X100477348Y-87421488D01*
X100477593Y-87421123D01*
X100482658Y-87424507D01*
X100482662Y-87424510D01*
X100656473Y-87517414D01*
X100845068Y-87574624D01*
X101041200Y-87593941D01*
X101237332Y-87574624D01*
X101425927Y-87517414D01*
X101492047Y-87482071D01*
X101560449Y-87467830D01*
X101625693Y-87492829D01*
X101667064Y-87549134D01*
X101674500Y-87591430D01*
X101674500Y-90637055D01*
X101672775Y-90652672D01*
X101673061Y-90652699D01*
X101672326Y-90660465D01*
X101674439Y-90727672D01*
X101674500Y-90731567D01*
X101674500Y-90759157D01*
X101675003Y-90763135D01*
X101675918Y-90774767D01*
X101677290Y-90818424D01*
X101677291Y-90818427D01*
X101682880Y-90837667D01*
X101686824Y-90856711D01*
X101687684Y-90863513D01*
X101689336Y-90876592D01*
X101705414Y-90917203D01*
X101709197Y-90928252D01*
X101721381Y-90970188D01*
X101731580Y-90987434D01*
X101740138Y-91004903D01*
X101747514Y-91023532D01*
X101773181Y-91058860D01*
X101779593Y-91068621D01*
X101801828Y-91106217D01*
X101801833Y-91106224D01*
X101815990Y-91120380D01*
X101828628Y-91135176D01*
X101840405Y-91151386D01*
X101840406Y-91151387D01*
X101874057Y-91179225D01*
X101882698Y-91187088D01*
X105002181Y-94306571D01*
X105035666Y-94367894D01*
X105038500Y-94394252D01*
X105038500Y-95340854D01*
X105018815Y-95407893D01*
X104966011Y-95453648D01*
X104896853Y-95463592D01*
X104874237Y-95458135D01*
X104738984Y-95411702D01*
X104567282Y-95383050D01*
X104510049Y-95373500D01*
X104277951Y-95373500D01*
X104232164Y-95381140D01*
X104049015Y-95411702D01*
X103829504Y-95487061D01*
X103829495Y-95487064D01*
X103625371Y-95597531D01*
X103625365Y-95597535D01*
X103442222Y-95740081D01*
X103442219Y-95740084D01*
X103285016Y-95910852D01*
X103158075Y-96105151D01*
X103064842Y-96317699D01*
X103007866Y-96542691D01*
X103007864Y-96542702D01*
X102988700Y-96773993D01*
X102988700Y-96773995D01*
X102988700Y-96774000D01*
X102994759Y-96847123D01*
X103006185Y-96985020D01*
X102992103Y-97053456D01*
X102943257Y-97103415D01*
X102875156Y-97119035D01*
X102809421Y-97095357D01*
X102794927Y-97082940D01*
X96611819Y-90899832D01*
X96578334Y-90838509D01*
X96575500Y-90812151D01*
X96575500Y-87579457D01*
X96595185Y-87512418D01*
X96647989Y-87466663D01*
X96717147Y-87456719D01*
X96757951Y-87470098D01*
X96846473Y-87517414D01*
X97035068Y-87574624D01*
X97231200Y-87593941D01*
X97427332Y-87574624D01*
X97615927Y-87517414D01*
X97789738Y-87424510D01*
X97942083Y-87299483D01*
X98067110Y-87147138D01*
X98113562Y-87060232D01*
X98160011Y-86973333D01*
X98160011Y-86973332D01*
X98160014Y-86973327D01*
X98217224Y-86784732D01*
X98236541Y-86588600D01*
X98222436Y-86445391D01*
X98235455Y-86376747D01*
X98283520Y-86326037D01*
X98351370Y-86309362D01*
X98357971Y-86309834D01*
G37*
%TD.AperFunction*%
%TA.AperFunction,Conductor*%
G36*
X111750161Y-90429519D02*
G01*
X111807382Y-90469611D01*
X111833845Y-90534276D01*
X111834500Y-90547005D01*
X111834500Y-93472547D01*
X111814815Y-93539586D01*
X111798181Y-93560228D01*
X109967520Y-95390888D01*
X109906197Y-95424373D01*
X109839577Y-95420488D01*
X109813986Y-95411702D01*
X109623204Y-95379867D01*
X109585049Y-95373500D01*
X109352951Y-95373500D01*
X109307164Y-95381140D01*
X109124015Y-95411702D01*
X108920786Y-95481471D01*
X108850987Y-95484621D01*
X108790566Y-95449535D01*
X108773794Y-95427317D01*
X108772053Y-95424373D01*
X108769920Y-95420766D01*
X108761361Y-95403294D01*
X108753987Y-95384669D01*
X108742348Y-95368650D01*
X108728311Y-95349330D01*
X108721905Y-95339577D01*
X108706471Y-95313480D01*
X108699672Y-95301983D01*
X108699665Y-95301974D01*
X108685506Y-95287815D01*
X108672868Y-95273019D01*
X108661094Y-95256813D01*
X108653240Y-95250316D01*
X108627440Y-95228972D01*
X108618799Y-95221109D01*
X108022887Y-94625197D01*
X107989402Y-94563874D01*
X107994386Y-94494182D01*
X108018415Y-94454547D01*
X108125233Y-94335916D01*
X108219879Y-94171984D01*
X108278374Y-93991956D01*
X108296021Y-93824045D01*
X108322605Y-93759432D01*
X108331652Y-93749336D01*
X111573788Y-90507201D01*
X111586042Y-90497386D01*
X111585859Y-90497164D01*
X111591868Y-90492191D01*
X111591877Y-90492186D01*
X111620109Y-90462120D01*
X111680347Y-90426727D01*
X111750161Y-90429519D01*
G37*
%TD.AperFunction*%
%TA.AperFunction,Conductor*%
G36*
X109350707Y-87410794D02*
G01*
X109367348Y-87421488D01*
X109367593Y-87421123D01*
X109372658Y-87424507D01*
X109372662Y-87424510D01*
X109546473Y-87517414D01*
X109735068Y-87574624D01*
X109931200Y-87593941D01*
X110127332Y-87574624D01*
X110315927Y-87517414D01*
X110382047Y-87482071D01*
X110450449Y-87467830D01*
X110515693Y-87492829D01*
X110557064Y-87549134D01*
X110564500Y-87591430D01*
X110564500Y-89695947D01*
X110544815Y-89762986D01*
X110528181Y-89783628D01*
X107444928Y-92866881D01*
X107383605Y-92900366D01*
X107357247Y-92903200D01*
X107298054Y-92903200D01*
X107265597Y-92910098D01*
X107112897Y-92942555D01*
X107112892Y-92942557D01*
X106939970Y-93019548D01*
X106939966Y-93019551D01*
X106932384Y-93025060D01*
X106866577Y-93048539D01*
X106798524Y-93032713D01*
X106749830Y-92982606D01*
X106735500Y-92924741D01*
X106735500Y-87579457D01*
X106755185Y-87512418D01*
X106807989Y-87466663D01*
X106877147Y-87456719D01*
X106917951Y-87470098D01*
X107006473Y-87517414D01*
X107195068Y-87574624D01*
X107391200Y-87593941D01*
X107587332Y-87574624D01*
X107775927Y-87517414D01*
X107949738Y-87424510D01*
X107949744Y-87424504D01*
X107954807Y-87421123D01*
X107955903Y-87422764D01*
X108011839Y-87399005D01*
X108080707Y-87410794D01*
X108097348Y-87421488D01*
X108097593Y-87421123D01*
X108102658Y-87424507D01*
X108102662Y-87424510D01*
X108276473Y-87517414D01*
X108465068Y-87574624D01*
X108661200Y-87593941D01*
X108857332Y-87574624D01*
X109045927Y-87517414D01*
X109219738Y-87424510D01*
X109219744Y-87424504D01*
X109224807Y-87421123D01*
X109225903Y-87422764D01*
X109281839Y-87399005D01*
X109350707Y-87410794D01*
G37*
%TD.AperFunction*%
%TA.AperFunction,Conductor*%
G36*
X82812952Y-87483461D02*
G01*
X82876473Y-87517414D01*
X83065068Y-87574624D01*
X83261200Y-87593941D01*
X83296737Y-87590440D01*
X83365381Y-87603458D01*
X83396572Y-87626162D01*
X84468781Y-88698371D01*
X84502266Y-88759694D01*
X84505100Y-88786052D01*
X84505100Y-92803796D01*
X84485415Y-92870835D01*
X84432611Y-92916590D01*
X84363453Y-92926534D01*
X84299897Y-92897509D01*
X84297566Y-92895437D01*
X84292562Y-92890876D01*
X84292560Y-92890874D01*
X84103404Y-92773754D01*
X84103398Y-92773752D01*
X84088491Y-92767977D01*
X83895940Y-92693382D01*
X83677243Y-92652500D01*
X83454757Y-92652500D01*
X83236060Y-92693382D01*
X83107308Y-92743261D01*
X83028601Y-92773752D01*
X83028595Y-92773754D01*
X82839439Y-92890874D01*
X82839431Y-92890881D01*
X82838030Y-92892158D01*
X82837212Y-92892556D01*
X82834864Y-92894330D01*
X82834516Y-92893870D01*
X82775224Y-92922770D01*
X82705837Y-92914566D01*
X82651901Y-92870152D01*
X82630539Y-92803628D01*
X82630500Y-92800514D01*
X82630500Y-87592820D01*
X82650185Y-87525781D01*
X82702989Y-87480026D01*
X82772147Y-87470082D01*
X82812952Y-87483461D01*
G37*
%TD.AperFunction*%
%TA.AperFunction,Conductor*%
G36*
X81280693Y-87506192D02*
G01*
X81322064Y-87562497D01*
X81329500Y-87604793D01*
X81329500Y-92781019D01*
X81309815Y-92848058D01*
X81257011Y-92893813D01*
X81187853Y-92903757D01*
X81134378Y-92882595D01*
X81077951Y-92843085D01*
X81072734Y-92839432D01*
X81014876Y-92812452D01*
X80866497Y-92743261D01*
X80866488Y-92743258D01*
X80646697Y-92684366D01*
X80646687Y-92684364D01*
X80476785Y-92669500D01*
X80476784Y-92669500D01*
X79563216Y-92669500D01*
X79563215Y-92669500D01*
X79393312Y-92684364D01*
X79393302Y-92684366D01*
X79276593Y-92715638D01*
X79206743Y-92713975D01*
X79148881Y-92674812D01*
X79121377Y-92610583D01*
X79120500Y-92595863D01*
X79120500Y-89155807D01*
X79140185Y-89088768D01*
X79156814Y-89068131D01*
X80597622Y-87627322D01*
X80658943Y-87593839D01*
X80697453Y-87591602D01*
X80721200Y-87593941D01*
X80917332Y-87574624D01*
X81105927Y-87517414D01*
X81147047Y-87495434D01*
X81215449Y-87481193D01*
X81280693Y-87506192D01*
G37*
%TD.AperFunction*%
%TA.AperFunction,Conductor*%
G36*
X104707971Y-86309834D02*
G01*
X104851200Y-86323941D01*
X104994408Y-86309836D01*
X105063052Y-86322855D01*
X105113762Y-86370920D01*
X105130437Y-86438770D01*
X105129963Y-86445393D01*
X105115859Y-86588599D01*
X105135175Y-86784729D01*
X105192388Y-86973333D01*
X105285286Y-87147132D01*
X105285290Y-87147139D01*
X105410313Y-87299479D01*
X105410315Y-87299480D01*
X105410317Y-87299483D01*
X105439165Y-87323158D01*
X105478499Y-87380901D01*
X105484500Y-87419010D01*
X105484500Y-92720347D01*
X105464815Y-92787386D01*
X105412011Y-92833141D01*
X105342853Y-92843085D01*
X105279297Y-92814060D01*
X105272819Y-92808028D01*
X102961819Y-90497028D01*
X102928334Y-90435705D01*
X102925500Y-90409347D01*
X102925500Y-87579457D01*
X102945185Y-87512418D01*
X102997989Y-87466663D01*
X103067147Y-87456719D01*
X103107951Y-87470098D01*
X103196473Y-87517414D01*
X103385068Y-87574624D01*
X103581200Y-87593941D01*
X103777332Y-87574624D01*
X103965927Y-87517414D01*
X104139738Y-87424510D01*
X104292083Y-87299483D01*
X104417110Y-87147138D01*
X104463562Y-87060232D01*
X104510011Y-86973333D01*
X104510011Y-86973332D01*
X104510014Y-86973327D01*
X104567224Y-86784732D01*
X104586541Y-86588600D01*
X104572436Y-86445391D01*
X104585455Y-86376747D01*
X104633520Y-86326037D01*
X104701370Y-86309362D01*
X104707971Y-86309834D01*
G37*
%TD.AperFunction*%
%TA.AperFunction,Conductor*%
G36*
X92007971Y-86309834D02*
G01*
X92151200Y-86323941D01*
X92294408Y-86309836D01*
X92363052Y-86322855D01*
X92413762Y-86370920D01*
X92430437Y-86438770D01*
X92429963Y-86445393D01*
X92415859Y-86588599D01*
X92435175Y-86784729D01*
X92492388Y-86973333D01*
X92585286Y-87147132D01*
X92585290Y-87147139D01*
X92710313Y-87299479D01*
X92710315Y-87299480D01*
X92710317Y-87299483D01*
X92739165Y-87323158D01*
X92778499Y-87380901D01*
X92784500Y-87419010D01*
X92784500Y-88953347D01*
X92764815Y-89020386D01*
X92712011Y-89066141D01*
X92642853Y-89076085D01*
X92579297Y-89047060D01*
X92572819Y-89041028D01*
X91242919Y-87711128D01*
X91209434Y-87649805D01*
X91214418Y-87580113D01*
X91256290Y-87524180D01*
X91272133Y-87514096D01*
X91439738Y-87424510D01*
X91592083Y-87299483D01*
X91717110Y-87147138D01*
X91763562Y-87060232D01*
X91810011Y-86973333D01*
X91810011Y-86973332D01*
X91810014Y-86973327D01*
X91867224Y-86784732D01*
X91886541Y-86588600D01*
X91872436Y-86445391D01*
X91885455Y-86376747D01*
X91933520Y-86326037D01*
X92001370Y-86309362D01*
X92007971Y-86309834D01*
G37*
%TD.AperFunction*%
%TA.AperFunction,Conductor*%
G36*
X85657971Y-86309834D02*
G01*
X85801200Y-86323941D01*
X85944408Y-86309836D01*
X86013052Y-86322855D01*
X86063762Y-86370920D01*
X86080437Y-86438770D01*
X86079963Y-86445393D01*
X86065859Y-86588599D01*
X86085175Y-86784729D01*
X86142388Y-86973332D01*
X86161096Y-87008332D01*
X86175338Y-87076734D01*
X86150338Y-87141978D01*
X86094033Y-87183349D01*
X86024300Y-87187711D01*
X85964057Y-87154466D01*
X85565606Y-86756015D01*
X85532121Y-86694692D01*
X85529884Y-86656183D01*
X85536541Y-86588600D01*
X85522436Y-86445391D01*
X85535455Y-86376747D01*
X85583520Y-86326037D01*
X85651370Y-86309362D01*
X85657971Y-86309834D01*
G37*
%TD.AperFunction*%
%TA.AperFunction,Conductor*%
G36*
X69155003Y-36131552D02*
G01*
X69177398Y-36157123D01*
X69215980Y-36215785D01*
X69217889Y-36218782D01*
X69248972Y-36269174D01*
X69257289Y-36282658D01*
X69261766Y-36288319D01*
X69261719Y-36288356D01*
X69266482Y-36294202D01*
X69266528Y-36294164D01*
X69271173Y-36299699D01*
X69325707Y-36351149D01*
X69328295Y-36353663D01*
X72303181Y-39328549D01*
X72336666Y-39389872D01*
X72339500Y-39416230D01*
X72339500Y-84194100D01*
X72319815Y-84261139D01*
X72267011Y-84306894D01*
X72215500Y-84318100D01*
X71846630Y-84318100D01*
X71779591Y-84298415D01*
X71758949Y-84281781D01*
X68986119Y-81508951D01*
X68952634Y-81447628D01*
X68949800Y-81421270D01*
X68949800Y-36225265D01*
X68969485Y-36158226D01*
X69022289Y-36112471D01*
X69091447Y-36102527D01*
X69155003Y-36131552D01*
G37*
%TD.AperFunction*%
%TA.AperFunction,Conductor*%
G36*
X81745855Y-21748546D02*
G01*
X81762575Y-21767842D01*
X81892501Y-21953396D01*
X81892506Y-21953402D01*
X82059597Y-22120493D01*
X82059603Y-22120498D01*
X82227623Y-22238147D01*
X82271248Y-22292724D01*
X82280500Y-22339722D01*
X82280500Y-27600494D01*
X82278732Y-27616505D01*
X82278974Y-27616528D01*
X82278240Y-27624294D01*
X82280439Y-27694262D01*
X82280500Y-27698157D01*
X82280500Y-27726920D01*
X82280501Y-27726938D01*
X82281053Y-27731311D01*
X82281968Y-27742941D01*
X82283402Y-27788567D01*
X82283403Y-27788570D01*
X82289323Y-27808948D01*
X82293268Y-27827996D01*
X82295928Y-27849054D01*
X82295931Y-27849065D01*
X82312737Y-27891514D01*
X82316520Y-27902563D01*
X82329254Y-27946395D01*
X82329255Y-27946397D01*
X82331506Y-27950203D01*
X82337883Y-27960986D01*
X82340060Y-27964666D01*
X82348617Y-27982134D01*
X82352167Y-27991099D01*
X82356432Y-28001872D01*
X82383266Y-28038806D01*
X82389678Y-28048568D01*
X82411399Y-28085296D01*
X82412919Y-28087865D01*
X82412923Y-28087869D01*
X82427925Y-28102871D01*
X82440563Y-28117669D01*
X82453033Y-28134833D01*
X82453036Y-28134837D01*
X82488213Y-28163937D01*
X82496854Y-28171800D01*
X83819929Y-29494875D01*
X85114381Y-30789326D01*
X85147866Y-30850649D01*
X85150700Y-30877007D01*
X85150700Y-31667514D01*
X85131015Y-31734553D01*
X85105367Y-31763365D01*
X85090315Y-31775718D01*
X84965290Y-31928060D01*
X84965286Y-31928067D01*
X84872388Y-32101866D01*
X84815175Y-32290470D01*
X84795859Y-32486600D01*
X84809963Y-32629806D01*
X84796944Y-32698452D01*
X84748879Y-32749162D01*
X84681028Y-32765837D01*
X84674406Y-32765363D01*
X84531200Y-32751259D01*
X84387993Y-32765363D01*
X84319347Y-32752344D01*
X84268636Y-32704279D01*
X84251962Y-32636428D01*
X84252434Y-32629830D01*
X84266541Y-32486600D01*
X84247224Y-32290468D01*
X84190014Y-32101873D01*
X84190011Y-32101869D01*
X84190011Y-32101866D01*
X84097113Y-31928067D01*
X84097109Y-31928060D01*
X83972084Y-31775718D01*
X83957033Y-31763365D01*
X83917700Y-31705619D01*
X83911700Y-31667514D01*
X83911700Y-30895703D01*
X83913468Y-30879691D01*
X83913226Y-30879669D01*
X83913960Y-30871906D01*
X83911761Y-30801922D01*
X83911700Y-30798028D01*
X83911700Y-30769278D01*
X83911699Y-30769271D01*
X83911300Y-30766116D01*
X83911149Y-30764919D01*
X83910231Y-30753262D01*
X83908798Y-30707631D01*
X83902876Y-30687250D01*
X83898931Y-30668195D01*
X83896272Y-30647149D01*
X83896271Y-30647147D01*
X83896271Y-30647142D01*
X83879467Y-30604701D01*
X83875684Y-30593652D01*
X83862945Y-30549802D01*
X83862342Y-30548783D01*
X83852136Y-30531524D01*
X83843578Y-30514055D01*
X83835768Y-30494329D01*
X83808921Y-30457379D01*
X83802531Y-30447649D01*
X83779281Y-30408335D01*
X83764275Y-30393329D01*
X83751635Y-30378530D01*
X83739161Y-30361360D01*
X83703980Y-30332256D01*
X83695340Y-30324394D01*
X81077819Y-27706873D01*
X81044334Y-27645550D01*
X81041500Y-27619192D01*
X81041500Y-22339722D01*
X81061185Y-22272683D01*
X81094377Y-22238147D01*
X81177463Y-22179969D01*
X81262401Y-22120495D01*
X81429495Y-21953401D01*
X81559425Y-21767842D01*
X81614002Y-21724217D01*
X81683500Y-21717023D01*
X81745855Y-21748546D01*
G37*
%TD.AperFunction*%
%TA.AperFunction,Conductor*%
G36*
X91439550Y-22196979D02*
G01*
X91487363Y-22247927D01*
X91500700Y-22303871D01*
X91500700Y-31667514D01*
X91481015Y-31734553D01*
X91455367Y-31763365D01*
X91440315Y-31775718D01*
X91315290Y-31928060D01*
X91315286Y-31928067D01*
X91222388Y-32101866D01*
X91165175Y-32290470D01*
X91145859Y-32486600D01*
X91159963Y-32629806D01*
X91146944Y-32698452D01*
X91098879Y-32749162D01*
X91031028Y-32765837D01*
X91024406Y-32765363D01*
X90881200Y-32751259D01*
X90737993Y-32765363D01*
X90669347Y-32752344D01*
X90618636Y-32704279D01*
X90601962Y-32636428D01*
X90602434Y-32629830D01*
X90616541Y-32486600D01*
X90597224Y-32290468D01*
X90540014Y-32101873D01*
X90540011Y-32101869D01*
X90540011Y-32101866D01*
X90447113Y-31928067D01*
X90447109Y-31928060D01*
X90322084Y-31775718D01*
X90307033Y-31763365D01*
X90267700Y-31705619D01*
X90261700Y-31667514D01*
X90261700Y-22547670D01*
X90281385Y-22480631D01*
X90334189Y-22434876D01*
X90396506Y-22424142D01*
X90519191Y-22434876D01*
X90550999Y-22437659D01*
X90551000Y-22437659D01*
X90551001Y-22437659D01*
X90609966Y-22432500D01*
X90786408Y-22417063D01*
X91014663Y-22355903D01*
X91228830Y-22256035D01*
X91305578Y-22202295D01*
X91371782Y-22179969D01*
X91439550Y-22196979D01*
G37*
%TD.AperFunction*%
%TA.AperFunction,Conductor*%
G36*
X100403006Y-22397613D02*
G01*
X100475592Y-22417063D01*
X100689217Y-22435753D01*
X100754285Y-22461206D01*
X100795264Y-22517796D01*
X100799142Y-22587558D01*
X100766090Y-22646962D01*
X98101683Y-25311369D01*
X98089110Y-25321443D01*
X98089265Y-25321630D01*
X98083258Y-25326599D01*
X98035333Y-25377633D01*
X98032627Y-25380425D01*
X98012290Y-25400763D01*
X98012277Y-25400778D01*
X98009573Y-25404263D01*
X98002006Y-25413122D01*
X97970752Y-25446407D01*
X97960522Y-25465013D01*
X97949846Y-25481264D01*
X97936840Y-25498032D01*
X97936836Y-25498038D01*
X97918708Y-25539930D01*
X97913569Y-25550419D01*
X97891572Y-25590430D01*
X97891572Y-25590431D01*
X97886291Y-25610999D01*
X97879991Y-25629401D01*
X97871564Y-25648873D01*
X97864423Y-25693962D01*
X97862054Y-25705400D01*
X97850700Y-25749617D01*
X97850700Y-25770844D01*
X97849173Y-25790243D01*
X97845853Y-25811205D01*
X97849265Y-25847297D01*
X97850150Y-25856658D01*
X97850700Y-25868328D01*
X97850700Y-31667514D01*
X97831015Y-31734553D01*
X97805367Y-31763365D01*
X97790315Y-31775718D01*
X97665290Y-31928060D01*
X97665286Y-31928067D01*
X97572388Y-32101866D01*
X97515175Y-32290470D01*
X97495859Y-32486600D01*
X97509963Y-32629806D01*
X97496944Y-32698452D01*
X97448879Y-32749162D01*
X97381028Y-32765837D01*
X97374406Y-32765363D01*
X97231200Y-32751259D01*
X97087993Y-32765363D01*
X97019347Y-32752344D01*
X96968636Y-32704279D01*
X96951962Y-32636428D01*
X96952434Y-32629830D01*
X96966541Y-32486600D01*
X96947224Y-32290468D01*
X96890014Y-32101873D01*
X96890011Y-32101869D01*
X96890011Y-32101866D01*
X96797113Y-31928067D01*
X96797109Y-31928060D01*
X96672084Y-31775718D01*
X96657033Y-31763365D01*
X96617700Y-31705619D01*
X96611700Y-31667514D01*
X96611700Y-26152607D01*
X96631385Y-26085568D01*
X96648014Y-26064931D01*
X100283238Y-22429706D01*
X100344559Y-22396223D01*
X100403006Y-22397613D01*
G37*
%TD.AperFunction*%
%TA.AperFunction,Conductor*%
G36*
X110145734Y-32306785D02*
G01*
X110191489Y-32359589D01*
X110202098Y-32423254D01*
X110195859Y-32486600D01*
X110209963Y-32629806D01*
X110196944Y-32698452D01*
X110148879Y-32749162D01*
X110081028Y-32765837D01*
X110074406Y-32765363D01*
X109931200Y-32751259D01*
X109787993Y-32765363D01*
X109719347Y-32752344D01*
X109668636Y-32704279D01*
X109651962Y-32636428D01*
X109652434Y-32629830D01*
X109666541Y-32486600D01*
X109664632Y-32467226D01*
X109677649Y-32398583D01*
X109700356Y-32367389D01*
X109744330Y-32323417D01*
X109805654Y-32289933D01*
X109832009Y-32287100D01*
X110078695Y-32287100D01*
X110145734Y-32306785D01*
G37*
%TD.AperFunction*%
%TA.AperFunction,Conductor*%
G36*
X116519331Y-32107464D02*
G01*
X116568026Y-32157570D01*
X116581901Y-32226048D01*
X116577017Y-32251431D01*
X116565176Y-32290467D01*
X116545859Y-32486600D01*
X116559963Y-32629806D01*
X116546944Y-32698452D01*
X116498879Y-32749162D01*
X116431028Y-32765837D01*
X116424406Y-32765363D01*
X116281200Y-32751259D01*
X116137993Y-32765363D01*
X116069347Y-32752344D01*
X116018636Y-32704279D01*
X116001962Y-32636428D01*
X116002434Y-32629830D01*
X116016541Y-32486600D01*
X116014632Y-32467224D01*
X116027649Y-32398582D01*
X116050351Y-32367393D01*
X116149355Y-32268389D01*
X116191512Y-32243461D01*
X116190639Y-32241442D01*
X116197795Y-32238345D01*
X116197795Y-32238344D01*
X116197798Y-32238344D01*
X116216065Y-32227539D01*
X116233543Y-32218978D01*
X116253271Y-32211168D01*
X116290216Y-32184325D01*
X116299958Y-32177926D01*
X116339265Y-32154681D01*
X116354270Y-32139675D01*
X116369061Y-32127041D01*
X116385473Y-32115117D01*
X116451277Y-32091639D01*
X116519331Y-32107464D01*
G37*
%TD.AperFunction*%
%TA.AperFunction,Conductor*%
G36*
X146628039Y-18434685D02*
G01*
X146673794Y-18487489D01*
X146685000Y-18539000D01*
X146685000Y-110366000D01*
X146665315Y-110433039D01*
X146612511Y-110478794D01*
X146561000Y-110490000D01*
X60901597Y-110490000D01*
X60834558Y-110470315D01*
X60788803Y-110417511D01*
X60778859Y-110348353D01*
X60807884Y-110284797D01*
X60817247Y-110275109D01*
X60910631Y-110188463D01*
X61074182Y-109983376D01*
X61205340Y-109756204D01*
X61259030Y-109619403D01*
X61301174Y-109512023D01*
X61317851Y-109438952D01*
X61359545Y-109256282D01*
X61379148Y-108994700D01*
X61359545Y-108733118D01*
X61322137Y-108569222D01*
X61301174Y-108477376D01*
X61237958Y-108316305D01*
X61205340Y-108233196D01*
X61205339Y-108233195D01*
X61205340Y-108233195D01*
X61129974Y-108102659D01*
X61074182Y-108006024D01*
X60910631Y-107800937D01*
X60718339Y-107622517D01*
X60501604Y-107474749D01*
X60501600Y-107474747D01*
X60501597Y-107474745D01*
X60501596Y-107474744D01*
X60265268Y-107360936D01*
X60265270Y-107360936D01*
X60014605Y-107283616D01*
X60014599Y-107283614D01*
X59755225Y-107244520D01*
X59755218Y-107244520D01*
X59492902Y-107244520D01*
X59492894Y-107244520D01*
X59233520Y-107283614D01*
X59233514Y-107283616D01*
X58982850Y-107360936D01*
X58746523Y-107474744D01*
X58746522Y-107474745D01*
X58529780Y-107622517D01*
X58337491Y-107800935D01*
X58337489Y-107800937D01*
X58173938Y-108006024D01*
X58042780Y-108233195D01*
X57946945Y-108477376D01*
X57888574Y-108733122D01*
X57888573Y-108733127D01*
X57868972Y-108994695D01*
X57868972Y-108994704D01*
X57888573Y-109256272D01*
X57888574Y-109256277D01*
X57946945Y-109512023D01*
X58042780Y-109756204D01*
X58042779Y-109756204D01*
X58125930Y-109900224D01*
X58173938Y-109983376D01*
X58337489Y-110188463D01*
X58430865Y-110275103D01*
X58466619Y-110335129D01*
X58464244Y-110404958D01*
X58424494Y-110462419D01*
X58359988Y-110489267D01*
X58346523Y-110490000D01*
X50899077Y-110490000D01*
X50832038Y-110470315D01*
X50786283Y-110417511D01*
X50776339Y-110348353D01*
X50805364Y-110284797D01*
X50814727Y-110275109D01*
X50908111Y-110188463D01*
X51071662Y-109983376D01*
X51202820Y-109756204D01*
X51256510Y-109619403D01*
X51298654Y-109512023D01*
X51315331Y-109438952D01*
X51357025Y-109256282D01*
X51376628Y-108994700D01*
X51357025Y-108733118D01*
X51319617Y-108569222D01*
X51298654Y-108477376D01*
X51235438Y-108316305D01*
X51202820Y-108233196D01*
X51202819Y-108233195D01*
X51202820Y-108233195D01*
X51127454Y-108102659D01*
X51071662Y-108006024D01*
X50908111Y-107800937D01*
X50715819Y-107622517D01*
X50499084Y-107474749D01*
X50499080Y-107474747D01*
X50499077Y-107474745D01*
X50499076Y-107474744D01*
X50262748Y-107360936D01*
X50262750Y-107360936D01*
X50012085Y-107283616D01*
X50012079Y-107283614D01*
X49752705Y-107244520D01*
X49752698Y-107244520D01*
X49490382Y-107244520D01*
X49490374Y-107244520D01*
X49231000Y-107283614D01*
X49230994Y-107283616D01*
X48980330Y-107360936D01*
X48744003Y-107474744D01*
X48744002Y-107474745D01*
X48527260Y-107622517D01*
X48334971Y-107800935D01*
X48334969Y-107800937D01*
X48171418Y-108006024D01*
X48040260Y-108233195D01*
X47944425Y-108477376D01*
X47886054Y-108733122D01*
X47886053Y-108733127D01*
X47866452Y-108994695D01*
X47866452Y-108994704D01*
X47886053Y-109256272D01*
X47886054Y-109256277D01*
X47944425Y-109512023D01*
X48040260Y-109756204D01*
X48040259Y-109756204D01*
X48123410Y-109900224D01*
X48171418Y-109983376D01*
X48334969Y-110188463D01*
X48428345Y-110275103D01*
X48464099Y-110335129D01*
X48461724Y-110404958D01*
X48421974Y-110462419D01*
X48357468Y-110489267D01*
X48344003Y-110490000D01*
X43939000Y-110490000D01*
X43871961Y-110470315D01*
X43826206Y-110417511D01*
X43815000Y-110366000D01*
X43815000Y-98999804D01*
X45369632Y-98999804D01*
X45389233Y-99261372D01*
X45389234Y-99261377D01*
X45447605Y-99517123D01*
X45543440Y-99761304D01*
X45543439Y-99761304D01*
X45620701Y-99895124D01*
X45674598Y-99988476D01*
X45838149Y-100193563D01*
X46030441Y-100371983D01*
X46247176Y-100519751D01*
X46247181Y-100519753D01*
X46247182Y-100519754D01*
X46247183Y-100519755D01*
X46372701Y-100580200D01*
X46483510Y-100633563D01*
X46483511Y-100633563D01*
X46483514Y-100633565D01*
X46734176Y-100710884D01*
X46734177Y-100710884D01*
X46734180Y-100710885D01*
X46993554Y-100749979D01*
X46993559Y-100749979D01*
X46993562Y-100749980D01*
X46993563Y-100749980D01*
X47255877Y-100749980D01*
X47255878Y-100749980D01*
X47272730Y-100747440D01*
X47515259Y-100710885D01*
X47515260Y-100710884D01*
X47515264Y-100710884D01*
X47765926Y-100633565D01*
X48002264Y-100519751D01*
X48218999Y-100371983D01*
X48411291Y-100193563D01*
X48574842Y-99988476D01*
X48706000Y-99761304D01*
X48776980Y-99580449D01*
X48801834Y-99517123D01*
X48835797Y-99368319D01*
X48860205Y-99261382D01*
X48860206Y-99261372D01*
X48879808Y-98999804D01*
X48879808Y-98999795D01*
X48879618Y-98997264D01*
X52867712Y-98997264D01*
X52887313Y-99258832D01*
X52887314Y-99258837D01*
X52887314Y-99258841D01*
X52887315Y-99258842D01*
X52890897Y-99274534D01*
X52945685Y-99514583D01*
X53041520Y-99758764D01*
X53041519Y-99758764D01*
X53104672Y-99868146D01*
X53172678Y-99985936D01*
X53336229Y-100191023D01*
X53528521Y-100369443D01*
X53745256Y-100517211D01*
X53745261Y-100517213D01*
X53745262Y-100517214D01*
X53745263Y-100517215D01*
X53870781Y-100577660D01*
X53981590Y-100631023D01*
X53981591Y-100631023D01*
X53981594Y-100631025D01*
X54232256Y-100708344D01*
X54232257Y-100708344D01*
X54232260Y-100708345D01*
X54491634Y-100747439D01*
X54491639Y-100747439D01*
X54491642Y-100747440D01*
X54491643Y-100747440D01*
X54753957Y-100747440D01*
X54753958Y-100747440D01*
X54780331Y-100743465D01*
X55013339Y-100708345D01*
X55013340Y-100708344D01*
X55013344Y-100708344D01*
X55264006Y-100631025D01*
X55450757Y-100541090D01*
X55500336Y-100517215D01*
X55500336Y-100517214D01*
X55500344Y-100517211D01*
X55717079Y-100369443D01*
X55909371Y-100191023D01*
X56072922Y-99985936D01*
X56204080Y-99758764D01*
X56274063Y-99580449D01*
X56299914Y-99514583D01*
X56325427Y-99402800D01*
X56358285Y-99258842D01*
X56360231Y-99232872D01*
X56377888Y-98997264D01*
X56377888Y-98997255D01*
X56358286Y-98735687D01*
X56358285Y-98735682D01*
X56358285Y-98735678D01*
X56300494Y-98482479D01*
X56299914Y-98479936D01*
X56215631Y-98265188D01*
X56204080Y-98235756D01*
X56204079Y-98235755D01*
X56204080Y-98235755D01*
X56143982Y-98131663D01*
X56072922Y-98008584D01*
X55909371Y-97803497D01*
X55717079Y-97625077D01*
X55500344Y-97477309D01*
X55500340Y-97477307D01*
X55500337Y-97477305D01*
X55500336Y-97477304D01*
X55264008Y-97363496D01*
X55264010Y-97363496D01*
X55013345Y-97286176D01*
X55013339Y-97286174D01*
X54753965Y-97247080D01*
X54753958Y-97247080D01*
X54491642Y-97247080D01*
X54491634Y-97247080D01*
X54232260Y-97286174D01*
X54232254Y-97286176D01*
X53981590Y-97363496D01*
X53745263Y-97477304D01*
X53745262Y-97477305D01*
X53528520Y-97625077D01*
X53336231Y-97803495D01*
X53336229Y-97803497D01*
X53172678Y-98008584D01*
X53041520Y-98235755D01*
X52945685Y-98479936D01*
X52887314Y-98735682D01*
X52887313Y-98735687D01*
X52867712Y-98997255D01*
X52867712Y-98997264D01*
X48879618Y-98997264D01*
X48860206Y-98738227D01*
X48860205Y-98738222D01*
X48860205Y-98738218D01*
X48822977Y-98575113D01*
X48801834Y-98482476D01*
X48709840Y-98248080D01*
X48706000Y-98238296D01*
X48705999Y-98238294D01*
X48704707Y-98235002D01*
X48698538Y-98165406D01*
X48730976Y-98103522D01*
X48791721Y-98068999D01*
X48861487Y-98072798D01*
X48873926Y-98077975D01*
X48985414Y-98131665D01*
X49236076Y-98208984D01*
X49236077Y-98208984D01*
X49236080Y-98208985D01*
X49495454Y-98248079D01*
X49495459Y-98248079D01*
X49495462Y-98248080D01*
X49495463Y-98248080D01*
X49757777Y-98248080D01*
X49757778Y-98248080D01*
X49757785Y-98248079D01*
X50017159Y-98208985D01*
X50017160Y-98208984D01*
X50017164Y-98208984D01*
X50267826Y-98131665D01*
X50504164Y-98017851D01*
X50720899Y-97870083D01*
X50913191Y-97691663D01*
X51076742Y-97486576D01*
X51207900Y-97259404D01*
X51276152Y-97085500D01*
X51303734Y-97015223D01*
X51320411Y-96942152D01*
X51362105Y-96759482D01*
X51363813Y-96736692D01*
X51381708Y-96497904D01*
X57863892Y-96497904D01*
X57883493Y-96759472D01*
X57883494Y-96759477D01*
X57941865Y-97015223D01*
X58037700Y-97259404D01*
X58037699Y-97259404D01*
X58099264Y-97366036D01*
X58168858Y-97486576D01*
X58332409Y-97691663D01*
X58524701Y-97870083D01*
X58741436Y-98017851D01*
X58741441Y-98017853D01*
X58741442Y-98017854D01*
X58741443Y-98017855D01*
X58830901Y-98060935D01*
X58977770Y-98131663D01*
X58977771Y-98131663D01*
X58977774Y-98131665D01*
X59228436Y-98208984D01*
X59228437Y-98208984D01*
X59228440Y-98208985D01*
X59487814Y-98248079D01*
X59487819Y-98248079D01*
X59487822Y-98248080D01*
X59487823Y-98248080D01*
X59750137Y-98248080D01*
X59750138Y-98248080D01*
X59750145Y-98248079D01*
X60009519Y-98208985D01*
X60009520Y-98208984D01*
X60009524Y-98208984D01*
X60260186Y-98131665D01*
X60371665Y-98077979D01*
X60440603Y-98066628D01*
X60504738Y-98094350D01*
X60543704Y-98152345D01*
X60545129Y-98222200D01*
X60540892Y-98235002D01*
X60443765Y-98482476D01*
X60385394Y-98738222D01*
X60385393Y-98738227D01*
X60365792Y-98999795D01*
X60365792Y-98999804D01*
X60385393Y-99261372D01*
X60385394Y-99261377D01*
X60443765Y-99517123D01*
X60539600Y-99761304D01*
X60539599Y-99761304D01*
X60616861Y-99895124D01*
X60670758Y-99988476D01*
X60834309Y-100193563D01*
X61026601Y-100371983D01*
X61243336Y-100519751D01*
X61243341Y-100519753D01*
X61243342Y-100519754D01*
X61243343Y-100519755D01*
X61368861Y-100580200D01*
X61479670Y-100633563D01*
X61479671Y-100633563D01*
X61479674Y-100633565D01*
X61730336Y-100710884D01*
X61730337Y-100710884D01*
X61730340Y-100710885D01*
X61989714Y-100749979D01*
X61989719Y-100749979D01*
X61989722Y-100749980D01*
X61989723Y-100749980D01*
X62252037Y-100749980D01*
X62252038Y-100749980D01*
X62268890Y-100747440D01*
X62511419Y-100710885D01*
X62511420Y-100710884D01*
X62511424Y-100710884D01*
X62762086Y-100633565D01*
X62998424Y-100519751D01*
X63215159Y-100371983D01*
X63407451Y-100193563D01*
X63571002Y-99988476D01*
X63702160Y-99761304D01*
X63773140Y-99580449D01*
X63797994Y-99517123D01*
X63825031Y-99398663D01*
X63849261Y-99292506D01*
X63883367Y-99231532D01*
X63945028Y-99198673D01*
X64014666Y-99204368D01*
X64057831Y-99232421D01*
X65456107Y-100630697D01*
X65489592Y-100692020D01*
X65490266Y-100737742D01*
X65490414Y-100737756D01*
X65490287Y-100739125D01*
X65490317Y-100741153D01*
X65489884Y-100743465D01*
X65469357Y-100964999D01*
X65469357Y-100965000D01*
X65489884Y-101186535D01*
X65489885Y-101186537D01*
X65550769Y-101400523D01*
X65550775Y-101400538D01*
X65649938Y-101599683D01*
X65649943Y-101599691D01*
X65784020Y-101777238D01*
X65948437Y-101927123D01*
X65948439Y-101927125D01*
X66137595Y-102044245D01*
X66137596Y-102044245D01*
X66137599Y-102044247D01*
X66345060Y-102124618D01*
X66563757Y-102165500D01*
X66563759Y-102165500D01*
X66786241Y-102165500D01*
X66786243Y-102165500D01*
X67004940Y-102124618D01*
X67212401Y-102044247D01*
X67401562Y-101927124D01*
X67565981Y-101777236D01*
X67700058Y-101599689D01*
X67799229Y-101400528D01*
X67810848Y-101359690D01*
X67848127Y-101300597D01*
X67911437Y-101271040D01*
X67980676Y-101280402D01*
X68033863Y-101325712D01*
X68054110Y-101392583D01*
X68053642Y-101404432D01*
X68036532Y-101599998D01*
X68036532Y-101600001D01*
X68056364Y-101826686D01*
X68056366Y-101826697D01*
X68115258Y-102046488D01*
X68115261Y-102046497D01*
X68211431Y-102252732D01*
X68211432Y-102252734D01*
X68341954Y-102439141D01*
X68502858Y-102600045D01*
X68502861Y-102600047D01*
X68689266Y-102730568D01*
X68895504Y-102826739D01*
X69115308Y-102885635D01*
X69277230Y-102899801D01*
X69341998Y-102905468D01*
X69342000Y-102905468D01*
X69342002Y-102905468D01*
X69398673Y-102900509D01*
X69568692Y-102885635D01*
X69788496Y-102826739D01*
X69994734Y-102730568D01*
X70181139Y-102600047D01*
X70342047Y-102439139D01*
X70472568Y-102252734D01*
X70568739Y-102046496D01*
X70627635Y-101826692D01*
X70647468Y-101600000D01*
X70627635Y-101373308D01*
X70568739Y-101153504D01*
X70472568Y-100947266D01*
X70342047Y-100760861D01*
X70342045Y-100760858D01*
X70181141Y-100599954D01*
X69994734Y-100469432D01*
X69994732Y-100469431D01*
X69788497Y-100373261D01*
X69788488Y-100373258D01*
X69568697Y-100314366D01*
X69568693Y-100314365D01*
X69568692Y-100314365D01*
X69568691Y-100314364D01*
X69568686Y-100314364D01*
X69342002Y-100294532D01*
X69341998Y-100294532D01*
X69115313Y-100314364D01*
X69115302Y-100314366D01*
X68895511Y-100373258D01*
X68895502Y-100373261D01*
X68689267Y-100469431D01*
X68689265Y-100469432D01*
X68502858Y-100599954D01*
X68341954Y-100760858D01*
X68211432Y-100947265D01*
X68211431Y-100947267D01*
X68115261Y-101153502D01*
X68115258Y-101153512D01*
X68107914Y-101180919D01*
X68071548Y-101240578D01*
X68008700Y-101271106D01*
X67939325Y-101262809D01*
X67885448Y-101218322D01*
X67864175Y-101151770D01*
X67864668Y-101137395D01*
X67880643Y-100965000D01*
X67860115Y-100743464D01*
X67799229Y-100529472D01*
X67799224Y-100529461D01*
X67700061Y-100330316D01*
X67700056Y-100330308D01*
X67565979Y-100152761D01*
X67401562Y-100002876D01*
X67401560Y-100002874D01*
X67212404Y-99885754D01*
X67212398Y-99885752D01*
X67004940Y-99805382D01*
X66786243Y-99764500D01*
X66563757Y-99764500D01*
X66519623Y-99772749D01*
X66455571Y-99784723D01*
X66386056Y-99777691D01*
X66345106Y-99750515D01*
X62708703Y-96114112D01*
X62698880Y-96101850D01*
X62698659Y-96102034D01*
X62693686Y-96096022D01*
X62644676Y-96049999D01*
X62641877Y-96047286D01*
X62622377Y-96027785D01*
X62622371Y-96027780D01*
X62619186Y-96025309D01*
X62610334Y-96017748D01*
X62578482Y-95987838D01*
X62578480Y-95987836D01*
X62578477Y-95987835D01*
X62560929Y-95978188D01*
X62544663Y-95967504D01*
X62528832Y-95955224D01*
X62488749Y-95937878D01*
X62478263Y-95932741D01*
X62439994Y-95911703D01*
X62439992Y-95911702D01*
X62420593Y-95906722D01*
X62402181Y-95900418D01*
X62383798Y-95892462D01*
X62383792Y-95892460D01*
X62340660Y-95885629D01*
X62329222Y-95883261D01*
X62286920Y-95872400D01*
X62286919Y-95872400D01*
X62266884Y-95872400D01*
X62247486Y-95870873D01*
X62240062Y-95869697D01*
X62227705Y-95867740D01*
X62227704Y-95867740D01*
X62184225Y-95871850D01*
X62172556Y-95872400D01*
X61338179Y-95872400D01*
X61271140Y-95852715D01*
X61225385Y-95799911D01*
X61222751Y-95793702D01*
X61214981Y-95773907D01*
X61200260Y-95736396D01*
X61200259Y-95736395D01*
X61200260Y-95736395D01*
X61144243Y-95639372D01*
X61069102Y-95509224D01*
X60905551Y-95304137D01*
X60713259Y-95125717D01*
X60496524Y-94977949D01*
X60496520Y-94977947D01*
X60496517Y-94977945D01*
X60496516Y-94977944D01*
X60260188Y-94864136D01*
X60260190Y-94864136D01*
X60009525Y-94786816D01*
X60009519Y-94786814D01*
X59750145Y-94747720D01*
X59750138Y-94747720D01*
X59487822Y-94747720D01*
X59487814Y-94747720D01*
X59228440Y-94786814D01*
X59228434Y-94786816D01*
X58977770Y-94864136D01*
X58741443Y-94977944D01*
X58741442Y-94977945D01*
X58524700Y-95125717D01*
X58332411Y-95304135D01*
X58332409Y-95304137D01*
X58168858Y-95509224D01*
X58037700Y-95736395D01*
X57941865Y-95980576D01*
X57883494Y-96236322D01*
X57883493Y-96236327D01*
X57863892Y-96497895D01*
X57863892Y-96497904D01*
X51381708Y-96497904D01*
X51381708Y-96497895D01*
X51362106Y-96236327D01*
X51362105Y-96236322D01*
X51362105Y-96236318D01*
X51314509Y-96027785D01*
X51303734Y-95980576D01*
X51240518Y-95819505D01*
X51207900Y-95736396D01*
X51207899Y-95736395D01*
X51207900Y-95736395D01*
X51151883Y-95639372D01*
X51076742Y-95509224D01*
X50913191Y-95304137D01*
X50720899Y-95125717D01*
X50504164Y-94977949D01*
X50504160Y-94977947D01*
X50504157Y-94977945D01*
X50504156Y-94977944D01*
X50267828Y-94864136D01*
X50267830Y-94864136D01*
X50017165Y-94786816D01*
X50017159Y-94786814D01*
X49757785Y-94747720D01*
X49757778Y-94747720D01*
X49495462Y-94747720D01*
X49495454Y-94747720D01*
X49236080Y-94786814D01*
X49236074Y-94786816D01*
X48985410Y-94864136D01*
X48749083Y-94977944D01*
X48749082Y-94977945D01*
X48532340Y-95125717D01*
X48340051Y-95304135D01*
X48340049Y-95304137D01*
X48176498Y-95509224D01*
X48045340Y-95736395D01*
X47949505Y-95980576D01*
X47891134Y-96236322D01*
X47891133Y-96236327D01*
X47871532Y-96497895D01*
X47871532Y-96497904D01*
X47891133Y-96759472D01*
X47891134Y-96759477D01*
X47949505Y-97015223D01*
X48046632Y-97262697D01*
X48052801Y-97332294D01*
X48020363Y-97394177D01*
X47959618Y-97428700D01*
X47889852Y-97424901D01*
X47877403Y-97419719D01*
X47765928Y-97366036D01*
X47765930Y-97366036D01*
X47515265Y-97288716D01*
X47515259Y-97288714D01*
X47255885Y-97249620D01*
X47255878Y-97249620D01*
X46993562Y-97249620D01*
X46993554Y-97249620D01*
X46734180Y-97288714D01*
X46734174Y-97288716D01*
X46483510Y-97366036D01*
X46247183Y-97479844D01*
X46247182Y-97479845D01*
X46030440Y-97627617D01*
X45838151Y-97806035D01*
X45838149Y-97806037D01*
X45674598Y-98011124D01*
X45543440Y-98238295D01*
X45447605Y-98482476D01*
X45389234Y-98738222D01*
X45389233Y-98738227D01*
X45369632Y-98999795D01*
X45369632Y-98999804D01*
X43815000Y-98999804D01*
X43815000Y-21852870D01*
X46909500Y-21852870D01*
X46909501Y-21852876D01*
X46915908Y-21912483D01*
X46966202Y-22047328D01*
X46966206Y-22047335D01*
X47052452Y-22162544D01*
X47052455Y-22162547D01*
X47167664Y-22248793D01*
X47167671Y-22248797D01*
X47302517Y-22299091D01*
X47302516Y-22299091D01*
X47309444Y-22299835D01*
X47362127Y-22305500D01*
X49157872Y-22305499D01*
X49217483Y-22299091D01*
X49352331Y-22248796D01*
X49467546Y-22162546D01*
X49553796Y-22047331D01*
X49602810Y-21915916D01*
X49644681Y-21859984D01*
X49710145Y-21835566D01*
X49778418Y-21850417D01*
X49806673Y-21871569D01*
X49928599Y-21993495D01*
X50012834Y-22052477D01*
X50122165Y-22129032D01*
X50122167Y-22129033D01*
X50122170Y-22129035D01*
X50336337Y-22228903D01*
X50564592Y-22290063D01*
X50741034Y-22305500D01*
X50799999Y-22310659D01*
X50800000Y-22310659D01*
X50800001Y-22310659D01*
X50858966Y-22305500D01*
X51035408Y-22290063D01*
X51263663Y-22228903D01*
X51477830Y-22129035D01*
X51671401Y-21993495D01*
X51838495Y-21826401D01*
X51968425Y-21640842D01*
X52023002Y-21597217D01*
X52092500Y-21590023D01*
X52154855Y-21621546D01*
X52171575Y-21640842D01*
X52301500Y-21826395D01*
X52301505Y-21826401D01*
X52468599Y-21993495D01*
X52552834Y-22052477D01*
X52662165Y-22129032D01*
X52662167Y-22129033D01*
X52662170Y-22129035D01*
X52876337Y-22228903D01*
X53104592Y-22290063D01*
X53281034Y-22305500D01*
X53339999Y-22310659D01*
X53340000Y-22310659D01*
X53340001Y-22310659D01*
X53398966Y-22305500D01*
X53575408Y-22290063D01*
X53803663Y-22228903D01*
X54017830Y-22129035D01*
X54211401Y-21993495D01*
X54225026Y-21979870D01*
X63800500Y-21979870D01*
X63800501Y-21979876D01*
X63806908Y-22039483D01*
X63857202Y-22174328D01*
X63857206Y-22174335D01*
X63943452Y-22289544D01*
X63943455Y-22289547D01*
X64058664Y-22375793D01*
X64058671Y-22375797D01*
X64101063Y-22391608D01*
X64193517Y-22426091D01*
X64253127Y-22432500D01*
X64276497Y-22432499D01*
X64343536Y-22452181D01*
X64389292Y-22504983D01*
X64400500Y-22556499D01*
X64400500Y-29354894D01*
X64399191Y-29372863D01*
X64395710Y-29396625D01*
X64400028Y-29445968D01*
X64400500Y-29456776D01*
X64400500Y-29462311D01*
X64404098Y-29493095D01*
X64404464Y-29496683D01*
X64411000Y-29571391D01*
X64412461Y-29578467D01*
X64412403Y-29578478D01*
X64414034Y-29585837D01*
X64414092Y-29585824D01*
X64415757Y-29592849D01*
X64415758Y-29592854D01*
X64415759Y-29592855D01*
X64435223Y-29646335D01*
X64441400Y-29663305D01*
X64442582Y-29666707D01*
X64466182Y-29737926D01*
X64469236Y-29744474D01*
X64469182Y-29744498D01*
X64472470Y-29751288D01*
X64472521Y-29751263D01*
X64475761Y-29757714D01*
X64516979Y-29820384D01*
X64518889Y-29823382D01*
X64527453Y-29837265D01*
X64558289Y-29887258D01*
X64562766Y-29892919D01*
X64562719Y-29892956D01*
X64567482Y-29898802D01*
X64567528Y-29898764D01*
X64572173Y-29904299D01*
X64626708Y-29955750D01*
X64629296Y-29958264D01*
X65968000Y-31296968D01*
X67286528Y-32615495D01*
X67316778Y-32664858D01*
X67372118Y-32835177D01*
X67372121Y-32835184D01*
X67432187Y-32939221D01*
X67448800Y-33001221D01*
X67448800Y-81719794D01*
X67447491Y-81737763D01*
X67444010Y-81761525D01*
X67448328Y-81810868D01*
X67448800Y-81821676D01*
X67448800Y-81827211D01*
X67452398Y-81857995D01*
X67452764Y-81861583D01*
X67459300Y-81936291D01*
X67460761Y-81943367D01*
X67460703Y-81943378D01*
X67462334Y-81950737D01*
X67462392Y-81950724D01*
X67464057Y-81957749D01*
X67489700Y-82028205D01*
X67490882Y-82031607D01*
X67514482Y-82102826D01*
X67517536Y-82109374D01*
X67517482Y-82109398D01*
X67520770Y-82116188D01*
X67520821Y-82116163D01*
X67524061Y-82122614D01*
X67565279Y-82185284D01*
X67567189Y-82188282D01*
X67598272Y-82238674D01*
X67606589Y-82252158D01*
X67611066Y-82257819D01*
X67611019Y-82257856D01*
X67615782Y-82263702D01*
X67615828Y-82263664D01*
X67620473Y-82269199D01*
X67675008Y-82320650D01*
X67677596Y-82323164D01*
X70591750Y-85237318D01*
X70625235Y-85298641D01*
X70620251Y-85368333D01*
X70591750Y-85412680D01*
X70380858Y-85623572D01*
X70367229Y-85635351D01*
X70347969Y-85649690D01*
X70316132Y-85687631D01*
X70308846Y-85695584D01*
X70304907Y-85699524D01*
X70285676Y-85723845D01*
X70283402Y-85726637D01*
X70235194Y-85784090D01*
X70231229Y-85790119D01*
X70231182Y-85790088D01*
X70227130Y-85796447D01*
X70227179Y-85796477D01*
X70223389Y-85802621D01*
X70191692Y-85870594D01*
X70190123Y-85873836D01*
X70156457Y-85940872D01*
X70153988Y-85947657D01*
X70153932Y-85947636D01*
X70151460Y-85954750D01*
X70151515Y-85954769D01*
X70149243Y-85961625D01*
X70134073Y-86035088D01*
X70133293Y-86038604D01*
X70115999Y-86111579D01*
X70115161Y-86118754D01*
X70115101Y-86118747D01*
X70114335Y-86126245D01*
X70114395Y-86126251D01*
X70113765Y-86133440D01*
X70115948Y-86208428D01*
X70116000Y-86212035D01*
X70116000Y-89933154D01*
X70115790Y-89940364D01*
X70112168Y-90002533D01*
X70112169Y-90002535D01*
X70122982Y-90063863D01*
X70124027Y-90070996D01*
X70131257Y-90132849D01*
X70131261Y-90132864D01*
X70135094Y-90143395D01*
X70140686Y-90164264D01*
X70142633Y-90175308D01*
X70142634Y-90175310D01*
X70145648Y-90182296D01*
X70167301Y-90232496D01*
X70169959Y-90239185D01*
X70191262Y-90297716D01*
X70197424Y-90307084D01*
X70207679Y-90326104D01*
X70212120Y-90336399D01*
X70212124Y-90336406D01*
X70249314Y-90386360D01*
X70253440Y-90392252D01*
X70287670Y-90444296D01*
X70295830Y-90451995D01*
X70310190Y-90468131D01*
X70316890Y-90477130D01*
X70364602Y-90517165D01*
X70369991Y-90521962D01*
X70415278Y-90564690D01*
X70415280Y-90564690D01*
X70415282Y-90564692D01*
X70424989Y-90570296D01*
X70442695Y-90582694D01*
X70451286Y-90589902D01*
X70451287Y-90589902D01*
X70451289Y-90589904D01*
X70506938Y-90617851D01*
X70513264Y-90621261D01*
X70567219Y-90652412D01*
X70577963Y-90655628D01*
X70598044Y-90663606D01*
X70608067Y-90668640D01*
X70621810Y-90671897D01*
X70668674Y-90683005D01*
X70675636Y-90684870D01*
X70735290Y-90702730D01*
X70746478Y-90703381D01*
X70767872Y-90706514D01*
X70778779Y-90709100D01*
X70841055Y-90709100D01*
X70848264Y-90709309D01*
X70910435Y-90712931D01*
X70910443Y-90712929D01*
X70917644Y-90712511D01*
X70917768Y-90714642D01*
X70976768Y-90721221D01*
X71016545Y-90747913D01*
X72726451Y-92457819D01*
X72759936Y-92519142D01*
X72754952Y-92588834D01*
X72713080Y-92644767D01*
X72647616Y-92669184D01*
X72638770Y-92669500D01*
X71152129Y-92669500D01*
X71152123Y-92669501D01*
X71092516Y-92675908D01*
X70957671Y-92726202D01*
X70957664Y-92726206D01*
X70842455Y-92812452D01*
X70766522Y-92913884D01*
X70710588Y-92955755D01*
X70640896Y-92960738D01*
X70579573Y-92927252D01*
X70567994Y-92913889D01*
X70499546Y-92822454D01*
X70470238Y-92800514D01*
X70384335Y-92736206D01*
X70384328Y-92736202D01*
X70249482Y-92685908D01*
X70249483Y-92685908D01*
X70189883Y-92679501D01*
X70189881Y-92679500D01*
X70189873Y-92679500D01*
X70189864Y-92679500D01*
X68494129Y-92679500D01*
X68494123Y-92679501D01*
X68434516Y-92685908D01*
X68299671Y-92736202D01*
X68299664Y-92736206D01*
X68184455Y-92822452D01*
X68184452Y-92822455D01*
X68098206Y-92937664D01*
X68098202Y-92937671D01*
X68047908Y-93072517D01*
X68041501Y-93132116D01*
X68041500Y-93132135D01*
X68041500Y-93547191D01*
X68021815Y-93614230D01*
X68005181Y-93634872D01*
X66975105Y-94664947D01*
X66913782Y-94698432D01*
X66864640Y-94699154D01*
X66786243Y-94684500D01*
X66563757Y-94684500D01*
X66345060Y-94725382D01*
X66213864Y-94776207D01*
X66137601Y-94805752D01*
X66137595Y-94805754D01*
X65948439Y-94922874D01*
X65948437Y-94922876D01*
X65784020Y-95072761D01*
X65649943Y-95250308D01*
X65649938Y-95250316D01*
X65550775Y-95449461D01*
X65550769Y-95449476D01*
X65489885Y-95663462D01*
X65489884Y-95663464D01*
X65469357Y-95884999D01*
X65469357Y-95885000D01*
X65489884Y-96106535D01*
X65489885Y-96106537D01*
X65550769Y-96320523D01*
X65550775Y-96320538D01*
X65649938Y-96519683D01*
X65649943Y-96519691D01*
X65784020Y-96697238D01*
X65948437Y-96847123D01*
X65948439Y-96847125D01*
X66137595Y-96964245D01*
X66137596Y-96964245D01*
X66137599Y-96964247D01*
X66345060Y-97044618D01*
X66563757Y-97085500D01*
X66563759Y-97085500D01*
X66786241Y-97085500D01*
X66786243Y-97085500D01*
X67004940Y-97044618D01*
X67212401Y-96964247D01*
X67401562Y-96847124D01*
X67565981Y-96697236D01*
X67700058Y-96519689D01*
X67799229Y-96320528D01*
X67860115Y-96106536D01*
X67880643Y-95885000D01*
X67880616Y-95884714D01*
X67868923Y-95758519D01*
X67861785Y-95681489D01*
X67875200Y-95612922D01*
X67897572Y-95582372D01*
X68211624Y-95268320D01*
X68272945Y-95234837D01*
X68342633Y-95239820D01*
X68434517Y-95274091D01*
X68494127Y-95280500D01*
X70189872Y-95280499D01*
X70249483Y-95274091D01*
X70384331Y-95223796D01*
X70499546Y-95137546D01*
X70575477Y-95036115D01*
X70631410Y-94994245D01*
X70701102Y-94989261D01*
X70762425Y-95022746D01*
X70774006Y-95036111D01*
X70842454Y-95127546D01*
X70855814Y-95137547D01*
X70957664Y-95213793D01*
X70957671Y-95213797D01*
X70977276Y-95221109D01*
X71092517Y-95264091D01*
X71127596Y-95267862D01*
X71192144Y-95294599D01*
X71231993Y-95351991D01*
X71234488Y-95421816D01*
X71198836Y-95481905D01*
X71185464Y-95492725D01*
X71160858Y-95509954D01*
X70999954Y-95670858D01*
X70869432Y-95857265D01*
X70869431Y-95857267D01*
X70773261Y-96063502D01*
X70773258Y-96063511D01*
X70714366Y-96283302D01*
X70714364Y-96283313D01*
X70694532Y-96509998D01*
X70694532Y-96510001D01*
X70714364Y-96736686D01*
X70714366Y-96736697D01*
X70773258Y-96956488D01*
X70773261Y-96956497D01*
X70869431Y-97162732D01*
X70869432Y-97162734D01*
X70999954Y-97349141D01*
X71160858Y-97510045D01*
X71160861Y-97510047D01*
X71347266Y-97640568D01*
X71405275Y-97667618D01*
X71457714Y-97713791D01*
X71476866Y-97780984D01*
X71456650Y-97847865D01*
X71405275Y-97892382D01*
X71347267Y-97919431D01*
X71347265Y-97919432D01*
X71160858Y-98049954D01*
X70999954Y-98210858D01*
X70869432Y-98397265D01*
X70869431Y-98397267D01*
X70773261Y-98603502D01*
X70773258Y-98603511D01*
X70714366Y-98823302D01*
X70714364Y-98823313D01*
X70694532Y-99049998D01*
X70694532Y-99050001D01*
X70714364Y-99276686D01*
X70714366Y-99276697D01*
X70773258Y-99496488D01*
X70773261Y-99496497D01*
X70869431Y-99702732D01*
X70869432Y-99702734D01*
X70999954Y-99889141D01*
X71160858Y-100050045D01*
X71160861Y-100050047D01*
X71347266Y-100180568D01*
X71553504Y-100276739D01*
X71773308Y-100335635D01*
X71943214Y-100350499D01*
X71943215Y-100350500D01*
X71943216Y-100350500D01*
X72856785Y-100350500D01*
X72856785Y-100350499D01*
X73026692Y-100335635D01*
X73246496Y-100276739D01*
X73452734Y-100180568D01*
X73639139Y-100050047D01*
X73714137Y-99975049D01*
X73801819Y-99887368D01*
X73863142Y-99853883D01*
X73932834Y-99858867D01*
X73988767Y-99900739D01*
X74013184Y-99966203D01*
X74013500Y-99975049D01*
X74013500Y-105272010D01*
X73993815Y-105339049D01*
X73941011Y-105384804D01*
X73900308Y-105395538D01*
X73678596Y-105414936D01*
X73678586Y-105414938D01*
X73450344Y-105476094D01*
X73450335Y-105476098D01*
X73236171Y-105575964D01*
X73236169Y-105575965D01*
X73042597Y-105711505D01*
X72875505Y-105878597D01*
X72739965Y-106072169D01*
X72739964Y-106072171D01*
X72640098Y-106286335D01*
X72640094Y-106286344D01*
X72578938Y-106514586D01*
X72578936Y-106514596D01*
X72558341Y-106749999D01*
X72558341Y-106750000D01*
X72578936Y-106985403D01*
X72578938Y-106985413D01*
X72640094Y-107213655D01*
X72640096Y-107213659D01*
X72640097Y-107213663D01*
X72723358Y-107392217D01*
X72739965Y-107427830D01*
X72739967Y-107427834D01*
X72848281Y-107582521D01*
X72875505Y-107621401D01*
X73042599Y-107788495D01*
X73124001Y-107845493D01*
X73236165Y-107924032D01*
X73236167Y-107924033D01*
X73236170Y-107924035D01*
X73450337Y-108023903D01*
X73678592Y-108085063D01*
X73855034Y-108100500D01*
X73913999Y-108105659D01*
X73914000Y-108105659D01*
X73914001Y-108105659D01*
X73972966Y-108100500D01*
X74149408Y-108085063D01*
X74377663Y-108023903D01*
X74591830Y-107924035D01*
X74785401Y-107788495D01*
X74952495Y-107621401D01*
X75088035Y-107427830D01*
X75187903Y-107213663D01*
X75249063Y-106985408D01*
X75269659Y-106750000D01*
X75269396Y-106746999D01*
X75251551Y-106543031D01*
X75265317Y-106474531D01*
X75280088Y-106452519D01*
X75282526Y-106449612D01*
X75282530Y-106449610D01*
X75314382Y-106411649D01*
X75321671Y-106403694D01*
X75325591Y-106399776D01*
X75344853Y-106375413D01*
X75347076Y-106372686D01*
X75361522Y-106355470D01*
X75395302Y-106315214D01*
X75395304Y-106315209D01*
X75399274Y-106309175D01*
X75399325Y-106309208D01*
X75403369Y-106302860D01*
X75403317Y-106302828D01*
X75407106Y-106296682D01*
X75407111Y-106296677D01*
X75438832Y-106228647D01*
X75440358Y-106225496D01*
X75474040Y-106158433D01*
X75474041Y-106158428D01*
X75476508Y-106151650D01*
X75476566Y-106151671D01*
X75479043Y-106144544D01*
X75478986Y-106144526D01*
X75481256Y-106137676D01*
X75483012Y-106129171D01*
X75496439Y-106064139D01*
X75497187Y-106060762D01*
X75514500Y-105987721D01*
X75514500Y-105987717D01*
X75514501Y-105987713D01*
X75515339Y-105980548D01*
X75515398Y-105980554D01*
X75516164Y-105973054D01*
X75516105Y-105973049D01*
X75516734Y-105965859D01*
X75515853Y-105935597D01*
X75514552Y-105890869D01*
X75514500Y-105887262D01*
X75514500Y-93497705D01*
X75515809Y-93479735D01*
X75518827Y-93459130D01*
X75519289Y-93455977D01*
X75518709Y-93449350D01*
X75514972Y-93406630D01*
X75514500Y-93395822D01*
X75514500Y-93390296D01*
X75514500Y-93390291D01*
X75510901Y-93359509D01*
X75510536Y-93355929D01*
X75503999Y-93281201D01*
X75502539Y-93274129D01*
X75502597Y-93274116D01*
X75500965Y-93266757D01*
X75500906Y-93266772D01*
X75499241Y-93259751D01*
X75499241Y-93259745D01*
X75473569Y-93189212D01*
X75472421Y-93185909D01*
X75448814Y-93114666D01*
X75448810Y-93114659D01*
X75445760Y-93108118D01*
X75445815Y-93108091D01*
X75442533Y-93101313D01*
X75442480Y-93101340D01*
X75439235Y-93094880D01*
X75398025Y-93032223D01*
X75396086Y-93029181D01*
X75390144Y-93019548D01*
X75356712Y-92965345D01*
X75356711Y-92965344D01*
X75356710Y-92965342D01*
X75352234Y-92959682D01*
X75352281Y-92959644D01*
X75347519Y-92953799D01*
X75347474Y-92953838D01*
X75342831Y-92948305D01*
X75288272Y-92896831D01*
X75285685Y-92894318D01*
X71864329Y-89472961D01*
X71852549Y-89459330D01*
X71838210Y-89440070D01*
X71800251Y-89408219D01*
X71792286Y-89400918D01*
X71788380Y-89397011D01*
X71764043Y-89377768D01*
X71761247Y-89375490D01*
X71703814Y-89327298D01*
X71697780Y-89323329D01*
X71697812Y-89323280D01*
X71691453Y-89319228D01*
X71691422Y-89319279D01*
X71679131Y-89311698D01*
X71680327Y-89309758D01*
X71636152Y-89270858D01*
X71617000Y-89204654D01*
X71617000Y-86561529D01*
X71636685Y-86494490D01*
X71653315Y-86473852D01*
X71771749Y-86355417D01*
X71833072Y-86321933D01*
X71859430Y-86319099D01*
X72379071Y-86319099D01*
X72379072Y-86319099D01*
X72438683Y-86312691D01*
X72573531Y-86262396D01*
X72581579Y-86256370D01*
X72647042Y-86231951D01*
X72710674Y-86245495D01*
X72710845Y-86245083D01*
X72713075Y-86246006D01*
X72714346Y-86246277D01*
X72716473Y-86247414D01*
X72905068Y-86304624D01*
X73101200Y-86323941D01*
X73244408Y-86309836D01*
X73313052Y-86322855D01*
X73363762Y-86370920D01*
X73380437Y-86438770D01*
X73379963Y-86445393D01*
X73365859Y-86588599D01*
X73385175Y-86784729D01*
X73442388Y-86973333D01*
X73535286Y-87147132D01*
X73535290Y-87147139D01*
X73660316Y-87299483D01*
X73812660Y-87424509D01*
X73812667Y-87424513D01*
X73986466Y-87517411D01*
X73986469Y-87517411D01*
X73986473Y-87517414D01*
X74175068Y-87574624D01*
X74371200Y-87593941D01*
X74567332Y-87574624D01*
X74755927Y-87517414D01*
X74929738Y-87424510D01*
X74929744Y-87424504D01*
X74934807Y-87421123D01*
X74935903Y-87422764D01*
X74991839Y-87399005D01*
X75060707Y-87410794D01*
X75077348Y-87421488D01*
X75077593Y-87421123D01*
X75082658Y-87424507D01*
X75082662Y-87424510D01*
X75256473Y-87517414D01*
X75445068Y-87574624D01*
X75641200Y-87593941D01*
X75837332Y-87574624D01*
X76025927Y-87517414D01*
X76199738Y-87424510D01*
X76199744Y-87424504D01*
X76204807Y-87421123D01*
X76205903Y-87422764D01*
X76261839Y-87399005D01*
X76330707Y-87410794D01*
X76347348Y-87421488D01*
X76347593Y-87421123D01*
X76352658Y-87424507D01*
X76352662Y-87424510D01*
X76526473Y-87517414D01*
X76715068Y-87574624D01*
X76911200Y-87593941D01*
X77107332Y-87574624D01*
X77295927Y-87517414D01*
X77469738Y-87424510D01*
X77469744Y-87424504D01*
X77474807Y-87421123D01*
X77475903Y-87422764D01*
X77531839Y-87399005D01*
X77600707Y-87410794D01*
X77617348Y-87421488D01*
X77617593Y-87421123D01*
X77622658Y-87424507D01*
X77622662Y-87424510D01*
X77796473Y-87517414D01*
X77985068Y-87574624D01*
X78181200Y-87593941D01*
X78377332Y-87574624D01*
X78525297Y-87529738D01*
X78595162Y-87529115D01*
X78654275Y-87566362D01*
X78683866Y-87629656D01*
X78674541Y-87698901D01*
X78648972Y-87736080D01*
X78070483Y-88314569D01*
X78057910Y-88324643D01*
X78058065Y-88324830D01*
X78052058Y-88329799D01*
X78004133Y-88380833D01*
X78001427Y-88383625D01*
X77981090Y-88403963D01*
X77981077Y-88403978D01*
X77978373Y-88407463D01*
X77970806Y-88416322D01*
X77939552Y-88449607D01*
X77929322Y-88468213D01*
X77918646Y-88484464D01*
X77905640Y-88501232D01*
X77905636Y-88501238D01*
X77887508Y-88543130D01*
X77882369Y-88553619D01*
X77860372Y-88593630D01*
X77860372Y-88593631D01*
X77855091Y-88614199D01*
X77848791Y-88632601D01*
X77840364Y-88652073D01*
X77833223Y-88697162D01*
X77830854Y-88708600D01*
X77819500Y-88752817D01*
X77819500Y-88774044D01*
X77817973Y-88793444D01*
X77814653Y-88814403D01*
X77818950Y-88859858D01*
X77819500Y-88871528D01*
X77819500Y-98831494D01*
X77817732Y-98847505D01*
X77817974Y-98847528D01*
X77817240Y-98855294D01*
X77819439Y-98925262D01*
X77819500Y-98929157D01*
X77819500Y-98957920D01*
X77819501Y-98957938D01*
X77820053Y-98962311D01*
X77820968Y-98973941D01*
X77822402Y-99019567D01*
X77822403Y-99019570D01*
X77828323Y-99039948D01*
X77832268Y-99058996D01*
X77834928Y-99080054D01*
X77834931Y-99080065D01*
X77851737Y-99122514D01*
X77855520Y-99133563D01*
X77868254Y-99177395D01*
X77868255Y-99177397D01*
X77879060Y-99195666D01*
X77887617Y-99213134D01*
X77892795Y-99226211D01*
X77895432Y-99232872D01*
X77922266Y-99269806D01*
X77928678Y-99279568D01*
X77947821Y-99311937D01*
X77951919Y-99318865D01*
X77951923Y-99318869D01*
X77966925Y-99333871D01*
X77979563Y-99348669D01*
X77992033Y-99365833D01*
X77992036Y-99365837D01*
X78027213Y-99394937D01*
X78035854Y-99402800D01*
X78082564Y-99449510D01*
X78092635Y-99462080D01*
X78092822Y-99461926D01*
X78097795Y-99467937D01*
X78148832Y-99515864D01*
X78151629Y-99518575D01*
X78171967Y-99538913D01*
X78175450Y-99541615D01*
X78184326Y-99549196D01*
X78210145Y-99573441D01*
X78217607Y-99580448D01*
X78217609Y-99580449D01*
X78236205Y-99590672D01*
X78252470Y-99601357D01*
X78269232Y-99614360D01*
X78269235Y-99614361D01*
X78269236Y-99614362D01*
X78311140Y-99632495D01*
X78321612Y-99637625D01*
X78361632Y-99659627D01*
X78377340Y-99663659D01*
X78382186Y-99664904D01*
X78400598Y-99671207D01*
X78420073Y-99679635D01*
X78427900Y-99680874D01*
X78491035Y-99710800D01*
X78510080Y-99732223D01*
X78530443Y-99761304D01*
X78619954Y-99889141D01*
X78780858Y-100050045D01*
X78780861Y-100050047D01*
X78967266Y-100180568D01*
X79173504Y-100276739D01*
X79393308Y-100335635D01*
X79563214Y-100350499D01*
X79563215Y-100350500D01*
X79563216Y-100350500D01*
X80476785Y-100350500D01*
X80476785Y-100350499D01*
X80646692Y-100335635D01*
X80866496Y-100276739D01*
X81072734Y-100180568D01*
X81134378Y-100137404D01*
X81200583Y-100115078D01*
X81268350Y-100132088D01*
X81316163Y-100183036D01*
X81329500Y-100238980D01*
X81329500Y-105311506D01*
X81309815Y-105378545D01*
X81257011Y-105424300D01*
X81237593Y-105431281D01*
X81070344Y-105476094D01*
X81070335Y-105476098D01*
X80856171Y-105575964D01*
X80856169Y-105575965D01*
X80662597Y-105711505D01*
X80495505Y-105878597D01*
X80359965Y-106072169D01*
X80359964Y-106072171D01*
X80260098Y-106286335D01*
X80260094Y-106286344D01*
X80198938Y-106514586D01*
X80198936Y-106514596D01*
X80178341Y-106749999D01*
X80178341Y-106750000D01*
X80198936Y-106985403D01*
X80198938Y-106985413D01*
X80260094Y-107213655D01*
X80260096Y-107213659D01*
X80260097Y-107213663D01*
X80343358Y-107392217D01*
X80359965Y-107427830D01*
X80359967Y-107427834D01*
X80468281Y-107582521D01*
X80495505Y-107621401D01*
X80662599Y-107788495D01*
X80744001Y-107845493D01*
X80856165Y-107924032D01*
X80856167Y-107924033D01*
X80856170Y-107924035D01*
X81070337Y-108023903D01*
X81298592Y-108085063D01*
X81475034Y-108100500D01*
X81533999Y-108105659D01*
X81534000Y-108105659D01*
X81534001Y-108105659D01*
X81592966Y-108100500D01*
X81769408Y-108085063D01*
X81997663Y-108023903D01*
X82211830Y-107924035D01*
X82405401Y-107788495D01*
X82572495Y-107621401D01*
X82702425Y-107435842D01*
X82757002Y-107392217D01*
X82826500Y-107385023D01*
X82888855Y-107416546D01*
X82905575Y-107435842D01*
X83035500Y-107621395D01*
X83035505Y-107621401D01*
X83202599Y-107788495D01*
X83284001Y-107845493D01*
X83396165Y-107924032D01*
X83396167Y-107924033D01*
X83396170Y-107924035D01*
X83610337Y-108023903D01*
X83838592Y-108085063D01*
X84015034Y-108100500D01*
X84073999Y-108105659D01*
X84074000Y-108105659D01*
X84074001Y-108105659D01*
X84132966Y-108100500D01*
X84309408Y-108085063D01*
X84537663Y-108023903D01*
X84751830Y-107924035D01*
X84945401Y-107788495D01*
X85067329Y-107666566D01*
X85128648Y-107633084D01*
X85198340Y-107638068D01*
X85254274Y-107679939D01*
X85271189Y-107710917D01*
X85320202Y-107842328D01*
X85320206Y-107842335D01*
X85406452Y-107957544D01*
X85406455Y-107957547D01*
X85521664Y-108043793D01*
X85521671Y-108043797D01*
X85656517Y-108094091D01*
X85656516Y-108094091D01*
X85663444Y-108094835D01*
X85716127Y-108100500D01*
X87511872Y-108100499D01*
X87571483Y-108094091D01*
X87706331Y-108043796D01*
X87821546Y-107957546D01*
X87907796Y-107842331D01*
X87958091Y-107707483D01*
X87964500Y-107647873D01*
X87964500Y-106807000D01*
X101260341Y-106807000D01*
X101280936Y-107042403D01*
X101280938Y-107042413D01*
X101342094Y-107270655D01*
X101342096Y-107270659D01*
X101342097Y-107270663D01*
X101422004Y-107442023D01*
X101441965Y-107484830D01*
X101441967Y-107484834D01*
X101550281Y-107639521D01*
X101577505Y-107678401D01*
X101744599Y-107845495D01*
X101841384Y-107913265D01*
X101938165Y-107981032D01*
X101938167Y-107981033D01*
X101938170Y-107981035D01*
X102152337Y-108080903D01*
X102152343Y-108080904D01*
X102152344Y-108080905D01*
X102175976Y-108087237D01*
X102380592Y-108142063D01*
X102568918Y-108158539D01*
X102615999Y-108162659D01*
X102616000Y-108162659D01*
X102616001Y-108162659D01*
X102655234Y-108159226D01*
X102851408Y-108142063D01*
X103079663Y-108080903D01*
X103293830Y-107981035D01*
X103487401Y-107845495D01*
X103654495Y-107678401D01*
X103790035Y-107484830D01*
X103889903Y-107270663D01*
X103951063Y-107042408D01*
X103971659Y-106807000D01*
X103951063Y-106571592D01*
X103889903Y-106343337D01*
X103790035Y-106129171D01*
X103784425Y-106121158D01*
X103654494Y-105935597D01*
X103487402Y-105768506D01*
X103487396Y-105768501D01*
X103301842Y-105638575D01*
X103258217Y-105583998D01*
X103251023Y-105514500D01*
X103282546Y-105452145D01*
X103301842Y-105435425D01*
X103343995Y-105405909D01*
X103487401Y-105305495D01*
X103654495Y-105138401D01*
X103790035Y-104944830D01*
X103889903Y-104730663D01*
X103951063Y-104502408D01*
X103971659Y-104267000D01*
X103951063Y-104031592D01*
X103889903Y-103803337D01*
X103790035Y-103589171D01*
X103772959Y-103564783D01*
X103654494Y-103395597D01*
X103487402Y-103228506D01*
X103487395Y-103228501D01*
X103293834Y-103092967D01*
X103293830Y-103092965D01*
X103165164Y-103032967D01*
X103079663Y-102993097D01*
X103079659Y-102993096D01*
X103079655Y-102993094D01*
X102851413Y-102931938D01*
X102851403Y-102931936D01*
X102616001Y-102911341D01*
X102615999Y-102911341D01*
X102380596Y-102931936D01*
X102380586Y-102931938D01*
X102152344Y-102993094D01*
X102152335Y-102993098D01*
X101938171Y-103092964D01*
X101938169Y-103092965D01*
X101744597Y-103228505D01*
X101577505Y-103395597D01*
X101441965Y-103589169D01*
X101441964Y-103589171D01*
X101342098Y-103803335D01*
X101342094Y-103803344D01*
X101280938Y-104031586D01*
X101280936Y-104031596D01*
X101260341Y-104266999D01*
X101260341Y-104267000D01*
X101280936Y-104502403D01*
X101280938Y-104502413D01*
X101342094Y-104730655D01*
X101342096Y-104730659D01*
X101342097Y-104730663D01*
X101433564Y-104926815D01*
X101441965Y-104944830D01*
X101441967Y-104944834D01*
X101535493Y-105078402D01*
X101577501Y-105138396D01*
X101577506Y-105138402D01*
X101744597Y-105305493D01*
X101744603Y-105305498D01*
X101930158Y-105435425D01*
X101973783Y-105490002D01*
X101980977Y-105559500D01*
X101949454Y-105621855D01*
X101930158Y-105638575D01*
X101744597Y-105768505D01*
X101577505Y-105935597D01*
X101441965Y-106129169D01*
X101441964Y-106129171D01*
X101342098Y-106343335D01*
X101342094Y-106343344D01*
X101280938Y-106571586D01*
X101280936Y-106571596D01*
X101260341Y-106806999D01*
X101260341Y-106807000D01*
X87964500Y-106807000D01*
X87964499Y-105852128D01*
X87958091Y-105792517D01*
X87949135Y-105768506D01*
X87907797Y-105657671D01*
X87907793Y-105657664D01*
X87821547Y-105542455D01*
X87821544Y-105542452D01*
X87706335Y-105456206D01*
X87706328Y-105456202D01*
X87571482Y-105405908D01*
X87571483Y-105405908D01*
X87511883Y-105399501D01*
X87511881Y-105399500D01*
X87511873Y-105399500D01*
X87511865Y-105399500D01*
X87025400Y-105399500D01*
X86958361Y-105379815D01*
X86912606Y-105327011D01*
X86901400Y-105275500D01*
X86901400Y-88433642D01*
X86903124Y-88418022D01*
X86902839Y-88417995D01*
X86903573Y-88410233D01*
X86901461Y-88343012D01*
X86901400Y-88339118D01*
X86901400Y-88311556D01*
X86901400Y-88311550D01*
X86900896Y-88307568D01*
X86899981Y-88295929D01*
X86898610Y-88252273D01*
X86893019Y-88233030D01*
X86889073Y-88213978D01*
X86886564Y-88194108D01*
X86870479Y-88153483D01*
X86866706Y-88142462D01*
X86854518Y-88100510D01*
X86854517Y-88100509D01*
X86854517Y-88100507D01*
X86854516Y-88100506D01*
X86844323Y-88083271D01*
X86835761Y-88065794D01*
X86828387Y-88047169D01*
X86802716Y-88011837D01*
X86796305Y-88002077D01*
X86774070Y-87964480D01*
X86774068Y-87964478D01*
X86774065Y-87964474D01*
X86759906Y-87950315D01*
X86747268Y-87935519D01*
X86744695Y-87931977D01*
X86735494Y-87919313D01*
X86728936Y-87913888D01*
X86701840Y-87891472D01*
X86693199Y-87883609D01*
X86505332Y-87695742D01*
X86471847Y-87634419D01*
X86476831Y-87564727D01*
X86518703Y-87508794D01*
X86584167Y-87484377D01*
X86651466Y-87498703D01*
X86677126Y-87512418D01*
X86686473Y-87517414D01*
X86875068Y-87574624D01*
X87071200Y-87593941D01*
X87267332Y-87574624D01*
X87455927Y-87517414D01*
X87629738Y-87424510D01*
X87629744Y-87424504D01*
X87634807Y-87421123D01*
X87635903Y-87422764D01*
X87691839Y-87399005D01*
X87760707Y-87410794D01*
X87777348Y-87421488D01*
X87777593Y-87421123D01*
X87782658Y-87424507D01*
X87782662Y-87424510D01*
X87956473Y-87517414D01*
X88145068Y-87574624D01*
X88341200Y-87593941D01*
X88376737Y-87590440D01*
X88445381Y-87603458D01*
X88476572Y-87626162D01*
X88764297Y-87913888D01*
X88774122Y-87926151D01*
X88774343Y-87925969D01*
X88779311Y-87931974D01*
X88779313Y-87931976D01*
X88779314Y-87931977D01*
X88813926Y-87964480D01*
X88828322Y-87977999D01*
X88831121Y-87980712D01*
X88850622Y-88000214D01*
X88850626Y-88000217D01*
X88850629Y-88000220D01*
X88853802Y-88002681D01*
X88862674Y-88010259D01*
X88894518Y-88040162D01*
X88912076Y-88049814D01*
X88928335Y-88060495D01*
X88944164Y-88072773D01*
X88984255Y-88090121D01*
X88994726Y-88095251D01*
X89004292Y-88100510D01*
X89033002Y-88116294D01*
X89033004Y-88116295D01*
X89033008Y-88116297D01*
X89052416Y-88121280D01*
X89070819Y-88127581D01*
X89089201Y-88135536D01*
X89089202Y-88135536D01*
X89089204Y-88135537D01*
X89132350Y-88142370D01*
X89143772Y-88144736D01*
X89186081Y-88155600D01*
X89206116Y-88155600D01*
X89225514Y-88157126D01*
X89245294Y-88160259D01*
X89245295Y-88160260D01*
X89245295Y-88160259D01*
X89245296Y-88160260D01*
X89288775Y-88156150D01*
X89300444Y-88155600D01*
X89866848Y-88155600D01*
X89933887Y-88175285D01*
X89954529Y-88191919D01*
X105671081Y-103908471D01*
X105704566Y-103969794D01*
X105707400Y-103996152D01*
X105707400Y-104521555D01*
X105705675Y-104537172D01*
X105705961Y-104537199D01*
X105705226Y-104544965D01*
X105707339Y-104612172D01*
X105707400Y-104616067D01*
X105707400Y-104643657D01*
X105707903Y-104647635D01*
X105708818Y-104659267D01*
X105710190Y-104702924D01*
X105710191Y-104702927D01*
X105715780Y-104722167D01*
X105719724Y-104741211D01*
X105722236Y-104761092D01*
X105738314Y-104801703D01*
X105742097Y-104812752D01*
X105754281Y-104854688D01*
X105764480Y-104871934D01*
X105773036Y-104889400D01*
X105777718Y-104901224D01*
X105780414Y-104908032D01*
X105806081Y-104943360D01*
X105812493Y-104953121D01*
X105834728Y-104990717D01*
X105834733Y-104990724D01*
X105848890Y-105004880D01*
X105861527Y-105019675D01*
X105873306Y-105035887D01*
X105902589Y-105060112D01*
X105906957Y-105063725D01*
X105915598Y-105071588D01*
X106634218Y-105790208D01*
X106667703Y-105851531D01*
X106662719Y-105921223D01*
X106648112Y-105949012D01*
X106521965Y-106129169D01*
X106521964Y-106129171D01*
X106422098Y-106343335D01*
X106422094Y-106343344D01*
X106360938Y-106571586D01*
X106360936Y-106571596D01*
X106340341Y-106806999D01*
X106340341Y-106807000D01*
X106360936Y-107042403D01*
X106360938Y-107042413D01*
X106422094Y-107270655D01*
X106422096Y-107270659D01*
X106422097Y-107270663D01*
X106502004Y-107442023D01*
X106521965Y-107484830D01*
X106521967Y-107484834D01*
X106630281Y-107639521D01*
X106657505Y-107678401D01*
X106824599Y-107845495D01*
X106921384Y-107913265D01*
X107018165Y-107981032D01*
X107018167Y-107981033D01*
X107018170Y-107981035D01*
X107232337Y-108080903D01*
X107232343Y-108080904D01*
X107232344Y-108080905D01*
X107255976Y-108087237D01*
X107460592Y-108142063D01*
X107648918Y-108158539D01*
X107695999Y-108162659D01*
X107696000Y-108162659D01*
X107696001Y-108162659D01*
X107735234Y-108159226D01*
X107931408Y-108142063D01*
X108159663Y-108080903D01*
X108373830Y-107981035D01*
X108567401Y-107845495D01*
X108734495Y-107678401D01*
X108864425Y-107492842D01*
X108919002Y-107449217D01*
X108988500Y-107442023D01*
X109050855Y-107473546D01*
X109067575Y-107492842D01*
X109197500Y-107678395D01*
X109197505Y-107678401D01*
X109364599Y-107845495D01*
X109461384Y-107913265D01*
X109558165Y-107981032D01*
X109558167Y-107981033D01*
X109558170Y-107981035D01*
X109772337Y-108080903D01*
X109772343Y-108080904D01*
X109772344Y-108080905D01*
X109795976Y-108087237D01*
X110000592Y-108142063D01*
X110188918Y-108158539D01*
X110235999Y-108162659D01*
X110236000Y-108162659D01*
X110236001Y-108162659D01*
X110275234Y-108159226D01*
X110471408Y-108142063D01*
X110699663Y-108080903D01*
X110913830Y-107981035D01*
X111107401Y-107845495D01*
X111274495Y-107678401D01*
X111404425Y-107492842D01*
X111459002Y-107449217D01*
X111528500Y-107442023D01*
X111590855Y-107473546D01*
X111607575Y-107492842D01*
X111737500Y-107678395D01*
X111737505Y-107678401D01*
X111904599Y-107845495D01*
X112001384Y-107913265D01*
X112098165Y-107981032D01*
X112098167Y-107981033D01*
X112098170Y-107981035D01*
X112312337Y-108080903D01*
X112312343Y-108080904D01*
X112312344Y-108080905D01*
X112335976Y-108087237D01*
X112540592Y-108142063D01*
X112728918Y-108158539D01*
X112775999Y-108162659D01*
X112776000Y-108162659D01*
X112776001Y-108162659D01*
X112815234Y-108159226D01*
X113011408Y-108142063D01*
X113239663Y-108080903D01*
X113453830Y-107981035D01*
X113647401Y-107845495D01*
X113814495Y-107678401D01*
X113944425Y-107492842D01*
X113999002Y-107449217D01*
X114068500Y-107442023D01*
X114130855Y-107473546D01*
X114147575Y-107492842D01*
X114277500Y-107678395D01*
X114277505Y-107678401D01*
X114444599Y-107845495D01*
X114541384Y-107913265D01*
X114638165Y-107981032D01*
X114638167Y-107981033D01*
X114638170Y-107981035D01*
X114852337Y-108080903D01*
X114852343Y-108080904D01*
X114852344Y-108080905D01*
X114875976Y-108087237D01*
X115080592Y-108142063D01*
X115268918Y-108158539D01*
X115315999Y-108162659D01*
X115316000Y-108162659D01*
X115316001Y-108162659D01*
X115355234Y-108159226D01*
X115551408Y-108142063D01*
X115779663Y-108080903D01*
X115993830Y-107981035D01*
X116187401Y-107845495D01*
X116354495Y-107678401D01*
X116490035Y-107484830D01*
X116589903Y-107270663D01*
X116651063Y-107042408D01*
X116671659Y-106807000D01*
X116651063Y-106571592D01*
X116589903Y-106343337D01*
X116544423Y-106245805D01*
X116533931Y-106176727D01*
X116562451Y-106112943D01*
X116620927Y-106074704D01*
X116656805Y-106069400D01*
X117014648Y-106069400D01*
X117081687Y-106089085D01*
X117102328Y-106105718D01*
X118218641Y-107222032D01*
X119332497Y-108335888D01*
X119342322Y-108348151D01*
X119342543Y-108347969D01*
X119347511Y-108353974D01*
X119396522Y-108399999D01*
X119399321Y-108402712D01*
X119418822Y-108422214D01*
X119418826Y-108422217D01*
X119418829Y-108422220D01*
X119422002Y-108424681D01*
X119430874Y-108432259D01*
X119462718Y-108462162D01*
X119480276Y-108471814D01*
X119496535Y-108482495D01*
X119512364Y-108494773D01*
X119552455Y-108512121D01*
X119562926Y-108517251D01*
X119585480Y-108529650D01*
X119601202Y-108538294D01*
X119601204Y-108538295D01*
X119601208Y-108538297D01*
X119620616Y-108543280D01*
X119639019Y-108549581D01*
X119657401Y-108557536D01*
X119657402Y-108557536D01*
X119657404Y-108557537D01*
X119700550Y-108564370D01*
X119711972Y-108566736D01*
X119754281Y-108577600D01*
X119774316Y-108577600D01*
X119793714Y-108579126D01*
X119813494Y-108582259D01*
X119813495Y-108582260D01*
X119813495Y-108582259D01*
X119813496Y-108582260D01*
X119856975Y-108578150D01*
X119868644Y-108577600D01*
X138158157Y-108577600D01*
X138173777Y-108579324D01*
X138173804Y-108579039D01*
X138181560Y-108579771D01*
X138181567Y-108579773D01*
X138248773Y-108577661D01*
X138252668Y-108577600D01*
X138280246Y-108577600D01*
X138280250Y-108577600D01*
X138284224Y-108577097D01*
X138295863Y-108576180D01*
X138339527Y-108574809D01*
X138358769Y-108569217D01*
X138377812Y-108565274D01*
X138397692Y-108562764D01*
X138438301Y-108546685D01*
X138449344Y-108542903D01*
X138491290Y-108530718D01*
X138508529Y-108520522D01*
X138526003Y-108511962D01*
X138544627Y-108504588D01*
X138544627Y-108504587D01*
X138544632Y-108504586D01*
X138579983Y-108478900D01*
X138589714Y-108472508D01*
X138627320Y-108450270D01*
X138641489Y-108436099D01*
X138656279Y-108423468D01*
X138672487Y-108411694D01*
X138700338Y-108378026D01*
X138708179Y-108369409D01*
X138990353Y-108087235D01*
X139051674Y-108053752D01*
X139110125Y-108055143D01*
X139144780Y-108064428D01*
X139210592Y-108082063D01*
X139398918Y-108098539D01*
X139445999Y-108102659D01*
X139446000Y-108102659D01*
X139446001Y-108102659D01*
X139485234Y-108099226D01*
X139681408Y-108082063D01*
X139909663Y-108020903D01*
X140123830Y-107921035D01*
X140317401Y-107785495D01*
X140484495Y-107618401D01*
X140614425Y-107432842D01*
X140669002Y-107389217D01*
X140738500Y-107382023D01*
X140800855Y-107413546D01*
X140817575Y-107432842D01*
X140947500Y-107618395D01*
X140947505Y-107618401D01*
X141114599Y-107785495D01*
X141195765Y-107842328D01*
X141308165Y-107921032D01*
X141308167Y-107921033D01*
X141308170Y-107921035D01*
X141522337Y-108020903D01*
X141522343Y-108020904D01*
X141522344Y-108020905D01*
X141577285Y-108035626D01*
X141750592Y-108082063D01*
X141938918Y-108098539D01*
X141985999Y-108102659D01*
X141986000Y-108102659D01*
X141986001Y-108102659D01*
X142025234Y-108099226D01*
X142221408Y-108082063D01*
X142449663Y-108020903D01*
X142663830Y-107921035D01*
X142857401Y-107785495D01*
X143024495Y-107618401D01*
X143160035Y-107424830D01*
X143259903Y-107210663D01*
X143321063Y-106982408D01*
X143341659Y-106747000D01*
X143321063Y-106511592D01*
X143259903Y-106283337D01*
X143160035Y-106069171D01*
X143160031Y-106069166D01*
X143024496Y-105875600D01*
X142986262Y-105837366D01*
X142902567Y-105753671D01*
X142869084Y-105692351D01*
X142874068Y-105622659D01*
X142915939Y-105566725D01*
X142946915Y-105549810D01*
X143078331Y-105500796D01*
X143193546Y-105414546D01*
X143279796Y-105299331D01*
X143330091Y-105164483D01*
X143336500Y-105104873D01*
X143336499Y-103309128D01*
X143330091Y-103249517D01*
X143328810Y-103246083D01*
X143279797Y-103114671D01*
X143279793Y-103114664D01*
X143193547Y-102999455D01*
X143193544Y-102999452D01*
X143078335Y-102913206D01*
X143078328Y-102913202D01*
X142943482Y-102862908D01*
X142943483Y-102862908D01*
X142883883Y-102856501D01*
X142883881Y-102856500D01*
X142883873Y-102856500D01*
X142883864Y-102856500D01*
X141088129Y-102856500D01*
X141088123Y-102856501D01*
X141028516Y-102862908D01*
X140893671Y-102913202D01*
X140893664Y-102913206D01*
X140778455Y-102999452D01*
X140778452Y-102999455D01*
X140692206Y-103114664D01*
X140692203Y-103114669D01*
X140643189Y-103246083D01*
X140601317Y-103302016D01*
X140535853Y-103326433D01*
X140467580Y-103311581D01*
X140439326Y-103290430D01*
X140317402Y-103168506D01*
X140317395Y-103168501D01*
X140123834Y-103032967D01*
X140123830Y-103032965D01*
X140123828Y-103032964D01*
X139909663Y-102933097D01*
X139909659Y-102933096D01*
X139909655Y-102933094D01*
X139681413Y-102871938D01*
X139681403Y-102871936D01*
X139446001Y-102851341D01*
X139445999Y-102851341D01*
X139210596Y-102871936D01*
X139210586Y-102871938D01*
X138982344Y-102933094D01*
X138982335Y-102933098D01*
X138768171Y-103032964D01*
X138768169Y-103032965D01*
X138574597Y-103168505D01*
X138407505Y-103335597D01*
X138277575Y-103521158D01*
X138222998Y-103564783D01*
X138153500Y-103571977D01*
X138091145Y-103540454D01*
X138074425Y-103521158D01*
X137944494Y-103335597D01*
X137777402Y-103168506D01*
X137777395Y-103168501D01*
X137583834Y-103032967D01*
X137583830Y-103032965D01*
X137583828Y-103032964D01*
X137369663Y-102933097D01*
X137369659Y-102933096D01*
X137369655Y-102933094D01*
X137141413Y-102871938D01*
X137141403Y-102871936D01*
X136906001Y-102851341D01*
X136905999Y-102851341D01*
X136670596Y-102871936D01*
X136670586Y-102871938D01*
X136442344Y-102933094D01*
X136442335Y-102933098D01*
X136228171Y-103032964D01*
X136228169Y-103032965D01*
X136034597Y-103168505D01*
X135867505Y-103335597D01*
X135737575Y-103521158D01*
X135682998Y-103564783D01*
X135613500Y-103571977D01*
X135551145Y-103540454D01*
X135534425Y-103521158D01*
X135404494Y-103335597D01*
X135237402Y-103168506D01*
X135237395Y-103168501D01*
X135043834Y-103032967D01*
X135043830Y-103032965D01*
X135043828Y-103032964D01*
X134829663Y-102933097D01*
X134829659Y-102933096D01*
X134829655Y-102933094D01*
X134601413Y-102871938D01*
X134601403Y-102871936D01*
X134366001Y-102851341D01*
X134365999Y-102851341D01*
X134130596Y-102871936D01*
X134130586Y-102871938D01*
X133902344Y-102933094D01*
X133902335Y-102933098D01*
X133688171Y-103032964D01*
X133688169Y-103032965D01*
X133494597Y-103168505D01*
X133327505Y-103335597D01*
X133191965Y-103529169D01*
X133191964Y-103529171D01*
X133092098Y-103743335D01*
X133092094Y-103743344D01*
X133030938Y-103971586D01*
X133030936Y-103971596D01*
X133010341Y-104206999D01*
X133010341Y-104207000D01*
X133030937Y-104442408D01*
X133057855Y-104542873D01*
X133056192Y-104612723D01*
X133025761Y-104662646D01*
X132778226Y-104910182D01*
X132716906Y-104943666D01*
X132690547Y-104946500D01*
X130625919Y-104946500D01*
X130558880Y-104926815D01*
X130513125Y-104874011D01*
X130503181Y-104804853D01*
X130513537Y-104770095D01*
X130524814Y-104745911D01*
X130559903Y-104670663D01*
X130621063Y-104442408D01*
X130641659Y-104207000D01*
X130621063Y-103971592D01*
X130559903Y-103743337D01*
X130460035Y-103529171D01*
X130454425Y-103521158D01*
X130324494Y-103335597D01*
X130157402Y-103168506D01*
X130157395Y-103168501D01*
X129963834Y-103032967D01*
X129963830Y-103032965D01*
X129963828Y-103032964D01*
X129749663Y-102933097D01*
X129749659Y-102933096D01*
X129749655Y-102933094D01*
X129521413Y-102871938D01*
X129521403Y-102871936D01*
X129286001Y-102851341D01*
X129285999Y-102851341D01*
X129050596Y-102871936D01*
X129050586Y-102871938D01*
X128822344Y-102933094D01*
X128822335Y-102933098D01*
X128608171Y-103032964D01*
X128608169Y-103032965D01*
X128414597Y-103168505D01*
X128247505Y-103335597D01*
X128111965Y-103529169D01*
X128111964Y-103529171D01*
X128012098Y-103743335D01*
X128012094Y-103743345D01*
X128009871Y-103751642D01*
X127973504Y-103811301D01*
X127910657Y-103841829D01*
X127841281Y-103833532D01*
X127802416Y-103807226D01*
X127306771Y-103311581D01*
X126692843Y-102697652D01*
X126675828Y-102676414D01*
X126616202Y-102582459D01*
X126496396Y-102469954D01*
X126496388Y-102469948D01*
X126352371Y-102390774D01*
X126352361Y-102390771D01*
X126193180Y-102349900D01*
X126193177Y-102349900D01*
X114225252Y-102349900D01*
X114158213Y-102330215D01*
X114137571Y-102313581D01*
X110054686Y-98230695D01*
X110021201Y-98169372D01*
X110026185Y-98099680D01*
X110068057Y-98043747D01*
X110083338Y-98033966D01*
X110237626Y-97950470D01*
X110420784Y-97807913D01*
X110577979Y-97637153D01*
X110704924Y-97442849D01*
X110798157Y-97230300D01*
X110855134Y-97005305D01*
X110858536Y-96964247D01*
X110874300Y-96774006D01*
X113148700Y-96774006D01*
X113167864Y-97005297D01*
X113167866Y-97005308D01*
X113224842Y-97230300D01*
X113318075Y-97442848D01*
X113445016Y-97637147D01*
X113445019Y-97637151D01*
X113445021Y-97637153D01*
X113602216Y-97807913D01*
X113602219Y-97807915D01*
X113602222Y-97807918D01*
X113785365Y-97950464D01*
X113785371Y-97950468D01*
X113785374Y-97950470D01*
X113939648Y-98033959D01*
X113987741Y-98059986D01*
X113989497Y-98060936D01*
X114048096Y-98081053D01*
X114209015Y-98136297D01*
X114209017Y-98136297D01*
X114209019Y-98136298D01*
X114437951Y-98174500D01*
X114437952Y-98174500D01*
X114670048Y-98174500D01*
X114670049Y-98174500D01*
X114898981Y-98136298D01*
X115118503Y-98060936D01*
X115322626Y-97950470D01*
X115505784Y-97807913D01*
X115662979Y-97637153D01*
X115789924Y-97442849D01*
X115883157Y-97230300D01*
X115940134Y-97005305D01*
X115943536Y-96964247D01*
X115959300Y-96774006D01*
X115959300Y-96773993D01*
X115940135Y-96542702D01*
X115940133Y-96542691D01*
X115883157Y-96317699D01*
X115789924Y-96105151D01*
X115662979Y-95910846D01*
X115662977Y-95910844D01*
X115658266Y-95905726D01*
X115627347Y-95843070D01*
X115625500Y-95821748D01*
X115625500Y-93952132D01*
X115645185Y-93885093D01*
X115697989Y-93839338D01*
X115767147Y-93829394D01*
X115828539Y-93856588D01*
X115835108Y-93862022D01*
X115844058Y-93869426D01*
X115852698Y-93877288D01*
X118252650Y-96277240D01*
X118286135Y-96338563D01*
X118285175Y-96395361D01*
X118247866Y-96542690D01*
X118247864Y-96542702D01*
X118228700Y-96773993D01*
X118228700Y-96774006D01*
X118247864Y-97005297D01*
X118247866Y-97005308D01*
X118304842Y-97230300D01*
X118398075Y-97442848D01*
X118525016Y-97637147D01*
X118525019Y-97637151D01*
X118525021Y-97637153D01*
X118682216Y-97807913D01*
X118682219Y-97807915D01*
X118682222Y-97807918D01*
X118865365Y-97950464D01*
X118865371Y-97950468D01*
X118865374Y-97950470D01*
X119019648Y-98033959D01*
X119067741Y-98059986D01*
X119069497Y-98060936D01*
X119128096Y-98081053D01*
X119289015Y-98136297D01*
X119289017Y-98136297D01*
X119289019Y-98136298D01*
X119517951Y-98174500D01*
X119517952Y-98174500D01*
X119750048Y-98174500D01*
X119750049Y-98174500D01*
X119978981Y-98136298D01*
X120198503Y-98060936D01*
X120402626Y-97950470D01*
X120585784Y-97807913D01*
X120742979Y-97637153D01*
X120869924Y-97442849D01*
X120963157Y-97230300D01*
X121020134Y-97005305D01*
X121023536Y-96964247D01*
X121039300Y-96774006D01*
X121039300Y-96773993D01*
X121020135Y-96542702D01*
X121020133Y-96542691D01*
X120963157Y-96317699D01*
X120869924Y-96105151D01*
X120742983Y-95910852D01*
X120742980Y-95910849D01*
X120742979Y-95910847D01*
X120585784Y-95740087D01*
X120585779Y-95740083D01*
X120585777Y-95740081D01*
X120402634Y-95597535D01*
X120402628Y-95597531D01*
X120198504Y-95487064D01*
X120198495Y-95487061D01*
X119978984Y-95411702D01*
X119807282Y-95383050D01*
X119750049Y-95373500D01*
X119517951Y-95373500D01*
X119460718Y-95383050D01*
X119289016Y-95411702D01*
X119263421Y-95420489D01*
X119193622Y-95423638D01*
X119135479Y-95390888D01*
X116931819Y-93187228D01*
X116898334Y-93125905D01*
X116895500Y-93099547D01*
X116895500Y-90142132D01*
X116915185Y-90075093D01*
X116967989Y-90029338D01*
X117037147Y-90019394D01*
X117098541Y-90046589D01*
X117114058Y-90059426D01*
X117122698Y-90067288D01*
X123332650Y-96277241D01*
X123366135Y-96338564D01*
X123365175Y-96395362D01*
X123327865Y-96542698D01*
X123308700Y-96773993D01*
X123308700Y-96774006D01*
X123327864Y-97005297D01*
X123327866Y-97005308D01*
X123384842Y-97230300D01*
X123478075Y-97442848D01*
X123605016Y-97637147D01*
X123605019Y-97637151D01*
X123605021Y-97637153D01*
X123762216Y-97807913D01*
X123762219Y-97807915D01*
X123762222Y-97807918D01*
X123945365Y-97950464D01*
X123945371Y-97950468D01*
X123945374Y-97950470D01*
X124099648Y-98033959D01*
X124147741Y-98059986D01*
X124149497Y-98060936D01*
X124208096Y-98081053D01*
X124369015Y-98136297D01*
X124369017Y-98136297D01*
X124369019Y-98136298D01*
X124597951Y-98174500D01*
X124597952Y-98174500D01*
X124830048Y-98174500D01*
X124830049Y-98174500D01*
X125058981Y-98136298D01*
X125278503Y-98060936D01*
X125482626Y-97950470D01*
X125665784Y-97807913D01*
X125822979Y-97637153D01*
X125949924Y-97442849D01*
X126043157Y-97230300D01*
X126100134Y-97005305D01*
X126103536Y-96964247D01*
X126119300Y-96774006D01*
X126119300Y-96773993D01*
X126100135Y-96542702D01*
X126100133Y-96542691D01*
X126043157Y-96317699D01*
X125949924Y-96105151D01*
X125822983Y-95910852D01*
X125822980Y-95910849D01*
X125822979Y-95910847D01*
X125665784Y-95740087D01*
X125665779Y-95740083D01*
X125665777Y-95740081D01*
X125482634Y-95597535D01*
X125482628Y-95597531D01*
X125278504Y-95487064D01*
X125278495Y-95487061D01*
X125058984Y-95411702D01*
X124887282Y-95383050D01*
X124830049Y-95373500D01*
X124597951Y-95373500D01*
X124559795Y-95379867D01*
X124369014Y-95411702D01*
X124343419Y-95420489D01*
X124273620Y-95423637D01*
X124215478Y-95390888D01*
X118201819Y-89377228D01*
X118168334Y-89315905D01*
X118165500Y-89289547D01*
X118165500Y-87579457D01*
X118185185Y-87512418D01*
X118237989Y-87466663D01*
X118307147Y-87456719D01*
X118347951Y-87470098D01*
X118436473Y-87517414D01*
X118625068Y-87574624D01*
X118821200Y-87593941D01*
X118856737Y-87590440D01*
X118925381Y-87603458D01*
X118956572Y-87626162D01*
X126810897Y-95480488D01*
X126820722Y-95492751D01*
X126820943Y-95492569D01*
X126825911Y-95498574D01*
X126825913Y-95498576D01*
X126825914Y-95498577D01*
X126874922Y-95544599D01*
X126877721Y-95547312D01*
X126897222Y-95566814D01*
X126897226Y-95566817D01*
X126897229Y-95566820D01*
X126900402Y-95569281D01*
X126909274Y-95576859D01*
X126941118Y-95606762D01*
X126958676Y-95616414D01*
X126974935Y-95627095D01*
X126990764Y-95639373D01*
X127030855Y-95656721D01*
X127041326Y-95661851D01*
X127057715Y-95670861D01*
X127079602Y-95682894D01*
X127079604Y-95682895D01*
X127079608Y-95682897D01*
X127099016Y-95687880D01*
X127117419Y-95694181D01*
X127135801Y-95702136D01*
X127135802Y-95702136D01*
X127135804Y-95702137D01*
X127178950Y-95708970D01*
X127190372Y-95711336D01*
X127232681Y-95722200D01*
X127252716Y-95722200D01*
X127272114Y-95723726D01*
X127291894Y-95726859D01*
X127291895Y-95726860D01*
X127291895Y-95726859D01*
X127291896Y-95726860D01*
X127335375Y-95722750D01*
X127347044Y-95722200D01*
X127806248Y-95722200D01*
X127873287Y-95741885D01*
X127893929Y-95758519D01*
X128412650Y-96277240D01*
X128446135Y-96338563D01*
X128445175Y-96395361D01*
X128407866Y-96542690D01*
X128407864Y-96542702D01*
X128388700Y-96773993D01*
X128388700Y-96774006D01*
X128407864Y-97005297D01*
X128407866Y-97005308D01*
X128464842Y-97230300D01*
X128558075Y-97442848D01*
X128685016Y-97637147D01*
X128685019Y-97637151D01*
X128685021Y-97637153D01*
X128842216Y-97807913D01*
X128842219Y-97807915D01*
X128842222Y-97807918D01*
X129025365Y-97950464D01*
X129025371Y-97950468D01*
X129025374Y-97950470D01*
X129179648Y-98033959D01*
X129227741Y-98059986D01*
X129229497Y-98060936D01*
X129288096Y-98081053D01*
X129449015Y-98136297D01*
X129449017Y-98136297D01*
X129449019Y-98136298D01*
X129677951Y-98174500D01*
X129677952Y-98174500D01*
X129910048Y-98174500D01*
X129910049Y-98174500D01*
X130138981Y-98136298D01*
X130358503Y-98060936D01*
X130562626Y-97950470D01*
X130745784Y-97807913D01*
X130902979Y-97637153D01*
X131029924Y-97442849D01*
X131123157Y-97230300D01*
X131180134Y-97005305D01*
X131183536Y-96964247D01*
X131199300Y-96774006D01*
X131199300Y-96773993D01*
X131180135Y-96542702D01*
X131180133Y-96542691D01*
X131123157Y-96317699D01*
X131029924Y-96105151D01*
X130902983Y-95910852D01*
X130902980Y-95910849D01*
X130902979Y-95910847D01*
X130745784Y-95740087D01*
X130745779Y-95740083D01*
X130745777Y-95740081D01*
X130562634Y-95597535D01*
X130562628Y-95597531D01*
X130358504Y-95487064D01*
X130358495Y-95487061D01*
X130138984Y-95411702D01*
X129967282Y-95383050D01*
X129910049Y-95373500D01*
X129677951Y-95373500D01*
X129620718Y-95383050D01*
X129449016Y-95411702D01*
X129423421Y-95420489D01*
X129353622Y-95423638D01*
X129295479Y-95390888D01*
X128617503Y-94712912D01*
X128607680Y-94700650D01*
X128607459Y-94700834D01*
X128602486Y-94694822D01*
X128553476Y-94648799D01*
X128550677Y-94646086D01*
X128531177Y-94626585D01*
X128529388Y-94625197D01*
X128527986Y-94624109D01*
X128519134Y-94616548D01*
X128487282Y-94586638D01*
X128487280Y-94586636D01*
X128487277Y-94586635D01*
X128469729Y-94576988D01*
X128453463Y-94566304D01*
X128450330Y-94563874D01*
X128437636Y-94554027D01*
X128437635Y-94554026D01*
X128437632Y-94554024D01*
X128397549Y-94536678D01*
X128387063Y-94531541D01*
X128348794Y-94510503D01*
X128348792Y-94510502D01*
X128329393Y-94505522D01*
X128310981Y-94499218D01*
X128292598Y-94491262D01*
X128292592Y-94491260D01*
X128249460Y-94484429D01*
X128238022Y-94482061D01*
X128195720Y-94471200D01*
X128195719Y-94471200D01*
X128175684Y-94471200D01*
X128156286Y-94469673D01*
X128148862Y-94468497D01*
X128136505Y-94466540D01*
X128136504Y-94466540D01*
X128093025Y-94470650D01*
X128081356Y-94471200D01*
X127622153Y-94471200D01*
X127555114Y-94451515D01*
X127534472Y-94434881D01*
X122921472Y-89821881D01*
X122887987Y-89760558D01*
X122892971Y-89690866D01*
X122934843Y-89634933D01*
X123000307Y-89610516D01*
X123009153Y-89610200D01*
X126774248Y-89610200D01*
X126841287Y-89629885D01*
X126861929Y-89646519D01*
X133492650Y-96277240D01*
X133526135Y-96338563D01*
X133525175Y-96395361D01*
X133487866Y-96542690D01*
X133487864Y-96542702D01*
X133468700Y-96773993D01*
X133468700Y-96774006D01*
X133487864Y-97005297D01*
X133487866Y-97005308D01*
X133544842Y-97230300D01*
X133638075Y-97442848D01*
X133765016Y-97637147D01*
X133765019Y-97637151D01*
X133765021Y-97637153D01*
X133922216Y-97807913D01*
X133922219Y-97807915D01*
X133922222Y-97807918D01*
X134105365Y-97950464D01*
X134105371Y-97950468D01*
X134105374Y-97950470D01*
X134259648Y-98033959D01*
X134307741Y-98059986D01*
X134309497Y-98060936D01*
X134368096Y-98081053D01*
X134529015Y-98136297D01*
X134529017Y-98136297D01*
X134529019Y-98136298D01*
X134757951Y-98174500D01*
X134757952Y-98174500D01*
X134990048Y-98174500D01*
X134990049Y-98174500D01*
X135218981Y-98136298D01*
X135438503Y-98060936D01*
X135642626Y-97950470D01*
X135825784Y-97807913D01*
X135982979Y-97637153D01*
X136109924Y-97442849D01*
X136203157Y-97230300D01*
X136260134Y-97005305D01*
X136263536Y-96964247D01*
X136279300Y-96774006D01*
X138548700Y-96774006D01*
X138567864Y-97005297D01*
X138567866Y-97005308D01*
X138624842Y-97230300D01*
X138718075Y-97442848D01*
X138845016Y-97637147D01*
X138845019Y-97637151D01*
X138845021Y-97637153D01*
X139002216Y-97807913D01*
X139002219Y-97807915D01*
X139002222Y-97807918D01*
X139185365Y-97950464D01*
X139185371Y-97950468D01*
X139185374Y-97950470D01*
X139339648Y-98033959D01*
X139387741Y-98059986D01*
X139389497Y-98060936D01*
X139448096Y-98081053D01*
X139609015Y-98136297D01*
X139609017Y-98136297D01*
X139609019Y-98136298D01*
X139837951Y-98174500D01*
X139837952Y-98174500D01*
X140070048Y-98174500D01*
X140070049Y-98174500D01*
X140298981Y-98136298D01*
X140518503Y-98060936D01*
X140722626Y-97950470D01*
X140905784Y-97807913D01*
X141062979Y-97637153D01*
X141189924Y-97442849D01*
X141283157Y-97230300D01*
X141340134Y-97005305D01*
X141343536Y-96964247D01*
X141359300Y-96774006D01*
X141359300Y-96773993D01*
X141340135Y-96542702D01*
X141340133Y-96542691D01*
X141283157Y-96317699D01*
X141189924Y-96105151D01*
X141062983Y-95910852D01*
X141062980Y-95910849D01*
X141062979Y-95910847D01*
X140905784Y-95740087D01*
X140905779Y-95740083D01*
X140905777Y-95740081D01*
X140722634Y-95597535D01*
X140722628Y-95597531D01*
X140518504Y-95487064D01*
X140518495Y-95487061D01*
X140298984Y-95411702D01*
X140127282Y-95383050D01*
X140070049Y-95373500D01*
X139837951Y-95373500D01*
X139792164Y-95381140D01*
X139609015Y-95411702D01*
X139389504Y-95487061D01*
X139389495Y-95487064D01*
X139185371Y-95597531D01*
X139185365Y-95597535D01*
X139002222Y-95740081D01*
X139002219Y-95740084D01*
X138845016Y-95910852D01*
X138718075Y-96105151D01*
X138624842Y-96317699D01*
X138567866Y-96542691D01*
X138567864Y-96542702D01*
X138548700Y-96773993D01*
X138548700Y-96774006D01*
X136279300Y-96774006D01*
X136279300Y-96773993D01*
X136260135Y-96542702D01*
X136260133Y-96542691D01*
X136203157Y-96317699D01*
X136109924Y-96105151D01*
X135982983Y-95910852D01*
X135982980Y-95910849D01*
X135982979Y-95910847D01*
X135825784Y-95740087D01*
X135825779Y-95740083D01*
X135825777Y-95740081D01*
X135642634Y-95597535D01*
X135642628Y-95597531D01*
X135438504Y-95487064D01*
X135438495Y-95487061D01*
X135218984Y-95411702D01*
X135047282Y-95383050D01*
X134990049Y-95373500D01*
X134757951Y-95373500D01*
X134719795Y-95379867D01*
X134529014Y-95411702D01*
X134503419Y-95420489D01*
X134433620Y-95423637D01*
X134375478Y-95390888D01*
X127585503Y-88600912D01*
X127575680Y-88588650D01*
X127575459Y-88588834D01*
X127570486Y-88582822D01*
X127521476Y-88536799D01*
X127518677Y-88534086D01*
X127499173Y-88514582D01*
X127499170Y-88514578D01*
X127495988Y-88512110D01*
X127487120Y-88504536D01*
X127455282Y-88474638D01*
X127437729Y-88464988D01*
X127421463Y-88454304D01*
X127405632Y-88442024D01*
X127365549Y-88424678D01*
X127355063Y-88419541D01*
X127316794Y-88398503D01*
X127316792Y-88398502D01*
X127297393Y-88393522D01*
X127278981Y-88387218D01*
X127260598Y-88379262D01*
X127260592Y-88379260D01*
X127217460Y-88372429D01*
X127206022Y-88370061D01*
X127163720Y-88359200D01*
X127163719Y-88359200D01*
X127143684Y-88359200D01*
X127124286Y-88357673D01*
X127116862Y-88356497D01*
X127104505Y-88354540D01*
X127104504Y-88354540D01*
X127061025Y-88358650D01*
X127049356Y-88359200D01*
X122780153Y-88359200D01*
X122713114Y-88339515D01*
X122692472Y-88322881D01*
X121947473Y-87577882D01*
X121913988Y-87516559D01*
X121918972Y-87446867D01*
X121956487Y-87394350D01*
X122072083Y-87299483D01*
X122197110Y-87147138D01*
X122243562Y-87060232D01*
X122290011Y-86973333D01*
X122290011Y-86973332D01*
X122290014Y-86973327D01*
X122347224Y-86784732D01*
X122366541Y-86588600D01*
X122347224Y-86392468D01*
X122290014Y-86203873D01*
X122197110Y-86030062D01*
X122197107Y-86030058D01*
X122193723Y-86024993D01*
X122195364Y-86023896D01*
X122171605Y-85967961D01*
X122183394Y-85899093D01*
X122194088Y-85882451D01*
X122193723Y-85882207D01*
X122197104Y-85877144D01*
X122197110Y-85877138D01*
X122290014Y-85703327D01*
X122347224Y-85514732D01*
X122366541Y-85318600D01*
X122347224Y-85122468D01*
X122290014Y-84933873D01*
X122290011Y-84933869D01*
X122290011Y-84933866D01*
X122197113Y-84760067D01*
X122197109Y-84760060D01*
X122072083Y-84607716D01*
X121919739Y-84482690D01*
X121919732Y-84482686D01*
X121745933Y-84389788D01*
X121745927Y-84389786D01*
X121557332Y-84332576D01*
X121557329Y-84332575D01*
X121361200Y-84313259D01*
X121165070Y-84332575D01*
X120976466Y-84389788D01*
X120802667Y-84482686D01*
X120797599Y-84486073D01*
X120796505Y-84484436D01*
X120740537Y-84508196D01*
X120671671Y-84496395D01*
X120655043Y-84485709D01*
X120654801Y-84486073D01*
X120649732Y-84482686D01*
X120475933Y-84389788D01*
X120475927Y-84389786D01*
X120287332Y-84332576D01*
X120287329Y-84332575D01*
X120091200Y-84313259D01*
X119895070Y-84332575D01*
X119706466Y-84389788D01*
X119532667Y-84482686D01*
X119527599Y-84486073D01*
X119526505Y-84484436D01*
X119470537Y-84508196D01*
X119401671Y-84496395D01*
X119385043Y-84485709D01*
X119384801Y-84486073D01*
X119379732Y-84482686D01*
X119205933Y-84389788D01*
X119205927Y-84389786D01*
X119017332Y-84332576D01*
X119017329Y-84332575D01*
X118821200Y-84313259D01*
X118625070Y-84332575D01*
X118436466Y-84389788D01*
X118262667Y-84482686D01*
X118257599Y-84486073D01*
X118256505Y-84484436D01*
X118200537Y-84508196D01*
X118131671Y-84496395D01*
X118115043Y-84485709D01*
X118114801Y-84486073D01*
X118109732Y-84482686D01*
X117935933Y-84389788D01*
X117935927Y-84389786D01*
X117747332Y-84332576D01*
X117747329Y-84332575D01*
X117551200Y-84313259D01*
X117355070Y-84332575D01*
X117166466Y-84389788D01*
X116992667Y-84482686D01*
X116987599Y-84486073D01*
X116986505Y-84484436D01*
X116930537Y-84508196D01*
X116861671Y-84496395D01*
X116845043Y-84485709D01*
X116844801Y-84486073D01*
X116839732Y-84482686D01*
X116665933Y-84389788D01*
X116665927Y-84389786D01*
X116477332Y-84332576D01*
X116477329Y-84332575D01*
X116281200Y-84313259D01*
X116085070Y-84332575D01*
X115896466Y-84389788D01*
X115722667Y-84482686D01*
X115717599Y-84486073D01*
X115716505Y-84484436D01*
X115660537Y-84508196D01*
X115591671Y-84496395D01*
X115575043Y-84485709D01*
X115574801Y-84486073D01*
X115569732Y-84482686D01*
X115395933Y-84389788D01*
X115395927Y-84389786D01*
X115207332Y-84332576D01*
X115207329Y-84332575D01*
X115011200Y-84313259D01*
X114815070Y-84332575D01*
X114626466Y-84389788D01*
X114452667Y-84482686D01*
X114452660Y-84482690D01*
X114300316Y-84607716D01*
X114175290Y-84760060D01*
X114175286Y-84760067D01*
X114082388Y-84933866D01*
X114025175Y-85122470D01*
X114005859Y-85318600D01*
X114025175Y-85514729D01*
X114025176Y-85514732D01*
X114081232Y-85699524D01*
X114082388Y-85703333D01*
X114175286Y-85877132D01*
X114178673Y-85882201D01*
X114177036Y-85883294D01*
X114200796Y-85939263D01*
X114188995Y-86008129D01*
X114178309Y-86024756D01*
X114178673Y-86024999D01*
X114175286Y-86030067D01*
X114082388Y-86203866D01*
X114025175Y-86392470D01*
X114005859Y-86588600D01*
X114025175Y-86784729D01*
X114082388Y-86973333D01*
X114175286Y-87147132D01*
X114175290Y-87147139D01*
X114300313Y-87299479D01*
X114300315Y-87299480D01*
X114300317Y-87299483D01*
X114329165Y-87323158D01*
X114368499Y-87380901D01*
X114374500Y-87419010D01*
X114374500Y-95279065D01*
X114354815Y-95346104D01*
X114302011Y-95391859D01*
X114270910Y-95401374D01*
X114209016Y-95411702D01*
X113989504Y-95487061D01*
X113989495Y-95487064D01*
X113785371Y-95597531D01*
X113785365Y-95597535D01*
X113602222Y-95740081D01*
X113602219Y-95740084D01*
X113445016Y-95910852D01*
X113318075Y-96105151D01*
X113224842Y-96317699D01*
X113167866Y-96542691D01*
X113167864Y-96542702D01*
X113148700Y-96773993D01*
X113148700Y-96774006D01*
X110874300Y-96774006D01*
X110874300Y-96773993D01*
X110855135Y-96542702D01*
X110855132Y-96542686D01*
X110843789Y-96497895D01*
X110817823Y-96395361D01*
X110820447Y-96325544D01*
X110850345Y-96277243D01*
X112843786Y-94283802D01*
X112856048Y-94273980D01*
X112855865Y-94273759D01*
X112861868Y-94268791D01*
X112861877Y-94268786D01*
X112907934Y-94219739D01*
X112910582Y-94217006D01*
X112930120Y-94197470D01*
X112932570Y-94194310D01*
X112940154Y-94185429D01*
X112970062Y-94153582D01*
X112979714Y-94136023D01*
X112990389Y-94119772D01*
X113002674Y-94103936D01*
X113020030Y-94063825D01*
X113025161Y-94053354D01*
X113046194Y-94015098D01*
X113046194Y-94015097D01*
X113046197Y-94015092D01*
X113051180Y-93995680D01*
X113057477Y-93977291D01*
X113065438Y-93958895D01*
X113072270Y-93915748D01*
X113074639Y-93904316D01*
X113085499Y-93862022D01*
X113085500Y-93862017D01*
X113085500Y-93841983D01*
X113087027Y-93822582D01*
X113090160Y-93802804D01*
X113086050Y-93759324D01*
X113085500Y-93747655D01*
X113085500Y-87437394D01*
X113105185Y-87370355D01*
X113130834Y-87341541D01*
X113182083Y-87299483D01*
X113307110Y-87147138D01*
X113353562Y-87060232D01*
X113400011Y-86973333D01*
X113400011Y-86973332D01*
X113400014Y-86973327D01*
X113457224Y-86784732D01*
X113476541Y-86588600D01*
X113457224Y-86392468D01*
X113400014Y-86203873D01*
X113307110Y-86030062D01*
X113307107Y-86030058D01*
X113303723Y-86024993D01*
X113305364Y-86023896D01*
X113281605Y-85967961D01*
X113293394Y-85899093D01*
X113304088Y-85882451D01*
X113303723Y-85882207D01*
X113307104Y-85877144D01*
X113307110Y-85877138D01*
X113400014Y-85703327D01*
X113457224Y-85514732D01*
X113476541Y-85318600D01*
X113457224Y-85122468D01*
X113400014Y-84933873D01*
X113400011Y-84933869D01*
X113400011Y-84933866D01*
X113307113Y-84760067D01*
X113307109Y-84760060D01*
X113182083Y-84607716D01*
X113029739Y-84482690D01*
X113029732Y-84482686D01*
X112855933Y-84389788D01*
X112855927Y-84389786D01*
X112667332Y-84332576D01*
X112667329Y-84332575D01*
X112471200Y-84313259D01*
X112275070Y-84332575D01*
X112086466Y-84389788D01*
X111912667Y-84482686D01*
X111907599Y-84486073D01*
X111906505Y-84484436D01*
X111850537Y-84508196D01*
X111781671Y-84496395D01*
X111765043Y-84485709D01*
X111764801Y-84486073D01*
X111759732Y-84482686D01*
X111585933Y-84389788D01*
X111585927Y-84389786D01*
X111397332Y-84332576D01*
X111397329Y-84332575D01*
X111201200Y-84313259D01*
X111005070Y-84332575D01*
X110816466Y-84389788D01*
X110642667Y-84482686D01*
X110637599Y-84486073D01*
X110636505Y-84484436D01*
X110580537Y-84508196D01*
X110511671Y-84496395D01*
X110495043Y-84485709D01*
X110494801Y-84486073D01*
X110489732Y-84482686D01*
X110315933Y-84389788D01*
X110315927Y-84389786D01*
X110127332Y-84332576D01*
X110127329Y-84332575D01*
X109931200Y-84313259D01*
X109735070Y-84332575D01*
X109546466Y-84389788D01*
X109372667Y-84482686D01*
X109367599Y-84486073D01*
X109366505Y-84484436D01*
X109310537Y-84508196D01*
X109241671Y-84496395D01*
X109225043Y-84485709D01*
X109224801Y-84486073D01*
X109219732Y-84482686D01*
X109045933Y-84389788D01*
X109045927Y-84389786D01*
X108857332Y-84332576D01*
X108857329Y-84332575D01*
X108661200Y-84313259D01*
X108465070Y-84332575D01*
X108276466Y-84389788D01*
X108102667Y-84482686D01*
X108097599Y-84486073D01*
X108096505Y-84484436D01*
X108040537Y-84508196D01*
X107971671Y-84496395D01*
X107955043Y-84485709D01*
X107954801Y-84486073D01*
X107949732Y-84482686D01*
X107775933Y-84389788D01*
X107775927Y-84389786D01*
X107587332Y-84332576D01*
X107587329Y-84332575D01*
X107391200Y-84313259D01*
X107195070Y-84332575D01*
X107006466Y-84389788D01*
X106832667Y-84482686D01*
X106827599Y-84486073D01*
X106826505Y-84484436D01*
X106770537Y-84508196D01*
X106701671Y-84496395D01*
X106685043Y-84485709D01*
X106684801Y-84486073D01*
X106679732Y-84482686D01*
X106505933Y-84389788D01*
X106505927Y-84389786D01*
X106317332Y-84332576D01*
X106317329Y-84332575D01*
X106121200Y-84313259D01*
X105925070Y-84332575D01*
X105736466Y-84389788D01*
X105562667Y-84482686D01*
X105557599Y-84486073D01*
X105556505Y-84484436D01*
X105500537Y-84508196D01*
X105431671Y-84496395D01*
X105415043Y-84485709D01*
X105414801Y-84486073D01*
X105409732Y-84482686D01*
X105235933Y-84389788D01*
X105235927Y-84389786D01*
X105047332Y-84332576D01*
X105047329Y-84332575D01*
X104851200Y-84313259D01*
X104655070Y-84332575D01*
X104466466Y-84389788D01*
X104292667Y-84482686D01*
X104287599Y-84486073D01*
X104286505Y-84484436D01*
X104230537Y-84508196D01*
X104161671Y-84496395D01*
X104145043Y-84485709D01*
X104144801Y-84486073D01*
X104139732Y-84482686D01*
X103965933Y-84389788D01*
X103965927Y-84389786D01*
X103777332Y-84332576D01*
X103777329Y-84332575D01*
X103581200Y-84313259D01*
X103385070Y-84332575D01*
X103196466Y-84389788D01*
X103022667Y-84482686D01*
X103017599Y-84486073D01*
X103016505Y-84484436D01*
X102960537Y-84508196D01*
X102891671Y-84496395D01*
X102875043Y-84485709D01*
X102874801Y-84486073D01*
X102869732Y-84482686D01*
X102695933Y-84389788D01*
X102695927Y-84389786D01*
X102507332Y-84332576D01*
X102507329Y-84332575D01*
X102311200Y-84313259D01*
X102115070Y-84332575D01*
X101926466Y-84389788D01*
X101752667Y-84482686D01*
X101747599Y-84486073D01*
X101746505Y-84484436D01*
X101690537Y-84508196D01*
X101621671Y-84496395D01*
X101605043Y-84485709D01*
X101604801Y-84486073D01*
X101599732Y-84482686D01*
X101425933Y-84389788D01*
X101425927Y-84389786D01*
X101237332Y-84332576D01*
X101237329Y-84332575D01*
X101041200Y-84313259D01*
X100845070Y-84332575D01*
X100656466Y-84389788D01*
X100482667Y-84482686D01*
X100477599Y-84486073D01*
X100476505Y-84484436D01*
X100420537Y-84508196D01*
X100351671Y-84496395D01*
X100335043Y-84485709D01*
X100334801Y-84486073D01*
X100329732Y-84482686D01*
X100155933Y-84389788D01*
X100155927Y-84389786D01*
X99967332Y-84332576D01*
X99967329Y-84332575D01*
X99771200Y-84313259D01*
X99575070Y-84332575D01*
X99386466Y-84389788D01*
X99212667Y-84482686D01*
X99207599Y-84486073D01*
X99206505Y-84484436D01*
X99150537Y-84508196D01*
X99081671Y-84496395D01*
X99065043Y-84485709D01*
X99064801Y-84486073D01*
X99059732Y-84482686D01*
X98885933Y-84389788D01*
X98885927Y-84389786D01*
X98697332Y-84332576D01*
X98697329Y-84332575D01*
X98501200Y-84313259D01*
X98305070Y-84332575D01*
X98116466Y-84389788D01*
X97942667Y-84482686D01*
X97937599Y-84486073D01*
X97936505Y-84484436D01*
X97880537Y-84508196D01*
X97811671Y-84496395D01*
X97795043Y-84485709D01*
X97794801Y-84486073D01*
X97789732Y-84482686D01*
X97615933Y-84389788D01*
X97615927Y-84389786D01*
X97427332Y-84332576D01*
X97427329Y-84332575D01*
X97231200Y-84313259D01*
X97035070Y-84332575D01*
X96846466Y-84389788D01*
X96672667Y-84482686D01*
X96667599Y-84486073D01*
X96666505Y-84484436D01*
X96610537Y-84508196D01*
X96541671Y-84496395D01*
X96525043Y-84485709D01*
X96524801Y-84486073D01*
X96519732Y-84482686D01*
X96345933Y-84389788D01*
X96345927Y-84389786D01*
X96157332Y-84332576D01*
X96157329Y-84332575D01*
X95961200Y-84313259D01*
X95765070Y-84332575D01*
X95576466Y-84389788D01*
X95402667Y-84482686D01*
X95397599Y-84486073D01*
X95396505Y-84484436D01*
X95340537Y-84508196D01*
X95271671Y-84496395D01*
X95255043Y-84485709D01*
X95254801Y-84486073D01*
X95249732Y-84482686D01*
X95075933Y-84389788D01*
X95075927Y-84389786D01*
X94887332Y-84332576D01*
X94887329Y-84332575D01*
X94691200Y-84313259D01*
X94495070Y-84332575D01*
X94306466Y-84389788D01*
X94132667Y-84482686D01*
X94132660Y-84482690D01*
X93980316Y-84607716D01*
X93855290Y-84760060D01*
X93855286Y-84760067D01*
X93762388Y-84933866D01*
X93705175Y-85122470D01*
X93685859Y-85318600D01*
X93699963Y-85461806D01*
X93686944Y-85530452D01*
X93638879Y-85581162D01*
X93571028Y-85597837D01*
X93564406Y-85597363D01*
X93421200Y-85583259D01*
X93277993Y-85597363D01*
X93209347Y-85584344D01*
X93158636Y-85536279D01*
X93141962Y-85468428D01*
X93142434Y-85461830D01*
X93156541Y-85318600D01*
X93137224Y-85122468D01*
X93080014Y-84933873D01*
X93080011Y-84933869D01*
X93080011Y-84933866D01*
X92987113Y-84760067D01*
X92987109Y-84760060D01*
X92862083Y-84607716D01*
X92709739Y-84482690D01*
X92709732Y-84482686D01*
X92535933Y-84389788D01*
X92535927Y-84389786D01*
X92347332Y-84332576D01*
X92347329Y-84332575D01*
X92151200Y-84313259D01*
X91955070Y-84332575D01*
X91766466Y-84389788D01*
X91592667Y-84482686D01*
X91587599Y-84486073D01*
X91586505Y-84484436D01*
X91530537Y-84508196D01*
X91461671Y-84496395D01*
X91445043Y-84485709D01*
X91444801Y-84486073D01*
X91439732Y-84482686D01*
X91265933Y-84389788D01*
X91265927Y-84389786D01*
X91077332Y-84332576D01*
X91077329Y-84332575D01*
X90881200Y-84313259D01*
X90685070Y-84332575D01*
X90496466Y-84389788D01*
X90322667Y-84482686D01*
X90317599Y-84486073D01*
X90316505Y-84484436D01*
X90260537Y-84508196D01*
X90191671Y-84496395D01*
X90175043Y-84485709D01*
X90174801Y-84486073D01*
X90169732Y-84482686D01*
X89995933Y-84389788D01*
X89995927Y-84389786D01*
X89807332Y-84332576D01*
X89807329Y-84332575D01*
X89611200Y-84313259D01*
X89415070Y-84332575D01*
X89226466Y-84389788D01*
X89052667Y-84482686D01*
X89047599Y-84486073D01*
X89046505Y-84484436D01*
X88990537Y-84508196D01*
X88921671Y-84496395D01*
X88905043Y-84485709D01*
X88904801Y-84486073D01*
X88899732Y-84482686D01*
X88725933Y-84389788D01*
X88725927Y-84389786D01*
X88537332Y-84332576D01*
X88537329Y-84332575D01*
X88341200Y-84313259D01*
X88145070Y-84332575D01*
X87956466Y-84389788D01*
X87782667Y-84482686D01*
X87782660Y-84482690D01*
X87630316Y-84607716D01*
X87505290Y-84760060D01*
X87505286Y-84760067D01*
X87412388Y-84933866D01*
X87355175Y-85122470D01*
X87335859Y-85318600D01*
X87349963Y-85461806D01*
X87336944Y-85530452D01*
X87288879Y-85581162D01*
X87221028Y-85597837D01*
X87214406Y-85597363D01*
X87071200Y-85583259D01*
X86927993Y-85597363D01*
X86859347Y-85584344D01*
X86808636Y-85536279D01*
X86791962Y-85468428D01*
X86792434Y-85461830D01*
X86806541Y-85318600D01*
X86787224Y-85122468D01*
X86730014Y-84933873D01*
X86730011Y-84933869D01*
X86730011Y-84933866D01*
X86637113Y-84760067D01*
X86637109Y-84760060D01*
X86512083Y-84607716D01*
X86359739Y-84482690D01*
X86359732Y-84482686D01*
X86185933Y-84389788D01*
X86185927Y-84389786D01*
X85997332Y-84332576D01*
X85997329Y-84332575D01*
X85801200Y-84313259D01*
X85605070Y-84332575D01*
X85416466Y-84389788D01*
X85242667Y-84482686D01*
X85237599Y-84486073D01*
X85236505Y-84484436D01*
X85180537Y-84508196D01*
X85111671Y-84496395D01*
X85095043Y-84485709D01*
X85094801Y-84486073D01*
X85089732Y-84482686D01*
X84915933Y-84389788D01*
X84915927Y-84389786D01*
X84727332Y-84332576D01*
X84727329Y-84332575D01*
X84531200Y-84313259D01*
X84335070Y-84332575D01*
X84146466Y-84389788D01*
X83972667Y-84482686D01*
X83967599Y-84486073D01*
X83966505Y-84484436D01*
X83910537Y-84508196D01*
X83841671Y-84496395D01*
X83825043Y-84485709D01*
X83824801Y-84486073D01*
X83819732Y-84482686D01*
X83645933Y-84389788D01*
X83645927Y-84389786D01*
X83457332Y-84332576D01*
X83457329Y-84332575D01*
X83261200Y-84313259D01*
X83065070Y-84332575D01*
X82876466Y-84389788D01*
X82702667Y-84482686D01*
X82697599Y-84486073D01*
X82696505Y-84484436D01*
X82640537Y-84508196D01*
X82571671Y-84496395D01*
X82555043Y-84485709D01*
X82554801Y-84486073D01*
X82549732Y-84482686D01*
X82375933Y-84389788D01*
X82375927Y-84389786D01*
X82187332Y-84332576D01*
X82187329Y-84332575D01*
X81991200Y-84313259D01*
X81795070Y-84332575D01*
X81606466Y-84389788D01*
X81432667Y-84482686D01*
X81427599Y-84486073D01*
X81426505Y-84484436D01*
X81370537Y-84508196D01*
X81301671Y-84496395D01*
X81285043Y-84485709D01*
X81284801Y-84486073D01*
X81279732Y-84482686D01*
X81105933Y-84389788D01*
X81105927Y-84389786D01*
X80917332Y-84332576D01*
X80917329Y-84332575D01*
X80721200Y-84313259D01*
X80525070Y-84332575D01*
X80336466Y-84389788D01*
X80162667Y-84482686D01*
X80157599Y-84486073D01*
X80156505Y-84484436D01*
X80100537Y-84508196D01*
X80031671Y-84496395D01*
X80015043Y-84485709D01*
X80014801Y-84486073D01*
X80009732Y-84482686D01*
X79835933Y-84389788D01*
X79835927Y-84389786D01*
X79647332Y-84332576D01*
X79647329Y-84332575D01*
X79451200Y-84313259D01*
X79255070Y-84332575D01*
X79066466Y-84389788D01*
X78892667Y-84482686D01*
X78887599Y-84486073D01*
X78886505Y-84484436D01*
X78830537Y-84508196D01*
X78761671Y-84496395D01*
X78745043Y-84485709D01*
X78744801Y-84486073D01*
X78739732Y-84482686D01*
X78565933Y-84389788D01*
X78565927Y-84389786D01*
X78377332Y-84332576D01*
X78377329Y-84332575D01*
X78181200Y-84313259D01*
X77985070Y-84332575D01*
X77796466Y-84389788D01*
X77622667Y-84482686D01*
X77617599Y-84486073D01*
X77616505Y-84484436D01*
X77560537Y-84508196D01*
X77491671Y-84496395D01*
X77475043Y-84485709D01*
X77474801Y-84486073D01*
X77469732Y-84482686D01*
X77295933Y-84389788D01*
X77295927Y-84389786D01*
X77107332Y-84332576D01*
X77107329Y-84332575D01*
X76911200Y-84313259D01*
X76715070Y-84332575D01*
X76526466Y-84389788D01*
X76352667Y-84482686D01*
X76347599Y-84486073D01*
X76346505Y-84484436D01*
X76290537Y-84508196D01*
X76221671Y-84496395D01*
X76205043Y-84485709D01*
X76204801Y-84486073D01*
X76199732Y-84482686D01*
X76025933Y-84389788D01*
X76025927Y-84389786D01*
X75837332Y-84332576D01*
X75837329Y-84332575D01*
X75641200Y-84313259D01*
X75445070Y-84332575D01*
X75256466Y-84389788D01*
X75082667Y-84482686D01*
X75077599Y-84486073D01*
X75076505Y-84484436D01*
X75020537Y-84508196D01*
X74951671Y-84496395D01*
X74935043Y-84485709D01*
X74934801Y-84486073D01*
X74929732Y-84482686D01*
X74755933Y-84389788D01*
X74755927Y-84389786D01*
X74567332Y-84332576D01*
X74567329Y-84332575D01*
X74371200Y-84313259D01*
X74175069Y-84332575D01*
X74000495Y-84385532D01*
X73930628Y-84386155D01*
X73871515Y-84348907D01*
X73841924Y-84285613D01*
X73840500Y-84266871D01*
X73840500Y-39117705D01*
X73841809Y-39099735D01*
X73842129Y-39097547D01*
X73845289Y-39075977D01*
X73840972Y-39026630D01*
X73840500Y-39015822D01*
X73840500Y-39010296D01*
X73840500Y-39010291D01*
X73836901Y-38979509D01*
X73836536Y-38975929D01*
X73829999Y-38901201D01*
X73828539Y-38894129D01*
X73828597Y-38894116D01*
X73826965Y-38886757D01*
X73826906Y-38886772D01*
X73825241Y-38879751D01*
X73825241Y-38879745D01*
X73799569Y-38809212D01*
X73798421Y-38805909D01*
X73774814Y-38734666D01*
X73774810Y-38734659D01*
X73771760Y-38728118D01*
X73771815Y-38728091D01*
X73768533Y-38721313D01*
X73768480Y-38721340D01*
X73765235Y-38714880D01*
X73724025Y-38652223D01*
X73722086Y-38649181D01*
X73682710Y-38585342D01*
X73678234Y-38579682D01*
X73678281Y-38579644D01*
X73673519Y-38573799D01*
X73673474Y-38573838D01*
X73668831Y-38568305D01*
X73614272Y-38516831D01*
X73611685Y-38514318D01*
X70636819Y-35539451D01*
X70603334Y-35478128D01*
X70600500Y-35451770D01*
X70600500Y-33146996D01*
X70620185Y-33079957D01*
X70672989Y-33034202D01*
X70742147Y-33024258D01*
X70805703Y-33053283D01*
X70840682Y-33103663D01*
X70887402Y-33228928D01*
X70887406Y-33228935D01*
X70973652Y-33344144D01*
X70973655Y-33344147D01*
X71088864Y-33430393D01*
X71088871Y-33430397D01*
X71223717Y-33480691D01*
X71223716Y-33480691D01*
X71230644Y-33481435D01*
X71283327Y-33487100D01*
X72379072Y-33487099D01*
X72438683Y-33480691D01*
X72573531Y-33430396D01*
X72581579Y-33424370D01*
X72647042Y-33399951D01*
X72710674Y-33413495D01*
X72710845Y-33413083D01*
X72713075Y-33414006D01*
X72714346Y-33414277D01*
X72716473Y-33415414D01*
X72905068Y-33472624D01*
X73101200Y-33491941D01*
X73244408Y-33477836D01*
X73313052Y-33490855D01*
X73363762Y-33538920D01*
X73380437Y-33606770D01*
X73379963Y-33613393D01*
X73365859Y-33756599D01*
X73385175Y-33952729D01*
X73442388Y-34141333D01*
X73535286Y-34315132D01*
X73535290Y-34315139D01*
X73660316Y-34467483D01*
X73812660Y-34592509D01*
X73812667Y-34592513D01*
X73986466Y-34685411D01*
X73986469Y-34685411D01*
X73986473Y-34685414D01*
X74175068Y-34742624D01*
X74371200Y-34761941D01*
X74567332Y-34742624D01*
X74755927Y-34685414D01*
X74929738Y-34592510D01*
X74929744Y-34592504D01*
X74934807Y-34589123D01*
X74935903Y-34590764D01*
X74991839Y-34567005D01*
X75060707Y-34578794D01*
X75077348Y-34589488D01*
X75077593Y-34589123D01*
X75082658Y-34592507D01*
X75082662Y-34592510D01*
X75256473Y-34685414D01*
X75445068Y-34742624D01*
X75641200Y-34761941D01*
X75837332Y-34742624D01*
X76025927Y-34685414D01*
X76199738Y-34592510D01*
X76352083Y-34467483D01*
X76477110Y-34315138D01*
X76570014Y-34141327D01*
X76627224Y-33952732D01*
X76646541Y-33756600D01*
X76632436Y-33613391D01*
X76645455Y-33544747D01*
X76693520Y-33494037D01*
X76761370Y-33477362D01*
X76767971Y-33477834D01*
X76911200Y-33491941D01*
X77054408Y-33477836D01*
X77123052Y-33490855D01*
X77173762Y-33538920D01*
X77190437Y-33606770D01*
X77189963Y-33613393D01*
X77175859Y-33756599D01*
X77195175Y-33952729D01*
X77252388Y-34141333D01*
X77345286Y-34315132D01*
X77345290Y-34315139D01*
X77470316Y-34467483D01*
X77622660Y-34592509D01*
X77622667Y-34592513D01*
X77796466Y-34685411D01*
X77796469Y-34685411D01*
X77796473Y-34685414D01*
X77985068Y-34742624D01*
X78181200Y-34761941D01*
X78377332Y-34742624D01*
X78565927Y-34685414D01*
X78739738Y-34592510D01*
X78739744Y-34592504D01*
X78744807Y-34589123D01*
X78745903Y-34590764D01*
X78801839Y-34567005D01*
X78870707Y-34578794D01*
X78887348Y-34589488D01*
X78887593Y-34589123D01*
X78892658Y-34592507D01*
X78892662Y-34592510D01*
X79066473Y-34685414D01*
X79255068Y-34742624D01*
X79451200Y-34761941D01*
X79647332Y-34742624D01*
X79835927Y-34685414D01*
X80009738Y-34592510D01*
X80009744Y-34592504D01*
X80014807Y-34589123D01*
X80015903Y-34590764D01*
X80071839Y-34567005D01*
X80140707Y-34578794D01*
X80157348Y-34589488D01*
X80157593Y-34589123D01*
X80162658Y-34592507D01*
X80162662Y-34592510D01*
X80336473Y-34685414D01*
X80525068Y-34742624D01*
X80721200Y-34761941D01*
X80917332Y-34742624D01*
X81105927Y-34685414D01*
X81279738Y-34592510D01*
X81279744Y-34592504D01*
X81284807Y-34589123D01*
X81285903Y-34590764D01*
X81341839Y-34567005D01*
X81410707Y-34578794D01*
X81427348Y-34589488D01*
X81427593Y-34589123D01*
X81432658Y-34592507D01*
X81432662Y-34592510D01*
X81606473Y-34685414D01*
X81795068Y-34742624D01*
X81991200Y-34761941D01*
X82187332Y-34742624D01*
X82375927Y-34685414D01*
X82549738Y-34592510D01*
X82702083Y-34467483D01*
X82827110Y-34315138D01*
X82920014Y-34141327D01*
X82977224Y-33952732D01*
X82996541Y-33756600D01*
X82982436Y-33613391D01*
X82995455Y-33544747D01*
X83043520Y-33494037D01*
X83111370Y-33477362D01*
X83117971Y-33477834D01*
X83261200Y-33491941D01*
X83404408Y-33477836D01*
X83473052Y-33490855D01*
X83523762Y-33538920D01*
X83540437Y-33606770D01*
X83539963Y-33613393D01*
X83525859Y-33756599D01*
X83545175Y-33952729D01*
X83602388Y-34141333D01*
X83695286Y-34315132D01*
X83695290Y-34315139D01*
X83820316Y-34467483D01*
X83972660Y-34592509D01*
X83972667Y-34592513D01*
X84146466Y-34685411D01*
X84146469Y-34685411D01*
X84146473Y-34685414D01*
X84335068Y-34742624D01*
X84531200Y-34761941D01*
X84727332Y-34742624D01*
X84915927Y-34685414D01*
X85089738Y-34592510D01*
X85089744Y-34592504D01*
X85094807Y-34589123D01*
X85095903Y-34590764D01*
X85151839Y-34567005D01*
X85220707Y-34578794D01*
X85237348Y-34589488D01*
X85237593Y-34589123D01*
X85242658Y-34592507D01*
X85242662Y-34592510D01*
X85416473Y-34685414D01*
X85605068Y-34742624D01*
X85801200Y-34761941D01*
X85997332Y-34742624D01*
X86185927Y-34685414D01*
X86359738Y-34592510D01*
X86359744Y-34592504D01*
X86364807Y-34589123D01*
X86365903Y-34590764D01*
X86421839Y-34567005D01*
X86490707Y-34578794D01*
X86507348Y-34589488D01*
X86507593Y-34589123D01*
X86512658Y-34592507D01*
X86512662Y-34592510D01*
X86686473Y-34685414D01*
X86875068Y-34742624D01*
X87071200Y-34761941D01*
X87267332Y-34742624D01*
X87455927Y-34685414D01*
X87629738Y-34592510D01*
X87629744Y-34592504D01*
X87634807Y-34589123D01*
X87635903Y-34590764D01*
X87691839Y-34567005D01*
X87760707Y-34578794D01*
X87777348Y-34589488D01*
X87777593Y-34589123D01*
X87782658Y-34592507D01*
X87782662Y-34592510D01*
X87956473Y-34685414D01*
X88145068Y-34742624D01*
X88341200Y-34761941D01*
X88537332Y-34742624D01*
X88725927Y-34685414D01*
X88899738Y-34592510D01*
X89052083Y-34467483D01*
X89177110Y-34315138D01*
X89270014Y-34141327D01*
X89327224Y-33952732D01*
X89346541Y-33756600D01*
X89332436Y-33613391D01*
X89345455Y-33544747D01*
X89393520Y-33494037D01*
X89461370Y-33477362D01*
X89467971Y-33477834D01*
X89611200Y-33491941D01*
X89754408Y-33477836D01*
X89823052Y-33490855D01*
X89873762Y-33538920D01*
X89890437Y-33606770D01*
X89889963Y-33613393D01*
X89875859Y-33756599D01*
X89895175Y-33952729D01*
X89952388Y-34141333D01*
X90045286Y-34315132D01*
X90045290Y-34315139D01*
X90170316Y-34467483D01*
X90322660Y-34592509D01*
X90322667Y-34592513D01*
X90496466Y-34685411D01*
X90496469Y-34685411D01*
X90496473Y-34685414D01*
X90685068Y-34742624D01*
X90881200Y-34761941D01*
X91077332Y-34742624D01*
X91265927Y-34685414D01*
X91439738Y-34592510D01*
X91439744Y-34592504D01*
X91444807Y-34589123D01*
X91445903Y-34590764D01*
X91501839Y-34567005D01*
X91570707Y-34578794D01*
X91587348Y-34589488D01*
X91587593Y-34589123D01*
X91592658Y-34592507D01*
X91592662Y-34592510D01*
X91766473Y-34685414D01*
X91955068Y-34742624D01*
X92151200Y-34761941D01*
X92347332Y-34742624D01*
X92535927Y-34685414D01*
X92709738Y-34592510D01*
X92709744Y-34592504D01*
X92714807Y-34589123D01*
X92715903Y-34590764D01*
X92771839Y-34567005D01*
X92840707Y-34578794D01*
X92857348Y-34589488D01*
X92857593Y-34589123D01*
X92862658Y-34592507D01*
X92862662Y-34592510D01*
X93036473Y-34685414D01*
X93225068Y-34742624D01*
X93421200Y-34761941D01*
X93617332Y-34742624D01*
X93805927Y-34685414D01*
X93979738Y-34592510D01*
X93979744Y-34592504D01*
X93984807Y-34589123D01*
X93985903Y-34590764D01*
X94041839Y-34567005D01*
X94110707Y-34578794D01*
X94127348Y-34589488D01*
X94127593Y-34589123D01*
X94132658Y-34592507D01*
X94132662Y-34592510D01*
X94306473Y-34685414D01*
X94495068Y-34742624D01*
X94691200Y-34761941D01*
X94887332Y-34742624D01*
X95075927Y-34685414D01*
X95249738Y-34592510D01*
X95402083Y-34467483D01*
X95527110Y-34315138D01*
X95620014Y-34141327D01*
X95677224Y-33952732D01*
X95696541Y-33756600D01*
X95682436Y-33613391D01*
X95695455Y-33544747D01*
X95743520Y-33494037D01*
X95811370Y-33477362D01*
X95817971Y-33477834D01*
X95961200Y-33491941D01*
X96104408Y-33477836D01*
X96173052Y-33490855D01*
X96223762Y-33538920D01*
X96240437Y-33606770D01*
X96239963Y-33613393D01*
X96225859Y-33756599D01*
X96245175Y-33952729D01*
X96302388Y-34141333D01*
X96395286Y-34315132D01*
X96395290Y-34315139D01*
X96520316Y-34467483D01*
X96672660Y-34592509D01*
X96672667Y-34592513D01*
X96846466Y-34685411D01*
X96846469Y-34685411D01*
X96846473Y-34685414D01*
X97035068Y-34742624D01*
X97231200Y-34761941D01*
X97427332Y-34742624D01*
X97615927Y-34685414D01*
X97789738Y-34592510D01*
X97789744Y-34592504D01*
X97794807Y-34589123D01*
X97795903Y-34590764D01*
X97851839Y-34567005D01*
X97920707Y-34578794D01*
X97937348Y-34589488D01*
X97937593Y-34589123D01*
X97942658Y-34592507D01*
X97942662Y-34592510D01*
X98116473Y-34685414D01*
X98305068Y-34742624D01*
X98501200Y-34761941D01*
X98697332Y-34742624D01*
X98885927Y-34685414D01*
X99059738Y-34592510D01*
X99059744Y-34592504D01*
X99064807Y-34589123D01*
X99065903Y-34590764D01*
X99121839Y-34567005D01*
X99190707Y-34578794D01*
X99207348Y-34589488D01*
X99207593Y-34589123D01*
X99212658Y-34592507D01*
X99212662Y-34592510D01*
X99386473Y-34685414D01*
X99575068Y-34742624D01*
X99771200Y-34761941D01*
X99967332Y-34742624D01*
X100155927Y-34685414D01*
X100329738Y-34592510D01*
X100329744Y-34592504D01*
X100334807Y-34589123D01*
X100335903Y-34590764D01*
X100391839Y-34567005D01*
X100460707Y-34578794D01*
X100477348Y-34589488D01*
X100477593Y-34589123D01*
X100482658Y-34592507D01*
X100482662Y-34592510D01*
X100656473Y-34685414D01*
X100845068Y-34742624D01*
X101041200Y-34761941D01*
X101237332Y-34742624D01*
X101425927Y-34685414D01*
X101599738Y-34592510D01*
X101752083Y-34467483D01*
X101877110Y-34315138D01*
X101970014Y-34141327D01*
X102027224Y-33952732D01*
X102046541Y-33756600D01*
X102032436Y-33613391D01*
X102045455Y-33544747D01*
X102093520Y-33494037D01*
X102161370Y-33477362D01*
X102167971Y-33477834D01*
X102311200Y-33491941D01*
X102454408Y-33477836D01*
X102523052Y-33490855D01*
X102573762Y-33538920D01*
X102590437Y-33606770D01*
X102589963Y-33613393D01*
X102575859Y-33756599D01*
X102595175Y-33952729D01*
X102652388Y-34141333D01*
X102745286Y-34315132D01*
X102745290Y-34315139D01*
X102870316Y-34467483D01*
X103022660Y-34592509D01*
X103022667Y-34592513D01*
X103196466Y-34685411D01*
X103196469Y-34685411D01*
X103196473Y-34685414D01*
X103385068Y-34742624D01*
X103581200Y-34761941D01*
X103777332Y-34742624D01*
X103965927Y-34685414D01*
X104139738Y-34592510D01*
X104139744Y-34592504D01*
X104144807Y-34589123D01*
X104145903Y-34590764D01*
X104201839Y-34567005D01*
X104270707Y-34578794D01*
X104287348Y-34589488D01*
X104287593Y-34589123D01*
X104292658Y-34592507D01*
X104292662Y-34592510D01*
X104466473Y-34685414D01*
X104655068Y-34742624D01*
X104851200Y-34761941D01*
X105047332Y-34742624D01*
X105235927Y-34685414D01*
X105409738Y-34592510D01*
X105409744Y-34592504D01*
X105414807Y-34589123D01*
X105415903Y-34590764D01*
X105471839Y-34567005D01*
X105540707Y-34578794D01*
X105557348Y-34589488D01*
X105557593Y-34589123D01*
X105562658Y-34592507D01*
X105562662Y-34592510D01*
X105736473Y-34685414D01*
X105925068Y-34742624D01*
X106121200Y-34761941D01*
X106317332Y-34742624D01*
X106505927Y-34685414D01*
X106679738Y-34592510D01*
X106679744Y-34592504D01*
X106684807Y-34589123D01*
X106685903Y-34590764D01*
X106741839Y-34567005D01*
X106810707Y-34578794D01*
X106827348Y-34589488D01*
X106827593Y-34589123D01*
X106832658Y-34592507D01*
X106832662Y-34592510D01*
X107006473Y-34685414D01*
X107195068Y-34742624D01*
X107391200Y-34761941D01*
X107587332Y-34742624D01*
X107775927Y-34685414D01*
X107949738Y-34592510D01*
X108102083Y-34467483D01*
X108227110Y-34315138D01*
X108320014Y-34141327D01*
X108377224Y-33952732D01*
X108396541Y-33756600D01*
X108382436Y-33613391D01*
X108395455Y-33544747D01*
X108443520Y-33494037D01*
X108511370Y-33477362D01*
X108517971Y-33477834D01*
X108661200Y-33491941D01*
X108804408Y-33477836D01*
X108873052Y-33490855D01*
X108923762Y-33538920D01*
X108940437Y-33606770D01*
X108939963Y-33613393D01*
X108925859Y-33756599D01*
X108945175Y-33952729D01*
X109002388Y-34141333D01*
X109095286Y-34315132D01*
X109095290Y-34315139D01*
X109220316Y-34467483D01*
X109372660Y-34592509D01*
X109372667Y-34592513D01*
X109546466Y-34685411D01*
X109546469Y-34685411D01*
X109546473Y-34685414D01*
X109735068Y-34742624D01*
X109931200Y-34761941D01*
X110127332Y-34742624D01*
X110315927Y-34685414D01*
X110489738Y-34592510D01*
X110489744Y-34592504D01*
X110494807Y-34589123D01*
X110495903Y-34590764D01*
X110551839Y-34567005D01*
X110620707Y-34578794D01*
X110637348Y-34589488D01*
X110637593Y-34589123D01*
X110642658Y-34592507D01*
X110642662Y-34592510D01*
X110816473Y-34685414D01*
X111005068Y-34742624D01*
X111201200Y-34761941D01*
X111397332Y-34742624D01*
X111585927Y-34685414D01*
X111759738Y-34592510D01*
X111759744Y-34592504D01*
X111764807Y-34589123D01*
X111765903Y-34590764D01*
X111821839Y-34567005D01*
X111890707Y-34578794D01*
X111907348Y-34589488D01*
X111907593Y-34589123D01*
X111912658Y-34592507D01*
X111912662Y-34592510D01*
X112086473Y-34685414D01*
X112275068Y-34742624D01*
X112471200Y-34761941D01*
X112667332Y-34742624D01*
X112855927Y-34685414D01*
X113029738Y-34592510D01*
X113029744Y-34592504D01*
X113034807Y-34589123D01*
X113035903Y-34590764D01*
X113091839Y-34567005D01*
X113160707Y-34578794D01*
X113177348Y-34589488D01*
X113177593Y-34589123D01*
X113182658Y-34592507D01*
X113182662Y-34592510D01*
X113356473Y-34685414D01*
X113545068Y-34742624D01*
X113741200Y-34761941D01*
X113937332Y-34742624D01*
X114125927Y-34685414D01*
X114299738Y-34592510D01*
X114452083Y-34467483D01*
X114577110Y-34315138D01*
X114670014Y-34141327D01*
X114727224Y-33952732D01*
X114746541Y-33756600D01*
X114732436Y-33613391D01*
X114745455Y-33544747D01*
X114793520Y-33494037D01*
X114861370Y-33477362D01*
X114867971Y-33477834D01*
X115011200Y-33491941D01*
X115154408Y-33477836D01*
X115223052Y-33490855D01*
X115273762Y-33538920D01*
X115290437Y-33606770D01*
X115289963Y-33613393D01*
X115275859Y-33756599D01*
X115295175Y-33952729D01*
X115352388Y-34141333D01*
X115445286Y-34315132D01*
X115445290Y-34315139D01*
X115570316Y-34467483D01*
X115722660Y-34592509D01*
X115722667Y-34592513D01*
X115896466Y-34685411D01*
X115896469Y-34685411D01*
X115896473Y-34685414D01*
X116085068Y-34742624D01*
X116281200Y-34761941D01*
X116477332Y-34742624D01*
X116665927Y-34685414D01*
X116839738Y-34592510D01*
X116839744Y-34592504D01*
X116844807Y-34589123D01*
X116845903Y-34590764D01*
X116901839Y-34567005D01*
X116970707Y-34578794D01*
X116987348Y-34589488D01*
X116987593Y-34589123D01*
X116992658Y-34592507D01*
X116992662Y-34592510D01*
X117166473Y-34685414D01*
X117355068Y-34742624D01*
X117551200Y-34761941D01*
X117747332Y-34742624D01*
X117935927Y-34685414D01*
X118109738Y-34592510D01*
X118109744Y-34592504D01*
X118114807Y-34589123D01*
X118115903Y-34590764D01*
X118171839Y-34567005D01*
X118240707Y-34578794D01*
X118257348Y-34589488D01*
X118257593Y-34589123D01*
X118262658Y-34592507D01*
X118262662Y-34592510D01*
X118436473Y-34685414D01*
X118625068Y-34742624D01*
X118821200Y-34761941D01*
X119017332Y-34742624D01*
X119205927Y-34685414D01*
X119379738Y-34592510D01*
X119379744Y-34592504D01*
X119384807Y-34589123D01*
X119385903Y-34590764D01*
X119441839Y-34567005D01*
X119510707Y-34578794D01*
X119527348Y-34589488D01*
X119527593Y-34589123D01*
X119532658Y-34592507D01*
X119532662Y-34592510D01*
X119706473Y-34685414D01*
X119895068Y-34742624D01*
X120091200Y-34761941D01*
X120287332Y-34742624D01*
X120475927Y-34685414D01*
X120649738Y-34592510D01*
X120802083Y-34467483D01*
X120927110Y-34315138D01*
X121020014Y-34141327D01*
X121077224Y-33952732D01*
X121096541Y-33756600D01*
X121082436Y-33613391D01*
X121095455Y-33544747D01*
X121143520Y-33494037D01*
X121211370Y-33477362D01*
X121217971Y-33477834D01*
X121361200Y-33491941D01*
X121557332Y-33472624D01*
X121745927Y-33415414D01*
X121748053Y-33414278D01*
X121879260Y-33344146D01*
X121919738Y-33322510D01*
X122072083Y-33197483D01*
X122197110Y-33045138D01*
X122290014Y-32871327D01*
X122347224Y-32682732D01*
X122366541Y-32486600D01*
X122347224Y-32290468D01*
X122333697Y-32245876D01*
X122326544Y-32222295D01*
X122325921Y-32152428D01*
X122363169Y-32093315D01*
X122426464Y-32063724D01*
X122445205Y-32062300D01*
X128395695Y-32062300D01*
X128411705Y-32064067D01*
X128411728Y-32063826D01*
X128419489Y-32064558D01*
X128419496Y-32064560D01*
X128489462Y-32062360D01*
X128493357Y-32062300D01*
X128522125Y-32062300D01*
X128526487Y-32061748D01*
X128538139Y-32060830D01*
X128583769Y-32059397D01*
X128604156Y-32053473D01*
X128623196Y-32049531D01*
X128644258Y-32046871D01*
X128686720Y-32030058D01*
X128697757Y-32026280D01*
X128741598Y-32013544D01*
X128759865Y-32002739D01*
X128777336Y-31994180D01*
X128797071Y-31986368D01*
X128834016Y-31959525D01*
X128843758Y-31953126D01*
X128883065Y-31929881D01*
X128898070Y-31914875D01*
X128912868Y-31902236D01*
X128930037Y-31889763D01*
X128959146Y-31854574D01*
X128966990Y-31845954D01*
X138383238Y-22429706D01*
X138444559Y-22396223D01*
X138503006Y-22397613D01*
X138575592Y-22417063D01*
X138752034Y-22432500D01*
X138810999Y-22437659D01*
X138811000Y-22437659D01*
X138811001Y-22437659D01*
X138869966Y-22432500D01*
X139046408Y-22417063D01*
X139274663Y-22355903D01*
X139488830Y-22256035D01*
X139682401Y-22120495D01*
X139849495Y-21953401D01*
X139985035Y-21759830D01*
X140084903Y-21545663D01*
X140146063Y-21317408D01*
X140166659Y-21082000D01*
X140146063Y-20846592D01*
X140084903Y-20618337D01*
X139985035Y-20404171D01*
X139979425Y-20396158D01*
X139849494Y-20210597D01*
X139682402Y-20043506D01*
X139682395Y-20043501D01*
X139488834Y-19907967D01*
X139488830Y-19907965D01*
X139488828Y-19907964D01*
X139274663Y-19808097D01*
X139274659Y-19808096D01*
X139274655Y-19808094D01*
X139046413Y-19746938D01*
X139046403Y-19746936D01*
X138811001Y-19726341D01*
X138810999Y-19726341D01*
X138575596Y-19746936D01*
X138575586Y-19746938D01*
X138347344Y-19808094D01*
X138347335Y-19808098D01*
X138133171Y-19907964D01*
X138133169Y-19907965D01*
X137939597Y-20043505D01*
X137772505Y-20210597D01*
X137642575Y-20396158D01*
X137587998Y-20439783D01*
X137518500Y-20446977D01*
X137456145Y-20415454D01*
X137439425Y-20396158D01*
X137309494Y-20210597D01*
X137142402Y-20043506D01*
X137142395Y-20043501D01*
X136948834Y-19907967D01*
X136948830Y-19907965D01*
X136948828Y-19907964D01*
X136734663Y-19808097D01*
X136734659Y-19808096D01*
X136734655Y-19808094D01*
X136506413Y-19746938D01*
X136506403Y-19746936D01*
X136271001Y-19726341D01*
X136270999Y-19726341D01*
X136035596Y-19746936D01*
X136035586Y-19746938D01*
X135807344Y-19808094D01*
X135807335Y-19808098D01*
X135593171Y-19907964D01*
X135593169Y-19907965D01*
X135399597Y-20043505D01*
X135232505Y-20210597D01*
X135102575Y-20396158D01*
X135047998Y-20439783D01*
X134978500Y-20446977D01*
X134916145Y-20415454D01*
X134899425Y-20396158D01*
X134769494Y-20210597D01*
X134602402Y-20043506D01*
X134602395Y-20043501D01*
X134408834Y-19907967D01*
X134408830Y-19907965D01*
X134408828Y-19907964D01*
X134194663Y-19808097D01*
X134194659Y-19808096D01*
X134194655Y-19808094D01*
X133966413Y-19746938D01*
X133966403Y-19746936D01*
X133731001Y-19726341D01*
X133730999Y-19726341D01*
X133495596Y-19746936D01*
X133495586Y-19746938D01*
X133267344Y-19808094D01*
X133267335Y-19808098D01*
X133053171Y-19907964D01*
X133053169Y-19907965D01*
X132859597Y-20043505D01*
X132692505Y-20210597D01*
X132562575Y-20396158D01*
X132507998Y-20439783D01*
X132438500Y-20446977D01*
X132376145Y-20415454D01*
X132359425Y-20396158D01*
X132229494Y-20210597D01*
X132062402Y-20043506D01*
X132062395Y-20043501D01*
X131868834Y-19907967D01*
X131868830Y-19907965D01*
X131868828Y-19907964D01*
X131654663Y-19808097D01*
X131654659Y-19808096D01*
X131654655Y-19808094D01*
X131426413Y-19746938D01*
X131426403Y-19746936D01*
X131191001Y-19726341D01*
X131190999Y-19726341D01*
X130955596Y-19746936D01*
X130955586Y-19746938D01*
X130727344Y-19808094D01*
X130727335Y-19808098D01*
X130513171Y-19907964D01*
X130513169Y-19907965D01*
X130319597Y-20043505D01*
X130152505Y-20210597D01*
X130022575Y-20396158D01*
X129967998Y-20439783D01*
X129898500Y-20446977D01*
X129836145Y-20415454D01*
X129819425Y-20396158D01*
X129689494Y-20210597D01*
X129522402Y-20043506D01*
X129522395Y-20043501D01*
X129328834Y-19907967D01*
X129328830Y-19907965D01*
X129328828Y-19907964D01*
X129114663Y-19808097D01*
X129114659Y-19808096D01*
X129114655Y-19808094D01*
X128886413Y-19746938D01*
X128886403Y-19746936D01*
X128651001Y-19726341D01*
X128650999Y-19726341D01*
X128415596Y-19746936D01*
X128415586Y-19746938D01*
X128187344Y-19808094D01*
X128187335Y-19808098D01*
X127973171Y-19907964D01*
X127973169Y-19907965D01*
X127779597Y-20043505D01*
X127612505Y-20210597D01*
X127482575Y-20396158D01*
X127427998Y-20439783D01*
X127358500Y-20446977D01*
X127296145Y-20415454D01*
X127279425Y-20396158D01*
X127149494Y-20210597D01*
X126982402Y-20043506D01*
X126982395Y-20043501D01*
X126788834Y-19907967D01*
X126788830Y-19907965D01*
X126788828Y-19907964D01*
X126574663Y-19808097D01*
X126574659Y-19808096D01*
X126574655Y-19808094D01*
X126346413Y-19746938D01*
X126346403Y-19746936D01*
X126111001Y-19726341D01*
X126110999Y-19726341D01*
X125875596Y-19746936D01*
X125875586Y-19746938D01*
X125647344Y-19808094D01*
X125647335Y-19808098D01*
X125433171Y-19907964D01*
X125433169Y-19907965D01*
X125239597Y-20043505D01*
X125072505Y-20210597D01*
X124942575Y-20396158D01*
X124887998Y-20439783D01*
X124818500Y-20446977D01*
X124756145Y-20415454D01*
X124739425Y-20396158D01*
X124609494Y-20210597D01*
X124442402Y-20043506D01*
X124442395Y-20043501D01*
X124248834Y-19907967D01*
X124248830Y-19907965D01*
X124248828Y-19907964D01*
X124034663Y-19808097D01*
X124034659Y-19808096D01*
X124034655Y-19808094D01*
X123806413Y-19746938D01*
X123806403Y-19746936D01*
X123571001Y-19726341D01*
X123570999Y-19726341D01*
X123335596Y-19746936D01*
X123335586Y-19746938D01*
X123107344Y-19808094D01*
X123107335Y-19808098D01*
X122893171Y-19907964D01*
X122893169Y-19907965D01*
X122699597Y-20043505D01*
X122532505Y-20210597D01*
X122402575Y-20396158D01*
X122347998Y-20439783D01*
X122278500Y-20446977D01*
X122216145Y-20415454D01*
X122199425Y-20396158D01*
X122069494Y-20210597D01*
X121902402Y-20043506D01*
X121902395Y-20043501D01*
X121708834Y-19907967D01*
X121708830Y-19907965D01*
X121708828Y-19907964D01*
X121494663Y-19808097D01*
X121494659Y-19808096D01*
X121494655Y-19808094D01*
X121266413Y-19746938D01*
X121266403Y-19746936D01*
X121031001Y-19726341D01*
X121030999Y-19726341D01*
X120795596Y-19746936D01*
X120795586Y-19746938D01*
X120567344Y-19808094D01*
X120567335Y-19808098D01*
X120353171Y-19907964D01*
X120353169Y-19907965D01*
X120159597Y-20043505D01*
X119992505Y-20210597D01*
X119862575Y-20396158D01*
X119807998Y-20439783D01*
X119738500Y-20446977D01*
X119676145Y-20415454D01*
X119659425Y-20396158D01*
X119529494Y-20210597D01*
X119362402Y-20043506D01*
X119362395Y-20043501D01*
X119168834Y-19907967D01*
X119168830Y-19907965D01*
X119168828Y-19907964D01*
X118954663Y-19808097D01*
X118954659Y-19808096D01*
X118954655Y-19808094D01*
X118726413Y-19746938D01*
X118726403Y-19746936D01*
X118491001Y-19726341D01*
X118490999Y-19726341D01*
X118255596Y-19746936D01*
X118255586Y-19746938D01*
X118027344Y-19808094D01*
X118027335Y-19808098D01*
X117813171Y-19907964D01*
X117813169Y-19907965D01*
X117619597Y-20043505D01*
X117452505Y-20210597D01*
X117322575Y-20396158D01*
X117267998Y-20439783D01*
X117198500Y-20446977D01*
X117136145Y-20415454D01*
X117119425Y-20396158D01*
X116989494Y-20210597D01*
X116822402Y-20043506D01*
X116822395Y-20043501D01*
X116628834Y-19907967D01*
X116628830Y-19907965D01*
X116628828Y-19907964D01*
X116414663Y-19808097D01*
X116414659Y-19808096D01*
X116414655Y-19808094D01*
X116186413Y-19746938D01*
X116186403Y-19746936D01*
X115951001Y-19726341D01*
X115950999Y-19726341D01*
X115715596Y-19746936D01*
X115715586Y-19746938D01*
X115487344Y-19808094D01*
X115487335Y-19808098D01*
X115273171Y-19907964D01*
X115273169Y-19907965D01*
X115079597Y-20043505D01*
X114912505Y-20210597D01*
X114782575Y-20396158D01*
X114727998Y-20439783D01*
X114658500Y-20446977D01*
X114596145Y-20415454D01*
X114579425Y-20396158D01*
X114449494Y-20210597D01*
X114282402Y-20043506D01*
X114282395Y-20043501D01*
X114088834Y-19907967D01*
X114088830Y-19907965D01*
X114088828Y-19907964D01*
X113874663Y-19808097D01*
X113874659Y-19808096D01*
X113874655Y-19808094D01*
X113646413Y-19746938D01*
X113646403Y-19746936D01*
X113411001Y-19726341D01*
X113410999Y-19726341D01*
X113175596Y-19746936D01*
X113175586Y-19746938D01*
X112947344Y-19808094D01*
X112947335Y-19808098D01*
X112733171Y-19907964D01*
X112733169Y-19907965D01*
X112539597Y-20043505D01*
X112372505Y-20210597D01*
X112242575Y-20396158D01*
X112187998Y-20439783D01*
X112118500Y-20446977D01*
X112056145Y-20415454D01*
X112039425Y-20396158D01*
X111909494Y-20210597D01*
X111742402Y-20043506D01*
X111742395Y-20043501D01*
X111548834Y-19907967D01*
X111548830Y-19907965D01*
X111548828Y-19907964D01*
X111334663Y-19808097D01*
X111334659Y-19808096D01*
X111334655Y-19808094D01*
X111106413Y-19746938D01*
X111106403Y-19746936D01*
X110871001Y-19726341D01*
X110870999Y-19726341D01*
X110635596Y-19746936D01*
X110635586Y-19746938D01*
X110407344Y-19808094D01*
X110407335Y-19808098D01*
X110193171Y-19907964D01*
X110193169Y-19907965D01*
X109999597Y-20043505D01*
X109832505Y-20210597D01*
X109702575Y-20396158D01*
X109647998Y-20439783D01*
X109578500Y-20446977D01*
X109516145Y-20415454D01*
X109499425Y-20396158D01*
X109369494Y-20210597D01*
X109202402Y-20043506D01*
X109202395Y-20043501D01*
X109008834Y-19907967D01*
X109008830Y-19907965D01*
X109008828Y-19907964D01*
X108794663Y-19808097D01*
X108794659Y-19808096D01*
X108794655Y-19808094D01*
X108566413Y-19746938D01*
X108566403Y-19746936D01*
X108331001Y-19726341D01*
X108330999Y-19726341D01*
X108095596Y-19746936D01*
X108095586Y-19746938D01*
X107867344Y-19808094D01*
X107867335Y-19808098D01*
X107653171Y-19907964D01*
X107653169Y-19907965D01*
X107459597Y-20043505D01*
X107292505Y-20210597D01*
X107162575Y-20396158D01*
X107107998Y-20439783D01*
X107038500Y-20446977D01*
X106976145Y-20415454D01*
X106959425Y-20396158D01*
X106829494Y-20210597D01*
X106662402Y-20043506D01*
X106662395Y-20043501D01*
X106468834Y-19907967D01*
X106468830Y-19907965D01*
X106468828Y-19907964D01*
X106254663Y-19808097D01*
X106254659Y-19808096D01*
X106254655Y-19808094D01*
X106026413Y-19746938D01*
X106026403Y-19746936D01*
X105791001Y-19726341D01*
X105790999Y-19726341D01*
X105555596Y-19746936D01*
X105555586Y-19746938D01*
X105327344Y-19808094D01*
X105327335Y-19808098D01*
X105113171Y-19907964D01*
X105113169Y-19907965D01*
X104919597Y-20043505D01*
X104752505Y-20210597D01*
X104622575Y-20396158D01*
X104567998Y-20439783D01*
X104498500Y-20446977D01*
X104436145Y-20415454D01*
X104419425Y-20396158D01*
X104289494Y-20210597D01*
X104122402Y-20043506D01*
X104122395Y-20043501D01*
X103928834Y-19907967D01*
X103928830Y-19907965D01*
X103928828Y-19907964D01*
X103714663Y-19808097D01*
X103714659Y-19808096D01*
X103714655Y-19808094D01*
X103486413Y-19746938D01*
X103486403Y-19746936D01*
X103251001Y-19726341D01*
X103250999Y-19726341D01*
X103015596Y-19746936D01*
X103015586Y-19746938D01*
X102787344Y-19808094D01*
X102787335Y-19808098D01*
X102573171Y-19907964D01*
X102573169Y-19907965D01*
X102379597Y-20043505D01*
X102212505Y-20210597D01*
X102082575Y-20396158D01*
X102027998Y-20439783D01*
X101958500Y-20446977D01*
X101896145Y-20415454D01*
X101879425Y-20396158D01*
X101749494Y-20210597D01*
X101582402Y-20043506D01*
X101582395Y-20043501D01*
X101388834Y-19907967D01*
X101388830Y-19907965D01*
X101388828Y-19907964D01*
X101174663Y-19808097D01*
X101174659Y-19808096D01*
X101174655Y-19808094D01*
X100946413Y-19746938D01*
X100946403Y-19746936D01*
X100711001Y-19726341D01*
X100710999Y-19726341D01*
X100475596Y-19746936D01*
X100475586Y-19746938D01*
X100247344Y-19808094D01*
X100247335Y-19808098D01*
X100033171Y-19907964D01*
X100033169Y-19907965D01*
X99839597Y-20043505D01*
X99672505Y-20210597D01*
X99542575Y-20396158D01*
X99487998Y-20439783D01*
X99418500Y-20446977D01*
X99356145Y-20415454D01*
X99339425Y-20396158D01*
X99209494Y-20210597D01*
X99042402Y-20043506D01*
X99042395Y-20043501D01*
X98848834Y-19907967D01*
X98848830Y-19907965D01*
X98848828Y-19907964D01*
X98634663Y-19808097D01*
X98634659Y-19808096D01*
X98634655Y-19808094D01*
X98406413Y-19746938D01*
X98406403Y-19746936D01*
X98171001Y-19726341D01*
X98170999Y-19726341D01*
X97935596Y-19746936D01*
X97935586Y-19746938D01*
X97707344Y-19808094D01*
X97707335Y-19808098D01*
X97493171Y-19907964D01*
X97493169Y-19907965D01*
X97299597Y-20043505D01*
X97132505Y-20210597D01*
X97002575Y-20396158D01*
X96947998Y-20439783D01*
X96878500Y-20446977D01*
X96816145Y-20415454D01*
X96799425Y-20396158D01*
X96669494Y-20210597D01*
X96502402Y-20043506D01*
X96502395Y-20043501D01*
X96308834Y-19907967D01*
X96308830Y-19907965D01*
X96308828Y-19907964D01*
X96094663Y-19808097D01*
X96094659Y-19808096D01*
X96094655Y-19808094D01*
X95866413Y-19746938D01*
X95866403Y-19746936D01*
X95631001Y-19726341D01*
X95630999Y-19726341D01*
X95395596Y-19746936D01*
X95395586Y-19746938D01*
X95167344Y-19808094D01*
X95167335Y-19808098D01*
X94953171Y-19907964D01*
X94953169Y-19907965D01*
X94759597Y-20043505D01*
X94592505Y-20210597D01*
X94462575Y-20396158D01*
X94407998Y-20439783D01*
X94338500Y-20446977D01*
X94276145Y-20415454D01*
X94259425Y-20396158D01*
X94129494Y-20210597D01*
X93962402Y-20043506D01*
X93962395Y-20043501D01*
X93768834Y-19907967D01*
X93768830Y-19907965D01*
X93768828Y-19907964D01*
X93554663Y-19808097D01*
X93554659Y-19808096D01*
X93554655Y-19808094D01*
X93326413Y-19746938D01*
X93326403Y-19746936D01*
X93091001Y-19726341D01*
X93090999Y-19726341D01*
X92855596Y-19746936D01*
X92855586Y-19746938D01*
X92627344Y-19808094D01*
X92627335Y-19808098D01*
X92413171Y-19907964D01*
X92413169Y-19907965D01*
X92219597Y-20043505D01*
X92052505Y-20210597D01*
X91922575Y-20396158D01*
X91867998Y-20439783D01*
X91798500Y-20446977D01*
X91736145Y-20415454D01*
X91719425Y-20396158D01*
X91589494Y-20210597D01*
X91422402Y-20043506D01*
X91422395Y-20043501D01*
X91228834Y-19907967D01*
X91228830Y-19907965D01*
X91228828Y-19907964D01*
X91014663Y-19808097D01*
X91014659Y-19808096D01*
X91014655Y-19808094D01*
X90786413Y-19746938D01*
X90786403Y-19746936D01*
X90551001Y-19726341D01*
X90550999Y-19726341D01*
X90315596Y-19746936D01*
X90315586Y-19746938D01*
X90087344Y-19808094D01*
X90087335Y-19808098D01*
X89873171Y-19907964D01*
X89873169Y-19907965D01*
X89679597Y-20043505D01*
X89512505Y-20210597D01*
X89382575Y-20396158D01*
X89327998Y-20439783D01*
X89258500Y-20446977D01*
X89196145Y-20415454D01*
X89179425Y-20396158D01*
X89049494Y-20210597D01*
X88882402Y-20043506D01*
X88882395Y-20043501D01*
X88688834Y-19907967D01*
X88688830Y-19907965D01*
X88688828Y-19907964D01*
X88474663Y-19808097D01*
X88474659Y-19808096D01*
X88474655Y-19808094D01*
X88246413Y-19746938D01*
X88246403Y-19746936D01*
X88011001Y-19726341D01*
X88010999Y-19726341D01*
X87775596Y-19746936D01*
X87775586Y-19746938D01*
X87547344Y-19808094D01*
X87547335Y-19808098D01*
X87333171Y-19907964D01*
X87333169Y-19907965D01*
X87139597Y-20043505D01*
X86972505Y-20210597D01*
X86842575Y-20396158D01*
X86787998Y-20439783D01*
X86718500Y-20446977D01*
X86656145Y-20415454D01*
X86639425Y-20396158D01*
X86509494Y-20210597D01*
X86342402Y-20043506D01*
X86342395Y-20043501D01*
X86148834Y-19907967D01*
X86148830Y-19907965D01*
X86148828Y-19907964D01*
X85934663Y-19808097D01*
X85934659Y-19808096D01*
X85934655Y-19808094D01*
X85706413Y-19746938D01*
X85706403Y-19746936D01*
X85471001Y-19726341D01*
X85470999Y-19726341D01*
X85235596Y-19746936D01*
X85235586Y-19746938D01*
X85007344Y-19808094D01*
X85007335Y-19808098D01*
X84793171Y-19907964D01*
X84793169Y-19907965D01*
X84599597Y-20043505D01*
X84432505Y-20210597D01*
X84302575Y-20396158D01*
X84247998Y-20439783D01*
X84178500Y-20446977D01*
X84116145Y-20415454D01*
X84099425Y-20396158D01*
X83969494Y-20210597D01*
X83802402Y-20043506D01*
X83802395Y-20043501D01*
X83608834Y-19907967D01*
X83608830Y-19907965D01*
X83608828Y-19907964D01*
X83394663Y-19808097D01*
X83394659Y-19808096D01*
X83394655Y-19808094D01*
X83166413Y-19746938D01*
X83166403Y-19746936D01*
X82931001Y-19726341D01*
X82930999Y-19726341D01*
X82695596Y-19746936D01*
X82695586Y-19746938D01*
X82467344Y-19808094D01*
X82467335Y-19808098D01*
X82253171Y-19907964D01*
X82253169Y-19907965D01*
X82059597Y-20043505D01*
X81892505Y-20210597D01*
X81762575Y-20396158D01*
X81707998Y-20439783D01*
X81638500Y-20446977D01*
X81576145Y-20415454D01*
X81559425Y-20396158D01*
X81429494Y-20210597D01*
X81262402Y-20043506D01*
X81262395Y-20043501D01*
X81068834Y-19907967D01*
X81068830Y-19907965D01*
X81068828Y-19907964D01*
X80854663Y-19808097D01*
X80854659Y-19808096D01*
X80854655Y-19808094D01*
X80626413Y-19746938D01*
X80626403Y-19746936D01*
X80391001Y-19726341D01*
X80390999Y-19726341D01*
X80155596Y-19746936D01*
X80155586Y-19746938D01*
X79927344Y-19808094D01*
X79927335Y-19808098D01*
X79713171Y-19907964D01*
X79713169Y-19907965D01*
X79519597Y-20043505D01*
X79352505Y-20210597D01*
X79222575Y-20396158D01*
X79167998Y-20439783D01*
X79098500Y-20446977D01*
X79036145Y-20415454D01*
X79019425Y-20396158D01*
X78889494Y-20210597D01*
X78722402Y-20043506D01*
X78722395Y-20043501D01*
X78528834Y-19907967D01*
X78528830Y-19907965D01*
X78528828Y-19907964D01*
X78314663Y-19808097D01*
X78314659Y-19808096D01*
X78314655Y-19808094D01*
X78086413Y-19746938D01*
X78086403Y-19746936D01*
X77851001Y-19726341D01*
X77850999Y-19726341D01*
X77615596Y-19746936D01*
X77615586Y-19746938D01*
X77387344Y-19808094D01*
X77387335Y-19808098D01*
X77173171Y-19907964D01*
X77173169Y-19907965D01*
X76979597Y-20043505D01*
X76812505Y-20210597D01*
X76682575Y-20396158D01*
X76627998Y-20439783D01*
X76558500Y-20446977D01*
X76496145Y-20415454D01*
X76479425Y-20396158D01*
X76349494Y-20210597D01*
X76182402Y-20043506D01*
X76182395Y-20043501D01*
X75988834Y-19907967D01*
X75988830Y-19907965D01*
X75988828Y-19907964D01*
X75774663Y-19808097D01*
X75774659Y-19808096D01*
X75774655Y-19808094D01*
X75546413Y-19746938D01*
X75546403Y-19746936D01*
X75311001Y-19726341D01*
X75310999Y-19726341D01*
X75075596Y-19746936D01*
X75075586Y-19746938D01*
X74847344Y-19808094D01*
X74847335Y-19808098D01*
X74633171Y-19907964D01*
X74633169Y-19907965D01*
X74439597Y-20043505D01*
X74272505Y-20210597D01*
X74142575Y-20396158D01*
X74087998Y-20439783D01*
X74018500Y-20446977D01*
X73956145Y-20415454D01*
X73939425Y-20396158D01*
X73809494Y-20210597D01*
X73642402Y-20043506D01*
X73642395Y-20043501D01*
X73448834Y-19907967D01*
X73448830Y-19907965D01*
X73448828Y-19907964D01*
X73234663Y-19808097D01*
X73234659Y-19808096D01*
X73234655Y-19808094D01*
X73006413Y-19746938D01*
X73006403Y-19746936D01*
X72771001Y-19726341D01*
X72770999Y-19726341D01*
X72535596Y-19746936D01*
X72535586Y-19746938D01*
X72307344Y-19808094D01*
X72307335Y-19808098D01*
X72093171Y-19907964D01*
X72093169Y-19907965D01*
X71899597Y-20043505D01*
X71732505Y-20210597D01*
X71602575Y-20396158D01*
X71547998Y-20439783D01*
X71478500Y-20446977D01*
X71416145Y-20415454D01*
X71399425Y-20396158D01*
X71269494Y-20210597D01*
X71102402Y-20043506D01*
X71102395Y-20043501D01*
X70908834Y-19907967D01*
X70908830Y-19907965D01*
X70908828Y-19907964D01*
X70694663Y-19808097D01*
X70694659Y-19808096D01*
X70694655Y-19808094D01*
X70466413Y-19746938D01*
X70466403Y-19746936D01*
X70231001Y-19726341D01*
X70230999Y-19726341D01*
X69995596Y-19746936D01*
X69995586Y-19746938D01*
X69767344Y-19808094D01*
X69767335Y-19808098D01*
X69553171Y-19907964D01*
X69553169Y-19907965D01*
X69359597Y-20043505D01*
X69192505Y-20210597D01*
X69062575Y-20396158D01*
X69007998Y-20439783D01*
X68938500Y-20446977D01*
X68876145Y-20415454D01*
X68859425Y-20396158D01*
X68729494Y-20210597D01*
X68562402Y-20043506D01*
X68562395Y-20043501D01*
X68368834Y-19907967D01*
X68368830Y-19907965D01*
X68368828Y-19907964D01*
X68154663Y-19808097D01*
X68154659Y-19808096D01*
X68154655Y-19808094D01*
X67926413Y-19746938D01*
X67926403Y-19746936D01*
X67691001Y-19726341D01*
X67690999Y-19726341D01*
X67455596Y-19746936D01*
X67455586Y-19746938D01*
X67227344Y-19808094D01*
X67227335Y-19808098D01*
X67013171Y-19907964D01*
X67013169Y-19907965D01*
X66819600Y-20043503D01*
X66697673Y-20165430D01*
X66636350Y-20198914D01*
X66566658Y-20193930D01*
X66510725Y-20152058D01*
X66493810Y-20121081D01*
X66444797Y-19989671D01*
X66444793Y-19989664D01*
X66358547Y-19874455D01*
X66358544Y-19874452D01*
X66243335Y-19788206D01*
X66243328Y-19788202D01*
X66108482Y-19737908D01*
X66108483Y-19737908D01*
X66048883Y-19731501D01*
X66048881Y-19731500D01*
X66048873Y-19731500D01*
X66048864Y-19731500D01*
X64253129Y-19731500D01*
X64253123Y-19731501D01*
X64193516Y-19737908D01*
X64058671Y-19788202D01*
X64058664Y-19788206D01*
X63943455Y-19874452D01*
X63943452Y-19874455D01*
X63857206Y-19989664D01*
X63857202Y-19989671D01*
X63806908Y-20124517D01*
X63800501Y-20184116D01*
X63800500Y-20184135D01*
X63800500Y-21979870D01*
X54225026Y-21979870D01*
X54378495Y-21826401D01*
X54514035Y-21632830D01*
X54613903Y-21418663D01*
X54675063Y-21190408D01*
X54695659Y-20955000D01*
X54675063Y-20719592D01*
X54613903Y-20491337D01*
X54514035Y-20277171D01*
X54508425Y-20269158D01*
X54378494Y-20083597D01*
X54211402Y-19916506D01*
X54211395Y-19916501D01*
X54199204Y-19907965D01*
X54172521Y-19889281D01*
X54017834Y-19780967D01*
X54017830Y-19780965D01*
X54017828Y-19780964D01*
X53803663Y-19681097D01*
X53803659Y-19681096D01*
X53803655Y-19681094D01*
X53575413Y-19619938D01*
X53575403Y-19619936D01*
X53340001Y-19599341D01*
X53339999Y-19599341D01*
X53104596Y-19619936D01*
X53104586Y-19619938D01*
X52876344Y-19681094D01*
X52876335Y-19681098D01*
X52662171Y-19780964D01*
X52662169Y-19780965D01*
X52468597Y-19916505D01*
X52301505Y-20083597D01*
X52171575Y-20269158D01*
X52116998Y-20312783D01*
X52047500Y-20319977D01*
X51985145Y-20288454D01*
X51968425Y-20269158D01*
X51838494Y-20083597D01*
X51671402Y-19916506D01*
X51671395Y-19916501D01*
X51659204Y-19907965D01*
X51632521Y-19889281D01*
X51477834Y-19780967D01*
X51477830Y-19780965D01*
X51477828Y-19780964D01*
X51263663Y-19681097D01*
X51263659Y-19681096D01*
X51263655Y-19681094D01*
X51035413Y-19619938D01*
X51035403Y-19619936D01*
X50800001Y-19599341D01*
X50799999Y-19599341D01*
X50564596Y-19619936D01*
X50564586Y-19619938D01*
X50336344Y-19681094D01*
X50336335Y-19681098D01*
X50122171Y-19780964D01*
X50122169Y-19780965D01*
X49928600Y-19916503D01*
X49806673Y-20038430D01*
X49745350Y-20071914D01*
X49675658Y-20066930D01*
X49619725Y-20025058D01*
X49602810Y-19994081D01*
X49553797Y-19862671D01*
X49553793Y-19862664D01*
X49467547Y-19747455D01*
X49467544Y-19747452D01*
X49352335Y-19661206D01*
X49352328Y-19661202D01*
X49217482Y-19610908D01*
X49217483Y-19610908D01*
X49157883Y-19604501D01*
X49157881Y-19604500D01*
X49157873Y-19604500D01*
X49157864Y-19604500D01*
X47362129Y-19604500D01*
X47362123Y-19604501D01*
X47302516Y-19610908D01*
X47167671Y-19661202D01*
X47167664Y-19661206D01*
X47052455Y-19747452D01*
X47052452Y-19747455D01*
X46966206Y-19862664D01*
X46966202Y-19862671D01*
X46915908Y-19997517D01*
X46909501Y-20057116D01*
X46909500Y-20057135D01*
X46909500Y-21852870D01*
X43815000Y-21852870D01*
X43815000Y-18539000D01*
X43834685Y-18471961D01*
X43887489Y-18426206D01*
X43939000Y-18415000D01*
X146561000Y-18415000D01*
X146628039Y-18434685D01*
G37*
%TD.AperFunction*%
%TD*%
M02*
