%TF.GenerationSoftware,KiCad,Pcbnew,7.0.10*%
%TF.CreationDate,2024-01-11T09:38:06+00:00*%
%TF.ProjectId,Breakout,42726561-6b6f-4757-942e-6b696361645f,rev?*%
%TF.SameCoordinates,Original*%
%TF.FileFunction,Soldermask,Top*%
%TF.FilePolarity,Negative*%
%FSLAX46Y46*%
G04 Gerber Fmt 4.6, Leading zero omitted, Abs format (unit mm)*
G04 Created by KiCad (PCBNEW 7.0.10) date 2024-01-11 09:38:06*
%MOMM*%
%LPD*%
G01*
G04 APERTURE LIST*
%ADD10R,1.700000X1.700000*%
%ADD11O,1.700000X1.700000*%
%ADD12C,1.400000*%
%ADD13O,1.400000X1.400000*%
%ADD14R,1.800000X1.800000*%
%ADD15C,1.800000*%
%ADD16R,1.000000X1.000000*%
%ADD17O,1.000000X1.000000*%
%ADD18R,1.600000X1.600000*%
%ADD19O,1.600000X1.600000*%
%ADD20C,2.499360*%
%ADD21R,2.400000X1.600000*%
%ADD22O,2.400000X1.600000*%
%ADD23C,1.700000*%
G04 APERTURE END LIST*
D10*
%TO.C,J6*%
X48260000Y-20955000D03*
D11*
X50800000Y-20955000D03*
X53340000Y-20955000D03*
X55880000Y-20955000D03*
%TD*%
D12*
%TO.C,R2*%
X83566000Y-98933000D03*
D13*
X83566000Y-93853000D03*
%TD*%
D14*
%TO.C,D9*%
X142494000Y-96774000D03*
D15*
X139954000Y-96774000D03*
%TD*%
D14*
%TO.C,D2*%
X106934000Y-96774000D03*
D15*
X104394000Y-96774000D03*
%TD*%
D10*
%TO.C,J5*%
X65151000Y-21082000D03*
D11*
X67691000Y-21082000D03*
X70231000Y-21082000D03*
X72771000Y-21082000D03*
X75311000Y-21082000D03*
X77851000Y-21082000D03*
X80391000Y-21082000D03*
X82931000Y-21082000D03*
X85471000Y-21082000D03*
X88011000Y-21082000D03*
X90551000Y-21082000D03*
X93091000Y-21082000D03*
X95631000Y-21082000D03*
X98171000Y-21082000D03*
X100711000Y-21082000D03*
X103251000Y-21082000D03*
X105791000Y-21082000D03*
X108331000Y-21082000D03*
X110871000Y-21082000D03*
X113411000Y-21082000D03*
X115951000Y-21082000D03*
X118491000Y-21082000D03*
X121031000Y-21082000D03*
X123571000Y-21082000D03*
X126111000Y-21082000D03*
X128651000Y-21082000D03*
X131191000Y-21082000D03*
X133731000Y-21082000D03*
X136271000Y-21082000D03*
X138811000Y-21082000D03*
X141351000Y-21082000D03*
X143891000Y-21082000D03*
%TD*%
D16*
%TO.C,J7*%
X71831200Y-32486600D03*
D17*
X71831200Y-33756600D03*
X73101200Y-32486600D03*
X73101200Y-33756600D03*
X74371200Y-32486600D03*
X74371200Y-33756600D03*
X75641200Y-32486600D03*
X75641200Y-33756600D03*
X76911200Y-32486600D03*
X76911200Y-33756600D03*
X78181200Y-32486600D03*
X78181200Y-33756600D03*
X79451200Y-32486600D03*
X79451200Y-33756600D03*
X80721200Y-32486600D03*
X80721200Y-33756600D03*
X81991200Y-32486600D03*
X81991200Y-33756600D03*
X83261200Y-32486600D03*
X83261200Y-33756600D03*
X84531200Y-32486600D03*
X84531200Y-33756600D03*
X85801200Y-32486600D03*
X85801200Y-33756600D03*
X87071200Y-32486600D03*
X87071200Y-33756600D03*
X88341200Y-32486600D03*
X88341200Y-33756600D03*
X89611200Y-32486600D03*
X89611200Y-33756600D03*
X90881200Y-32486600D03*
X90881200Y-33756600D03*
X92151200Y-32486600D03*
X92151200Y-33756600D03*
X93421200Y-32486600D03*
X93421200Y-33756600D03*
X94691200Y-32486600D03*
X94691200Y-33756600D03*
X95961200Y-32486600D03*
X95961200Y-33756600D03*
X97231200Y-32486600D03*
X97231200Y-33756600D03*
X98501200Y-32486600D03*
X98501200Y-33756600D03*
X99771200Y-32486600D03*
X99771200Y-33756600D03*
X101041200Y-32486600D03*
X101041200Y-33756600D03*
X102311200Y-32486600D03*
X102311200Y-33756600D03*
X103581200Y-32486600D03*
X103581200Y-33756600D03*
X104851200Y-32486600D03*
X104851200Y-33756600D03*
X106121200Y-32486600D03*
X106121200Y-33756600D03*
X107391200Y-32486600D03*
X107391200Y-33756600D03*
X108661200Y-32486600D03*
X108661200Y-33756600D03*
X109931200Y-32486600D03*
X109931200Y-33756600D03*
X111201200Y-32486600D03*
X111201200Y-33756600D03*
X112471200Y-32486600D03*
X112471200Y-33756600D03*
X113741200Y-32486600D03*
X113741200Y-33756600D03*
X115011200Y-32486600D03*
X115011200Y-33756600D03*
X116281200Y-32486600D03*
X116281200Y-33756600D03*
X117551200Y-32486600D03*
X117551200Y-33756600D03*
X118821200Y-32486600D03*
X118821200Y-33756600D03*
X120091200Y-32486600D03*
X120091200Y-33756600D03*
X121361200Y-32486600D03*
X121361200Y-33756600D03*
%TD*%
D14*
%TO.C,D7*%
X132334000Y-96774000D03*
D15*
X129794000Y-96774000D03*
%TD*%
D18*
%TO.C,D1*%
X69342000Y-93980000D03*
D19*
X69342000Y-101600000D03*
%TD*%
D20*
%TO.C,J2*%
X49621540Y-108994700D03*
X59624060Y-108994700D03*
X62120880Y-98999800D03*
X54622800Y-98997260D03*
X47124720Y-98999800D03*
X59618980Y-96497900D03*
X49626620Y-96497900D03*
%TD*%
D14*
%TO.C,D5*%
X122174000Y-96774000D03*
D15*
X119634000Y-96774000D03*
%TD*%
D14*
%TO.C,D4*%
X117094000Y-96774000D03*
D15*
X114554000Y-96774000D03*
%TD*%
D21*
%TO.C,U1*%
X72400000Y-93970000D03*
D22*
X72400000Y-96510000D03*
X72400000Y-99050000D03*
X80020000Y-99050000D03*
X80020000Y-96510000D03*
X80020000Y-93970000D03*
%TD*%
D10*
%TO.C,J4*%
X86614000Y-106750000D03*
D11*
X84074000Y-106750000D03*
X81534000Y-106750000D03*
X78994000Y-106750000D03*
X76454000Y-106750000D03*
X73914000Y-106750000D03*
%TD*%
D14*
%TO.C,D3*%
X112009000Y-96774000D03*
D15*
X109469000Y-96774000D03*
%TD*%
D10*
%TO.C,J1*%
X115316000Y-104267000D03*
D11*
X112776000Y-104267000D03*
X110236000Y-104267000D03*
X107696000Y-104267000D03*
X105156000Y-104267000D03*
D23*
X102616000Y-104267000D03*
D11*
X115316000Y-106807000D03*
X112776000Y-106807000D03*
X110236000Y-106807000D03*
X107696000Y-106807000D03*
X105156000Y-106807000D03*
X102616000Y-106807000D03*
%TD*%
D10*
%TO.C,J3*%
X141986000Y-104207000D03*
D11*
X139446000Y-104207000D03*
X136906000Y-104207000D03*
X134366000Y-104207000D03*
X131826000Y-104207000D03*
D23*
X129286000Y-104207000D03*
D11*
X141986000Y-106747000D03*
X139446000Y-106747000D03*
X136906000Y-106747000D03*
X134366000Y-106747000D03*
X131826000Y-106747000D03*
X129286000Y-106747000D03*
%TD*%
D14*
%TO.C,D6*%
X127254000Y-96774000D03*
D15*
X124714000Y-96774000D03*
%TD*%
D12*
%TO.C,R1*%
X66675000Y-100965000D03*
D13*
X66675000Y-95885000D03*
%TD*%
D14*
%TO.C,D8*%
X137414000Y-96774000D03*
D15*
X134874000Y-96774000D03*
%TD*%
D16*
%TO.C,J8*%
X71831200Y-85318600D03*
D17*
X71831200Y-86588600D03*
X73101200Y-85318600D03*
X73101200Y-86588600D03*
X74371200Y-85318600D03*
X74371200Y-86588600D03*
X75641200Y-85318600D03*
X75641200Y-86588600D03*
X76911200Y-85318600D03*
X76911200Y-86588600D03*
X78181200Y-85318600D03*
X78181200Y-86588600D03*
X79451200Y-85318600D03*
X79451200Y-86588600D03*
X80721200Y-85318600D03*
X80721200Y-86588600D03*
X81991200Y-85318600D03*
X81991200Y-86588600D03*
X83261200Y-85318600D03*
X83261200Y-86588600D03*
X84531200Y-85318600D03*
X84531200Y-86588600D03*
X85801200Y-85318600D03*
X85801200Y-86588600D03*
X87071200Y-85318600D03*
X87071200Y-86588600D03*
X88341200Y-85318600D03*
X88341200Y-86588600D03*
X89611200Y-85318600D03*
X89611200Y-86588600D03*
X90881200Y-85318600D03*
X90881200Y-86588600D03*
X92151200Y-85318600D03*
X92151200Y-86588600D03*
X93421200Y-85318600D03*
X93421200Y-86588600D03*
X94691200Y-85318600D03*
X94691200Y-86588600D03*
X95961200Y-85318600D03*
X95961200Y-86588600D03*
X97231200Y-85318600D03*
X97231200Y-86588600D03*
X98501200Y-85318600D03*
X98501200Y-86588600D03*
X99771200Y-85318600D03*
X99771200Y-86588600D03*
X101041200Y-85318600D03*
X101041200Y-86588600D03*
X102311200Y-85318600D03*
X102311200Y-86588600D03*
X103581200Y-85318600D03*
X103581200Y-86588600D03*
X104851200Y-85318600D03*
X104851200Y-86588600D03*
X106121200Y-85318600D03*
X106121200Y-86588600D03*
X107391200Y-85318600D03*
X107391200Y-86588600D03*
X108661200Y-85318600D03*
X108661200Y-86588600D03*
X109931200Y-85318600D03*
X109931200Y-86588600D03*
X111201200Y-85318600D03*
X111201200Y-86588600D03*
X112471200Y-85318600D03*
X112471200Y-86588600D03*
X113741200Y-85318600D03*
X113741200Y-86588600D03*
X115011200Y-85318600D03*
X115011200Y-86588600D03*
X116281200Y-85318600D03*
X116281200Y-86588600D03*
X117551200Y-85318600D03*
X117551200Y-86588600D03*
X118821200Y-85318600D03*
X118821200Y-86588600D03*
X120091200Y-85318600D03*
X120091200Y-86588600D03*
X121361200Y-85318600D03*
X121361200Y-86588600D03*
%TD*%
M02*
